<?xml version="1.0" encoding="utf-8" standalone="no"?>
<!DOCTYPE svg PUBLIC "-//W3C//DTD SVG 1.1//EN"
  "http://www.w3.org/Graphics/SVG/1.1/DTD/svg11.dtd">
<!-- Created with matplotlib (https://matplotlib.org/) -->
<svg height="576pt" version="1.1" viewBox="0 0 576 576" width="576pt" xmlns="http://www.w3.org/2000/svg" xmlns:xlink="http://www.w3.org/1999/xlink">
 <defs>
  <style type="text/css">
*{stroke-linecap:butt;stroke-linejoin:round;}
  </style>
 </defs>
 <g id="figure_1">
  <g id="patch_1">
   <path d="M 0 576 
L 576 576 
L 576 0 
L 0 0 
z
" style="fill:none;"/>
  </g>
  <g id="axes_1">
   <g id="patch_2">
    <path d="M 115.2 460.8 
L 518.4 460.8 
L 518.4 57.6 
L 115.2 57.6 
z
" style="fill:none;"/>
   </g>
   <g id="matplotlib.axis_1">
    <g id="xtick_1">
     <g id="line2d_1">
      <defs>
       <path d="M 0 0 
L 0 3.5 
" id="m784b44792b" style="stroke:#000000;stroke-width:0.85;"/>
      </defs>
      <g>
       <use style="stroke:#000000;stroke-width:0.85;" x="135.36" xlink:href="#m784b44792b" y="460.8"/>
      </g>
     </g>
     <g id="text_1">
      <text style="font-family:Helvetica;font-size:7.5px;font-style:normal;font-weight:medium;text-anchor:middle;" transform="rotate(-0, 135.36, 473.180078)" x="135.36" y="473.180078">−100</text>
     </g>
    </g>
    <g id="xtick_2">
     <g id="line2d_2">
      <g>
       <use style="stroke:#000000;stroke-width:0.85;" x="185.76" xlink:href="#m784b44792b" y="460.8"/>
      </g>
     </g>
     <g id="text_2">
      <text style="font-family:Helvetica;font-size:7.5px;font-style:normal;font-weight:medium;text-anchor:middle;" transform="rotate(-0, 185.76, 473.180078)" x="185.76" y="473.180078">−75</text>
     </g>
    </g>
    <g id="xtick_3">
     <g id="line2d_3">
      <g>
       <use style="stroke:#000000;stroke-width:0.85;" x="236.16" xlink:href="#m784b44792b" y="460.8"/>
      </g>
     </g>
     <g id="text_3">
      <text style="font-family:Helvetica;font-size:7.5px;font-style:normal;font-weight:medium;text-anchor:middle;" transform="rotate(-0, 236.16, 473.180078)" x="236.16" y="473.180078">−50</text>
     </g>
    </g>
    <g id="xtick_4">
     <g id="line2d_4">
      <g>
       <use style="stroke:#000000;stroke-width:0.85;" x="286.56" xlink:href="#m784b44792b" y="460.8"/>
      </g>
     </g>
     <g id="text_4">
      <text style="font-family:Helvetica;font-size:7.5px;font-style:normal;font-weight:medium;text-anchor:middle;" transform="rotate(-0, 286.56, 473.180078)" x="286.56" y="473.180078">−25</text>
     </g>
    </g>
    <g id="xtick_5">
     <g id="line2d_5">
      <g>
       <use style="stroke:#000000;stroke-width:0.85;" x="336.96" xlink:href="#m784b44792b" y="460.8"/>
      </g>
     </g>
     <g id="text_5">
      <text style="font-family:Helvetica;font-size:7.5px;font-style:normal;font-weight:medium;text-anchor:middle;" transform="rotate(-0, 336.96, 473.180078)" x="336.96" y="473.180078">0</text>
     </g>
    </g>
    <g id="xtick_6">
     <g id="line2d_6">
      <g>
       <use style="stroke:#000000;stroke-width:0.85;" x="387.36" xlink:href="#m784b44792b" y="460.8"/>
      </g>
     </g>
     <g id="text_6">
      <text style="font-family:Helvetica;font-size:7.5px;font-style:normal;font-weight:medium;text-anchor:middle;" transform="rotate(-0, 387.36, 473.180078)" x="387.36" y="473.180078">25</text>
     </g>
    </g>
    <g id="xtick_7">
     <g id="line2d_7">
      <g>
       <use style="stroke:#000000;stroke-width:0.85;" x="437.76" xlink:href="#m784b44792b" y="460.8"/>
      </g>
     </g>
     <g id="text_7">
      <text style="font-family:Helvetica;font-size:7.5px;font-style:normal;font-weight:medium;text-anchor:middle;" transform="rotate(-0, 437.76, 473.180078)" x="437.76" y="473.180078">50</text>
     </g>
    </g>
    <g id="xtick_8">
     <g id="line2d_8">
      <g>
       <use style="stroke:#000000;stroke-width:0.85;" x="488.16" xlink:href="#m784b44792b" y="460.8"/>
      </g>
     </g>
     <g id="text_8">
      <text style="font-family:Helvetica;font-size:7.5px;font-style:normal;font-weight:medium;text-anchor:middle;" transform="rotate(-0, 488.16, 473.180078)" x="488.16" y="473.180078">75</text>
     </g>
    </g>
   </g>
   <g id="matplotlib.axis_2">
    <g id="ytick_1">
     <g id="line2d_9">
      <defs>
       <path d="M 0 0 
L -3.5 0 
" id="m265d0c796d" style="stroke:#000000;stroke-width:0.85;"/>
      </defs>
      <g>
       <use style="stroke:#000000;stroke-width:0.85;" x="115.2" xlink:href="#m265d0c796d" y="334.110843"/>
      </g>
     </g>
     <g id="text_9">
      <!-- $\mathdefault{10^{-6}}$ -->
      <g transform="translate(93.575 336.800882)">
       <text>
        <tspan style="font-family:Helvetica;font-size:7.5px;font-style:regular;font-weight:regular;" x="0 4.171143" y="-0.5687500000000005">10</tspan>
        <tspan style="font-family:Helvetica;font-size:5.25px;font-style:regular;font-weight:regular;" x="8.410918 11.476836" y="-3.3140625000000004">−6</tspan>
       </text>
      </g>
     </g>
    </g>
    <g id="ytick_2">
     <g id="line2d_10">
      <defs>
       <path d="M 0 0 
L -1.8 0 
" id="m63a1a11b72" style="stroke:#000000;stroke-width:0.85;"/>
      </defs>
      <g>
       <use style="stroke:#000000;stroke-width:0.85;" x="115.2" xlink:href="#m63a1a11b72" y="460.743357"/>
      </g>
     </g>
    </g>
    <g id="ytick_3">
     <g id="line2d_11">
      <g>
       <use style="stroke:#000000;stroke-width:0.85;" x="115.2" xlink:href="#m63a1a11b72" y="427.434649"/>
      </g>
     </g>
     <g id="text_10">
      <!-- $\mathdefault{6\times10^{-7}}$ -->
      <g transform="translate(85.95 430.124688)">
       <text>
        <tspan style="font-family:Helvetica;font-size:7.5px;font-style:regular;font-weight:regular;" x="0 5.420654 11.050049 15.221191" y="-0.6453125000000011">6×10</tspan>
        <tspan style="font-family:Helvetica;font-size:5.25px;font-style:regular;font-weight:regular;" x="19.460967 22.526885" y="-3.390625000000001">−7</tspan>
       </text>
      </g>
     </g>
    </g>
    <g id="ytick_4">
     <g id="line2d_12">
      <g>
       <use style="stroke:#000000;stroke-width:0.85;" x="115.2" xlink:href="#m63a1a11b72" y="399.272537"/>
      </g>
     </g>
    </g>
    <g id="ytick_5">
     <g id="line2d_13">
      <g>
       <use style="stroke:#000000;stroke-width:0.85;" x="115.2" xlink:href="#m63a1a11b72" y="374.877407"/>
      </g>
     </g>
    </g>
    <g id="ytick_6">
     <g id="line2d_14">
      <g>
       <use style="stroke:#000000;stroke-width:0.85;" x="115.2" xlink:href="#m63a1a11b72" y="353.359377"/>
      </g>
     </g>
    </g>
    <g id="ytick_7">
     <g id="line2d_15">
      <g>
       <use style="stroke:#000000;stroke-width:0.85;" x="115.2" xlink:href="#m63a1a11b72" y="207.478329"/>
      </g>
     </g>
     <g id="text_11">
      <!-- $\mathdefault{2\times10^{-6}}$ -->
      <g transform="translate(85.95 210.168368)">
       <text>
        <tspan style="font-family:Helvetica;font-size:7.5px;font-style:regular;font-weight:regular;" x="0 5.420654 11.050049 15.221191" y="-0.5687500000000005">2×10</tspan>
        <tspan style="font-family:Helvetica;font-size:5.25px;font-style:regular;font-weight:regular;" x="19.460967 22.526885" y="-3.3140625000000004">−6</tspan>
       </text>
      </g>
     </g>
    </g>
    <g id="ytick_8">
     <g id="line2d_16">
      <g>
       <use style="stroke:#000000;stroke-width:0.85;" x="115.2" xlink:href="#m63a1a11b72" y="133.403057"/>
      </g>
     </g>
     <g id="text_12">
      <!-- $\mathdefault{3\times10^{-6}}$ -->
      <g transform="translate(85.95 136.093096)">
       <text>
        <tspan style="font-family:Helvetica;font-size:7.5px;font-style:regular;font-weight:regular;" x="0 5.420654 11.050049 15.221191" y="-0.5687500000000005">3×10</tspan>
        <tspan style="font-family:Helvetica;font-size:5.25px;font-style:regular;font-weight:regular;" x="19.460967 22.526885" y="-3.3140625000000004">−6</tspan>
       </text>
      </g>
     </g>
    </g>
    <g id="ytick_9">
     <g id="line2d_17">
      <g>
       <use style="stroke:#000000;stroke-width:0.85;" x="115.2" xlink:href="#m63a1a11b72" y="80.845815"/>
      </g>
     </g>
     <g id="text_13">
      <!-- $\mathdefault{4\times10^{-6}}$ -->
      <g transform="translate(85.95 83.535854)">
       <text>
        <tspan style="font-family:Helvetica;font-size:7.5px;font-style:regular;font-weight:regular;" x="0 5.420654 11.050049 15.221191" y="-0.5687500000000005">4×10</tspan>
        <tspan style="font-family:Helvetica;font-size:5.25px;font-style:regular;font-weight:regular;" x="19.460967 22.526885" y="-3.3140625000000004">−6</tspan>
       </text>
      </g>
     </g>
    </g>
   </g>
   <g id="line2d_18">
    <path clip-path="url(#p468543ae54)" d="M 115.2 408.486891 
L 117.216 425.801698 
L 119.232 429.1318 
L 121.248 442.271084 
L 123.264 425.861761 
L 125.28 343.155092 
L 127.296 391.540953 
L 129.312 364.365758 
L 131.328 440.221558 
L 133.344 427.909656 
L 135.36 397.273897 
L 137.376 424.816641 
L 139.392 435.494221 
L 141.408 434.593338 
L 143.424 449.41891 
L 145.44 445.717808 
L 147.456 448.044562 
L 149.472 452.277837 
L 151.488 434.393638 
L 153.504 417.775298 
L 155.52 416.177697 
L 157.536 448.007413 
L 159.552 460.8 
L 161.568 460.385995 
L 165.6 448.71214 
L 167.616 437.844695 
L 169.632 438.646825 
L 171.648 416.535338 
L 173.664 408.817401 
L 175.68 422.573012 
L 177.696 420.057195 
L 179.712 416.630885 
L 181.728 416.903454 
L 183.744 419.467136 
L 185.76 423.294909 
L 187.776 434.82274 
L 189.792 432.115921 
L 191.808 417.90444 
L 193.824 417.006959 
L 195.84 414.663778 
L 197.856 415.873336 
L 199.872 414.931436 
L 201.888 403.277401 
L 203.904 403.071302 
L 205.92 391.608262 
L 207.936 366.613104 
L 209.952 421.186851 
L 211.968 384.019104 
L 213.984 369.449313 
L 216 368.941707 
L 218.016 348.741123 
L 220.032 382.24703 
L 224.064 398.796853 
L 226.08 391.906823 
L 228.096 392.207631 
L 230.112 389.384471 
L 232.128 387.78886 
L 236.16 381.000645 
L 238.176 368.481368 
L 240.192 379.060629 
L 242.208 371.872085 
L 244.224 372.762926 
L 246.24 366.308442 
L 248.256 365.861637 
L 250.272 326.312474 
L 252.288 342.270173 
L 254.304 360.960228 
L 256.32 345.665878 
L 258.336 346.038177 
L 260.352 350.422882 
L 262.368 341.770914 
L 264.384 346.596975 
L 266.4 334.890774 
L 268.416 339.339993 
L 270.432 340.443666 
L 272.448 318.497639 
L 274.464 319.124336 
L 276.48 314.62916 
L 278.496 307.356696 
L 280.512 305.921591 
L 282.528 313.303852 
L 284.544 317.610839 
L 286.56 314.588111 
L 288.576 311.090377 
L 290.592 320.189432 
L 292.608 318.830042 
L 294.624 312.020463 
L 296.64 310.328529 
L 298.656 311.793964 
L 300.672 308.764994 
L 302.688 303.733374 
L 304.704 301.701056 
L 306.72 301.51297 
L 308.736 298.776391 
L 310.752 295.245365 
L 312.768 293.101825 
L 314.784 292.75477 
L 316.8 287.019875 
L 318.816 279.1894 
L 322.848 280.883893 
L 324.864 279.016353 
L 326.88 276.94178 
L 328.896 273.416809 
L 330.912 272.969165 
L 332.928 270.574276 
L 334.944 261.934441 
L 336.96 258.047773 
L 338.976 251.708709 
L 340.992 249.490293 
L 343.008 246.858283 
L 345.024 245.970886 
L 347.04 250.438902 
L 349.056 244.365349 
L 351.072 245.19667 
L 353.088 243.285366 
L 355.104 239.670916 
L 357.12 235.467422 
L 359.136 235.085595 
L 361.152 228.504552 
L 363.168 226.197822 
L 365.184 224.612809 
L 367.2 219.706042 
L 369.216 215.396349 
L 371.232 212.599977 
L 373.248 207.279303 
L 375.264 202.471469 
L 377.28 200.240128 
L 379.296 196.7917 
L 381.312 194.415529 
L 383.328 190.073386 
L 385.344 191.923 
L 387.36 181.358078 
L 389.376 179.505271 
L 391.392 172.812854 
L 393.408 179.704459 
L 395.424 176.961678 
L 397.44 180.031158 
L 399.456 171.150597 
L 401.472 172.082156 
L 403.488 156.209948 
L 405.504 171.554615 
L 407.52 169.06754 
L 409.536 163.939903 
L 411.552 148.89389 
L 413.568 138.172132 
L 415.584 139.363032 
L 417.6 137.867972 
L 419.616 135.021549 
L 421.632 136.375143 
L 423.648 137.309686 
L 425.664 134.456568 
L 427.68 133.250877 
L 429.696 130.536091 
L 431.712 128.232441 
L 433.728 114.430597 
L 435.744 111.2091 
L 437.76 112.327271 
L 439.776 105.974752 
L 441.792 109.372304 
L 443.808 108.129314 
L 445.824 105.483304 
L 447.84 105.327614 
L 449.856 102.822006 
L 451.872 97.079069 
L 453.888 95.924151 
L 455.904 98.612953 
L 457.92 96.747421 
L 459.936 94.510998 
L 461.952 91.15999 
L 463.968 89.653622 
L 465.984 87.233968 
L 468 87.280327 
L 470.016 77.397817 
L 472.032 78.418054 
L 474.048 103.734483 
L 476.064 91.693318 
L 478.08 89.589408 
L 480.096 87.066609 
L 482.112 80.647245 
L 484.128 81.157571 
L 486.144 80.698351 
L 488.16 74.522117 
L 490.176 73.752538 
L 492.192 70.264758 
L 494.208 68.152048 
L 496.224 65.656615 
L 498.24 64.132702 
L 500.256 61.652554 
L 502.272 66.491118 
L 504.288 66.540524 
L 506.304 67.407089 
L 508.32 65.766344 
L 510.336 65.281678 
L 512.352 66.516031 
L 514.368 57.6 
L 516.384 67.496646 
L 518.4 66.525321 
L 518.4 66.525321 
" style="fill:none;stroke:#1f77b4;stroke-linecap:square;stroke-width:0.85;"/>
   </g>
   <g id="patch_3">
    <path d="M 115.2 460.8 
L 115.2 57.6 
" style="fill:none;stroke:#000000;stroke-linecap:square;stroke-linejoin:miter;stroke-width:0.85;"/>
   </g>
   <g id="patch_4">
    <path d="M 518.4 460.8 
L 518.4 57.6 
" style="fill:none;stroke:#000000;stroke-linecap:square;stroke-linejoin:miter;stroke-width:0.85;"/>
   </g>
   <g id="patch_5">
    <path d="M 115.2 460.8 
L 518.4 460.8 
" style="fill:none;stroke:#000000;stroke-linecap:square;stroke-linejoin:miter;stroke-width:0.85;"/>
   </g>
   <g id="patch_6">
    <path d="M 115.2 57.6 
L 518.4 57.6 
" style="fill:none;stroke:#000000;stroke-linecap:square;stroke-linejoin:miter;stroke-width:0.85;"/>
   </g>
  </g>
 </g>
 <defs>
  <clipPath id="p468543ae54">
   <rect height="403.2" width="403.2" x="115.2" y="57.6"/>
  </clipPath>
 </defs>
</svg>
