<?xml version="1.0" encoding="utf-8" standalone="no"?>
<!DOCTYPE svg PUBLIC "-//W3C//DTD SVG 1.1//EN"
  "http://www.w3.org/Graphics/SVG/1.1/DTD/svg11.dtd">
<!-- Created with matplotlib (https://matplotlib.org/) -->
<svg height="576pt" version="1.1" viewBox="0 0 576 576" width="576pt" xmlns="http://www.w3.org/2000/svg" xmlns:xlink="http://www.w3.org/1999/xlink">
 <defs>
  <style type="text/css">
*{stroke-linecap:butt;stroke-linejoin:round;}
  </style>
 </defs>
 <g id="figure_1">
  <g id="patch_1">
   <path d="M 0 576 
L 576 576 
L 576 0 
L 0 0 
z
" style="fill:none;"/>
  </g>
  <g id="axes_1">
   <g id="patch_2">
    <path d="M 115.2 460.8 
L 518.4 460.8 
L 518.4 57.6 
L 115.2 57.6 
z
" style="fill:none;"/>
   </g>
   <g id="matplotlib.axis_1">
    <g id="xtick_1">
     <g id="line2d_1">
      <defs>
       <path d="M 0 0 
L 0 3.5 
" id="m896ad300c6" style="stroke:#000000;stroke-width:0.85;"/>
      </defs>
      <g>
       <use style="stroke:#000000;stroke-width:0.85;" x="142.08" xlink:href="#m896ad300c6" y="460.8"/>
      </g>
     </g>
     <g id="text_1">
      <text style="font-family:Helvetica;font-size:7.5px;font-style:normal;font-weight:medium;text-anchor:middle;" transform="rotate(-0, 142.08, 473.180078)" x="142.08" y="473.180078">−40</text>
     </g>
    </g>
    <g id="xtick_2">
     <g id="line2d_2">
      <g>
       <use style="stroke:#000000;stroke-width:0.85;" x="195.84" xlink:href="#m896ad300c6" y="460.8"/>
      </g>
     </g>
     <g id="text_2">
      <text style="font-family:Helvetica;font-size:7.5px;font-style:normal;font-weight:medium;text-anchor:middle;" transform="rotate(-0, 195.84, 473.180078)" x="195.84" y="473.180078">−20</text>
     </g>
    </g>
    <g id="xtick_3">
     <g id="line2d_3">
      <g>
       <use style="stroke:#000000;stroke-width:0.85;" x="249.6" xlink:href="#m896ad300c6" y="460.8"/>
      </g>
     </g>
     <g id="text_3">
      <text style="font-family:Helvetica;font-size:7.5px;font-style:normal;font-weight:medium;text-anchor:middle;" transform="rotate(-0, 249.6, 473.180078)" x="249.6" y="473.180078">0</text>
     </g>
    </g>
    <g id="xtick_4">
     <g id="line2d_4">
      <g>
       <use style="stroke:#000000;stroke-width:0.85;" x="303.36" xlink:href="#m896ad300c6" y="460.8"/>
      </g>
     </g>
     <g id="text_4">
      <text style="font-family:Helvetica;font-size:7.5px;font-style:normal;font-weight:medium;text-anchor:middle;" transform="rotate(-0, 303.36, 473.180078)" x="303.36" y="473.180078">20</text>
     </g>
    </g>
    <g id="xtick_5">
     <g id="line2d_5">
      <g>
       <use style="stroke:#000000;stroke-width:0.85;" x="357.12" xlink:href="#m896ad300c6" y="460.8"/>
      </g>
     </g>
     <g id="text_5">
      <text style="font-family:Helvetica;font-size:7.5px;font-style:normal;font-weight:medium;text-anchor:middle;" transform="rotate(-0, 357.12, 473.180078)" x="357.12" y="473.180078">40</text>
     </g>
    </g>
    <g id="xtick_6">
     <g id="line2d_6">
      <g>
       <use style="stroke:#000000;stroke-width:0.85;" x="410.88" xlink:href="#m896ad300c6" y="460.8"/>
      </g>
     </g>
     <g id="text_6">
      <text style="font-family:Helvetica;font-size:7.5px;font-style:normal;font-weight:medium;text-anchor:middle;" transform="rotate(-0, 410.88, 473.180078)" x="410.88" y="473.180078">60</text>
     </g>
    </g>
    <g id="xtick_7">
     <g id="line2d_7">
      <g>
       <use style="stroke:#000000;stroke-width:0.85;" x="464.64" xlink:href="#m896ad300c6" y="460.8"/>
      </g>
     </g>
     <g id="text_7">
      <text style="font-family:Helvetica;font-size:7.5px;font-style:normal;font-weight:medium;text-anchor:middle;" transform="rotate(-0, 464.64, 473.180078)" x="464.64" y="473.180078">80</text>
     </g>
    </g>
    <g id="xtick_8">
     <g id="line2d_8">
      <g>
       <use style="stroke:#000000;stroke-width:0.85;" x="518.4" xlink:href="#m896ad300c6" y="460.8"/>
      </g>
     </g>
     <g id="text_8">
      <text style="font-family:Helvetica;font-size:7.5px;font-style:normal;font-weight:medium;text-anchor:middle;" transform="rotate(-0, 518.4, 473.180078)" x="518.4" y="473.180078">100</text>
     </g>
    </g>
   </g>
   <g id="matplotlib.axis_2">
    <g id="ytick_1">
     <g id="line2d_9">
      <defs>
       <path d="M 0 0 
L -3.5 0 
" id="ma13f0ba6b4" style="stroke:#000000;stroke-width:0.85;"/>
      </defs>
      <g>
       <use style="stroke:#000000;stroke-width:0.85;" x="115.2" xlink:href="#ma13f0ba6b4" y="444.999921"/>
      </g>
     </g>
     <g id="text_9">
      <!-- $\mathdefault{10^{-9}}$ -->
      <g transform="translate(93.575 447.68996)">
       <text>
        <tspan style="font-family:Helvetica;font-size:7.5px;font-style:regular;font-weight:regular;" x="0 4.171143" y="-0.5796875000000004">10</tspan>
        <tspan style="font-family:Helvetica;font-size:5.25px;font-style:regular;font-weight:regular;" x="8.410918 11.476836" y="-3.325">−9</tspan>
       </text>
      </g>
     </g>
    </g>
    <g id="ytick_2">
     <g id="line2d_10">
      <g>
       <use style="stroke:#000000;stroke-width:0.85;" x="115.2" xlink:href="#ma13f0ba6b4" y="347.677897"/>
      </g>
     </g>
     <g id="text_10">
      <!-- $\mathdefault{10^{-8}}$ -->
      <g transform="translate(93.575 350.367936)">
       <text>
        <tspan style="font-family:Helvetica;font-size:7.5px;font-style:regular;font-weight:regular;" x="0 4.171143" y="-0.5687500000000005">10</tspan>
        <tspan style="font-family:Helvetica;font-size:5.25px;font-style:regular;font-weight:regular;" x="8.410918 11.476836" y="-3.3140625000000004">−8</tspan>
       </text>
      </g>
     </g>
    </g>
    <g id="ytick_3">
     <g id="line2d_11">
      <g>
       <use style="stroke:#000000;stroke-width:0.85;" x="115.2" xlink:href="#ma13f0ba6b4" y="250.355873"/>
      </g>
     </g>
     <g id="text_11">
      <!-- $\mathdefault{10^{-7}}$ -->
      <g transform="translate(93.575 253.045913)">
       <text>
        <tspan style="font-family:Helvetica;font-size:7.5px;font-style:regular;font-weight:regular;" x="0 4.171143" y="-0.6453125000000011">10</tspan>
        <tspan style="font-family:Helvetica;font-size:5.25px;font-style:regular;font-weight:regular;" x="8.410918 11.476836" y="-3.390625000000001">−7</tspan>
       </text>
      </g>
     </g>
    </g>
    <g id="ytick_4">
     <g id="line2d_12">
      <g>
       <use style="stroke:#000000;stroke-width:0.85;" x="115.2" xlink:href="#ma13f0ba6b4" y="153.03385"/>
      </g>
     </g>
     <g id="text_12">
      <!-- $\mathdefault{10^{-6}}$ -->
      <g transform="translate(93.575 155.723889)">
       <text>
        <tspan style="font-family:Helvetica;font-size:7.5px;font-style:regular;font-weight:regular;" x="0 4.171143" y="-0.5687500000000005">10</tspan>
        <tspan style="font-family:Helvetica;font-size:5.25px;font-style:regular;font-weight:regular;" x="8.410918 11.476836" y="-3.3140625000000004">−6</tspan>
       </text>
      </g>
     </g>
    </g>
    <g id="ytick_5">
     <g id="line2d_13">
      <defs>
       <path d="M 0 0 
L -1.8 0 
" id="me9fd4cbec3" style="stroke:#000000;stroke-width:0.85;"/>
      </defs>
      <g>
       <use style="stroke:#000000;stroke-width:0.85;" x="115.2" xlink:href="#me9fd4cbec3" y="460.075293"/>
      </g>
     </g>
    </g>
    <g id="ytick_6">
     <g id="line2d_14">
      <g>
       <use style="stroke:#000000;stroke-width:0.85;" x="115.2" xlink:href="#me9fd4cbec3" y="454.4314"/>
      </g>
     </g>
    </g>
    <g id="ytick_7">
     <g id="line2d_15">
      <g>
       <use style="stroke:#000000;stroke-width:0.85;" x="115.2" xlink:href="#me9fd4cbec3" y="449.453133"/>
      </g>
     </g>
    </g>
    <g id="ytick_8">
     <g id="line2d_16">
      <g>
       <use style="stroke:#000000;stroke-width:0.85;" x="115.2" xlink:href="#me9fd4cbec3" y="415.703073"/>
      </g>
     </g>
    </g>
    <g id="ytick_9">
     <g id="line2d_17">
      <g>
       <use style="stroke:#000000;stroke-width:0.85;" x="115.2" xlink:href="#me9fd4cbec3" y="398.565515"/>
      </g>
     </g>
    </g>
    <g id="ytick_10">
     <g id="line2d_18">
      <g>
       <use style="stroke:#000000;stroke-width:0.85;" x="115.2" xlink:href="#me9fd4cbec3" y="386.406224"/>
      </g>
     </g>
    </g>
    <g id="ytick_11">
     <g id="line2d_19">
      <g>
       <use style="stroke:#000000;stroke-width:0.85;" x="115.2" xlink:href="#me9fd4cbec3" y="376.974746"/>
      </g>
     </g>
    </g>
    <g id="ytick_12">
     <g id="line2d_20">
      <g>
       <use style="stroke:#000000;stroke-width:0.85;" x="115.2" xlink:href="#me9fd4cbec3" y="369.268667"/>
      </g>
     </g>
    </g>
    <g id="ytick_13">
     <g id="line2d_21">
      <g>
       <use style="stroke:#000000;stroke-width:0.85;" x="115.2" xlink:href="#me9fd4cbec3" y="362.75327"/>
      </g>
     </g>
    </g>
    <g id="ytick_14">
     <g id="line2d_22">
      <g>
       <use style="stroke:#000000;stroke-width:0.85;" x="115.2" xlink:href="#me9fd4cbec3" y="357.109376"/>
      </g>
     </g>
    </g>
    <g id="ytick_15">
     <g id="line2d_23">
      <g>
       <use style="stroke:#000000;stroke-width:0.85;" x="115.2" xlink:href="#me9fd4cbec3" y="352.131109"/>
      </g>
     </g>
    </g>
    <g id="ytick_16">
     <g id="line2d_24">
      <g>
       <use style="stroke:#000000;stroke-width:0.85;" x="115.2" xlink:href="#me9fd4cbec3" y="318.381049"/>
      </g>
     </g>
    </g>
    <g id="ytick_17">
     <g id="line2d_25">
      <g>
       <use style="stroke:#000000;stroke-width:0.85;" x="115.2" xlink:href="#me9fd4cbec3" y="301.243491"/>
      </g>
     </g>
    </g>
    <g id="ytick_18">
     <g id="line2d_26">
      <g>
       <use style="stroke:#000000;stroke-width:0.85;" x="115.2" xlink:href="#me9fd4cbec3" y="289.0842"/>
      </g>
     </g>
    </g>
    <g id="ytick_19">
     <g id="line2d_27">
      <g>
       <use style="stroke:#000000;stroke-width:0.85;" x="115.2" xlink:href="#me9fd4cbec3" y="279.652722"/>
      </g>
     </g>
    </g>
    <g id="ytick_20">
     <g id="line2d_28">
      <g>
       <use style="stroke:#000000;stroke-width:0.85;" x="115.2" xlink:href="#me9fd4cbec3" y="271.946643"/>
      </g>
     </g>
    </g>
    <g id="ytick_21">
     <g id="line2d_29">
      <g>
       <use style="stroke:#000000;stroke-width:0.85;" x="115.2" xlink:href="#me9fd4cbec3" y="265.431246"/>
      </g>
     </g>
    </g>
    <g id="ytick_22">
     <g id="line2d_30">
      <g>
       <use style="stroke:#000000;stroke-width:0.85;" x="115.2" xlink:href="#me9fd4cbec3" y="259.787352"/>
      </g>
     </g>
    </g>
    <g id="ytick_23">
     <g id="line2d_31">
      <g>
       <use style="stroke:#000000;stroke-width:0.85;" x="115.2" xlink:href="#me9fd4cbec3" y="254.809085"/>
      </g>
     </g>
    </g>
    <g id="ytick_24">
     <g id="line2d_32">
      <g>
       <use style="stroke:#000000;stroke-width:0.85;" x="115.2" xlink:href="#me9fd4cbec3" y="221.059025"/>
      </g>
     </g>
    </g>
    <g id="ytick_25">
     <g id="line2d_33">
      <g>
       <use style="stroke:#000000;stroke-width:0.85;" x="115.2" xlink:href="#me9fd4cbec3" y="203.921467"/>
      </g>
     </g>
    </g>
    <g id="ytick_26">
     <g id="line2d_34">
      <g>
       <use style="stroke:#000000;stroke-width:0.85;" x="115.2" xlink:href="#me9fd4cbec3" y="191.762177"/>
      </g>
     </g>
    </g>
    <g id="ytick_27">
     <g id="line2d_35">
      <g>
       <use style="stroke:#000000;stroke-width:0.85;" x="115.2" xlink:href="#me9fd4cbec3" y="182.330698"/>
      </g>
     </g>
    </g>
    <g id="ytick_28">
     <g id="line2d_36">
      <g>
       <use style="stroke:#000000;stroke-width:0.85;" x="115.2" xlink:href="#me9fd4cbec3" y="174.624619"/>
      </g>
     </g>
    </g>
    <g id="ytick_29">
     <g id="line2d_37">
      <g>
       <use style="stroke:#000000;stroke-width:0.85;" x="115.2" xlink:href="#me9fd4cbec3" y="168.109222"/>
      </g>
     </g>
    </g>
    <g id="ytick_30">
     <g id="line2d_38">
      <g>
       <use style="stroke:#000000;stroke-width:0.85;" x="115.2" xlink:href="#me9fd4cbec3" y="162.465328"/>
      </g>
     </g>
    </g>
    <g id="ytick_31">
     <g id="line2d_39">
      <g>
       <use style="stroke:#000000;stroke-width:0.85;" x="115.2" xlink:href="#me9fd4cbec3" y="157.487061"/>
      </g>
     </g>
    </g>
    <g id="ytick_32">
     <g id="line2d_40">
      <g>
       <use style="stroke:#000000;stroke-width:0.85;" x="115.2" xlink:href="#me9fd4cbec3" y="123.737001"/>
      </g>
     </g>
    </g>
    <g id="ytick_33">
     <g id="line2d_41">
      <g>
       <use style="stroke:#000000;stroke-width:0.85;" x="115.2" xlink:href="#me9fd4cbec3" y="106.599444"/>
      </g>
     </g>
    </g>
    <g id="ytick_34">
     <g id="line2d_42">
      <g>
       <use style="stroke:#000000;stroke-width:0.85;" x="115.2" xlink:href="#me9fd4cbec3" y="94.440153"/>
      </g>
     </g>
    </g>
    <g id="ytick_35">
     <g id="line2d_43">
      <g>
       <use style="stroke:#000000;stroke-width:0.85;" x="115.2" xlink:href="#me9fd4cbec3" y="85.008674"/>
      </g>
     </g>
    </g>
    <g id="ytick_36">
     <g id="line2d_44">
      <g>
       <use style="stroke:#000000;stroke-width:0.85;" x="115.2" xlink:href="#me9fd4cbec3" y="77.302595"/>
      </g>
     </g>
    </g>
    <g id="ytick_37">
     <g id="line2d_45">
      <g>
       <use style="stroke:#000000;stroke-width:0.85;" x="115.2" xlink:href="#me9fd4cbec3" y="70.787198"/>
      </g>
     </g>
    </g>
    <g id="ytick_38">
     <g id="line2d_46">
      <g>
       <use style="stroke:#000000;stroke-width:0.85;" x="115.2" xlink:href="#me9fd4cbec3" y="65.143305"/>
      </g>
     </g>
    </g>
    <g id="ytick_39">
     <g id="line2d_47">
      <g>
       <use style="stroke:#000000;stroke-width:0.85;" x="115.2" xlink:href="#me9fd4cbec3" y="60.165038"/>
      </g>
     </g>
    </g>
   </g>
   <g id="line2d_48">
    <path clip-path="url(#p2983ac3c40)" d="M 115.2 318.889389 
L 117.888 382.107779 
L 120.576 393.404801 
L 123.264 460.8 
L 125.952 361.47521 
L 128.64 437.456175 
L 131.328 458.365354 
L 134.016 359.876091 
L 136.704 357.676362 
L 139.392 416.892547 
L 142.08 447.408842 
L 144.768 359.231225 
L 147.456 429.652386 
L 150.144 448.212908 
L 152.832 358.880479 
L 155.52 355.937043 
L 158.208 394.430922 
L 160.896 357.687073 
L 163.584 354.869442 
L 166.272 347.962035 
L 168.96 341.496635 
L 174.336 431.258164 
L 177.024 356.319551 
L 179.712 407.05654 
L 182.4 435.218241 
L 185.088 356.190113 
L 187.776 419.293983 
L 190.464 434.678449 
L 193.152 355.830804 
L 195.84 352.457346 
L 198.528 389.136291 
L 201.216 354.376281 
L 203.904 352.071508 
L 206.592 388.536408 
L 209.28 384.924643 
L 211.968 386.878005 
L 214.656 407.049651 
L 217.344 384.810528 
L 220.032 431.270379 
L 222.72 354.268948 
L 225.408 416.67574 
L 228.096 432.047176 
L 230.784 353.855041 
L 233.472 264.220022 
L 236.16 273.300183 
L 238.848 261.388556 
L 241.536 275.869388 
L 244.224 262.315575 
L 246.912 262.256722 
L 249.6 257.029007 
L 252.288 263.828718 
L 254.976 268.238352 
L 257.664 277.993377 
L 260.352 279.023434 
L 263.04 280.22035 
L 265.728 279.792432 
L 268.416 263.713769 
L 271.104 225.762347 
L 273.792 183.882107 
L 276.48 133.523685 
L 279.168 167.390973 
L 281.856 186.481801 
L 284.544 189.9417 
L 287.232 206.334415 
L 289.92 226.246261 
L 292.608 220.237166 
L 295.296 225.37837 
L 297.984 226.070537 
L 300.672 224.018754 
L 303.36 221.805021 
L 306.048 221.874123 
L 308.736 227.815888 
L 311.424 225.630278 
L 314.112 225.673391 
L 316.8 223.18743 
L 319.488 220.501213 
L 322.176 222.531803 
L 324.864 219.841495 
L 327.552 218.904357 
L 330.24 217.574329 
L 332.928 221.582982 
L 335.616 221.3304 
L 338.304 214.568512 
L 340.992 219.420818 
L 343.68 208.753798 
L 346.368 210.580415 
L 349.056 204.264083 
L 351.744 193.893694 
L 354.432 192.303682 
L 357.12 198.271428 
L 359.808 198.024523 
L 362.496 201.702316 
L 365.184 201.388131 
L 367.872 196.716385 
L 370.56 196.69643 
L 373.248 187.382774 
L 375.936 184.083668 
L 378.624 180.538834 
L 381.312 176.688844 
L 384 176.975411 
L 386.688 183.977625 
L 389.376 181.834206 
L 392.064 183.632133 
L 394.752 174.261006 
L 397.44 180.613766 
L 400.128 178.982057 
L 402.816 177.845892 
L 405.504 172.55861 
L 408.192 165.983828 
L 410.88 163.074637 
L 413.568 158.175952 
L 416.256 159.004576 
L 418.944 153.329052 
L 421.632 149.853053 
L 424.32 143.887701 
L 427.008 141.385252 
L 429.696 136.919015 
L 432.384 142.963423 
L 435.072 137.230198 
L 437.76 133.11225 
L 440.448 129.208558 
L 443.136 122.312185 
L 445.824 116.829685 
L 448.512 113.882782 
L 451.2 108.800215 
L 453.888 109.501187 
L 456.576 102.670146 
L 459.264 100.691594 
L 464.64 95.129939 
L 467.328 92.035192 
L 470.016 88.142839 
L 472.704 86.971697 
L 475.392 85.083891 
L 478.08 82.331798 
L 480.768 79.826294 
L 483.456 77.654302 
L 486.144 75.731937 
L 491.52 71.614178 
L 494.208 69.864109 
L 499.584 67.023469 
L 502.272 65.174012 
L 504.96 64.221612 
L 507.648 62.313993 
L 510.336 60.656198 
L 513.024 60.170486 
L 518.4 57.6 
L 518.4 58.728258 
L 515.712 61.864958 
L 513.024 64.609692 
L 507.648 66.984048 
L 504.96 69.428782 
L 502.272 73.713718 
L 499.584 78.583897 
L 496.896 79.295352 
L 494.208 82.110371 
L 491.52 86.907103 
L 488.832 94.759836 
L 486.144 96.372548 
L 483.456 102.466767 
L 480.768 105.676217 
L 478.08 108.430347 
L 475.392 112.980904 
L 472.704 119.984017 
L 470.016 123.409651 
L 467.328 131.339907 
L 464.64 135.737668 
L 461.952 140.603866 
L 459.264 146.598472 
L 459.264 146.598472 
" style="fill:none;stroke:#1f77b4;stroke-linecap:square;stroke-width:0.85;"/>
   </g>
   <g id="patch_3">
    <path d="M 115.2 460.8 
L 115.2 57.6 
" style="fill:none;stroke:#000000;stroke-linecap:square;stroke-linejoin:miter;stroke-width:0.85;"/>
   </g>
   <g id="patch_4">
    <path d="M 518.4 460.8 
L 518.4 57.6 
" style="fill:none;stroke:#000000;stroke-linecap:square;stroke-linejoin:miter;stroke-width:0.85;"/>
   </g>
   <g id="patch_5">
    <path d="M 115.2 460.8 
L 518.4 460.8 
" style="fill:none;stroke:#000000;stroke-linecap:square;stroke-linejoin:miter;stroke-width:0.85;"/>
   </g>
   <g id="patch_6">
    <path d="M 115.2 57.6 
L 518.4 57.6 
" style="fill:none;stroke:#000000;stroke-linecap:square;stroke-linejoin:miter;stroke-width:0.85;"/>
   </g>
  </g>
 </g>
 <defs>
  <clipPath id="p2983ac3c40">
   <rect height="403.2" width="403.2" x="115.2" y="57.6"/>
  </clipPath>
 </defs>
</svg>
