<?xml version="1.0" encoding="utf-8" standalone="no"?>
<!DOCTYPE svg PUBLIC "-//W3C//DTD SVG 1.1//EN"
  "http://www.w3.org/Graphics/SVG/1.1/DTD/svg11.dtd">
<!-- Created with matplotlib (https://matplotlib.org/) -->
<svg height="576pt" version="1.1" viewBox="0 0 576 576" width="576pt" xmlns="http://www.w3.org/2000/svg" xmlns:xlink="http://www.w3.org/1999/xlink">
 <defs>
  <style type="text/css">
*{stroke-linecap:butt;stroke-linejoin:round;}
  </style>
 </defs>
 <g id="figure_1">
  <g id="patch_1">
   <path d="M 0 576 
L 576 576 
L 576 0 
L 0 0 
z
" style="fill:none;"/>
  </g>
  <g id="axes_1">
   <g id="patch_2">
    <path d="M 115.2 460.8 
L 518.4 460.8 
L 518.4 57.6 
L 115.2 57.6 
z
" style="fill:none;"/>
   </g>
   <g id="matplotlib.axis_1">
    <g id="xtick_1">
     <g id="line2d_1">
      <defs>
       <path d="M 0 0 
L 0 3.5 
" id="mdf209a4f77" style="stroke:#000000;stroke-width:0.85;"/>
      </defs>
      <g>
       <use style="stroke:#000000;stroke-width:0.85;" x="155.52" xlink:href="#mdf209a4f77" y="460.8"/>
      </g>
     </g>
     <g id="text_1">
      <text style="font-family:Helvetica;font-size:7.5px;font-style:normal;font-weight:medium;text-anchor:middle;" transform="rotate(-0, 155.52, 473.180078)" x="155.52" y="473.180078">−40</text>
     </g>
    </g>
    <g id="xtick_2">
     <g id="line2d_2">
      <g>
       <use style="stroke:#000000;stroke-width:0.85;" x="236.16" xlink:href="#mdf209a4f77" y="460.8"/>
      </g>
     </g>
     <g id="text_2">
      <text style="font-family:Helvetica;font-size:7.5px;font-style:normal;font-weight:medium;text-anchor:middle;" transform="rotate(-0, 236.16, 473.180078)" x="236.16" y="473.180078">−20</text>
     </g>
    </g>
    <g id="xtick_3">
     <g id="line2d_3">
      <g>
       <use style="stroke:#000000;stroke-width:0.85;" x="316.8" xlink:href="#mdf209a4f77" y="460.8"/>
      </g>
     </g>
     <g id="text_3">
      <text style="font-family:Helvetica;font-size:7.5px;font-style:normal;font-weight:medium;text-anchor:middle;" transform="rotate(-0, 316.8, 473.180078)" x="316.8" y="473.180078">0</text>
     </g>
    </g>
    <g id="xtick_4">
     <g id="line2d_4">
      <g>
       <use style="stroke:#000000;stroke-width:0.85;" x="397.44" xlink:href="#mdf209a4f77" y="460.8"/>
      </g>
     </g>
     <g id="text_4">
      <text style="font-family:Helvetica;font-size:7.5px;font-style:normal;font-weight:medium;text-anchor:middle;" transform="rotate(-0, 397.44, 473.180078)" x="397.44" y="473.180078">20</text>
     </g>
    </g>
    <g id="xtick_5">
     <g id="line2d_5">
      <g>
       <use style="stroke:#000000;stroke-width:0.85;" x="478.08" xlink:href="#mdf209a4f77" y="460.8"/>
      </g>
     </g>
     <g id="text_5">
      <text style="font-family:Helvetica;font-size:7.5px;font-style:normal;font-weight:medium;text-anchor:middle;" transform="rotate(-0, 478.08, 473.180078)" x="478.08" y="473.180078">40</text>
     </g>
    </g>
   </g>
   <g id="matplotlib.axis_2">
    <g id="ytick_1">
     <g id="line2d_6">
      <defs>
       <path d="M 0 0 
L -3.5 0 
" id="m6214146852" style="stroke:#000000;stroke-width:0.85;"/>
      </defs>
      <g>
       <use style="stroke:#000000;stroke-width:0.85;" x="115.2" xlink:href="#m6214146852" y="409.168098"/>
      </g>
     </g>
     <g id="text_6">
      <!-- $\mathdefault{10^{-9}}$ -->
      <g transform="translate(93.575 411.858137)">
       <text>
        <tspan style="font-family:Helvetica;font-size:7.5px;font-style:regular;font-weight:regular;" x="0 4.171143" y="-0.5796875000000004">10</tspan>
        <tspan style="font-family:Helvetica;font-size:5.25px;font-style:regular;font-weight:regular;" x="8.410918 11.476836" y="-3.325">−9</tspan>
       </text>
      </g>
     </g>
    </g>
    <g id="ytick_2">
     <g id="line2d_7">
      <g>
       <use style="stroke:#000000;stroke-width:0.85;" x="115.2" xlink:href="#m6214146852" y="250.413393"/>
      </g>
     </g>
     <g id="text_7">
      <!-- $\mathdefault{10^{-8}}$ -->
      <g transform="translate(93.575 253.103432)">
       <text>
        <tspan style="font-family:Helvetica;font-size:7.5px;font-style:regular;font-weight:regular;" x="0 4.171143" y="-0.5687500000000005">10</tspan>
        <tspan style="font-family:Helvetica;font-size:5.25px;font-style:regular;font-weight:regular;" x="8.410918 11.476836" y="-3.3140625000000004">−8</tspan>
       </text>
      </g>
     </g>
    </g>
    <g id="ytick_3">
     <g id="line2d_8">
      <g>
       <use style="stroke:#000000;stroke-width:0.85;" x="115.2" xlink:href="#m6214146852" y="91.658688"/>
      </g>
     </g>
     <g id="text_8">
      <!-- $\mathdefault{10^{-7}}$ -->
      <g transform="translate(93.575 94.348727)">
       <text>
        <tspan style="font-family:Helvetica;font-size:7.5px;font-style:regular;font-weight:regular;" x="0 4.171143" y="-0.6453125000000011">10</tspan>
        <tspan style="font-family:Helvetica;font-size:5.25px;font-style:regular;font-weight:regular;" x="8.410918 11.476836" y="-3.390625000000001">−7</tspan>
       </text>
      </g>
     </g>
    </g>
    <g id="ytick_4">
     <g id="line2d_9">
      <defs>
       <path d="M 0 0 
L -1.8 0 
" id="mc62e34a42c" style="stroke:#000000;stroke-width:0.85;"/>
      </defs>
      <g>
       <use style="stroke:#000000;stroke-width:0.85;" x="115.2" xlink:href="#mc62e34a42c" y="456.958027"/>
      </g>
     </g>
    </g>
    <g id="ytick_5">
     <g id="line2d_10">
      <g>
       <use style="stroke:#000000;stroke-width:0.85;" x="115.2" xlink:href="#mc62e34a42c" y="444.387631"/>
      </g>
     </g>
    </g>
    <g id="ytick_6">
     <g id="line2d_11">
      <g>
       <use style="stroke:#000000;stroke-width:0.85;" x="115.2" xlink:href="#mc62e34a42c" y="433.759513"/>
      </g>
     </g>
    </g>
    <g id="ytick_7">
     <g id="line2d_12">
      <g>
       <use style="stroke:#000000;stroke-width:0.85;" x="115.2" xlink:href="#mc62e34a42c" y="424.553019"/>
      </g>
     </g>
    </g>
    <g id="ytick_8">
     <g id="line2d_13">
      <g>
       <use style="stroke:#000000;stroke-width:0.85;" x="115.2" xlink:href="#mc62e34a42c" y="416.432315"/>
      </g>
     </g>
    </g>
    <g id="ytick_9">
     <g id="line2d_14">
      <g>
       <use style="stroke:#000000;stroke-width:0.85;" x="115.2" xlink:href="#mc62e34a42c" y="361.37817"/>
      </g>
     </g>
    </g>
    <g id="ytick_10">
     <g id="line2d_15">
      <g>
       <use style="stroke:#000000;stroke-width:0.85;" x="115.2" xlink:href="#mc62e34a42c" y="333.422854"/>
      </g>
     </g>
    </g>
    <g id="ytick_11">
     <g id="line2d_16">
      <g>
       <use style="stroke:#000000;stroke-width:0.85;" x="115.2" xlink:href="#mc62e34a42c" y="313.588242"/>
      </g>
     </g>
    </g>
    <g id="ytick_12">
     <g id="line2d_17">
      <g>
       <use style="stroke:#000000;stroke-width:0.85;" x="115.2" xlink:href="#mc62e34a42c" y="298.203321"/>
      </g>
     </g>
    </g>
    <g id="ytick_13">
     <g id="line2d_18">
      <g>
       <use style="stroke:#000000;stroke-width:0.85;" x="115.2" xlink:href="#mc62e34a42c" y="285.632926"/>
      </g>
     </g>
    </g>
    <g id="ytick_14">
     <g id="line2d_19">
      <g>
       <use style="stroke:#000000;stroke-width:0.85;" x="115.2" xlink:href="#mc62e34a42c" y="275.004808"/>
      </g>
     </g>
    </g>
    <g id="ytick_15">
     <g id="line2d_20">
      <g>
       <use style="stroke:#000000;stroke-width:0.85;" x="115.2" xlink:href="#mc62e34a42c" y="265.798314"/>
      </g>
     </g>
    </g>
    <g id="ytick_16">
     <g id="line2d_21">
      <g>
       <use style="stroke:#000000;stroke-width:0.85;" x="115.2" xlink:href="#mc62e34a42c" y="257.67761"/>
      </g>
     </g>
    </g>
    <g id="ytick_17">
     <g id="line2d_22">
      <g>
       <use style="stroke:#000000;stroke-width:0.85;" x="115.2" xlink:href="#mc62e34a42c" y="202.623465"/>
      </g>
     </g>
    </g>
    <g id="ytick_18">
     <g id="line2d_23">
      <g>
       <use style="stroke:#000000;stroke-width:0.85;" x="115.2" xlink:href="#mc62e34a42c" y="174.668149"/>
      </g>
     </g>
    </g>
    <g id="ytick_19">
     <g id="line2d_24">
      <g>
       <use style="stroke:#000000;stroke-width:0.85;" x="115.2" xlink:href="#mc62e34a42c" y="154.833536"/>
      </g>
     </g>
    </g>
    <g id="ytick_20">
     <g id="line2d_25">
      <g>
       <use style="stroke:#000000;stroke-width:0.85;" x="115.2" xlink:href="#mc62e34a42c" y="139.448616"/>
      </g>
     </g>
    </g>
    <g id="ytick_21">
     <g id="line2d_26">
      <g>
       <use style="stroke:#000000;stroke-width:0.85;" x="115.2" xlink:href="#mc62e34a42c" y="126.878221"/>
      </g>
     </g>
    </g>
    <g id="ytick_22">
     <g id="line2d_27">
      <g>
       <use style="stroke:#000000;stroke-width:0.85;" x="115.2" xlink:href="#mc62e34a42c" y="116.250103"/>
      </g>
     </g>
    </g>
    <g id="ytick_23">
     <g id="line2d_28">
      <g>
       <use style="stroke:#000000;stroke-width:0.85;" x="115.2" xlink:href="#mc62e34a42c" y="107.043608"/>
      </g>
     </g>
    </g>
    <g id="ytick_24">
     <g id="line2d_29">
      <g>
       <use style="stroke:#000000;stroke-width:0.85;" x="115.2" xlink:href="#mc62e34a42c" y="98.922905"/>
      </g>
     </g>
    </g>
   </g>
   <g id="line2d_30">
    <path clip-path="url(#p026b04e154)" d="M 115.2 229.926883 
L 117.216 460.8 
L 119.232 432.626338 
L 121.248 408.748803 
L 123.264 289.68297 
L 125.28 319.479631 
L 127.296 390.534941 
L 129.312 323.19777 
L 131.328 386.443988 
L 133.344 340.216272 
L 135.36 385.969585 
L 137.376 394.364773 
L 139.392 285.721464 
L 141.408 375.410448 
L 143.424 312.655191 
L 145.44 361.126974 
L 147.456 378.738864 
L 149.472 284.502334 
L 151.488 362.63753 
L 153.504 361.94586 
L 155.52 376.810507 
L 157.536 283.309943 
L 159.552 359.568166 
L 161.568 358.710519 
L 163.584 373.440241 
L 165.6 283.208913 
L 167.616 357.922402 
L 169.632 357.214552 
L 171.648 370.2702 
L 173.664 282.720291 
L 175.68 312.017069 
L 177.696 369.567854 
L 179.712 315.252537 
L 181.728 368.791933 
L 183.744 300.448524 
L 185.76 366.854027 
L 187.776 370.129157 
L 189.792 343.050879 
L 191.808 352.787175 
L 193.824 365.464783 
L 195.84 281.359056 
L 197.856 308.666166 
L 199.872 365.318625 
L 201.888 312.85273 
L 203.904 363.784537 
L 205.92 306.223953 
L 207.936 349.541345 
L 209.952 364.885629 
L 211.968 455.174892 
L 213.984 313.96676 
L 216 363.481773 
L 218.016 311.446596 
L 220.032 276.062838 
L 222.048 172.070179 
L 224.064 165.624157 
L 226.08 145.278453 
L 228.096 140.796506 
L 230.112 143.552057 
L 232.128 149.223198 
L 234.144 147.896556 
L 236.16 141.425099 
L 238.176 145.826845 
L 240.192 138.202367 
L 242.208 124.145376 
L 244.224 119.757561 
L 246.24 112.124975 
L 248.256 103.558337 
L 250.272 98.416101 
L 252.288 100.747876 
L 254.304 102.619237 
L 256.32 104.043454 
L 258.336 106.646589 
L 260.352 103.981597 
L 262.368 103.915677 
L 264.384 107.148832 
L 266.4 113.137116 
L 268.416 112.205736 
L 270.432 114.839415 
L 272.448 113.849709 
L 274.464 114.521698 
L 276.48 114.761294 
L 278.496 115.97683 
L 280.512 111.575165 
L 282.528 108.775036 
L 286.56 105.4598 
L 288.576 104.754242 
L 290.592 107.292263 
L 292.608 107.105688 
L 294.624 107.360627 
L 298.656 104.73007 
L 300.672 101.479365 
L 304.704 101.944419 
L 306.72 98.965051 
L 308.736 99.385628 
L 310.752 97.869979 
L 312.768 98.543977 
L 314.784 99.666154 
L 316.8 100.572683 
L 318.816 97.123349 
L 320.832 101.865226 
L 322.848 99.863126 
L 324.864 100.3033 
L 326.88 99.475149 
L 328.896 102.093453 
L 330.912 102.224323 
L 332.928 102.979042 
L 334.944 99.04098 
L 336.96 102.658045 
L 338.976 102.396517 
L 340.992 100.140147 
L 343.008 100.847849 
L 345.024 102.207448 
L 347.04 97.764435 
L 349.056 98.518078 
L 351.072 97.395551 
L 353.088 97.617697 
L 355.104 98.432834 
L 357.12 98.675907 
L 359.136 103.322769 
L 361.152 102.254868 
L 363.168 101.881218 
L 365.184 100.255641 
L 367.2 103.667397 
L 369.216 102.48439 
L 371.232 101.496062 
L 373.248 97.320663 
L 375.264 98.552358 
L 377.28 97.062177 
L 379.296 99.565559 
L 381.312 99.020264 
L 383.328 99.738208 
L 387.36 99.317023 
L 389.376 98.892269 
L 391.392 99.400283 
L 393.408 100.147944 
L 395.424 97.836036 
L 397.44 96.942228 
L 399.456 95.155991 
L 401.472 96.166503 
L 403.488 93.19526 
L 405.504 97.433025 
L 407.52 96.23941 
L 409.536 96.64586 
L 411.552 92.94614 
L 413.568 92.800884 
L 415.584 95.326656 
L 417.6 91.999433 
L 419.616 93.831987 
L 421.632 92.25419 
L 423.648 92.514778 
L 425.664 92.416419 
L 427.68 92.688819 
L 429.696 90.731418 
L 431.712 90.254852 
L 433.728 90.582604 
L 435.744 89.559831 
L 437.76 87.783855 
L 439.776 89.422198 
L 441.792 88.653583 
L 443.808 89.287503 
L 445.824 91.306583 
L 447.84 88.958543 
L 449.856 90.020155 
L 451.872 86.351232 
L 453.888 87.457434 
L 455.904 85.336059 
L 457.92 84.031255 
L 459.936 81.819677 
L 461.952 85.939433 
L 463.968 83.781103 
L 465.984 82.518413 
L 468 81.759329 
L 470.016 80.452472 
L 472.032 81.210854 
L 474.048 80.805581 
L 476.064 78.00576 
L 478.08 78.359602 
L 480.096 77.735368 
L 482.112 78.677564 
L 484.128 76.073287 
L 486.144 78.183021 
L 488.16 78.213082 
L 490.176 77.382465 
L 492.192 76.273216 
L 494.208 76.013367 
L 496.224 75.166331 
L 498.24 72.590695 
L 500.256 71.173202 
L 502.272 69.498704 
L 506.304 67.878561 
L 508.32 66.032675 
L 510.336 63.752571 
L 512.352 60.59911 
L 514.368 61.511616 
L 516.384 59.025673 
L 518.4 57.6 
L 518.4 57.6 
" style="fill:none;stroke:#1f77b4;stroke-linecap:square;stroke-width:0.85;"/>
   </g>
   <g id="patch_3">
    <path d="M 115.2 460.8 
L 115.2 57.6 
" style="fill:none;stroke:#000000;stroke-linecap:square;stroke-linejoin:miter;stroke-width:0.85;"/>
   </g>
   <g id="patch_4">
    <path d="M 518.4 460.8 
L 518.4 57.6 
" style="fill:none;stroke:#000000;stroke-linecap:square;stroke-linejoin:miter;stroke-width:0.85;"/>
   </g>
   <g id="patch_5">
    <path d="M 115.2 460.8 
L 518.4 460.8 
" style="fill:none;stroke:#000000;stroke-linecap:square;stroke-linejoin:miter;stroke-width:0.85;"/>
   </g>
   <g id="patch_6">
    <path d="M 115.2 57.6 
L 518.4 57.6 
" style="fill:none;stroke:#000000;stroke-linecap:square;stroke-linejoin:miter;stroke-width:0.85;"/>
   </g>
  </g>
 </g>
 <defs>
  <clipPath id="p026b04e154">
   <rect height="403.2" width="403.2" x="115.2" y="57.6"/>
  </clipPath>
 </defs>
</svg>
