<?xml version="1.0" encoding="utf-8" standalone="no"?>
<!DOCTYPE svg PUBLIC "-//W3C//DTD SVG 1.1//EN"
  "http://www.w3.org/Graphics/SVG/1.1/DTD/svg11.dtd">
<!-- Created with matplotlib (https://matplotlib.org/) -->
<svg height="576pt" version="1.1" viewBox="0 0 576 576" width="576pt" xmlns="http://www.w3.org/2000/svg" xmlns:xlink="http://www.w3.org/1999/xlink">
 <defs>
  <style type="text/css">
*{stroke-linecap:butt;stroke-linejoin:round;}
  </style>
 </defs>
 <g id="figure_1">
  <g id="patch_1">
   <path d="M 0 576 
L 576 576 
L 576 0 
L 0 0 
z
" style="fill:none;"/>
  </g>
  <g id="axes_1">
   <g id="patch_2">
    <path d="M 115.2 460.8 
L 518.4 460.8 
L 518.4 57.6 
L 115.2 57.6 
z
" style="fill:none;"/>
   </g>
   <g id="matplotlib.axis_1">
    <g id="xtick_1">
     <g id="line2d_1">
      <defs>
       <path d="M 0 0 
L 0 3.5 
" id="mc601f57890" style="stroke:#000000;stroke-width:0.85;"/>
      </defs>
      <g>
       <use style="stroke:#000000;stroke-width:0.85;" x="155.52" xlink:href="#mc601f57890" y="460.8"/>
      </g>
     </g>
     <g id="text_1">
      <text style="font-family:Helvetica;font-size:7.5px;font-style:normal;font-weight:medium;text-anchor:middle;" transform="rotate(-0, 155.52, 473.180078)" x="155.52" y="473.180078">−40</text>
     </g>
    </g>
    <g id="xtick_2">
     <g id="line2d_2">
      <g>
       <use style="stroke:#000000;stroke-width:0.85;" x="236.16" xlink:href="#mc601f57890" y="460.8"/>
      </g>
     </g>
     <g id="text_2">
      <text style="font-family:Helvetica;font-size:7.5px;font-style:normal;font-weight:medium;text-anchor:middle;" transform="rotate(-0, 236.16, 473.180078)" x="236.16" y="473.180078">−20</text>
     </g>
    </g>
    <g id="xtick_3">
     <g id="line2d_3">
      <g>
       <use style="stroke:#000000;stroke-width:0.85;" x="316.8" xlink:href="#mc601f57890" y="460.8"/>
      </g>
     </g>
     <g id="text_3">
      <text style="font-family:Helvetica;font-size:7.5px;font-style:normal;font-weight:medium;text-anchor:middle;" transform="rotate(-0, 316.8, 473.180078)" x="316.8" y="473.180078">0</text>
     </g>
    </g>
    <g id="xtick_4">
     <g id="line2d_4">
      <g>
       <use style="stroke:#000000;stroke-width:0.85;" x="397.44" xlink:href="#mc601f57890" y="460.8"/>
      </g>
     </g>
     <g id="text_4">
      <text style="font-family:Helvetica;font-size:7.5px;font-style:normal;font-weight:medium;text-anchor:middle;" transform="rotate(-0, 397.44, 473.180078)" x="397.44" y="473.180078">20</text>
     </g>
    </g>
    <g id="xtick_5">
     <g id="line2d_5">
      <g>
       <use style="stroke:#000000;stroke-width:0.85;" x="478.08" xlink:href="#mc601f57890" y="460.8"/>
      </g>
     </g>
     <g id="text_5">
      <text style="font-family:Helvetica;font-size:7.5px;font-style:normal;font-weight:medium;text-anchor:middle;" transform="rotate(-0, 478.08, 473.180078)" x="478.08" y="473.180078">40</text>
     </g>
    </g>
   </g>
   <g id="matplotlib.axis_2">
    <g id="ytick_1">
     <g id="line2d_6">
      <defs>
       <path d="M 0 0 
L -3.5 0 
" id="m9e01768851" style="stroke:#000000;stroke-width:0.85;"/>
      </defs>
      <g>
       <use style="stroke:#000000;stroke-width:0.85;" x="115.2" xlink:href="#m9e01768851" y="260.458174"/>
      </g>
     </g>
     <g id="text_6">
      <!-- $\mathdefault{10^{-6}}$ -->
      <g transform="translate(93.575 263.148213)">
       <text>
        <tspan style="font-family:Helvetica;font-size:7.5px;font-style:regular;font-weight:regular;" x="0 4.171143" y="-0.5687500000000005">10</tspan>
        <tspan style="font-family:Helvetica;font-size:5.25px;font-style:regular;font-weight:regular;" x="8.410918 11.476836" y="-3.3140625000000004">−6</tspan>
       </text>
      </g>
     </g>
    </g>
    <g id="ytick_2">
     <g id="line2d_7">
      <defs>
       <path d="M 0 0 
L -1.8 0 
" id="m33d74d9248" style="stroke:#000000;stroke-width:0.85;"/>
      </defs>
      <g>
       <use style="stroke:#000000;stroke-width:0.85;" x="115.2" xlink:href="#m33d74d9248" y="440.463111"/>
      </g>
     </g>
    </g>
    <g id="ytick_3">
     <g id="line2d_8">
      <g>
       <use style="stroke:#000000;stroke-width:0.85;" x="115.2" xlink:href="#m33d74d9248" y="395.114533"/>
      </g>
     </g>
    </g>
    <g id="ytick_4">
     <g id="line2d_9">
      <g>
       <use style="stroke:#000000;stroke-width:0.85;" x="115.2" xlink:href="#m33d74d9248" y="362.939204"/>
      </g>
     </g>
    </g>
    <g id="ytick_5">
     <g id="line2d_10">
      <g>
       <use style="stroke:#000000;stroke-width:0.85;" x="115.2" xlink:href="#m33d74d9248" y="337.982081"/>
      </g>
     </g>
    </g>
    <g id="ytick_6">
     <g id="line2d_11">
      <g>
       <use style="stroke:#000000;stroke-width:0.85;" x="115.2" xlink:href="#m33d74d9248" y="317.590626"/>
      </g>
     </g>
    </g>
    <g id="ytick_7">
     <g id="line2d_12">
      <g>
       <use style="stroke:#000000;stroke-width:0.85;" x="115.2" xlink:href="#m33d74d9248" y="300.349896"/>
      </g>
     </g>
    </g>
    <g id="ytick_8">
     <g id="line2d_13">
      <g>
       <use style="stroke:#000000;stroke-width:0.85;" x="115.2" xlink:href="#m33d74d9248" y="285.415297"/>
      </g>
     </g>
    </g>
    <g id="ytick_9">
     <g id="line2d_14">
      <g>
       <use style="stroke:#000000;stroke-width:0.85;" x="115.2" xlink:href="#m33d74d9248" y="272.242047"/>
      </g>
     </g>
    </g>
    <g id="ytick_10">
     <g id="line2d_15">
      <g>
       <use style="stroke:#000000;stroke-width:0.85;" x="115.2" xlink:href="#m33d74d9248" y="182.934267"/>
      </g>
     </g>
    </g>
    <g id="ytick_11">
     <g id="line2d_16">
      <g>
       <use style="stroke:#000000;stroke-width:0.85;" x="115.2" xlink:href="#m33d74d9248" y="137.585688"/>
      </g>
     </g>
    </g>
    <g id="ytick_12">
     <g id="line2d_17">
      <g>
       <use style="stroke:#000000;stroke-width:0.85;" x="115.2" xlink:href="#m33d74d9248" y="105.410359"/>
      </g>
     </g>
    </g>
    <g id="ytick_13">
     <g id="line2d_18">
      <g>
       <use style="stroke:#000000;stroke-width:0.85;" x="115.2" xlink:href="#m33d74d9248" y="80.453236"/>
      </g>
     </g>
    </g>
    <g id="ytick_14">
     <g id="line2d_19">
      <g>
       <use style="stroke:#000000;stroke-width:0.85;" x="115.2" xlink:href="#m33d74d9248" y="60.061781"/>
      </g>
     </g>
    </g>
   </g>
   <g id="line2d_20">
    <path clip-path="url(#pc15aa3bf85)" d="M 115.2 453.770934 
L 117.216 460.40764 
L 119.232 457.596616 
L 121.248 450.962597 
L 123.264 460.548758 
L 125.28 457.965487 
L 127.296 458.395958 
L 129.312 457.448756 
L 131.328 451.486556 
L 133.344 459.864229 
L 135.36 459.27315 
L 137.376 460.8 
L 139.392 457.175049 
L 141.408 447.463806 
L 143.424 452.496425 
L 145.44 451.770183 
L 147.456 449.430736 
L 149.472 447.340639 
L 151.488 447.860409 
L 153.504 433.562713 
L 155.52 438.064805 
L 157.536 438.52443 
L 159.552 447.822178 
L 161.568 444.803573 
L 163.584 447.700406 
L 165.6 457.714653 
L 167.616 453.401806 
L 169.632 450.213873 
L 171.648 452.846953 
L 173.664 451.958429 
L 175.68 455.2138 
L 177.696 456.117738 
L 179.712 453.233055 
L 181.728 453.323986 
L 183.744 454.172887 
L 185.76 451.376759 
L 187.776 448.330396 
L 189.792 449.995649 
L 191.808 449.000164 
L 193.824 451.357031 
L 195.84 448.090067 
L 197.856 449.363501 
L 199.872 445.122605 
L 201.888 443.675655 
L 203.904 442.081393 
L 205.92 448.619355 
L 207.936 441.979313 
L 209.952 429.227774 
L 211.968 440.729055 
L 213.984 434.301736 
L 216 425.058988 
L 218.016 423.046766 
L 220.032 437.375082 
L 222.048 436.80156 
L 224.064 433.832226 
L 226.08 423.458621 
L 228.096 443.994945 
L 230.112 445.207173 
L 232.128 450.666304 
L 234.144 438.918091 
L 236.16 432.670913 
L 238.176 430.994141 
L 240.192 442.600602 
L 242.208 437.429494 
L 244.224 422.626886 
L 246.24 433.521712 
L 248.256 437.026929 
L 250.272 432.325118 
L 252.288 437.220696 
L 254.304 436.78749 
L 256.32 422.096532 
L 258.336 431.938408 
L 260.352 432.182217 
L 262.368 421.10773 
L 264.384 424.932371 
L 266.4 425.214046 
L 268.416 419.616357 
L 270.432 419.521253 
L 272.448 435.137349 
L 274.464 431.9524 
L 276.48 413.061166 
L 278.496 430.357789 
L 280.512 427.137361 
L 282.528 418.176678 
L 284.544 426.619818 
L 286.56 427.641851 
L 288.576 412.450494 
L 290.592 425.580601 
L 292.608 425.624669 
L 294.624 410.813122 
L 296.64 420.763024 
L 298.656 419.237349 
L 300.672 403.389138 
L 302.688 417.746355 
L 304.704 413.264005 
L 306.72 415.564161 
L 308.736 412.062864 
L 310.752 417.581707 
L 312.768 416.608814 
L 314.784 411.243799 
L 316.8 395.819124 
L 318.816 403.005219 
L 320.832 414.542925 
L 322.848 414.056536 
L 324.864 399.872209 
L 326.88 409.927768 
L 328.896 407.905792 
L 330.912 402.55366 
L 332.928 399.394744 
L 334.944 410.206889 
L 336.96 403.9086 
L 338.976 402.583149 
L 340.992 399.4486 
L 343.008 394.474387 
L 345.024 394.039311 
L 347.04 390.130191 
L 349.056 360.335829 
L 351.072 378.792445 
L 353.088 371.531498 
L 355.104 372.443124 
L 357.12 370.166357 
L 359.136 368.059638 
L 361.152 363.271032 
L 363.168 371.0759 
L 365.184 363.714443 
L 367.2 362.826858 
L 369.216 355.205177 
L 371.232 353.378555 
L 373.248 337.491049 
L 375.264 340.237054 
L 377.28 339.586179 
L 379.296 334.760854 
L 381.312 333.46438 
L 383.328 328.684858 
L 385.344 324.691581 
L 387.36 321.739601 
L 389.376 323.866369 
L 391.392 317.092171 
L 393.408 309.321849 
L 395.424 310.687424 
L 397.44 305.745814 
L 399.456 304.458807 
L 401.472 301.994847 
L 403.488 299.978236 
L 405.504 294.492037 
L 407.52 293.071293 
L 409.536 286.434909 
L 411.552 286.154503 
L 413.568 281.765112 
L 415.584 279.713719 
L 417.6 273.88952 
L 419.616 266.578266 
L 421.632 261.362156 
L 423.648 256.753334 
L 425.664 256.559825 
L 427.68 249.015158 
L 429.696 239.615596 
L 431.712 242.161847 
L 433.728 240.007085 
L 435.744 231.776304 
L 437.76 229.483191 
L 439.776 229.250268 
L 441.792 224.09459 
L 443.808 220.157071 
L 445.824 214.954613 
L 447.84 220.353815 
L 449.856 206.960682 
L 451.872 192.726526 
L 453.888 200.292213 
L 455.904 190.546854 
L 457.92 188.1197 
L 459.936 182.095241 
L 461.952 182.151314 
L 463.968 177.190183 
L 468 169.597596 
L 470.016 166.662773 
L 472.032 162.383548 
L 474.048 161.193485 
L 476.064 152.546707 
L 478.08 150.287117 
L 480.096 144.268329 
L 484.128 133.696701 
L 486.144 128.503092 
L 488.16 127.219767 
L 490.176 124.960236 
L 492.192 118.08287 
L 494.208 114.335276 
L 496.224 109.503441 
L 498.24 103.488443 
L 500.256 99.340316 
L 502.272 94.599155 
L 504.288 87.869414 
L 508.32 80.277109 
L 510.336 74.591283 
L 512.352 71.992597 
L 514.368 69.604874 
L 516.384 64.011293 
L 518.4 57.6 
L 518.4 57.6 
" style="fill:none;stroke:#1f77b4;stroke-linecap:square;stroke-width:0.85;"/>
   </g>
   <g id="patch_3">
    <path d="M 115.2 460.8 
L 115.2 57.6 
" style="fill:none;stroke:#000000;stroke-linecap:square;stroke-linejoin:miter;stroke-width:0.85;"/>
   </g>
   <g id="patch_4">
    <path d="M 518.4 460.8 
L 518.4 57.6 
" style="fill:none;stroke:#000000;stroke-linecap:square;stroke-linejoin:miter;stroke-width:0.85;"/>
   </g>
   <g id="patch_5">
    <path d="M 115.2 460.8 
L 518.4 460.8 
" style="fill:none;stroke:#000000;stroke-linecap:square;stroke-linejoin:miter;stroke-width:0.85;"/>
   </g>
   <g id="patch_6">
    <path d="M 115.2 57.6 
L 518.4 57.6 
" style="fill:none;stroke:#000000;stroke-linecap:square;stroke-linejoin:miter;stroke-width:0.85;"/>
   </g>
  </g>
 </g>
 <defs>
  <clipPath id="pc15aa3bf85">
   <rect height="403.2" width="403.2" x="115.2" y="57.6"/>
  </clipPath>
 </defs>
</svg>
