<?xml version="1.0" encoding="utf-8" standalone="no"?>
<!DOCTYPE svg PUBLIC "-//W3C//DTD SVG 1.1//EN"
  "http://www.w3.org/Graphics/SVG/1.1/DTD/svg11.dtd">
<!-- Created with matplotlib (https://matplotlib.org/) -->
<svg height="576pt" version="1.1" viewBox="0 0 576 576" width="576pt" xmlns="http://www.w3.org/2000/svg" xmlns:xlink="http://www.w3.org/1999/xlink">
 <defs>
  <style type="text/css">
*{stroke-linecap:butt;stroke-linejoin:round;}
  </style>
 </defs>
 <g id="figure_1">
  <g id="patch_1">
   <path d="M 0 576 
L 576 576 
L 576 0 
L 0 0 
z
" style="fill:none;"/>
  </g>
  <g id="axes_1">
   <g id="patch_2">
    <path d="M 115.2 460.8 
L 518.4 460.8 
L 518.4 57.6 
L 115.2 57.6 
z
" style="fill:none;"/>
   </g>
   <g id="matplotlib.axis_1">
    <g id="xtick_1">
     <g id="line2d_1">
      <defs>
       <path d="M 0 0 
L 0 3.5 
" id="m7f771ed2e6" style="stroke:#000000;stroke-width:0.85;"/>
      </defs>
      <g>
       <use style="stroke:#000000;stroke-width:0.85;" x="155.52" xlink:href="#m7f771ed2e6" y="460.8"/>
      </g>
     </g>
     <g id="text_1">
      <text style="font-family:Helvetica;font-size:7.5px;font-style:normal;font-weight:medium;text-anchor:middle;" transform="rotate(-0, 155.52, 473.180078)" x="155.52" y="473.180078">−40</text>
     </g>
    </g>
    <g id="xtick_2">
     <g id="line2d_2">
      <g>
       <use style="stroke:#000000;stroke-width:0.85;" x="236.16" xlink:href="#m7f771ed2e6" y="460.8"/>
      </g>
     </g>
     <g id="text_2">
      <text style="font-family:Helvetica;font-size:7.5px;font-style:normal;font-weight:medium;text-anchor:middle;" transform="rotate(-0, 236.16, 473.180078)" x="236.16" y="473.180078">−20</text>
     </g>
    </g>
    <g id="xtick_3">
     <g id="line2d_3">
      <g>
       <use style="stroke:#000000;stroke-width:0.85;" x="316.8" xlink:href="#m7f771ed2e6" y="460.8"/>
      </g>
     </g>
     <g id="text_3">
      <text style="font-family:Helvetica;font-size:7.5px;font-style:normal;font-weight:medium;text-anchor:middle;" transform="rotate(-0, 316.8, 473.180078)" x="316.8" y="473.180078">0</text>
     </g>
    </g>
    <g id="xtick_4">
     <g id="line2d_4">
      <g>
       <use style="stroke:#000000;stroke-width:0.85;" x="397.44" xlink:href="#m7f771ed2e6" y="460.8"/>
      </g>
     </g>
     <g id="text_4">
      <text style="font-family:Helvetica;font-size:7.5px;font-style:normal;font-weight:medium;text-anchor:middle;" transform="rotate(-0, 397.44, 473.180078)" x="397.44" y="473.180078">20</text>
     </g>
    </g>
    <g id="xtick_5">
     <g id="line2d_5">
      <g>
       <use style="stroke:#000000;stroke-width:0.85;" x="478.08" xlink:href="#m7f771ed2e6" y="460.8"/>
      </g>
     </g>
     <g id="text_5">
      <text style="font-family:Helvetica;font-size:7.5px;font-style:normal;font-weight:medium;text-anchor:middle;" transform="rotate(-0, 478.08, 473.180078)" x="478.08" y="473.180078">40</text>
     </g>
    </g>
   </g>
   <g id="matplotlib.axis_2">
    <g id="ytick_1">
     <g id="line2d_6">
      <defs>
       <path d="M 0 0 
L -3.5 0 
" id="m0f5392e281" style="stroke:#000000;stroke-width:0.85;"/>
      </defs>
      <g>
       <use style="stroke:#000000;stroke-width:0.85;" x="115.2" xlink:href="#m0f5392e281" y="377.447493"/>
      </g>
     </g>
     <g id="text_6">
      <!-- $\mathdefault{10^{-9}}$ -->
      <g transform="translate(93.575 380.137532)">
       <text>
        <tspan style="font-family:Helvetica;font-size:7.5px;font-style:regular;font-weight:regular;" x="0 4.171143" y="-0.5796875000000004">10</tspan>
        <tspan style="font-family:Helvetica;font-size:5.25px;font-style:regular;font-weight:regular;" x="8.410918 11.476836" y="-3.325">−9</tspan>
       </text>
      </g>
     </g>
    </g>
    <g id="ytick_2">
     <g id="line2d_7">
      <g>
       <use style="stroke:#000000;stroke-width:0.85;" x="115.2" xlink:href="#m0f5392e281" y="285.434584"/>
      </g>
     </g>
     <g id="text_7">
      <!-- $\mathdefault{10^{-8}}$ -->
      <g transform="translate(93.575 288.124623)">
       <text>
        <tspan style="font-family:Helvetica;font-size:7.5px;font-style:regular;font-weight:regular;" x="0 4.171143" y="-0.5687500000000005">10</tspan>
        <tspan style="font-family:Helvetica;font-size:5.25px;font-style:regular;font-weight:regular;" x="8.410918 11.476836" y="-3.3140625000000004">−8</tspan>
       </text>
      </g>
     </g>
    </g>
    <g id="ytick_3">
     <g id="line2d_8">
      <g>
       <use style="stroke:#000000;stroke-width:0.85;" x="115.2" xlink:href="#m0f5392e281" y="193.421674"/>
      </g>
     </g>
     <g id="text_8">
      <!-- $\mathdefault{10^{-7}}$ -->
      <g transform="translate(93.575 196.111713)">
       <text>
        <tspan style="font-family:Helvetica;font-size:7.5px;font-style:regular;font-weight:regular;" x="0 4.171143" y="-0.6453125000000011">10</tspan>
        <tspan style="font-family:Helvetica;font-size:5.25px;font-style:regular;font-weight:regular;" x="8.410918 11.476836" y="-3.390625000000001">−7</tspan>
       </text>
      </g>
     </g>
    </g>
    <g id="ytick_4">
     <g id="line2d_9">
      <g>
       <use style="stroke:#000000;stroke-width:0.85;" x="115.2" xlink:href="#m0f5392e281" y="101.408765"/>
      </g>
     </g>
     <g id="text_9">
      <!-- $\mathdefault{10^{-6}}$ -->
      <g transform="translate(93.575 104.098804)">
       <text>
        <tspan style="font-family:Helvetica;font-size:7.5px;font-style:regular;font-weight:regular;" x="0 4.171143" y="-0.5687500000000005">10</tspan>
        <tspan style="font-family:Helvetica;font-size:5.25px;font-style:regular;font-weight:regular;" x="8.410918 11.476836" y="-3.3140625000000004">−6</tspan>
       </text>
      </g>
     </g>
    </g>
    <g id="ytick_5">
     <g id="line2d_10">
      <defs>
       <path d="M 0 0 
L -1.8 0 
" id="m86fb26fa59" style="stroke:#000000;stroke-width:0.85;"/>
      </defs>
      <g>
       <use style="stroke:#000000;stroke-width:0.85;" x="115.2" xlink:href="#m86fb26fa59" y="441.761756"/>
      </g>
     </g>
    </g>
    <g id="ytick_6">
     <g id="line2d_11">
      <g>
       <use style="stroke:#000000;stroke-width:0.85;" x="115.2" xlink:href="#m86fb26fa59" y="425.559087"/>
      </g>
     </g>
    </g>
    <g id="ytick_7">
     <g id="line2d_12">
      <g>
       <use style="stroke:#000000;stroke-width:0.85;" x="115.2" xlink:href="#m86fb26fa59" y="414.063111"/>
      </g>
     </g>
    </g>
    <g id="ytick_8">
     <g id="line2d_13">
      <g>
       <use style="stroke:#000000;stroke-width:0.85;" x="115.2" xlink:href="#m86fb26fa59" y="405.146138"/>
      </g>
     </g>
    </g>
    <g id="ytick_9">
     <g id="line2d_14">
      <g>
       <use style="stroke:#000000;stroke-width:0.85;" x="115.2" xlink:href="#m86fb26fa59" y="397.860442"/>
      </g>
     </g>
    </g>
    <g id="ytick_10">
     <g id="line2d_15">
      <g>
       <use style="stroke:#000000;stroke-width:0.85;" x="115.2" xlink:href="#m86fb26fa59" y="391.700473"/>
      </g>
     </g>
    </g>
    <g id="ytick_11">
     <g id="line2d_16">
      <g>
       <use style="stroke:#000000;stroke-width:0.85;" x="115.2" xlink:href="#m86fb26fa59" y="386.364465"/>
      </g>
     </g>
    </g>
    <g id="ytick_12">
     <g id="line2d_17">
      <g>
       <use style="stroke:#000000;stroke-width:0.85;" x="115.2" xlink:href="#m86fb26fa59" y="381.657773"/>
      </g>
     </g>
    </g>
    <g id="ytick_13">
     <g id="line2d_18">
      <g>
       <use style="stroke:#000000;stroke-width:0.85;" x="115.2" xlink:href="#m86fb26fa59" y="349.748847"/>
      </g>
     </g>
    </g>
    <g id="ytick_14">
     <g id="line2d_19">
      <g>
       <use style="stroke:#000000;stroke-width:0.85;" x="115.2" xlink:href="#m86fb26fa59" y="333.546178"/>
      </g>
     </g>
    </g>
    <g id="ytick_15">
     <g id="line2d_20">
      <g>
       <use style="stroke:#000000;stroke-width:0.85;" x="115.2" xlink:href="#m86fb26fa59" y="322.050201"/>
      </g>
     </g>
    </g>
    <g id="ytick_16">
     <g id="line2d_21">
      <g>
       <use style="stroke:#000000;stroke-width:0.85;" x="115.2" xlink:href="#m86fb26fa59" y="313.133229"/>
      </g>
     </g>
    </g>
    <g id="ytick_17">
     <g id="line2d_22">
      <g>
       <use style="stroke:#000000;stroke-width:0.85;" x="115.2" xlink:href="#m86fb26fa59" y="305.847532"/>
      </g>
     </g>
    </g>
    <g id="ytick_18">
     <g id="line2d_23">
      <g>
       <use style="stroke:#000000;stroke-width:0.85;" x="115.2" xlink:href="#m86fb26fa59" y="299.687563"/>
      </g>
     </g>
    </g>
    <g id="ytick_19">
     <g id="line2d_24">
      <g>
       <use style="stroke:#000000;stroke-width:0.85;" x="115.2" xlink:href="#m86fb26fa59" y="294.351556"/>
      </g>
     </g>
    </g>
    <g id="ytick_20">
     <g id="line2d_25">
      <g>
       <use style="stroke:#000000;stroke-width:0.85;" x="115.2" xlink:href="#m86fb26fa59" y="289.644863"/>
      </g>
     </g>
    </g>
    <g id="ytick_21">
     <g id="line2d_26">
      <g>
       <use style="stroke:#000000;stroke-width:0.85;" x="115.2" xlink:href="#m86fb26fa59" y="257.735938"/>
      </g>
     </g>
    </g>
    <g id="ytick_22">
     <g id="line2d_27">
      <g>
       <use style="stroke:#000000;stroke-width:0.85;" x="115.2" xlink:href="#m86fb26fa59" y="241.533269"/>
      </g>
     </g>
    </g>
    <g id="ytick_23">
     <g id="line2d_28">
      <g>
       <use style="stroke:#000000;stroke-width:0.85;" x="115.2" xlink:href="#m86fb26fa59" y="230.037292"/>
      </g>
     </g>
    </g>
    <g id="ytick_24">
     <g id="line2d_29">
      <g>
       <use style="stroke:#000000;stroke-width:0.85;" x="115.2" xlink:href="#m86fb26fa59" y="221.12032"/>
      </g>
     </g>
    </g>
    <g id="ytick_25">
     <g id="line2d_30">
      <g>
       <use style="stroke:#000000;stroke-width:0.85;" x="115.2" xlink:href="#m86fb26fa59" y="213.834623"/>
      </g>
     </g>
    </g>
    <g id="ytick_26">
     <g id="line2d_31">
      <g>
       <use style="stroke:#000000;stroke-width:0.85;" x="115.2" xlink:href="#m86fb26fa59" y="207.674654"/>
      </g>
     </g>
    </g>
    <g id="ytick_27">
     <g id="line2d_32">
      <g>
       <use style="stroke:#000000;stroke-width:0.85;" x="115.2" xlink:href="#m86fb26fa59" y="202.338647"/>
      </g>
     </g>
    </g>
    <g id="ytick_28">
     <g id="line2d_33">
      <g>
       <use style="stroke:#000000;stroke-width:0.85;" x="115.2" xlink:href="#m86fb26fa59" y="197.631954"/>
      </g>
     </g>
    </g>
    <g id="ytick_29">
     <g id="line2d_34">
      <g>
       <use style="stroke:#000000;stroke-width:0.85;" x="115.2" xlink:href="#m86fb26fa59" y="165.723029"/>
      </g>
     </g>
    </g>
    <g id="ytick_30">
     <g id="line2d_35">
      <g>
       <use style="stroke:#000000;stroke-width:0.85;" x="115.2" xlink:href="#m86fb26fa59" y="149.52036"/>
      </g>
     </g>
    </g>
    <g id="ytick_31">
     <g id="line2d_36">
      <g>
       <use style="stroke:#000000;stroke-width:0.85;" x="115.2" xlink:href="#m86fb26fa59" y="138.024383"/>
      </g>
     </g>
    </g>
    <g id="ytick_32">
     <g id="line2d_37">
      <g>
       <use style="stroke:#000000;stroke-width:0.85;" x="115.2" xlink:href="#m86fb26fa59" y="129.107411"/>
      </g>
     </g>
    </g>
    <g id="ytick_33">
     <g id="line2d_38">
      <g>
       <use style="stroke:#000000;stroke-width:0.85;" x="115.2" xlink:href="#m86fb26fa59" y="121.821714"/>
      </g>
     </g>
    </g>
    <g id="ytick_34">
     <g id="line2d_39">
      <g>
       <use style="stroke:#000000;stroke-width:0.85;" x="115.2" xlink:href="#m86fb26fa59" y="115.661745"/>
      </g>
     </g>
    </g>
    <g id="ytick_35">
     <g id="line2d_40">
      <g>
       <use style="stroke:#000000;stroke-width:0.85;" x="115.2" xlink:href="#m86fb26fa59" y="110.325737"/>
      </g>
     </g>
    </g>
    <g id="ytick_36">
     <g id="line2d_41">
      <g>
       <use style="stroke:#000000;stroke-width:0.85;" x="115.2" xlink:href="#m86fb26fa59" y="105.619045"/>
      </g>
     </g>
    </g>
    <g id="ytick_37">
     <g id="line2d_42">
      <g>
       <use style="stroke:#000000;stroke-width:0.85;" x="115.2" xlink:href="#m86fb26fa59" y="73.71012"/>
      </g>
     </g>
    </g>
   </g>
   <g id="line2d_43">
    <path clip-path="url(#p170be8fea2)" d="M 115.2 180.383105 
L 117.216 282.60077 
L 119.232 329.902543 
L 121.248 460.8 
L 123.264 375.486388 
L 125.28 321.608093 
L 127.296 351.317733 
L 129.312 358.164474 
L 131.328 302.667417 
L 133.344 388.736212 
L 135.36 302.870288 
L 137.376 334.849956 
L 139.392 304.429094 
L 141.408 336.283206 
L 143.424 302.267786 
L 145.44 394.148772 
L 147.456 298.284739 
L 149.472 321.886697 
L 151.488 296.803952 
L 153.504 359.931941 
L 155.52 298.509144 
L 157.536 320.821513 
L 159.552 391.791916 
L 161.568 333.1855 
L 163.584 332.206237 
L 169.632 330.962179 
L 171.648 331.215199 
L 173.664 331.050929 
L 175.68 343.116153 
L 177.696 340.67872 
L 179.712 296.874654 
L 181.728 340.128401 
L 183.744 341.720825 
L 185.76 319.428761 
L 187.776 295.268096 
L 189.792 356.377428 
L 191.808 296.856036 
L 193.824 318.463757 
L 195.84 294.913439 
L 197.856 317.5224 
L 199.872 294.607623 
L 201.888 350.263646 
L 203.904 339.505074 
L 205.92 309.225153 
L 207.936 339.548392 
L 209.952 340.200711 
L 211.968 295.571302 
L 213.984 189.135621 
L 216 184.684449 
L 220.032 185.387115 
L 222.048 186.021255 
L 224.064 186.272744 
L 226.08 183.294657 
L 228.096 184.49735 
L 230.112 184.071645 
L 232.128 182.77085 
L 234.144 183.399937 
L 236.16 185.299948 
L 238.176 185.298318 
L 240.192 184.466678 
L 242.208 182.953402 
L 244.224 184.579899 
L 246.24 185.542002 
L 248.256 182.895325 
L 250.272 183.682672 
L 254.304 183.87228 
L 256.32 183.479001 
L 258.336 181.273594 
L 262.368 182.505416 
L 264.384 182.770238 
L 266.4 181.888052 
L 268.416 179.450007 
L 270.432 180.714936 
L 272.448 179.199796 
L 274.464 178.268994 
L 276.48 179.994566 
L 278.496 179.482415 
L 280.512 176.694449 
L 282.528 178.626408 
L 284.544 176.736014 
L 286.56 177.066381 
L 288.576 177.541051 
L 290.592 175.810853 
L 292.608 177.163099 
L 294.624 176.060582 
L 296.64 177.700895 
L 298.656 177.430825 
L 300.672 175.156571 
L 302.688 177.237925 
L 304.704 176.25593 
L 306.72 172.359394 
L 308.736 175.309424 
L 310.752 174.551935 
L 312.768 175.454707 
L 314.784 174.252519 
L 316.8 174.730765 
L 318.816 175.417509 
L 320.832 173.95582 
L 322.848 172.783901 
L 324.864 173.094573 
L 326.88 174.136436 
L 328.896 174.049963 
L 330.912 173.234903 
L 332.928 174.065962 
L 334.944 173.563456 
L 336.96 171.288038 
L 338.976 173.273743 
L 340.992 171.470574 
L 343.008 172.185443 
L 345.024 172.349015 
L 347.04 173.061188 
L 349.056 172.118091 
L 351.072 172.804887 
L 353.088 171.649081 
L 355.104 168.996421 
L 357.12 169.788824 
L 359.136 169.71788 
L 361.152 168.993385 
L 363.168 169.813827 
L 365.184 169.242881 
L 369.216 169.488236 
L 371.232 167.647171 
L 373.248 168.066587 
L 375.264 167.680521 
L 377.28 167.741629 
L 379.296 168.487026 
L 381.312 166.722862 
L 383.328 167.256811 
L 385.344 166.312378 
L 387.36 165.958289 
L 389.376 164.203415 
L 391.392 162.925526 
L 393.408 163.95051 
L 395.424 162.564631 
L 397.44 162.514447 
L 399.456 161.431412 
L 401.472 158.813394 
L 403.488 160.789825 
L 405.504 160.717661 
L 407.52 160.162549 
L 409.536 159.199139 
L 413.568 158.735147 
L 415.584 157.789422 
L 417.6 157.313893 
L 419.616 157.684221 
L 421.632 155.322929 
L 423.648 153.650502 
L 425.664 153.393143 
L 427.68 151.611741 
L 429.696 150.809828 
L 431.712 151.053104 
L 435.744 148.809034 
L 437.76 147.372754 
L 439.776 145.447621 
L 443.808 142.347266 
L 445.824 140.434524 
L 447.84 138.330352 
L 449.856 137.778484 
L 451.872 136.483137 
L 453.888 134.213996 
L 455.904 130.47176 
L 457.92 127.719504 
L 459.936 127.577104 
L 461.952 127.643618 
L 463.968 127.357185 
L 465.984 121.914798 
L 468 118.532574 
L 470.016 116.216117 
L 472.032 112.512395 
L 474.048 115.738029 
L 476.064 110.018227 
L 478.08 106.462621 
L 480.096 104.754654 
L 482.112 103.565888 
L 484.128 99.458696 
L 486.144 97.74568 
L 488.16 93.887662 
L 490.176 92.512898 
L 492.192 90.234868 
L 494.208 86.30069 
L 496.224 84.548718 
L 498.24 83.624467 
L 500.256 81.585814 
L 502.272 78.846822 
L 504.288 76.899459 
L 508.32 70.128424 
L 510.336 67.611395 
L 512.352 64.810894 
L 514.368 63.108916 
L 516.384 59.798217 
L 518.4 57.6 
L 518.4 57.6 
" style="fill:none;stroke:#1f77b4;stroke-linecap:square;stroke-width:0.85;"/>
   </g>
   <g id="patch_3">
    <path d="M 115.2 460.8 
L 115.2 57.6 
" style="fill:none;stroke:#000000;stroke-linecap:square;stroke-linejoin:miter;stroke-width:0.85;"/>
   </g>
   <g id="patch_4">
    <path d="M 518.4 460.8 
L 518.4 57.6 
" style="fill:none;stroke:#000000;stroke-linecap:square;stroke-linejoin:miter;stroke-width:0.85;"/>
   </g>
   <g id="patch_5">
    <path d="M 115.2 460.8 
L 518.4 460.8 
" style="fill:none;stroke:#000000;stroke-linecap:square;stroke-linejoin:miter;stroke-width:0.85;"/>
   </g>
   <g id="patch_6">
    <path d="M 115.2 57.6 
L 518.4 57.6 
" style="fill:none;stroke:#000000;stroke-linecap:square;stroke-linejoin:miter;stroke-width:0.85;"/>
   </g>
  </g>
 </g>
 <defs>
  <clipPath id="p170be8fea2">
   <rect height="403.2" width="403.2" x="115.2" y="57.6"/>
  </clipPath>
 </defs>
</svg>
