<?xml version="1.0" encoding="utf-8" standalone="no"?>
<!DOCTYPE svg PUBLIC "-//W3C//DTD SVG 1.1//EN"
  "http://www.w3.org/Graphics/SVG/1.1/DTD/svg11.dtd">
<!-- Created with matplotlib (https://matplotlib.org/) -->
<svg height="576pt" version="1.1" viewBox="0 0 576 576" width="576pt" xmlns="http://www.w3.org/2000/svg" xmlns:xlink="http://www.w3.org/1999/xlink">
 <defs>
  <style type="text/css">
*{stroke-linecap:butt;stroke-linejoin:round;}
  </style>
 </defs>
 <g id="figure_1">
  <g id="patch_1">
   <path d="M 0 576 
L 576 576 
L 576 0 
L 0 0 
z
" style="fill:none;"/>
  </g>
  <g id="axes_1">
   <g id="patch_2">
    <path d="M 115.2 460.8 
L 518.4 460.8 
L 518.4 57.6 
L 115.2 57.6 
z
" style="fill:none;"/>
   </g>
   <g id="matplotlib.axis_1">
    <g id="xtick_1">
     <g id="line2d_1">
      <defs>
       <path d="M 0 0 
L 0 3.5 
" id="m91f1f9db5f" style="stroke:#000000;stroke-width:0.85;"/>
      </defs>
      <g>
       <use style="stroke:#000000;stroke-width:0.85;" x="155.52" xlink:href="#m91f1f9db5f" y="460.8"/>
      </g>
     </g>
     <g id="text_1">
      <text style="font-family:Helvetica;font-size:7.5px;font-style:normal;font-weight:medium;text-anchor:middle;" transform="rotate(-0, 155.52, 473.180078)" x="155.52" y="473.180078">−40</text>
     </g>
    </g>
    <g id="xtick_2">
     <g id="line2d_2">
      <g>
       <use style="stroke:#000000;stroke-width:0.85;" x="236.16" xlink:href="#m91f1f9db5f" y="460.8"/>
      </g>
     </g>
     <g id="text_2">
      <text style="font-family:Helvetica;font-size:7.5px;font-style:normal;font-weight:medium;text-anchor:middle;" transform="rotate(-0, 236.16, 473.180078)" x="236.16" y="473.180078">−20</text>
     </g>
    </g>
    <g id="xtick_3">
     <g id="line2d_3">
      <g>
       <use style="stroke:#000000;stroke-width:0.85;" x="316.8" xlink:href="#m91f1f9db5f" y="460.8"/>
      </g>
     </g>
     <g id="text_3">
      <text style="font-family:Helvetica;font-size:7.5px;font-style:normal;font-weight:medium;text-anchor:middle;" transform="rotate(-0, 316.8, 473.180078)" x="316.8" y="473.180078">0</text>
     </g>
    </g>
    <g id="xtick_4">
     <g id="line2d_4">
      <g>
       <use style="stroke:#000000;stroke-width:0.85;" x="397.44" xlink:href="#m91f1f9db5f" y="460.8"/>
      </g>
     </g>
     <g id="text_4">
      <text style="font-family:Helvetica;font-size:7.5px;font-style:normal;font-weight:medium;text-anchor:middle;" transform="rotate(-0, 397.44, 473.180078)" x="397.44" y="473.180078">20</text>
     </g>
    </g>
    <g id="xtick_5">
     <g id="line2d_5">
      <g>
       <use style="stroke:#000000;stroke-width:0.85;" x="478.08" xlink:href="#m91f1f9db5f" y="460.8"/>
      </g>
     </g>
     <g id="text_5">
      <text style="font-family:Helvetica;font-size:7.5px;font-style:normal;font-weight:medium;text-anchor:middle;" transform="rotate(-0, 478.08, 473.180078)" x="478.08" y="473.180078">40</text>
     </g>
    </g>
   </g>
   <g id="matplotlib.axis_2">
    <g id="ytick_1">
     <g id="line2d_6">
      <defs>
       <path d="M 0 0 
L -3.5 0 
" id="ma1b63545e8" style="stroke:#000000;stroke-width:0.85;"/>
      </defs>
      <g>
       <use style="stroke:#000000;stroke-width:0.85;" x="115.2" xlink:href="#ma1b63545e8" y="406.174039"/>
      </g>
     </g>
     <g id="text_6">
      <!-- $\mathdefault{10^{-9}}$ -->
      <g transform="translate(93.575 408.864078)">
       <text>
        <tspan style="font-family:Helvetica;font-size:7.5px;font-style:regular;font-weight:regular;" x="0 4.171143" y="-0.5796875000000004">10</tspan>
        <tspan style="font-family:Helvetica;font-size:5.25px;font-style:regular;font-weight:regular;" x="8.410918 11.476836" y="-3.325">−9</tspan>
       </text>
      </g>
     </g>
    </g>
    <g id="ytick_2">
     <g id="line2d_7">
      <g>
       <use style="stroke:#000000;stroke-width:0.85;" x="115.2" xlink:href="#ma1b63545e8" y="324.369695"/>
      </g>
     </g>
     <g id="text_7">
      <!-- $\mathdefault{10^{-8}}$ -->
      <g transform="translate(93.575 327.059734)">
       <text>
        <tspan style="font-family:Helvetica;font-size:7.5px;font-style:regular;font-weight:regular;" x="0 4.171143" y="-0.5687500000000005">10</tspan>
        <tspan style="font-family:Helvetica;font-size:5.25px;font-style:regular;font-weight:regular;" x="8.410918 11.476836" y="-3.3140625000000004">−8</tspan>
       </text>
      </g>
     </g>
    </g>
    <g id="ytick_3">
     <g id="line2d_8">
      <g>
       <use style="stroke:#000000;stroke-width:0.85;" x="115.2" xlink:href="#ma1b63545e8" y="242.565352"/>
      </g>
     </g>
     <g id="text_8">
      <!-- $\mathdefault{10^{-7}}$ -->
      <g transform="translate(93.575 245.255391)">
       <text>
        <tspan style="font-family:Helvetica;font-size:7.5px;font-style:regular;font-weight:regular;" x="0 4.171143" y="-0.6453125000000011">10</tspan>
        <tspan style="font-family:Helvetica;font-size:5.25px;font-style:regular;font-weight:regular;" x="8.410918 11.476836" y="-3.390625000000001">−7</tspan>
       </text>
      </g>
     </g>
    </g>
    <g id="ytick_4">
     <g id="line2d_9">
      <g>
       <use style="stroke:#000000;stroke-width:0.85;" x="115.2" xlink:href="#ma1b63545e8" y="160.761009"/>
      </g>
     </g>
     <g id="text_9">
      <!-- $\mathdefault{10^{-6}}$ -->
      <g transform="translate(93.575 163.451048)">
       <text>
        <tspan style="font-family:Helvetica;font-size:7.5px;font-style:regular;font-weight:regular;" x="0 4.171143" y="-0.5687500000000005">10</tspan>
        <tspan style="font-family:Helvetica;font-size:5.25px;font-style:regular;font-weight:regular;" x="8.410918 11.476836" y="-3.3140625000000004">−6</tspan>
       </text>
      </g>
     </g>
    </g>
    <g id="ytick_5">
     <g id="line2d_10">
      <g>
       <use style="stroke:#000000;stroke-width:0.85;" x="115.2" xlink:href="#ma1b63545e8" y="78.956666"/>
      </g>
     </g>
     <g id="text_10">
      <!-- $\mathdefault{10^{-5}}$ -->
      <g transform="translate(93.575 81.646705)">
       <text>
        <tspan style="font-family:Helvetica;font-size:7.5px;font-style:regular;font-weight:regular;" x="0 4.171143" y="-0.6453125000000011">10</tspan>
        <tspan style="font-family:Helvetica;font-size:5.25px;font-style:regular;font-weight:regular;" x="8.410918 11.476836" y="-3.390625000000001">−5</tspan>
       </text>
      </g>
     </g>
    </g>
    <g id="ytick_6">
     <g id="line2d_11">
      <defs>
       <path d="M 0 0 
L -1.8 0 
" id="m2f872d7d71" style="stroke:#000000;stroke-width:0.85;"/>
      </defs>
      <g>
       <use style="stroke:#000000;stroke-width:0.85;" x="115.2" xlink:href="#m2f872d7d71" y="448.947791"/>
      </g>
     </g>
    </g>
    <g id="ytick_7">
     <g id="line2d_12">
      <g>
       <use style="stroke:#000000;stroke-width:0.85;" x="115.2" xlink:href="#m2f872d7d71" y="438.72726"/>
      </g>
     </g>
    </g>
    <g id="ytick_8">
     <g id="line2d_13">
      <g>
       <use style="stroke:#000000;stroke-width:0.85;" x="115.2" xlink:href="#m2f872d7d71" y="430.7996"/>
      </g>
     </g>
    </g>
    <g id="ytick_9">
     <g id="line2d_14">
      <g>
       <use style="stroke:#000000;stroke-width:0.85;" x="115.2" xlink:href="#m2f872d7d71" y="424.32223"/>
      </g>
     </g>
    </g>
    <g id="ytick_10">
     <g id="line2d_15">
      <g>
       <use style="stroke:#000000;stroke-width:0.85;" x="115.2" xlink:href="#m2f872d7d71" y="418.845692"/>
      </g>
     </g>
    </g>
    <g id="ytick_11">
     <g id="line2d_16">
      <g>
       <use style="stroke:#000000;stroke-width:0.85;" x="115.2" xlink:href="#m2f872d7d71" y="414.101699"/>
      </g>
     </g>
    </g>
    <g id="ytick_12">
     <g id="line2d_17">
      <g>
       <use style="stroke:#000000;stroke-width:0.85;" x="115.2" xlink:href="#m2f872d7d71" y="409.9172"/>
      </g>
     </g>
    </g>
    <g id="ytick_13">
     <g id="line2d_18">
      <g>
       <use style="stroke:#000000;stroke-width:0.85;" x="115.2" xlink:href="#m2f872d7d71" y="381.548477"/>
      </g>
     </g>
    </g>
    <g id="ytick_14">
     <g id="line2d_19">
      <g>
       <use style="stroke:#000000;stroke-width:0.85;" x="115.2" xlink:href="#m2f872d7d71" y="367.143448"/>
      </g>
     </g>
    </g>
    <g id="ytick_15">
     <g id="line2d_20">
      <g>
       <use style="stroke:#000000;stroke-width:0.85;" x="115.2" xlink:href="#m2f872d7d71" y="356.922916"/>
      </g>
     </g>
    </g>
    <g id="ytick_16">
     <g id="line2d_21">
      <g>
       <use style="stroke:#000000;stroke-width:0.85;" x="115.2" xlink:href="#m2f872d7d71" y="348.995256"/>
      </g>
     </g>
    </g>
    <g id="ytick_17">
     <g id="line2d_22">
      <g>
       <use style="stroke:#000000;stroke-width:0.85;" x="115.2" xlink:href="#m2f872d7d71" y="342.517887"/>
      </g>
     </g>
    </g>
    <g id="ytick_18">
     <g id="line2d_23">
      <g>
       <use style="stroke:#000000;stroke-width:0.85;" x="115.2" xlink:href="#m2f872d7d71" y="337.041348"/>
      </g>
     </g>
    </g>
    <g id="ytick_19">
     <g id="line2d_24">
      <g>
       <use style="stroke:#000000;stroke-width:0.85;" x="115.2" xlink:href="#m2f872d7d71" y="332.297355"/>
      </g>
     </g>
    </g>
    <g id="ytick_20">
     <g id="line2d_25">
      <g>
       <use style="stroke:#000000;stroke-width:0.85;" x="115.2" xlink:href="#m2f872d7d71" y="328.112857"/>
      </g>
     </g>
    </g>
    <g id="ytick_21">
     <g id="line2d_26">
      <g>
       <use style="stroke:#000000;stroke-width:0.85;" x="115.2" xlink:href="#m2f872d7d71" y="299.744134"/>
      </g>
     </g>
    </g>
    <g id="ytick_22">
     <g id="line2d_27">
      <g>
       <use style="stroke:#000000;stroke-width:0.85;" x="115.2" xlink:href="#m2f872d7d71" y="285.339104"/>
      </g>
     </g>
    </g>
    <g id="ytick_23">
     <g id="line2d_28">
      <g>
       <use style="stroke:#000000;stroke-width:0.85;" x="115.2" xlink:href="#m2f872d7d71" y="275.118573"/>
      </g>
     </g>
    </g>
    <g id="ytick_24">
     <g id="line2d_29">
      <g>
       <use style="stroke:#000000;stroke-width:0.85;" x="115.2" xlink:href="#m2f872d7d71" y="267.190913"/>
      </g>
     </g>
    </g>
    <g id="ytick_25">
     <g id="line2d_30">
      <g>
       <use style="stroke:#000000;stroke-width:0.85;" x="115.2" xlink:href="#m2f872d7d71" y="260.713543"/>
      </g>
     </g>
    </g>
    <g id="ytick_26">
     <g id="line2d_31">
      <g>
       <use style="stroke:#000000;stroke-width:0.85;" x="115.2" xlink:href="#m2f872d7d71" y="255.237005"/>
      </g>
     </g>
    </g>
    <g id="ytick_27">
     <g id="line2d_32">
      <g>
       <use style="stroke:#000000;stroke-width:0.85;" x="115.2" xlink:href="#m2f872d7d71" y="250.493012"/>
      </g>
     </g>
    </g>
    <g id="ytick_28">
     <g id="line2d_33">
      <g>
       <use style="stroke:#000000;stroke-width:0.85;" x="115.2" xlink:href="#m2f872d7d71" y="246.308514"/>
      </g>
     </g>
    </g>
    <g id="ytick_29">
     <g id="line2d_34">
      <g>
       <use style="stroke:#000000;stroke-width:0.85;" x="115.2" xlink:href="#m2f872d7d71" y="217.939791"/>
      </g>
     </g>
    </g>
    <g id="ytick_30">
     <g id="line2d_35">
      <g>
       <use style="stroke:#000000;stroke-width:0.85;" x="115.2" xlink:href="#m2f872d7d71" y="203.534761"/>
      </g>
     </g>
    </g>
    <g id="ytick_31">
     <g id="line2d_36">
      <g>
       <use style="stroke:#000000;stroke-width:0.85;" x="115.2" xlink:href="#m2f872d7d71" y="193.31423"/>
      </g>
     </g>
    </g>
    <g id="ytick_32">
     <g id="line2d_37">
      <g>
       <use style="stroke:#000000;stroke-width:0.85;" x="115.2" xlink:href="#m2f872d7d71" y="185.38657"/>
      </g>
     </g>
    </g>
    <g id="ytick_33">
     <g id="line2d_38">
      <g>
       <use style="stroke:#000000;stroke-width:0.85;" x="115.2" xlink:href="#m2f872d7d71" y="178.9092"/>
      </g>
     </g>
    </g>
    <g id="ytick_34">
     <g id="line2d_39">
      <g>
       <use style="stroke:#000000;stroke-width:0.85;" x="115.2" xlink:href="#m2f872d7d71" y="173.432662"/>
      </g>
     </g>
    </g>
    <g id="ytick_35">
     <g id="line2d_40">
      <g>
       <use style="stroke:#000000;stroke-width:0.85;" x="115.2" xlink:href="#m2f872d7d71" y="168.688669"/>
      </g>
     </g>
    </g>
    <g id="ytick_36">
     <g id="line2d_41">
      <g>
       <use style="stroke:#000000;stroke-width:0.85;" x="115.2" xlink:href="#m2f872d7d71" y="164.50417"/>
      </g>
     </g>
    </g>
    <g id="ytick_37">
     <g id="line2d_42">
      <g>
       <use style="stroke:#000000;stroke-width:0.85;" x="115.2" xlink:href="#m2f872d7d71" y="136.135448"/>
      </g>
     </g>
    </g>
    <g id="ytick_38">
     <g id="line2d_43">
      <g>
       <use style="stroke:#000000;stroke-width:0.85;" x="115.2" xlink:href="#m2f872d7d71" y="121.730418"/>
      </g>
     </g>
    </g>
    <g id="ytick_39">
     <g id="line2d_44">
      <g>
       <use style="stroke:#000000;stroke-width:0.85;" x="115.2" xlink:href="#m2f872d7d71" y="111.509887"/>
      </g>
     </g>
    </g>
    <g id="ytick_40">
     <g id="line2d_45">
      <g>
       <use style="stroke:#000000;stroke-width:0.85;" x="115.2" xlink:href="#m2f872d7d71" y="103.582227"/>
      </g>
     </g>
    </g>
    <g id="ytick_41">
     <g id="line2d_46">
      <g>
       <use style="stroke:#000000;stroke-width:0.85;" x="115.2" xlink:href="#m2f872d7d71" y="97.104857"/>
      </g>
     </g>
    </g>
    <g id="ytick_42">
     <g id="line2d_47">
      <g>
       <use style="stroke:#000000;stroke-width:0.85;" x="115.2" xlink:href="#m2f872d7d71" y="91.628319"/>
      </g>
     </g>
    </g>
    <g id="ytick_43">
     <g id="line2d_48">
      <g>
       <use style="stroke:#000000;stroke-width:0.85;" x="115.2" xlink:href="#m2f872d7d71" y="86.884326"/>
      </g>
     </g>
    </g>
    <g id="ytick_44">
     <g id="line2d_49">
      <g>
       <use style="stroke:#000000;stroke-width:0.85;" x="115.2" xlink:href="#m2f872d7d71" y="82.699827"/>
      </g>
     </g>
    </g>
   </g>
   <g id="line2d_50">
    <path clip-path="url(#p1227103adf)" d="M 115.2 229.429983 
L 117.216 314.725987 
L 119.232 372.895002 
L 121.248 460.8 
L 123.264 357.602617 
L 125.28 340.929168 
L 127.296 399.4812 
L 129.312 341.725069 
L 131.328 376.049615 
L 133.344 376.502899 
L 135.36 375.171911 
L 137.376 374.653171 
L 139.392 373.834623 
L 141.408 372.074705 
L 143.424 372.062462 
L 145.44 362.317393 
L 147.456 336.39658 
L 149.472 358.783575 
L 151.488 335.706068 
L 153.504 234.810061 
L 157.536 227.802594 
L 159.552 227.985957 
L 161.568 224.586103 
L 163.584 179.621629 
L 165.6 174.075134 
L 167.616 158.081779 
L 169.632 155.028281 
L 171.648 156.647636 
L 173.664 155.66707 
L 175.68 154.119115 
L 177.696 154.309702 
L 179.712 149.724274 
L 181.728 154.511744 
L 183.744 151.125426 
L 185.76 150.636353 
L 187.776 146.898695 
L 189.792 137.398052 
L 195.84 139.203147 
L 197.856 141.267274 
L 199.872 144.537439 
L 201.888 144.762958 
L 203.904 142.026091 
L 205.92 141.292527 
L 207.936 143.051792 
L 209.952 139.775926 
L 211.968 142.803398 
L 213.984 142.796112 
L 216 141.355637 
L 218.016 143.471865 
L 220.032 140.349491 
L 222.048 139.836594 
L 224.064 135.34182 
L 226.08 132.221669 
L 228.096 133.759795 
L 230.112 130.178345 
L 232.128 129.664444 
L 234.144 128.921908 
L 236.16 132.847666 
L 238.176 134.579132 
L 240.192 133.277603 
L 242.208 136.648596 
L 244.224 135.736242 
L 246.24 133.172041 
L 248.256 131.599787 
L 250.272 132.300195 
L 252.288 130.74326 
L 254.304 132.074166 
L 256.32 131.687762 
L 258.336 130.425554 
L 260.352 129.703108 
L 262.368 126.29338 
L 266.4 125.773268 
L 268.416 124.199943 
L 270.432 125.644917 
L 272.448 124.079925 
L 274.464 123.470546 
L 276.48 121.924213 
L 278.496 122.898356 
L 280.512 120.080035 
L 282.528 126.180719 
L 284.544 125.616634 
L 286.56 124.454751 
L 288.576 122.283477 
L 290.592 121.308151 
L 292.608 122.605847 
L 294.624 121.31213 
L 296.64 120.184305 
L 298.656 120.402324 
L 300.672 119.112301 
L 304.704 114.489678 
L 306.72 118.644222 
L 308.736 117.086471 
L 310.752 116.555002 
L 312.768 114.328932 
L 314.784 111.256771 
L 316.8 116.359909 
L 318.816 110.313798 
L 320.832 113.395918 
L 322.848 113.722794 
L 324.864 111.971169 
L 326.88 111.515039 
L 328.896 111.448123 
L 330.912 110.288817 
L 332.928 108.994034 
L 334.944 107.470477 
L 336.96 107.568434 
L 338.976 106.202505 
L 340.992 106.255707 
L 343.008 105.797724 
L 345.024 105.100009 
L 347.04 104.156125 
L 349.056 104.844867 
L 351.072 104.719851 
L 353.088 103.047327 
L 355.104 102.806947 
L 357.12 101.156864 
L 359.136 100.244993 
L 361.152 100.072319 
L 363.168 99.670166 
L 365.184 100.229213 
L 367.2 99.755809 
L 369.216 98.019088 
L 371.232 97.843816 
L 373.248 97.275084 
L 375.264 95.608383 
L 377.28 94.878272 
L 379.296 93.921461 
L 381.312 94.624134 
L 383.328 93.128922 
L 385.344 94.451114 
L 387.36 91.543409 
L 389.376 90.393288 
L 391.392 91.140495 
L 393.408 89.988354 
L 395.424 88.335263 
L 397.44 87.28973 
L 399.456 87.240489 
L 401.472 86.538778 
L 403.488 86.081362 
L 407.52 84.602836 
L 409.536 84.490567 
L 411.552 84.189573 
L 413.568 82.548174 
L 415.584 83.807726 
L 417.6 82.847373 
L 419.616 82.444713 
L 421.632 80.389936 
L 423.648 80.106985 
L 425.664 78.94814 
L 427.68 79.237371 
L 429.696 78.629902 
L 431.712 78.500594 
L 433.728 78.065892 
L 435.744 77.119566 
L 437.76 77.372478 
L 439.776 76.565897 
L 443.808 75.359001 
L 445.824 75.095749 
L 447.84 74.694566 
L 449.856 73.948403 
L 453.888 72.954378 
L 455.904 72.752422 
L 457.92 72.338355 
L 459.936 71.576051 
L 470.016 69.360924 
L 474.048 68.26034 
L 478.08 67.567537 
L 480.096 67.220137 
L 484.128 66.25646 
L 486.144 65.926511 
L 488.16 65.214803 
L 492.192 64.165548 
L 498.24 63.234153 
L 502.272 62.027923 
L 506.304 61.403392 
L 512.352 59.59082 
L 514.368 59.06982 
L 516.384 58.218443 
L 518.4 57.6 
L 518.4 57.6 
" style="fill:none;stroke:#1f77b4;stroke-linecap:square;stroke-width:0.85;"/>
   </g>
   <g id="patch_3">
    <path d="M 115.2 460.8 
L 115.2 57.6 
" style="fill:none;stroke:#000000;stroke-linecap:square;stroke-linejoin:miter;stroke-width:0.85;"/>
   </g>
   <g id="patch_4">
    <path d="M 518.4 460.8 
L 518.4 57.6 
" style="fill:none;stroke:#000000;stroke-linecap:square;stroke-linejoin:miter;stroke-width:0.85;"/>
   </g>
   <g id="patch_5">
    <path d="M 115.2 460.8 
L 518.4 460.8 
" style="fill:none;stroke:#000000;stroke-linecap:square;stroke-linejoin:miter;stroke-width:0.85;"/>
   </g>
   <g id="patch_6">
    <path d="M 115.2 57.6 
L 518.4 57.6 
" style="fill:none;stroke:#000000;stroke-linecap:square;stroke-linejoin:miter;stroke-width:0.85;"/>
   </g>
  </g>
 </g>
 <defs>
  <clipPath id="p1227103adf">
   <rect height="403.2" width="403.2" x="115.2" y="57.6"/>
  </clipPath>
 </defs>
</svg>
