<?xml version="1.0" encoding="utf-8" standalone="no"?>
<!DOCTYPE svg PUBLIC "-//W3C//DTD SVG 1.1//EN"
  "http://www.w3.org/Graphics/SVG/1.1/DTD/svg11.dtd">
<!-- Created with matplotlib (https://matplotlib.org/) -->
<svg height="576pt" version="1.1" viewBox="0 0 576 576" width="576pt" xmlns="http://www.w3.org/2000/svg" xmlns:xlink="http://www.w3.org/1999/xlink">
 <defs>
  <style type="text/css">
*{stroke-linecap:butt;stroke-linejoin:round;}
  </style>
 </defs>
 <g id="figure_1">
  <g id="patch_1">
   <path d="M 0 576 
L 576 576 
L 576 0 
L 0 0 
z
" style="fill:none;"/>
  </g>
  <g id="axes_1">
   <g id="patch_2">
    <path d="M 115.2 460.8 
L 518.4 460.8 
L 518.4 57.6 
L 115.2 57.6 
z
" style="fill:none;"/>
   </g>
   <g id="matplotlib.axis_1">
    <g id="xtick_1">
     <g id="line2d_1">
      <defs>
       <path d="M 0 0 
L 0 3.5 
" id="m3feaf05062" style="stroke:#000000;stroke-width:0.85;"/>
      </defs>
      <g>
       <use style="stroke:#000000;stroke-width:0.85;" x="115.2" xlink:href="#m3feaf05062" y="460.8"/>
      </g>
     </g>
     <g id="text_1">
      <text style="font-family:Helvetica;font-size:7.5px;font-style:normal;font-weight:medium;text-anchor:middle;" transform="rotate(-0, 115.2, 473.180078)" x="115.2" y="473.180078">−50</text>
     </g>
    </g>
    <g id="xtick_2">
     <g id="line2d_2">
      <g>
       <use style="stroke:#000000;stroke-width:0.85;" x="165.6" xlink:href="#m3feaf05062" y="460.8"/>
      </g>
     </g>
     <g id="text_2">
      <text style="font-family:Helvetica;font-size:7.5px;font-style:normal;font-weight:medium;text-anchor:middle;" transform="rotate(-0, 165.6, 473.180078)" x="165.6" y="473.180078">−45</text>
     </g>
    </g>
    <g id="xtick_3">
     <g id="line2d_3">
      <g>
       <use style="stroke:#000000;stroke-width:0.85;" x="216" xlink:href="#m3feaf05062" y="460.8"/>
      </g>
     </g>
     <g id="text_3">
      <text style="font-family:Helvetica;font-size:7.5px;font-style:normal;font-weight:medium;text-anchor:middle;" transform="rotate(-0, 216, 473.180078)" x="216" y="473.180078">−40</text>
     </g>
    </g>
    <g id="xtick_4">
     <g id="line2d_4">
      <g>
       <use style="stroke:#000000;stroke-width:0.85;" x="266.4" xlink:href="#m3feaf05062" y="460.8"/>
      </g>
     </g>
     <g id="text_4">
      <text style="font-family:Helvetica;font-size:7.5px;font-style:normal;font-weight:medium;text-anchor:middle;" transform="rotate(-0, 266.4, 473.180078)" x="266.4" y="473.180078">−35</text>
     </g>
    </g>
    <g id="xtick_5">
     <g id="line2d_5">
      <g>
       <use style="stroke:#000000;stroke-width:0.85;" x="316.8" xlink:href="#m3feaf05062" y="460.8"/>
      </g>
     </g>
     <g id="text_5">
      <text style="font-family:Helvetica;font-size:7.5px;font-style:normal;font-weight:medium;text-anchor:middle;" transform="rotate(-0, 316.8, 473.180078)" x="316.8" y="473.180078">−30</text>
     </g>
    </g>
    <g id="xtick_6">
     <g id="line2d_6">
      <g>
       <use style="stroke:#000000;stroke-width:0.85;" x="367.2" xlink:href="#m3feaf05062" y="460.8"/>
      </g>
     </g>
     <g id="text_6">
      <text style="font-family:Helvetica;font-size:7.5px;font-style:normal;font-weight:medium;text-anchor:middle;" transform="rotate(-0, 367.2, 473.180078)" x="367.2" y="473.180078">−25</text>
     </g>
    </g>
    <g id="xtick_7">
     <g id="line2d_7">
      <g>
       <use style="stroke:#000000;stroke-width:0.85;" x="417.6" xlink:href="#m3feaf05062" y="460.8"/>
      </g>
     </g>
     <g id="text_7">
      <text style="font-family:Helvetica;font-size:7.5px;font-style:normal;font-weight:medium;text-anchor:middle;" transform="rotate(-0, 417.6, 473.180078)" x="417.6" y="473.180078">−20</text>
     </g>
    </g>
    <g id="xtick_8">
     <g id="line2d_8">
      <g>
       <use style="stroke:#000000;stroke-width:0.85;" x="468" xlink:href="#m3feaf05062" y="460.8"/>
      </g>
     </g>
     <g id="text_8">
      <text style="font-family:Helvetica;font-size:7.5px;font-style:normal;font-weight:medium;text-anchor:middle;" transform="rotate(-0, 468, 473.180078)" x="468" y="473.180078">−15</text>
     </g>
    </g>
    <g id="xtick_9">
     <g id="line2d_9">
      <g>
       <use style="stroke:#000000;stroke-width:0.85;" x="518.4" xlink:href="#m3feaf05062" y="460.8"/>
      </g>
     </g>
     <g id="text_9">
      <text style="font-family:Helvetica;font-size:7.5px;font-style:normal;font-weight:medium;text-anchor:middle;" transform="rotate(-0, 518.4, 473.180078)" x="518.4" y="473.180078">−10</text>
     </g>
    </g>
   </g>
   <g id="matplotlib.axis_2">
    <g id="ytick_1">
     <g id="line2d_10">
      <defs>
       <path d="M 0 0 
L -3.5 0 
" id="mc4d04c1616" style="stroke:#000000;stroke-width:0.85;"/>
      </defs>
      <g>
       <use style="stroke:#000000;stroke-width:0.85;" x="115.2" xlink:href="#mc4d04c1616" y="362.339207"/>
      </g>
     </g>
     <g id="text_10">
      <!-- $\mathdefault{10^{-9}}$ -->
      <g transform="translate(93.575 365.029246)">
       <text>
        <tspan style="font-family:Helvetica;font-size:7.5px;font-style:regular;font-weight:regular;" x="0 4.171143" y="-0.5796875000000004">10</tspan>
        <tspan style="font-family:Helvetica;font-size:5.25px;font-style:regular;font-weight:regular;" x="8.410918 11.476836" y="-3.325">−9</tspan>
       </text>
      </g>
     </g>
    </g>
    <g id="ytick_2">
     <g id="line2d_11">
      <g>
       <use style="stroke:#000000;stroke-width:0.85;" x="115.2" xlink:href="#mc4d04c1616" y="222.391506"/>
      </g>
     </g>
     <g id="text_11">
      <!-- $\mathdefault{10^{-8}}$ -->
      <g transform="translate(93.575 225.081545)">
       <text>
        <tspan style="font-family:Helvetica;font-size:7.5px;font-style:regular;font-weight:regular;" x="0 4.171143" y="-0.5687500000000005">10</tspan>
        <tspan style="font-family:Helvetica;font-size:5.25px;font-style:regular;font-weight:regular;" x="8.410918 11.476836" y="-3.3140625000000004">−8</tspan>
       </text>
      </g>
     </g>
    </g>
    <g id="ytick_3">
     <g id="line2d_12">
      <g>
       <use style="stroke:#000000;stroke-width:0.85;" x="115.2" xlink:href="#mc4d04c1616" y="82.443806"/>
      </g>
     </g>
     <g id="text_12">
      <!-- $\mathdefault{10^{-7}}$ -->
      <g transform="translate(93.575 85.133845)">
       <text>
        <tspan style="font-family:Helvetica;font-size:7.5px;font-style:regular;font-weight:regular;" x="0 4.171143" y="-0.6453125000000011">10</tspan>
        <tspan style="font-family:Helvetica;font-size:5.25px;font-style:regular;font-weight:regular;" x="8.410918 11.476836" y="-3.390625000000001">−7</tspan>
       </text>
      </g>
     </g>
    </g>
    <g id="ytick_4">
     <g id="line2d_13">
      <defs>
       <path d="M 0 0 
L -1.8 0 
" id="mbcd1d66cff" style="stroke:#000000;stroke-width:0.85;"/>
      </defs>
      <g>
       <use style="stroke:#000000;stroke-width:0.85;" x="115.2" xlink:href="#mbcd1d66cff" y="460.158452"/>
      </g>
     </g>
    </g>
    <g id="ytick_5">
     <g id="line2d_14">
      <g>
       <use style="stroke:#000000;stroke-width:0.85;" x="115.2" xlink:href="#mbcd1d66cff" y="435.514885"/>
      </g>
     </g>
    </g>
    <g id="ytick_6">
     <g id="line2d_15">
      <g>
       <use style="stroke:#000000;stroke-width:0.85;" x="115.2" xlink:href="#mbcd1d66cff" y="418.029996"/>
      </g>
     </g>
    </g>
    <g id="ytick_7">
     <g id="line2d_16">
      <g>
       <use style="stroke:#000000;stroke-width:0.85;" x="115.2" xlink:href="#mbcd1d66cff" y="404.467662"/>
      </g>
     </g>
    </g>
    <g id="ytick_8">
     <g id="line2d_17">
      <g>
       <use style="stroke:#000000;stroke-width:0.85;" x="115.2" xlink:href="#mbcd1d66cff" y="393.386429"/>
      </g>
     </g>
    </g>
    <g id="ytick_9">
     <g id="line2d_18">
      <g>
       <use style="stroke:#000000;stroke-width:0.85;" x="115.2" xlink:href="#mbcd1d66cff" y="384.01738"/>
      </g>
     </g>
    </g>
    <g id="ytick_10">
     <g id="line2d_19">
      <g>
       <use style="stroke:#000000;stroke-width:0.85;" x="115.2" xlink:href="#mbcd1d66cff" y="375.90154"/>
      </g>
     </g>
    </g>
    <g id="ytick_11">
     <g id="line2d_20">
      <g>
       <use style="stroke:#000000;stroke-width:0.85;" x="115.2" xlink:href="#mbcd1d66cff" y="368.742862"/>
      </g>
     </g>
    </g>
    <g id="ytick_12">
     <g id="line2d_21">
      <g>
       <use style="stroke:#000000;stroke-width:0.85;" x="115.2" xlink:href="#mbcd1d66cff" y="320.210751"/>
      </g>
     </g>
    </g>
    <g id="ytick_13">
     <g id="line2d_22">
      <g>
       <use style="stroke:#000000;stroke-width:0.85;" x="115.2" xlink:href="#mbcd1d66cff" y="295.567184"/>
      </g>
     </g>
    </g>
    <g id="ytick_14">
     <g id="line2d_23">
      <g>
       <use style="stroke:#000000;stroke-width:0.85;" x="115.2" xlink:href="#mbcd1d66cff" y="278.082295"/>
      </g>
     </g>
    </g>
    <g id="ytick_15">
     <g id="line2d_24">
      <g>
       <use style="stroke:#000000;stroke-width:0.85;" x="115.2" xlink:href="#mbcd1d66cff" y="264.519962"/>
      </g>
     </g>
    </g>
    <g id="ytick_16">
     <g id="line2d_25">
      <g>
       <use style="stroke:#000000;stroke-width:0.85;" x="115.2" xlink:href="#mbcd1d66cff" y="253.438729"/>
      </g>
     </g>
    </g>
    <g id="ytick_17">
     <g id="line2d_26">
      <g>
       <use style="stroke:#000000;stroke-width:0.85;" x="115.2" xlink:href="#mbcd1d66cff" y="244.069679"/>
      </g>
     </g>
    </g>
    <g id="ytick_18">
     <g id="line2d_27">
      <g>
       <use style="stroke:#000000;stroke-width:0.85;" x="115.2" xlink:href="#mbcd1d66cff" y="235.95384"/>
      </g>
     </g>
    </g>
    <g id="ytick_19">
     <g id="line2d_28">
      <g>
       <use style="stroke:#000000;stroke-width:0.85;" x="115.2" xlink:href="#mbcd1d66cff" y="228.795162"/>
      </g>
     </g>
    </g>
    <g id="ytick_20">
     <g id="line2d_29">
      <g>
       <use style="stroke:#000000;stroke-width:0.85;" x="115.2" xlink:href="#mbcd1d66cff" y="180.263051"/>
      </g>
     </g>
    </g>
    <g id="ytick_21">
     <g id="line2d_30">
      <g>
       <use style="stroke:#000000;stroke-width:0.85;" x="115.2" xlink:href="#mbcd1d66cff" y="155.619484"/>
      </g>
     </g>
    </g>
    <g id="ytick_22">
     <g id="line2d_31">
      <g>
       <use style="stroke:#000000;stroke-width:0.85;" x="115.2" xlink:href="#mbcd1d66cff" y="138.134595"/>
      </g>
     </g>
    </g>
    <g id="ytick_23">
     <g id="line2d_32">
      <g>
       <use style="stroke:#000000;stroke-width:0.85;" x="115.2" xlink:href="#mbcd1d66cff" y="124.572261"/>
      </g>
     </g>
    </g>
    <g id="ytick_24">
     <g id="line2d_33">
      <g>
       <use style="stroke:#000000;stroke-width:0.85;" x="115.2" xlink:href="#mbcd1d66cff" y="113.491028"/>
      </g>
     </g>
    </g>
    <g id="ytick_25">
     <g id="line2d_34">
      <g>
       <use style="stroke:#000000;stroke-width:0.85;" x="115.2" xlink:href="#mbcd1d66cff" y="104.121979"/>
      </g>
     </g>
    </g>
    <g id="ytick_26">
     <g id="line2d_35">
      <g>
       <use style="stroke:#000000;stroke-width:0.85;" x="115.2" xlink:href="#mbcd1d66cff" y="96.006139"/>
      </g>
     </g>
    </g>
    <g id="ytick_27">
     <g id="line2d_36">
      <g>
       <use style="stroke:#000000;stroke-width:0.85;" x="115.2" xlink:href="#mbcd1d66cff" y="88.847461"/>
      </g>
     </g>
    </g>
   </g>
   <g id="line2d_37">
    <path clip-path="url(#pdeccd1f36b)" d="M 115.2 57.6 
L 117.216 197.820512 
L 121.248 460.8 
L 123.264 334.047205 
L 125.28 324.641099 
L 129.312 316.451758 
L 133.344 311.22407 
L 137.376 426.985138 
L 139.392 311.129779 
L 141.408 300.957357 
L 143.424 295.060786 
L 145.44 293.237977 
L 147.456 403.622664 
L 149.472 304.407404 
L 151.488 298.480331 
L 153.504 298.052505 
L 155.52 296.890245 
L 157.536 296.231259 
L 159.552 294.814163 
L 165.6 294.159372 
L 167.616 294.161352 
L 169.632 290.218014 
L 171.648 290.985352 
L 173.664 291.100069 
L 175.68 321.880579 
L 177.696 339.63469 
L 179.712 293.943982 
L 181.728 291.398216 
L 183.744 290.694827 
L 185.76 291.563013 
L 187.776 290.670524 
L 189.792 394.428547 
L 191.808 393.002712 
L 193.824 297.355824 
L 195.84 292.422614 
L 197.856 290.773413 
L 199.872 290.307132 
L 201.888 290.147555 
L 203.904 326.983573 
L 205.92 346.388421 
L 207.936 294.952389 
L 209.952 290.769669 
L 211.968 289.251721 
L 213.984 289.396147 
L 216 288.980254 
L 218.016 287.974257 
L 220.032 325.477076 
L 222.048 344.687406 
L 224.064 294.26438 
L 226.08 290.268127 
L 228.096 289.17143 
L 230.112 224.167002 
L 232.128 176.79987 
L 234.144 146.309505 
L 236.16 137.941929 
L 238.176 133.420448 
L 240.192 130.954311 
L 242.208 126.503782 
L 244.224 123.852065 
L 246.24 121.517791 
L 248.256 115.166062 
L 250.272 113.431292 
L 252.288 111.204731 
L 254.304 109.16903 
L 256.32 108.510315 
L 258.336 107.370346 
L 260.352 105.608239 
L 262.368 104.798636 
L 264.384 105.171163 
L 266.4 103.127317 
L 268.416 103.232471 
L 270.432 101.919639 
L 276.48 100.018713 
L 278.496 98.783146 
L 280.512 98.446892 
L 282.528 98.311805 
L 284.544 99.118871 
L 286.56 98.60527 
L 288.576 97.779132 
L 290.592 97.687681 
L 294.624 96.779122 
L 296.64 96.577859 
L 300.672 95.653887 
L 302.688 95.769564 
L 304.704 95.769564 
L 306.72 95.350244 
L 308.736 95.238362 
L 312.768 93.767176 
L 314.784 94.486091 
L 316.8 93.927017 
L 318.816 93.576358 
L 320.832 93.699846 
L 322.848 92.817578 
L 324.864 93.035681 
L 326.88 92.878164 
L 328.896 92.438845 
L 330.912 92.804603 
L 332.928 91.974233 
L 334.944 92.009081 
L 336.96 91.05133 
L 338.976 90.369619 
L 340.992 90.369619 
L 343.008 89.266927 
L 345.024 89.608562 
L 347.04 88.90489 
L 349.056 89.116833 
L 351.072 88.742203 
L 353.088 89.005014 
L 355.104 87.121116 
L 357.12 88.013786 
L 359.136 87.961186 
L 361.152 87.060101 
L 363.168 87.810959 
L 365.184 87.176279 
L 367.2 85.96638 
L 369.216 86.790532 
L 371.232 86.690077 
L 373.248 85.259474 
L 375.264 85.732396 
L 377.28 85.804295 
L 379.296 84.409216 
L 381.312 85.517208 
L 383.328 83.685962 
L 385.344 84.699305 
L 387.36 84.387249 
L 389.376 84.808525 
L 391.392 84.740318 
L 393.408 83.46985 
L 395.424 85.328266 
L 397.44 83.396954 
L 399.456 82.407349 
L 401.472 83.853684 
L 403.488 83.139431 
L 405.504 81.534108 
L 407.52 82.690458 
L 409.536 81.742833 
L 411.552 81.557464 
L 413.568 82.660563 
L 415.584 81.142588 
L 417.6 81.519739 
L 419.616 82.155186 
L 421.632 81.03441 
L 423.648 81.593413 
L 425.664 81.477252 
L 427.68 80.960224 
L 429.696 81.367284 
L 431.712 80.118498 
L 433.728 79.181037 
L 435.744 80.754756 
L 437.76 79.221371 
L 439.776 80.449321 
L 441.792 79.291156 
L 443.808 79.681345 
L 445.824 80.514642 
L 447.84 78.984357 
L 449.856 79.68483 
L 451.872 79.196591 
L 453.888 79.935677 
L 455.904 79.107926 
L 457.92 77.76454 
L 459.936 79.290579 
L 461.952 77.904262 
L 463.968 79.177581 
L 465.984 77.718974 
L 468 79.1062 
L 470.016 77.604368 
L 472.032 78.602025 
L 474.048 77.772981 
L 476.064 78.801476 
L 478.08 78.413464 
L 480.096 76.336315 
L 482.112 78.022826 
L 484.128 76.64989 
L 486.144 77.974808 
L 488.16 76.426529 
L 490.176 77.838868 
L 492.192 78.189773 
L 494.208 74.256062 
L 496.224 77.763977 
L 498.24 76.209472 
L 500.256 77.30818 
L 502.272 77.113562 
L 504.288 74.267218 
L 506.304 75.829977 
L 508.32 74.084732 
L 512.352 75.906342 
L 514.368 75.212777 
L 516.384 75.934184 
L 518.4 75.498903 
L 518.4 75.498903 
" style="fill:none;stroke:#1f77b4;stroke-linecap:square;stroke-width:0.85;"/>
   </g>
   <g id="patch_3">
    <path d="M 115.2 460.8 
L 115.2 57.6 
" style="fill:none;stroke:#000000;stroke-linecap:square;stroke-linejoin:miter;stroke-width:0.85;"/>
   </g>
   <g id="patch_4">
    <path d="M 518.4 460.8 
L 518.4 57.6 
" style="fill:none;stroke:#000000;stroke-linecap:square;stroke-linejoin:miter;stroke-width:0.85;"/>
   </g>
   <g id="patch_5">
    <path d="M 115.2 460.8 
L 518.4 460.8 
" style="fill:none;stroke:#000000;stroke-linecap:square;stroke-linejoin:miter;stroke-width:0.85;"/>
   </g>
   <g id="patch_6">
    <path d="M 115.2 57.6 
L 518.4 57.6 
" style="fill:none;stroke:#000000;stroke-linecap:square;stroke-linejoin:miter;stroke-width:0.85;"/>
   </g>
  </g>
 </g>
 <defs>
  <clipPath id="pdeccd1f36b">
   <rect height="403.2" width="403.2" x="115.2" y="57.6"/>
  </clipPath>
 </defs>
</svg>
