<?xml version="1.0" encoding="utf-8" standalone="no"?>
<!DOCTYPE svg PUBLIC "-//W3C//DTD SVG 1.1//EN"
  "http://www.w3.org/Graphics/SVG/1.1/DTD/svg11.dtd">
<!-- Created with matplotlib (https://matplotlib.org/) -->
<svg height="576pt" version="1.1" viewBox="0 0 576 576" width="576pt" xmlns="http://www.w3.org/2000/svg" xmlns:xlink="http://www.w3.org/1999/xlink">
 <defs>
  <style type="text/css">
*{stroke-linecap:butt;stroke-linejoin:round;}
  </style>
 </defs>
 <g id="figure_1">
  <g id="patch_1">
   <path d="M 0 576 
L 576 576 
L 576 0 
L 0 0 
z
" style="fill:none;"/>
  </g>
  <g id="axes_1">
   <g id="patch_2">
    <path d="M 115.2 460.8 
L 518.4 460.8 
L 518.4 57.6 
L 115.2 57.6 
z
" style="fill:none;"/>
   </g>
   <g id="matplotlib.axis_1">
    <g id="xtick_1">
     <g id="line2d_1">
      <defs>
       <path d="M 0 0 
L 0 3.5 
" id="m1ab64f7633" style="stroke:#000000;stroke-width:0.85;"/>
      </defs>
      <g>
       <use style="stroke:#000000;stroke-width:0.85;" x="135.36" xlink:href="#m1ab64f7633" y="460.8"/>
      </g>
     </g>
     <g id="text_1">
      <text style="font-family:Helvetica;font-size:7.5px;font-style:normal;font-weight:medium;text-anchor:middle;" transform="rotate(-0, 135.36, 473.180078)" x="135.36" y="473.180078">−100</text>
     </g>
    </g>
    <g id="xtick_2">
     <g id="line2d_2">
      <g>
       <use style="stroke:#000000;stroke-width:0.85;" x="185.76" xlink:href="#m1ab64f7633" y="460.8"/>
      </g>
     </g>
     <g id="text_2">
      <text style="font-family:Helvetica;font-size:7.5px;font-style:normal;font-weight:medium;text-anchor:middle;" transform="rotate(-0, 185.76, 473.180078)" x="185.76" y="473.180078">−75</text>
     </g>
    </g>
    <g id="xtick_3">
     <g id="line2d_3">
      <g>
       <use style="stroke:#000000;stroke-width:0.85;" x="236.16" xlink:href="#m1ab64f7633" y="460.8"/>
      </g>
     </g>
     <g id="text_3">
      <text style="font-family:Helvetica;font-size:7.5px;font-style:normal;font-weight:medium;text-anchor:middle;" transform="rotate(-0, 236.16, 473.180078)" x="236.16" y="473.180078">−50</text>
     </g>
    </g>
    <g id="xtick_4">
     <g id="line2d_4">
      <g>
       <use style="stroke:#000000;stroke-width:0.85;" x="286.56" xlink:href="#m1ab64f7633" y="460.8"/>
      </g>
     </g>
     <g id="text_4">
      <text style="font-family:Helvetica;font-size:7.5px;font-style:normal;font-weight:medium;text-anchor:middle;" transform="rotate(-0, 286.56, 473.180078)" x="286.56" y="473.180078">−25</text>
     </g>
    </g>
    <g id="xtick_5">
     <g id="line2d_5">
      <g>
       <use style="stroke:#000000;stroke-width:0.85;" x="336.96" xlink:href="#m1ab64f7633" y="460.8"/>
      </g>
     </g>
     <g id="text_5">
      <text style="font-family:Helvetica;font-size:7.5px;font-style:normal;font-weight:medium;text-anchor:middle;" transform="rotate(-0, 336.96, 473.180078)" x="336.96" y="473.180078">0</text>
     </g>
    </g>
    <g id="xtick_6">
     <g id="line2d_6">
      <g>
       <use style="stroke:#000000;stroke-width:0.85;" x="387.36" xlink:href="#m1ab64f7633" y="460.8"/>
      </g>
     </g>
     <g id="text_6">
      <text style="font-family:Helvetica;font-size:7.5px;font-style:normal;font-weight:medium;text-anchor:middle;" transform="rotate(-0, 387.36, 473.180078)" x="387.36" y="473.180078">25</text>
     </g>
    </g>
    <g id="xtick_7">
     <g id="line2d_7">
      <g>
       <use style="stroke:#000000;stroke-width:0.85;" x="437.76" xlink:href="#m1ab64f7633" y="460.8"/>
      </g>
     </g>
     <g id="text_7">
      <text style="font-family:Helvetica;font-size:7.5px;font-style:normal;font-weight:medium;text-anchor:middle;" transform="rotate(-0, 437.76, 473.180078)" x="437.76" y="473.180078">50</text>
     </g>
    </g>
    <g id="xtick_8">
     <g id="line2d_8">
      <g>
       <use style="stroke:#000000;stroke-width:0.85;" x="488.16" xlink:href="#m1ab64f7633" y="460.8"/>
      </g>
     </g>
     <g id="text_8">
      <text style="font-family:Helvetica;font-size:7.5px;font-style:normal;font-weight:medium;text-anchor:middle;" transform="rotate(-0, 488.16, 473.180078)" x="488.16" y="473.180078">75</text>
     </g>
    </g>
   </g>
   <g id="matplotlib.axis_2">
    <g id="ytick_1">
     <g id="line2d_9">
      <defs>
       <path d="M 0 0 
L -3.5 0 
" id="md8aedabcb9" style="stroke:#000000;stroke-width:0.85;"/>
      </defs>
      <g>
       <use style="stroke:#000000;stroke-width:0.85;" x="115.2" xlink:href="#md8aedabcb9" y="380.58807"/>
      </g>
     </g>
     <g id="text_9">
      <!-- $\mathdefault{10^{-7}}$ -->
      <g transform="translate(93.575 383.278109)">
       <text>
        <tspan style="font-family:Helvetica;font-size:7.5px;font-style:regular;font-weight:regular;" x="0 4.171143" y="-0.6453125000000011">10</tspan>
        <tspan style="font-family:Helvetica;font-size:5.25px;font-style:regular;font-weight:regular;" x="8.410918 11.476836" y="-3.390625000000001">−7</tspan>
       </text>
      </g>
     </g>
    </g>
    <g id="ytick_2">
     <g id="line2d_10">
      <g>
       <use style="stroke:#000000;stroke-width:0.85;" x="115.2" xlink:href="#md8aedabcb9" y="198.925469"/>
      </g>
     </g>
     <g id="text_10">
      <!-- $\mathdefault{10^{-6}}$ -->
      <g transform="translate(93.575 201.615508)">
       <text>
        <tspan style="font-family:Helvetica;font-size:7.5px;font-style:regular;font-weight:regular;" x="0 4.171143" y="-0.5687500000000005">10</tspan>
        <tspan style="font-family:Helvetica;font-size:5.25px;font-style:regular;font-weight:regular;" x="8.410918 11.476836" y="-3.3140625000000004">−6</tspan>
       </text>
      </g>
     </g>
    </g>
    <g id="ytick_3">
     <g id="line2d_11">
      <defs>
       <path d="M 0 0 
L -1.8 0 
" id="mc0b39bb954" style="stroke:#000000;stroke-width:0.85;"/>
      </defs>
      <g>
       <use style="stroke:#000000;stroke-width:0.85;" x="115.2" xlink:href="#mc0b39bb954" y="452.878887"/>
      </g>
     </g>
    </g>
    <g id="ytick_4">
     <g id="line2d_12">
      <g>
       <use style="stroke:#000000;stroke-width:0.85;" x="115.2" xlink:href="#mc0b39bb954" y="435.273962"/>
      </g>
     </g>
    </g>
    <g id="ytick_5">
     <g id="line2d_13">
      <g>
       <use style="stroke:#000000;stroke-width:0.85;" x="115.2" xlink:href="#mc0b39bb954" y="420.889691"/>
      </g>
     </g>
    </g>
    <g id="ytick_6">
     <g id="line2d_14">
      <g>
       <use style="stroke:#000000;stroke-width:0.85;" x="115.2" xlink:href="#mc0b39bb954" y="408.727963"/>
      </g>
     </g>
    </g>
    <g id="ytick_7">
     <g id="line2d_15">
      <g>
       <use style="stroke:#000000;stroke-width:0.85;" x="115.2" xlink:href="#mc0b39bb954" y="398.192995"/>
      </g>
     </g>
    </g>
    <g id="ytick_8">
     <g id="line2d_16">
      <g>
       <use style="stroke:#000000;stroke-width:0.85;" x="115.2" xlink:href="#mc0b39bb954" y="388.900495"/>
      </g>
     </g>
    </g>
    <g id="ytick_9">
     <g id="line2d_17">
      <g>
       <use style="stroke:#000000;stroke-width:0.85;" x="115.2" xlink:href="#mc0b39bb954" y="325.902178"/>
      </g>
     </g>
    </g>
    <g id="ytick_10">
     <g id="line2d_18">
      <g>
       <use style="stroke:#000000;stroke-width:0.85;" x="115.2" xlink:href="#mc0b39bb954" y="293.912982"/>
      </g>
     </g>
    </g>
    <g id="ytick_11">
     <g id="line2d_19">
      <g>
       <use style="stroke:#000000;stroke-width:0.85;" x="115.2" xlink:href="#mc0b39bb954" y="271.216286"/>
      </g>
     </g>
    </g>
    <g id="ytick_12">
     <g id="line2d_20">
      <g>
       <use style="stroke:#000000;stroke-width:0.85;" x="115.2" xlink:href="#mc0b39bb954" y="253.611361"/>
      </g>
     </g>
    </g>
    <g id="ytick_13">
     <g id="line2d_21">
      <g>
       <use style="stroke:#000000;stroke-width:0.85;" x="115.2" xlink:href="#mc0b39bb954" y="239.22709"/>
      </g>
     </g>
    </g>
    <g id="ytick_14">
     <g id="line2d_22">
      <g>
       <use style="stroke:#000000;stroke-width:0.85;" x="115.2" xlink:href="#mc0b39bb954" y="227.065362"/>
      </g>
     </g>
    </g>
    <g id="ytick_15">
     <g id="line2d_23">
      <g>
       <use style="stroke:#000000;stroke-width:0.85;" x="115.2" xlink:href="#mc0b39bb954" y="216.530394"/>
      </g>
     </g>
    </g>
    <g id="ytick_16">
     <g id="line2d_24">
      <g>
       <use style="stroke:#000000;stroke-width:0.85;" x="115.2" xlink:href="#mc0b39bb954" y="207.237894"/>
      </g>
     </g>
    </g>
    <g id="ytick_17">
     <g id="line2d_25">
      <g>
       <use style="stroke:#000000;stroke-width:0.85;" x="115.2" xlink:href="#mc0b39bb954" y="144.239577"/>
      </g>
     </g>
    </g>
    <g id="ytick_18">
     <g id="line2d_26">
      <g>
       <use style="stroke:#000000;stroke-width:0.85;" x="115.2" xlink:href="#mc0b39bb954" y="112.250381"/>
      </g>
     </g>
    </g>
    <g id="ytick_19">
     <g id="line2d_27">
      <g>
       <use style="stroke:#000000;stroke-width:0.85;" x="115.2" xlink:href="#mc0b39bb954" y="89.553685"/>
      </g>
     </g>
    </g>
    <g id="ytick_20">
     <g id="line2d_28">
      <g>
       <use style="stroke:#000000;stroke-width:0.85;" x="115.2" xlink:href="#mc0b39bb954" y="71.94876"/>
      </g>
     </g>
    </g>
   </g>
   <g id="line2d_29">
    <path clip-path="url(#pc23a0060da)" d="M 115.2 457.114834 
L 117.216 449.343911 
L 119.232 451.684819 
L 121.248 452.762603 
L 123.264 453.270387 
L 125.28 452.666157 
L 127.296 455.237247 
L 129.312 455.454995 
L 131.328 456.099541 
L 133.344 454.997808 
L 135.36 454.352115 
L 137.376 455.640657 
L 139.392 456.755611 
L 141.408 457.492428 
L 143.424 458.046433 
L 145.44 459.292378 
L 147.456 454.920855 
L 149.472 460.328204 
L 151.488 456.917371 
L 153.504 457.241888 
L 155.52 460.8 
L 157.536 455.48353 
L 159.552 458.746581 
L 161.568 458.373524 
L 163.584 459.20471 
L 165.6 459.904478 
L 167.616 458.303771 
L 169.632 457.890751 
L 171.648 458.113851 
L 173.664 456.998375 
L 175.68 457.369146 
L 177.696 457.202292 
L 179.712 455.789911 
L 183.744 456.705905 
L 185.76 453.526505 
L 187.776 454.480832 
L 189.792 453.859308 
L 191.808 452.279594 
L 193.824 452.324628 
L 195.84 448.164619 
L 197.856 451.976771 
L 201.888 450.071461 
L 203.904 449.887045 
L 205.92 448.890701 
L 207.936 447.345801 
L 209.952 446.776 
L 211.968 446.650137 
L 213.984 445.398842 
L 216 444.538854 
L 218.016 443.060424 
L 220.032 443.327335 
L 222.048 441.51862 
L 224.064 441.174382 
L 226.08 441.084311 
L 228.096 438.753091 
L 230.112 437.906742 
L 232.128 436.854976 
L 234.144 436.330307 
L 236.16 436.620289 
L 238.176 434.86634 
L 240.192 432.932727 
L 242.208 431.910039 
L 244.224 431.427664 
L 246.24 429.134937 
L 248.256 427.013467 
L 250.272 426.327253 
L 252.288 423.774115 
L 254.304 421.991358 
L 256.32 421.811553 
L 258.336 418.428814 
L 260.352 417.777671 
L 264.384 413.342699 
L 266.4 410.486489 
L 268.416 408.401787 
L 270.432 407.192157 
L 272.448 405.315669 
L 274.464 401.71728 
L 276.48 398.948072 
L 278.496 396.851416 
L 280.512 393.73834 
L 282.528 390.087547 
L 284.544 387.257421 
L 286.56 383.770108 
L 288.576 380.628317 
L 290.592 377.168221 
L 292.608 373.231546 
L 294.624 368.369333 
L 296.64 364.27556 
L 298.656 359.750576 
L 300.672 354.664977 
L 304.704 343.768877 
L 306.72 337.2861 
L 310.752 322.947565 
L 312.768 315.208052 
L 314.784 306.355594 
L 316.8 298.547716 
L 328.896 248.350148 
L 332.928 233.189342 
L 336.96 219.342327 
L 340.992 206.666663 
L 343.008 201.143324 
L 347.04 189.25797 
L 349.056 183.734688 
L 353.088 173.590172 
L 357.12 164.464436 
L 361.152 155.811474 
L 365.184 148.035546 
L 371.232 137.173948 
L 375.264 130.796462 
L 379.296 124.644358 
L 383.328 119.136095 
L 387.36 113.819591 
L 389.376 111.484099 
L 393.408 107.226193 
L 395.424 104.90368 
L 401.472 98.672094 
L 405.504 95.071163 
L 409.536 91.683142 
L 413.568 88.572831 
L 417.6 85.622149 
L 423.648 81.677452 
L 427.68 79.296003 
L 431.712 77.076894 
L 437.76 74.147305 
L 443.808 71.530936 
L 453.888 67.692807 
L 459.936 66.04145 
L 461.952 65.318738 
L 474.048 62.682072 
L 478.08 62.012028 
L 480.096 61.469946 
L 484.128 61.010782 
L 488.16 60.526283 
L 490.176 60.057497 
L 492.192 60.010554 
L 494.208 59.641009 
L 496.224 59.616713 
L 498.24 59.412383 
L 500.256 59.001018 
L 506.304 58.656157 
L 508.32 58.284129 
L 516.384 57.930622 
L 518.4 57.6 
L 518.4 57.6 
" style="fill:none;stroke:#1f77b4;stroke-linecap:square;stroke-width:0.85;"/>
   </g>
   <g id="patch_3">
    <path d="M 115.2 460.8 
L 115.2 57.6 
" style="fill:none;stroke:#000000;stroke-linecap:square;stroke-linejoin:miter;stroke-width:0.85;"/>
   </g>
   <g id="patch_4">
    <path d="M 518.4 460.8 
L 518.4 57.6 
" style="fill:none;stroke:#000000;stroke-linecap:square;stroke-linejoin:miter;stroke-width:0.85;"/>
   </g>
   <g id="patch_5">
    <path d="M 115.2 460.8 
L 518.4 460.8 
" style="fill:none;stroke:#000000;stroke-linecap:square;stroke-linejoin:miter;stroke-width:0.85;"/>
   </g>
   <g id="patch_6">
    <path d="M 115.2 57.6 
L 518.4 57.6 
" style="fill:none;stroke:#000000;stroke-linecap:square;stroke-linejoin:miter;stroke-width:0.85;"/>
   </g>
  </g>
 </g>
 <defs>
  <clipPath id="pc23a0060da">
   <rect height="403.2" width="403.2" x="115.2" y="57.6"/>
  </clipPath>
 </defs>
</svg>
