<?xml version="1.0" encoding="utf-8" standalone="no"?>
<!DOCTYPE svg PUBLIC "-//W3C//DTD SVG 1.1//EN"
  "http://www.w3.org/Graphics/SVG/1.1/DTD/svg11.dtd">
<!-- Created with matplotlib (https://matplotlib.org/) -->
<svg height="576pt" version="1.1" viewBox="0 0 576 576" width="576pt" xmlns="http://www.w3.org/2000/svg" xmlns:xlink="http://www.w3.org/1999/xlink">
 <defs>
  <style type="text/css">
*{stroke-linecap:butt;stroke-linejoin:round;}
  </style>
 </defs>
 <g id="figure_1">
  <g id="patch_1">
   <path d="M 0 576 
L 576 576 
L 576 0 
L 0 0 
z
" style="fill:none;"/>
  </g>
  <g id="axes_1">
   <g id="patch_2">
    <path d="M 115.2 460.8 
L 518.4 460.8 
L 518.4 57.6 
L 115.2 57.6 
z
" style="fill:none;"/>
   </g>
   <g id="matplotlib.axis_1">
    <g id="xtick_1">
     <g id="line2d_1">
      <defs>
       <path d="M 0 0 
L 0 3.5 
" id="m33f888faba" style="stroke:#000000;stroke-width:0.85;"/>
      </defs>
      <g>
       <use style="stroke:#000000;stroke-width:0.85;" x="135.36" xlink:href="#m33f888faba" y="460.8"/>
      </g>
     </g>
     <g id="text_1">
      <text style="font-family:Helvetica;font-size:7.5px;font-style:normal;font-weight:medium;text-anchor:middle;" transform="rotate(-0, 135.36, 473.180078)" x="135.36" y="473.180078">−100</text>
     </g>
    </g>
    <g id="xtick_2">
     <g id="line2d_2">
      <g>
       <use style="stroke:#000000;stroke-width:0.85;" x="185.76" xlink:href="#m33f888faba" y="460.8"/>
      </g>
     </g>
     <g id="text_2">
      <text style="font-family:Helvetica;font-size:7.5px;font-style:normal;font-weight:medium;text-anchor:middle;" transform="rotate(-0, 185.76, 473.180078)" x="185.76" y="473.180078">−75</text>
     </g>
    </g>
    <g id="xtick_3">
     <g id="line2d_3">
      <g>
       <use style="stroke:#000000;stroke-width:0.85;" x="236.16" xlink:href="#m33f888faba" y="460.8"/>
      </g>
     </g>
     <g id="text_3">
      <text style="font-family:Helvetica;font-size:7.5px;font-style:normal;font-weight:medium;text-anchor:middle;" transform="rotate(-0, 236.16, 473.180078)" x="236.16" y="473.180078">−50</text>
     </g>
    </g>
    <g id="xtick_4">
     <g id="line2d_4">
      <g>
       <use style="stroke:#000000;stroke-width:0.85;" x="286.56" xlink:href="#m33f888faba" y="460.8"/>
      </g>
     </g>
     <g id="text_4">
      <text style="font-family:Helvetica;font-size:7.5px;font-style:normal;font-weight:medium;text-anchor:middle;" transform="rotate(-0, 286.56, 473.180078)" x="286.56" y="473.180078">−25</text>
     </g>
    </g>
    <g id="xtick_5">
     <g id="line2d_5">
      <g>
       <use style="stroke:#000000;stroke-width:0.85;" x="336.96" xlink:href="#m33f888faba" y="460.8"/>
      </g>
     </g>
     <g id="text_5">
      <text style="font-family:Helvetica;font-size:7.5px;font-style:normal;font-weight:medium;text-anchor:middle;" transform="rotate(-0, 336.96, 473.180078)" x="336.96" y="473.180078">0</text>
     </g>
    </g>
    <g id="xtick_6">
     <g id="line2d_6">
      <g>
       <use style="stroke:#000000;stroke-width:0.85;" x="387.36" xlink:href="#m33f888faba" y="460.8"/>
      </g>
     </g>
     <g id="text_6">
      <text style="font-family:Helvetica;font-size:7.5px;font-style:normal;font-weight:medium;text-anchor:middle;" transform="rotate(-0, 387.36, 473.180078)" x="387.36" y="473.180078">25</text>
     </g>
    </g>
    <g id="xtick_7">
     <g id="line2d_7">
      <g>
       <use style="stroke:#000000;stroke-width:0.85;" x="437.76" xlink:href="#m33f888faba" y="460.8"/>
      </g>
     </g>
     <g id="text_7">
      <text style="font-family:Helvetica;font-size:7.5px;font-style:normal;font-weight:medium;text-anchor:middle;" transform="rotate(-0, 437.76, 473.180078)" x="437.76" y="473.180078">50</text>
     </g>
    </g>
    <g id="xtick_8">
     <g id="line2d_8">
      <g>
       <use style="stroke:#000000;stroke-width:0.85;" x="488.16" xlink:href="#m33f888faba" y="460.8"/>
      </g>
     </g>
     <g id="text_8">
      <text style="font-family:Helvetica;font-size:7.5px;font-style:normal;font-weight:medium;text-anchor:middle;" transform="rotate(-0, 488.16, 473.180078)" x="488.16" y="473.180078">75</text>
     </g>
    </g>
   </g>
   <g id="matplotlib.axis_2">
    <g id="ytick_1">
     <g id="line2d_9">
      <defs>
       <path d="M 0 0 
L -3.5 0 
" id="mc438aef60f" style="stroke:#000000;stroke-width:0.85;"/>
      </defs>
      <g>
       <use style="stroke:#000000;stroke-width:0.85;" x="115.2" xlink:href="#mc438aef60f" y="284.79635"/>
      </g>
     </g>
     <g id="text_9">
      <!-- $\mathdefault{10^{-7}}$ -->
      <g transform="translate(93.575 287.486389)">
       <text>
        <tspan style="font-family:Helvetica;font-size:7.5px;font-style:regular;font-weight:regular;" x="0 4.171143" y="-0.6453125000000011">10</tspan>
        <tspan style="font-family:Helvetica;font-size:5.25px;font-style:regular;font-weight:regular;" x="8.410918 11.476836" y="-3.390625000000001">−7</tspan>
       </text>
      </g>
     </g>
    </g>
    <g id="ytick_2">
     <g id="line2d_10">
      <g>
       <use style="stroke:#000000;stroke-width:0.85;" x="115.2" xlink:href="#mc438aef60f" y="102.858099"/>
      </g>
     </g>
     <g id="text_10">
      <!-- $\mathdefault{10^{-6}}$ -->
      <g transform="translate(93.575 105.548138)">
       <text>
        <tspan style="font-family:Helvetica;font-size:7.5px;font-style:regular;font-weight:regular;" x="0 4.171143" y="-0.5687500000000005">10</tspan>
        <tspan style="font-family:Helvetica;font-size:5.25px;font-style:regular;font-weight:regular;" x="8.410918 11.476836" y="-3.3140625000000004">−6</tspan>
       </text>
      </g>
     </g>
    </g>
    <g id="ytick_3">
     <g id="line2d_11">
      <defs>
       <path d="M 0 0 
L -1.8 0 
" id="ma19df4c692" style="stroke:#000000;stroke-width:0.85;"/>
      </defs>
      <g>
       <use style="stroke:#000000;stroke-width:0.85;" x="115.2" xlink:href="#ma19df4c692" y="411.96573"/>
      </g>
     </g>
    </g>
    <g id="ytick_4">
     <g id="line2d_12">
      <g>
       <use style="stroke:#000000;stroke-width:0.85;" x="115.2" xlink:href="#ma19df4c692" y="379.927994"/>
      </g>
     </g>
    </g>
    <g id="ytick_5">
     <g id="line2d_13">
      <g>
       <use style="stroke:#000000;stroke-width:0.85;" x="115.2" xlink:href="#ma19df4c692" y="357.196859"/>
      </g>
     </g>
    </g>
    <g id="ytick_6">
     <g id="line2d_14">
      <g>
       <use style="stroke:#000000;stroke-width:0.85;" x="115.2" xlink:href="#ma19df4c692" y="339.565221"/>
      </g>
     </g>
    </g>
    <g id="ytick_7">
     <g id="line2d_15">
      <g>
       <use style="stroke:#000000;stroke-width:0.85;" x="115.2" xlink:href="#ma19df4c692" y="325.159123"/>
      </g>
     </g>
    </g>
    <g id="ytick_8">
     <g id="line2d_16">
      <g>
       <use style="stroke:#000000;stroke-width:0.85;" x="115.2" xlink:href="#ma19df4c692" y="312.978941"/>
      </g>
     </g>
    </g>
    <g id="ytick_9">
     <g id="line2d_17">
      <g>
       <use style="stroke:#000000;stroke-width:0.85;" x="115.2" xlink:href="#ma19df4c692" y="302.427988"/>
      </g>
     </g>
    </g>
    <g id="ytick_10">
     <g id="line2d_18">
      <g>
       <use style="stroke:#000000;stroke-width:0.85;" x="115.2" xlink:href="#ma19df4c692" y="293.121388"/>
      </g>
     </g>
    </g>
    <g id="ytick_11">
     <g id="line2d_19">
      <g>
       <use style="stroke:#000000;stroke-width:0.85;" x="115.2" xlink:href="#ma19df4c692" y="230.027479"/>
      </g>
     </g>
    </g>
    <g id="ytick_12">
     <g id="line2d_20">
      <g>
       <use style="stroke:#000000;stroke-width:0.85;" x="115.2" xlink:href="#ma19df4c692" y="197.989743"/>
      </g>
     </g>
    </g>
    <g id="ytick_13">
     <g id="line2d_21">
      <g>
       <use style="stroke:#000000;stroke-width:0.85;" x="115.2" xlink:href="#ma19df4c692" y="175.258608"/>
      </g>
     </g>
    </g>
    <g id="ytick_14">
     <g id="line2d_22">
      <g>
       <use style="stroke:#000000;stroke-width:0.85;" x="115.2" xlink:href="#ma19df4c692" y="157.62697"/>
      </g>
     </g>
    </g>
    <g id="ytick_15">
     <g id="line2d_23">
      <g>
       <use style="stroke:#000000;stroke-width:0.85;" x="115.2" xlink:href="#ma19df4c692" y="143.220873"/>
      </g>
     </g>
    </g>
    <g id="ytick_16">
     <g id="line2d_24">
      <g>
       <use style="stroke:#000000;stroke-width:0.85;" x="115.2" xlink:href="#ma19df4c692" y="131.040691"/>
      </g>
     </g>
    </g>
    <g id="ytick_17">
     <g id="line2d_25">
      <g>
       <use style="stroke:#000000;stroke-width:0.85;" x="115.2" xlink:href="#ma19df4c692" y="120.489737"/>
      </g>
     </g>
    </g>
    <g id="ytick_18">
     <g id="line2d_26">
      <g>
       <use style="stroke:#000000;stroke-width:0.85;" x="115.2" xlink:href="#ma19df4c692" y="111.183137"/>
      </g>
     </g>
    </g>
   </g>
   <g id="line2d_27">
    <path clip-path="url(#pc1188eae28)" d="M 115.2 453.680624 
L 117.216 429.454776 
L 119.232 425.340647 
L 121.248 423.528198 
L 123.264 424.16277 
L 125.28 422.080374 
L 127.296 423.341827 
L 129.312 423.901344 
L 131.328 424.588048 
L 133.344 425.057582 
L 135.36 423.133594 
L 137.376 422.857406 
L 139.392 425.315382 
L 141.408 424.348316 
L 143.424 425.287319 
L 145.44 426.38447 
L 147.456 426.190302 
L 149.472 425.652912 
L 151.488 424.538006 
L 153.504 424.835019 
L 155.52 426.07214 
L 157.536 425.086496 
L 159.552 425.690505 
L 161.568 427.468222 
L 163.584 429.52826 
L 165.6 391.323256 
L 167.616 433.676292 
L 169.632 419.118672 
L 173.664 460.8 
L 175.68 429.938856 
L 177.696 417.229748 
L 179.712 425.841054 
L 181.728 426.176113 
L 183.744 426.318115 
L 185.76 421.218026 
L 187.776 425.521479 
L 189.792 419.975339 
L 191.808 424.473183 
L 193.824 427.00808 
L 195.84 426.774245 
L 197.856 427.027199 
L 199.872 427.627017 
L 201.888 427.521118 
L 203.904 425.92115 
L 205.92 426.436646 
L 207.936 424.78389 
L 209.952 425.582474 
L 213.984 425.671706 
L 216 426.091034 
L 218.016 425.423048 
L 220.032 426.617153 
L 222.048 424.63534 
L 224.064 424.311357 
L 226.08 423.39751 
L 228.096 424.487069 
L 232.128 423.644445 
L 234.144 422.120347 
L 236.16 422.774465 
L 238.176 422.403885 
L 240.192 422.706546 
L 242.208 423.456887 
L 244.224 422.0126 
L 246.24 421.00069 
L 248.256 419.548019 
L 250.272 418.597063 
L 252.288 418.138658 
L 254.304 417.010462 
L 256.32 415.612155 
L 258.336 415.290101 
L 260.352 414.535542 
L 262.368 413.304455 
L 264.384 413.408998 
L 266.4 412.488956 
L 268.416 411.30086 
L 270.432 409.768352 
L 272.448 409.304786 
L 274.464 408.559609 
L 276.48 406.982371 
L 278.496 406.457403 
L 280.512 404.852542 
L 282.528 404.097927 
L 284.544 403.018144 
L 286.56 401.011842 
L 288.576 400.439554 
L 290.592 399.371244 
L 292.608 397.516844 
L 294.624 396.334572 
L 296.64 395.374423 
L 298.656 393.500943 
L 300.672 393.157671 
L 302.688 391.244193 
L 304.704 389.885187 
L 308.736 385.724481 
L 310.752 383.726268 
L 312.768 382.24788 
L 314.784 380.597178 
L 316.8 377.738302 
L 318.816 375.52541 
L 320.832 374.052053 
L 322.848 371.032166 
L 324.864 368.617225 
L 328.896 361.512219 
L 330.912 358.082822 
L 332.928 353.43772 
L 336.96 343.388923 
L 338.976 337.844195 
L 340.992 332.822629 
L 343.008 326.712446 
L 345.024 323.568605 
L 347.04 315.887648 
L 349.056 306.589116 
L 355.104 283.711842 
L 357.12 276.396047 
L 359.136 269.574046 
L 365.184 247.601359 
L 367.2 240.849353 
L 369.216 233.607322 
L 373.248 220.209817 
L 379.296 201.243548 
L 381.312 194.933032 
L 385.344 183.822147 
L 389.376 172.908644 
L 393.408 163.235653 
L 399.456 149.22141 
L 401.472 145.166265 
L 403.488 140.810913 
L 407.52 133.524725 
L 411.552 126.651453 
L 415.584 120.259744 
L 417.6 117.149109 
L 419.616 113.748415 
L 421.632 110.894646 
L 427.68 103.373133 
L 429.696 101.131198 
L 431.712 98.708516 
L 433.728 95.953882 
L 437.76 91.677543 
L 441.792 87.753839 
L 443.808 85.915941 
L 447.84 82.607854 
L 451.872 79.586185 
L 455.904 76.89112 
L 459.936 74.462376 
L 463.968 72.278119 
L 470.016 69.409194 
L 476.064 67.000847 
L 482.112 64.967899 
L 486.144 63.783759 
L 490.176 62.75825 
L 498.24 61.000841 
L 506.304 59.592266 
L 512.352 58.637021 
L 514.368 57.917464 
L 518.4 57.6 
L 518.4 57.6 
" style="fill:none;stroke:#1f77b4;stroke-linecap:square;stroke-width:0.85;"/>
   </g>
   <g id="patch_3">
    <path d="M 115.2 460.8 
L 115.2 57.6 
" style="fill:none;stroke:#000000;stroke-linecap:square;stroke-linejoin:miter;stroke-width:0.85;"/>
   </g>
   <g id="patch_4">
    <path d="M 518.4 460.8 
L 518.4 57.6 
" style="fill:none;stroke:#000000;stroke-linecap:square;stroke-linejoin:miter;stroke-width:0.85;"/>
   </g>
   <g id="patch_5">
    <path d="M 115.2 460.8 
L 518.4 460.8 
" style="fill:none;stroke:#000000;stroke-linecap:square;stroke-linejoin:miter;stroke-width:0.85;"/>
   </g>
   <g id="patch_6">
    <path d="M 115.2 57.6 
L 518.4 57.6 
" style="fill:none;stroke:#000000;stroke-linecap:square;stroke-linejoin:miter;stroke-width:0.85;"/>
   </g>
  </g>
 </g>
 <defs>
  <clipPath id="pc1188eae28">
   <rect height="403.2" width="403.2" x="115.2" y="57.6"/>
  </clipPath>
 </defs>
</svg>
