<?xml version="1.0" encoding="utf-8" standalone="no"?>
<!DOCTYPE svg PUBLIC "-//W3C//DTD SVG 1.1//EN"
  "http://www.w3.org/Graphics/SVG/1.1/DTD/svg11.dtd">
<!-- Created with matplotlib (https://matplotlib.org/) -->
<svg height="576pt" version="1.1" viewBox="0 0 576 576" width="576pt" xmlns="http://www.w3.org/2000/svg" xmlns:xlink="http://www.w3.org/1999/xlink">
 <defs>
  <style type="text/css">
*{stroke-linecap:butt;stroke-linejoin:round;}
  </style>
 </defs>
 <g id="figure_1">
  <g id="patch_1">
   <path d="M 0 576 
L 576 576 
L 576 0 
L 0 0 
z
" style="fill:none;"/>
  </g>
  <g id="axes_1">
   <g id="patch_2">
    <path d="M 115.2 460.8 
L 518.4 460.8 
L 518.4 57.6 
L 115.2 57.6 
z
" style="fill:none;"/>
   </g>
   <g id="matplotlib.axis_1">
    <g id="xtick_1">
     <g id="line2d_1">
      <defs>
       <path d="M 0 0 
L 0 3.5 
" id="mf75d460a78" style="stroke:#000000;stroke-width:0.85;"/>
      </defs>
      <g>
       <use style="stroke:#000000;stroke-width:0.85;" x="115.2" xlink:href="#mf75d460a78" y="460.8"/>
      </g>
     </g>
     <g id="text_1">
      <text style="font-family:Helvetica;font-size:7.5px;font-style:normal;font-weight:medium;text-anchor:middle;" transform="rotate(-0, 115.2, 473.180078)" x="115.2" y="473.180078">−100</text>
     </g>
    </g>
    <g id="xtick_2">
     <g id="line2d_2">
      <g>
       <use style="stroke:#000000;stroke-width:0.85;" x="165.6" xlink:href="#mf75d460a78" y="460.8"/>
      </g>
     </g>
     <g id="text_2">
      <text style="font-family:Helvetica;font-size:7.5px;font-style:normal;font-weight:medium;text-anchor:middle;" transform="rotate(-0, 165.6, 473.180078)" x="165.6" y="473.180078">−75</text>
     </g>
    </g>
    <g id="xtick_3">
     <g id="line2d_3">
      <g>
       <use style="stroke:#000000;stroke-width:0.85;" x="216" xlink:href="#mf75d460a78" y="460.8"/>
      </g>
     </g>
     <g id="text_3">
      <text style="font-family:Helvetica;font-size:7.5px;font-style:normal;font-weight:medium;text-anchor:middle;" transform="rotate(-0, 216, 473.180078)" x="216" y="473.180078">−50</text>
     </g>
    </g>
    <g id="xtick_4">
     <g id="line2d_4">
      <g>
       <use style="stroke:#000000;stroke-width:0.85;" x="266.4" xlink:href="#mf75d460a78" y="460.8"/>
      </g>
     </g>
     <g id="text_4">
      <text style="font-family:Helvetica;font-size:7.5px;font-style:normal;font-weight:medium;text-anchor:middle;" transform="rotate(-0, 266.4, 473.180078)" x="266.4" y="473.180078">−25</text>
     </g>
    </g>
    <g id="xtick_5">
     <g id="line2d_5">
      <g>
       <use style="stroke:#000000;stroke-width:0.85;" x="316.8" xlink:href="#mf75d460a78" y="460.8"/>
      </g>
     </g>
     <g id="text_5">
      <text style="font-family:Helvetica;font-size:7.5px;font-style:normal;font-weight:medium;text-anchor:middle;" transform="rotate(-0, 316.8, 473.180078)" x="316.8" y="473.180078">0</text>
     </g>
    </g>
    <g id="xtick_6">
     <g id="line2d_6">
      <g>
       <use style="stroke:#000000;stroke-width:0.85;" x="367.2" xlink:href="#mf75d460a78" y="460.8"/>
      </g>
     </g>
     <g id="text_6">
      <text style="font-family:Helvetica;font-size:7.5px;font-style:normal;font-weight:medium;text-anchor:middle;" transform="rotate(-0, 367.2, 473.180078)" x="367.2" y="473.180078">25</text>
     </g>
    </g>
    <g id="xtick_7">
     <g id="line2d_7">
      <g>
       <use style="stroke:#000000;stroke-width:0.85;" x="417.6" xlink:href="#mf75d460a78" y="460.8"/>
      </g>
     </g>
     <g id="text_7">
      <text style="font-family:Helvetica;font-size:7.5px;font-style:normal;font-weight:medium;text-anchor:middle;" transform="rotate(-0, 417.6, 473.180078)" x="417.6" y="473.180078">50</text>
     </g>
    </g>
    <g id="xtick_8">
     <g id="line2d_8">
      <g>
       <use style="stroke:#000000;stroke-width:0.85;" x="468" xlink:href="#mf75d460a78" y="460.8"/>
      </g>
     </g>
     <g id="text_8">
      <text style="font-family:Helvetica;font-size:7.5px;font-style:normal;font-weight:medium;text-anchor:middle;" transform="rotate(-0, 468, 473.180078)" x="468" y="473.180078">75</text>
     </g>
    </g>
    <g id="xtick_9">
     <g id="line2d_9">
      <g>
       <use style="stroke:#000000;stroke-width:0.85;" x="518.4" xlink:href="#mf75d460a78" y="460.8"/>
      </g>
     </g>
     <g id="text_9">
      <text style="font-family:Helvetica;font-size:7.5px;font-style:normal;font-weight:medium;text-anchor:middle;" transform="rotate(-0, 518.4, 473.180078)" x="518.4" y="473.180078">100</text>
     </g>
    </g>
   </g>
   <g id="matplotlib.axis_2">
    <g id="ytick_1">
     <g id="line2d_10">
      <defs>
       <path d="M 0 0 
L -3.5 0 
" id="m8553eb9278" style="stroke:#000000;stroke-width:0.85;"/>
      </defs>
      <g>
       <use style="stroke:#000000;stroke-width:0.85;" x="115.2" xlink:href="#m8553eb9278" y="388.88057"/>
      </g>
     </g>
     <g id="text_10">
      <!-- $\mathdefault{10^{-10}}$ -->
      <g transform="translate(90.65 391.570609)">
       <text>
        <tspan style="font-family:Helvetica;font-size:7.5px;font-style:regular;font-weight:regular;" x="0 4.171143" y="-0.5796875000000004">10</tspan>
        <tspan style="font-family:Helvetica;font-size:5.25px;font-style:regular;font-weight:regular;" x="8.410918 11.476836 14.396636" y="-3.325">−10</tspan>
       </text>
      </g>
     </g>
    </g>
    <g id="ytick_2">
     <g id="line2d_11">
      <g>
       <use style="stroke:#000000;stroke-width:0.85;" x="115.2" xlink:href="#m8553eb9278" y="307.712588"/>
      </g>
     </g>
     <g id="text_11">
      <!-- $\mathdefault{10^{-9}}$ -->
      <g transform="translate(93.575 310.402627)">
       <text>
        <tspan style="font-family:Helvetica;font-size:7.5px;font-style:regular;font-weight:regular;" x="0 4.171143" y="-0.5796875000000004">10</tspan>
        <tspan style="font-family:Helvetica;font-size:5.25px;font-style:regular;font-weight:regular;" x="8.410918 11.476836" y="-3.325">−9</tspan>
       </text>
      </g>
     </g>
    </g>
    <g id="ytick_3">
     <g id="line2d_12">
      <g>
       <use style="stroke:#000000;stroke-width:0.85;" x="115.2" xlink:href="#m8553eb9278" y="226.544606"/>
      </g>
     </g>
     <g id="text_12">
      <!-- $\mathdefault{10^{-8}}$ -->
      <g transform="translate(93.575 229.234645)">
       <text>
        <tspan style="font-family:Helvetica;font-size:7.5px;font-style:regular;font-weight:regular;" x="0 4.171143" y="-0.5687500000000005">10</tspan>
        <tspan style="font-family:Helvetica;font-size:5.25px;font-style:regular;font-weight:regular;" x="8.410918 11.476836" y="-3.3140625000000004">−8</tspan>
       </text>
      </g>
     </g>
    </g>
    <g id="ytick_4">
     <g id="line2d_13">
      <g>
       <use style="stroke:#000000;stroke-width:0.85;" x="115.2" xlink:href="#m8553eb9278" y="145.376624"/>
      </g>
     </g>
     <g id="text_13">
      <!-- $\mathdefault{10^{-7}}$ -->
      <g transform="translate(93.575 148.066663)">
       <text>
        <tspan style="font-family:Helvetica;font-size:7.5px;font-style:regular;font-weight:regular;" x="0 4.171143" y="-0.6453125000000011">10</tspan>
        <tspan style="font-family:Helvetica;font-size:5.25px;font-style:regular;font-weight:regular;" x="8.410918 11.476836" y="-3.390625000000001">−7</tspan>
       </text>
      </g>
     </g>
    </g>
    <g id="ytick_5">
     <g id="line2d_14">
      <g>
       <use style="stroke:#000000;stroke-width:0.85;" x="115.2" xlink:href="#m8553eb9278" y="64.208642"/>
      </g>
     </g>
     <g id="text_14">
      <!-- $\mathdefault{10^{-6}}$ -->
      <g transform="translate(93.575 66.898681)">
       <text>
        <tspan style="font-family:Helvetica;font-size:7.5px;font-style:regular;font-weight:regular;" x="0 4.171143" y="-0.5687500000000005">10</tspan>
        <tspan style="font-family:Helvetica;font-size:5.25px;font-style:regular;font-weight:regular;" x="8.410918 11.476836" y="-3.3140625000000004">−6</tspan>
       </text>
      </g>
     </g>
    </g>
    <g id="ytick_6">
     <g id="line2d_15">
      <defs>
       <path d="M 0 0 
L -1.8 0 
" id="m91f487e1f1" style="stroke:#000000;stroke-width:0.85;"/>
      </defs>
      <g>
       <use style="stroke:#000000;stroke-width:0.85;" x="115.2" xlink:href="#m91f487e1f1" y="445.614555"/>
      </g>
     </g>
    </g>
    <g id="ytick_7">
     <g id="line2d_16">
      <g>
       <use style="stroke:#000000;stroke-width:0.85;" x="115.2" xlink:href="#m91f487e1f1" y="431.321583"/>
      </g>
     </g>
    </g>
    <g id="ytick_8">
     <g id="line2d_17">
      <g>
       <use style="stroke:#000000;stroke-width:0.85;" x="115.2" xlink:href="#m91f487e1f1" y="421.180557"/>
      </g>
     </g>
    </g>
    <g id="ytick_9">
     <g id="line2d_18">
      <g>
       <use style="stroke:#000000;stroke-width:0.85;" x="115.2" xlink:href="#m91f487e1f1" y="413.314567"/>
      </g>
     </g>
    </g>
    <g id="ytick_10">
     <g id="line2d_19">
      <g>
       <use style="stroke:#000000;stroke-width:0.85;" x="115.2" xlink:href="#m91f487e1f1" y="406.887585"/>
      </g>
     </g>
    </g>
    <g id="ytick_11">
     <g id="line2d_20">
      <g>
       <use style="stroke:#000000;stroke-width:0.85;" x="115.2" xlink:href="#m91f487e1f1" y="401.45365"/>
      </g>
     </g>
    </g>
    <g id="ytick_12">
     <g id="line2d_21">
      <g>
       <use style="stroke:#000000;stroke-width:0.85;" x="115.2" xlink:href="#m91f487e1f1" y="396.74656"/>
      </g>
     </g>
    </g>
    <g id="ytick_13">
     <g id="line2d_22">
      <g>
       <use style="stroke:#000000;stroke-width:0.85;" x="115.2" xlink:href="#m91f487e1f1" y="392.594613"/>
      </g>
     </g>
    </g>
    <g id="ytick_14">
     <g id="line2d_23">
      <g>
       <use style="stroke:#000000;stroke-width:0.85;" x="115.2" xlink:href="#m91f487e1f1" y="364.446573"/>
      </g>
     </g>
    </g>
    <g id="ytick_15">
     <g id="line2d_24">
      <g>
       <use style="stroke:#000000;stroke-width:0.85;" x="115.2" xlink:href="#m91f487e1f1" y="350.153601"/>
      </g>
     </g>
    </g>
    <g id="ytick_16">
     <g id="line2d_25">
      <g>
       <use style="stroke:#000000;stroke-width:0.85;" x="115.2" xlink:href="#m91f487e1f1" y="340.012576"/>
      </g>
     </g>
    </g>
    <g id="ytick_17">
     <g id="line2d_26">
      <g>
       <use style="stroke:#000000;stroke-width:0.85;" x="115.2" xlink:href="#m91f487e1f1" y="332.146585"/>
      </g>
     </g>
    </g>
    <g id="ytick_18">
     <g id="line2d_27">
      <g>
       <use style="stroke:#000000;stroke-width:0.85;" x="115.2" xlink:href="#m91f487e1f1" y="325.719603"/>
      </g>
     </g>
    </g>
    <g id="ytick_19">
     <g id="line2d_28">
      <g>
       <use style="stroke:#000000;stroke-width:0.85;" x="115.2" xlink:href="#m91f487e1f1" y="320.285668"/>
      </g>
     </g>
    </g>
    <g id="ytick_20">
     <g id="line2d_29">
      <g>
       <use style="stroke:#000000;stroke-width:0.85;" x="115.2" xlink:href="#m91f487e1f1" y="315.578578"/>
      </g>
     </g>
    </g>
    <g id="ytick_21">
     <g id="line2d_30">
      <g>
       <use style="stroke:#000000;stroke-width:0.85;" x="115.2" xlink:href="#m91f487e1f1" y="311.426631"/>
      </g>
     </g>
    </g>
    <g id="ytick_22">
     <g id="line2d_31">
      <g>
       <use style="stroke:#000000;stroke-width:0.85;" x="115.2" xlink:href="#m91f487e1f1" y="283.278591"/>
      </g>
     </g>
    </g>
    <g id="ytick_23">
     <g id="line2d_32">
      <g>
       <use style="stroke:#000000;stroke-width:0.85;" x="115.2" xlink:href="#m91f487e1f1" y="268.985619"/>
      </g>
     </g>
    </g>
    <g id="ytick_24">
     <g id="line2d_33">
      <g>
       <use style="stroke:#000000;stroke-width:0.85;" x="115.2" xlink:href="#m91f487e1f1" y="258.844594"/>
      </g>
     </g>
    </g>
    <g id="ytick_25">
     <g id="line2d_34">
      <g>
       <use style="stroke:#000000;stroke-width:0.85;" x="115.2" xlink:href="#m91f487e1f1" y="250.978603"/>
      </g>
     </g>
    </g>
    <g id="ytick_26">
     <g id="line2d_35">
      <g>
       <use style="stroke:#000000;stroke-width:0.85;" x="115.2" xlink:href="#m91f487e1f1" y="244.551621"/>
      </g>
     </g>
    </g>
    <g id="ytick_27">
     <g id="line2d_36">
      <g>
       <use style="stroke:#000000;stroke-width:0.85;" x="115.2" xlink:href="#m91f487e1f1" y="239.117686"/>
      </g>
     </g>
    </g>
    <g id="ytick_28">
     <g id="line2d_37">
      <g>
       <use style="stroke:#000000;stroke-width:0.85;" x="115.2" xlink:href="#m91f487e1f1" y="234.410596"/>
      </g>
     </g>
    </g>
    <g id="ytick_29">
     <g id="line2d_38">
      <g>
       <use style="stroke:#000000;stroke-width:0.85;" x="115.2" xlink:href="#m91f487e1f1" y="230.258649"/>
      </g>
     </g>
    </g>
    <g id="ytick_30">
     <g id="line2d_39">
      <g>
       <use style="stroke:#000000;stroke-width:0.85;" x="115.2" xlink:href="#m91f487e1f1" y="202.110609"/>
      </g>
     </g>
    </g>
    <g id="ytick_31">
     <g id="line2d_40">
      <g>
       <use style="stroke:#000000;stroke-width:0.85;" x="115.2" xlink:href="#m91f487e1f1" y="187.817637"/>
      </g>
     </g>
    </g>
    <g id="ytick_32">
     <g id="line2d_41">
      <g>
       <use style="stroke:#000000;stroke-width:0.85;" x="115.2" xlink:href="#m91f487e1f1" y="177.676612"/>
      </g>
     </g>
    </g>
    <g id="ytick_33">
     <g id="line2d_42">
      <g>
       <use style="stroke:#000000;stroke-width:0.85;" x="115.2" xlink:href="#m91f487e1f1" y="169.810621"/>
      </g>
     </g>
    </g>
    <g id="ytick_34">
     <g id="line2d_43">
      <g>
       <use style="stroke:#000000;stroke-width:0.85;" x="115.2" xlink:href="#m91f487e1f1" y="163.383639"/>
      </g>
     </g>
    </g>
    <g id="ytick_35">
     <g id="line2d_44">
      <g>
       <use style="stroke:#000000;stroke-width:0.85;" x="115.2" xlink:href="#m91f487e1f1" y="157.949704"/>
      </g>
     </g>
    </g>
    <g id="ytick_36">
     <g id="line2d_45">
      <g>
       <use style="stroke:#000000;stroke-width:0.85;" x="115.2" xlink:href="#m91f487e1f1" y="153.242614"/>
      </g>
     </g>
    </g>
    <g id="ytick_37">
     <g id="line2d_46">
      <g>
       <use style="stroke:#000000;stroke-width:0.85;" x="115.2" xlink:href="#m91f487e1f1" y="149.090667"/>
      </g>
     </g>
    </g>
    <g id="ytick_38">
     <g id="line2d_47">
      <g>
       <use style="stroke:#000000;stroke-width:0.85;" x="115.2" xlink:href="#m91f487e1f1" y="120.942627"/>
      </g>
     </g>
    </g>
    <g id="ytick_39">
     <g id="line2d_48">
      <g>
       <use style="stroke:#000000;stroke-width:0.85;" x="115.2" xlink:href="#m91f487e1f1" y="106.649655"/>
      </g>
     </g>
    </g>
    <g id="ytick_40">
     <g id="line2d_49">
      <g>
       <use style="stroke:#000000;stroke-width:0.85;" x="115.2" xlink:href="#m91f487e1f1" y="96.50863"/>
      </g>
     </g>
    </g>
    <g id="ytick_41">
     <g id="line2d_50">
      <g>
       <use style="stroke:#000000;stroke-width:0.85;" x="115.2" xlink:href="#m91f487e1f1" y="88.642639"/>
      </g>
     </g>
    </g>
    <g id="ytick_42">
     <g id="line2d_51">
      <g>
       <use style="stroke:#000000;stroke-width:0.85;" x="115.2" xlink:href="#m91f487e1f1" y="82.215658"/>
      </g>
     </g>
    </g>
    <g id="ytick_43">
     <g id="line2d_52">
      <g>
       <use style="stroke:#000000;stroke-width:0.85;" x="115.2" xlink:href="#m91f487e1f1" y="76.781722"/>
      </g>
     </g>
    </g>
    <g id="ytick_44">
     <g id="line2d_53">
      <g>
       <use style="stroke:#000000;stroke-width:0.85;" x="115.2" xlink:href="#m91f487e1f1" y="72.074632"/>
      </g>
     </g>
    </g>
    <g id="ytick_45">
     <g id="line2d_54">
      <g>
       <use style="stroke:#000000;stroke-width:0.85;" x="115.2" xlink:href="#m91f487e1f1" y="67.922685"/>
      </g>
     </g>
    </g>
   </g>
   <g id="line2d_55">
    <path clip-path="url(#p9f4901aecb)" d="M 115.2 407.48005 
L 117.216 392.205098 
L 119.232 384.885642 
L 121.248 419.460665 
L 123.264 373.659892 
L 125.28 415.495725 
L 127.296 453.480545 
L 129.312 460.8 
L 131.328 336.413284 
L 133.344 333.806602 
L 135.36 321.882398 
L 137.376 327.77598 
L 139.392 305.691833 
L 141.408 291.454383 
L 143.424 292.906359 
L 145.44 285.142424 
L 147.456 284.261567 
L 149.472 274.673095 
L 151.488 272.699662 
L 153.504 267.659594 
L 155.52 258.923997 
L 157.536 256.907154 
L 159.552 245.311776 
L 161.568 242.486512 
L 163.584 241.459929 
L 165.6 237.426581 
L 167.616 234.195344 
L 169.632 232.757912 
L 171.648 231.457758 
L 173.664 232.652955 
L 175.68 227.361236 
L 177.696 224.271774 
L 179.712 221.959785 
L 181.728 218.252551 
L 183.744 215.519393 
L 185.76 215.9161 
L 187.776 210.128947 
L 189.792 207.800156 
L 191.808 201.869964 
L 193.824 203.180687 
L 195.84 201.390094 
L 197.856 199.350374 
L 199.872 196.107709 
L 201.888 196.985205 
L 203.904 193.839457 
L 207.936 190.445372 
L 209.952 189.281133 
L 211.968 187.433157 
L 213.984 185.875749 
L 216 184.903993 
L 218.016 182.154812 
L 220.032 182.290159 
L 224.064 179.094512 
L 226.08 178.100396 
L 228.096 176.367 
L 230.112 174.88054 
L 234.144 172.865795 
L 236.16 171.063586 
L 238.176 168.2246 
L 240.192 165.936761 
L 242.208 164.388975 
L 244.224 162.454789 
L 246.24 162.564255 
L 250.272 161.482365 
L 252.288 159.696926 
L 254.304 157.119579 
L 256.32 154.309059 
L 258.336 154.492566 
L 260.352 151.7526 
L 264.384 147.972724 
L 266.4 146.87149 
L 268.416 145.105533 
L 270.432 144.717294 
L 272.448 142.640519 
L 274.464 141.207134 
L 276.48 141.577061 
L 278.496 139.595621 
L 280.512 136.671578 
L 282.528 137.004141 
L 284.544 134.037484 
L 286.56 131.858217 
L 288.576 131.760581 
L 290.592 128.629076 
L 292.608 128.603877 
L 294.624 125.448856 
L 298.656 121.656407 
L 300.672 121.91165 
L 302.688 119.972599 
L 304.704 117.093094 
L 306.72 115.153846 
L 308.736 113.46184 
L 310.752 113.358498 
L 312.768 110.513505 
L 314.784 108.657112 
L 320.832 104.037281 
L 328.896 98.490566 
L 330.912 97.260381 
L 336.96 94.242987 
L 338.976 93.427406 
L 340.992 92.487903 
L 343.008 91.220682 
L 351.072 87.822589 
L 353.088 87.129215 
L 357.12 85.467756 
L 359.136 84.7684 
L 361.152 83.83819 
L 375.264 79.558631 
L 377.28 79.02524 
L 379.296 78.177585 
L 381.312 77.639968 
L 385.344 76.367301 
L 387.36 75.760339 
L 389.376 75.408846 
L 391.392 74.859396 
L 393.408 74.168241 
L 399.456 73.063137 
L 401.472 72.348757 
L 405.504 71.909473 
L 413.568 70.24149 
L 415.584 69.874254 
L 419.616 68.838747 
L 421.632 68.801182 
L 425.664 67.947762 
L 435.744 66.264433 
L 439.776 65.937084 
L 445.824 64.9057 
L 447.84 64.731749 
L 449.856 64.264736 
L 451.872 64.154046 
L 453.888 63.893153 
L 455.904 63.757163 
L 457.92 63.312768 
L 459.936 63.059029 
L 461.952 62.52469 
L 463.968 62.416643 
L 468 61.869443 
L 470.016 61.772264 
L 472.032 61.366036 
L 474.048 61.319239 
L 476.064 60.957686 
L 478.08 60.759586 
L 480.096 60.444226 
L 482.112 60.364166 
L 484.128 60.051995 
L 486.144 60.123186 
L 488.16 59.677408 
L 492.192 59.546835 
L 494.208 59.177855 
L 510.336 58.096797 
L 512.352 57.705366 
L 514.368 57.819575 
L 516.384 57.6 
L 518.4 57.605261 
L 518.4 57.605261 
" style="fill:none;stroke:#1f77b4;stroke-linecap:square;stroke-width:0.85;"/>
   </g>
   <g id="patch_3">
    <path d="M 115.2 460.8 
L 115.2 57.6 
" style="fill:none;stroke:#000000;stroke-linecap:square;stroke-linejoin:miter;stroke-width:0.85;"/>
   </g>
   <g id="patch_4">
    <path d="M 518.4 460.8 
L 518.4 57.6 
" style="fill:none;stroke:#000000;stroke-linecap:square;stroke-linejoin:miter;stroke-width:0.85;"/>
   </g>
   <g id="patch_5">
    <path d="M 115.2 460.8 
L 518.4 460.8 
" style="fill:none;stroke:#000000;stroke-linecap:square;stroke-linejoin:miter;stroke-width:0.85;"/>
   </g>
   <g id="patch_6">
    <path d="M 115.2 57.6 
L 518.4 57.6 
" style="fill:none;stroke:#000000;stroke-linecap:square;stroke-linejoin:miter;stroke-width:0.85;"/>
   </g>
  </g>
 </g>
 <defs>
  <clipPath id="p9f4901aecb">
   <rect height="403.2" width="403.2" x="115.2" y="57.6"/>
  </clipPath>
 </defs>
</svg>
