<?xml version="1.0" encoding="utf-8" standalone="no"?>
<!DOCTYPE svg PUBLIC "-//W3C//DTD SVG 1.1//EN"
  "http://www.w3.org/Graphics/SVG/1.1/DTD/svg11.dtd">
<!-- Created with matplotlib (https://matplotlib.org/) -->
<svg height="576pt" version="1.1" viewBox="0 0 576 576" width="576pt" xmlns="http://www.w3.org/2000/svg" xmlns:xlink="http://www.w3.org/1999/xlink">
 <defs>
  <style type="text/css">
*{stroke-linecap:butt;stroke-linejoin:round;}
  </style>
 </defs>
 <g id="figure_1">
  <g id="patch_1">
   <path d="M 0 576 
L 576 576 
L 576 0 
L 0 0 
z
" style="fill:none;"/>
  </g>
  <g id="axes_1">
   <g id="patch_2">
    <path d="M 115.2 460.8 
L 518.4 460.8 
L 518.4 57.6 
L 115.2 57.6 
z
" style="fill:none;"/>
   </g>
   <g id="matplotlib.axis_1">
    <g id="xtick_1">
     <g id="line2d_1">
      <defs>
       <path d="M 0 0 
L 0 3.5 
" id="m1a495608bf" style="stroke:#000000;stroke-width:0.85;"/>
      </defs>
      <g>
       <use style="stroke:#000000;stroke-width:0.85;" x="115.2" xlink:href="#m1a495608bf" y="460.8"/>
      </g>
     </g>
     <g id="text_1">
      <text style="font-family:Helvetica;font-size:7.5px;font-style:normal;font-weight:medium;text-anchor:middle;" transform="rotate(-0, 115.2, 473.180078)" x="115.2" y="473.180078">−100</text>
     </g>
    </g>
    <g id="xtick_2">
     <g id="line2d_2">
      <g>
       <use style="stroke:#000000;stroke-width:0.85;" x="165.6" xlink:href="#m1a495608bf" y="460.8"/>
      </g>
     </g>
     <g id="text_2">
      <text style="font-family:Helvetica;font-size:7.5px;font-style:normal;font-weight:medium;text-anchor:middle;" transform="rotate(-0, 165.6, 473.180078)" x="165.6" y="473.180078">−75</text>
     </g>
    </g>
    <g id="xtick_3">
     <g id="line2d_3">
      <g>
       <use style="stroke:#000000;stroke-width:0.85;" x="216" xlink:href="#m1a495608bf" y="460.8"/>
      </g>
     </g>
     <g id="text_3">
      <text style="font-family:Helvetica;font-size:7.5px;font-style:normal;font-weight:medium;text-anchor:middle;" transform="rotate(-0, 216, 473.180078)" x="216" y="473.180078">−50</text>
     </g>
    </g>
    <g id="xtick_4">
     <g id="line2d_4">
      <g>
       <use style="stroke:#000000;stroke-width:0.85;" x="266.4" xlink:href="#m1a495608bf" y="460.8"/>
      </g>
     </g>
     <g id="text_4">
      <text style="font-family:Helvetica;font-size:7.5px;font-style:normal;font-weight:medium;text-anchor:middle;" transform="rotate(-0, 266.4, 473.180078)" x="266.4" y="473.180078">−25</text>
     </g>
    </g>
    <g id="xtick_5">
     <g id="line2d_5">
      <g>
       <use style="stroke:#000000;stroke-width:0.85;" x="316.8" xlink:href="#m1a495608bf" y="460.8"/>
      </g>
     </g>
     <g id="text_5">
      <text style="font-family:Helvetica;font-size:7.5px;font-style:normal;font-weight:medium;text-anchor:middle;" transform="rotate(-0, 316.8, 473.180078)" x="316.8" y="473.180078">0</text>
     </g>
    </g>
    <g id="xtick_6">
     <g id="line2d_6">
      <g>
       <use style="stroke:#000000;stroke-width:0.85;" x="367.2" xlink:href="#m1a495608bf" y="460.8"/>
      </g>
     </g>
     <g id="text_6">
      <text style="font-family:Helvetica;font-size:7.5px;font-style:normal;font-weight:medium;text-anchor:middle;" transform="rotate(-0, 367.2, 473.180078)" x="367.2" y="473.180078">25</text>
     </g>
    </g>
    <g id="xtick_7">
     <g id="line2d_7">
      <g>
       <use style="stroke:#000000;stroke-width:0.85;" x="417.6" xlink:href="#m1a495608bf" y="460.8"/>
      </g>
     </g>
     <g id="text_7">
      <text style="font-family:Helvetica;font-size:7.5px;font-style:normal;font-weight:medium;text-anchor:middle;" transform="rotate(-0, 417.6, 473.180078)" x="417.6" y="473.180078">50</text>
     </g>
    </g>
    <g id="xtick_8">
     <g id="line2d_8">
      <g>
       <use style="stroke:#000000;stroke-width:0.85;" x="468" xlink:href="#m1a495608bf" y="460.8"/>
      </g>
     </g>
     <g id="text_8">
      <text style="font-family:Helvetica;font-size:7.5px;font-style:normal;font-weight:medium;text-anchor:middle;" transform="rotate(-0, 468, 473.180078)" x="468" y="473.180078">75</text>
     </g>
    </g>
    <g id="xtick_9">
     <g id="line2d_9">
      <g>
       <use style="stroke:#000000;stroke-width:0.85;" x="518.4" xlink:href="#m1a495608bf" y="460.8"/>
      </g>
     </g>
     <g id="text_9">
      <text style="font-family:Helvetica;font-size:7.5px;font-style:normal;font-weight:medium;text-anchor:middle;" transform="rotate(-0, 518.4, 473.180078)" x="518.4" y="473.180078">100</text>
     </g>
    </g>
   </g>
   <g id="matplotlib.axis_2">
    <g id="ytick_1">
     <g id="line2d_10">
      <defs>
       <path d="M 0 0 
L -3.5 0 
" id="mf3a775efc4" style="stroke:#000000;stroke-width:0.85;"/>
      </defs>
      <g>
       <use style="stroke:#000000;stroke-width:0.85;" x="115.2" xlink:href="#mf3a775efc4" y="415.280443"/>
      </g>
     </g>
     <g id="text_10">
      <!-- $\mathdefault{10^{-10}}$ -->
      <g transform="translate(90.65 417.970482)">
       <text>
        <tspan style="font-family:Helvetica;font-size:7.5px;font-style:regular;font-weight:regular;" x="0 4.171143" y="-0.5796875000000004">10</tspan>
        <tspan style="font-family:Helvetica;font-size:5.25px;font-style:regular;font-weight:regular;" x="8.410918 11.476836 14.396636" y="-3.325">−10</tspan>
       </text>
      </g>
     </g>
    </g>
    <g id="ytick_2">
     <g id="line2d_11">
      <g>
       <use style="stroke:#000000;stroke-width:0.85;" x="115.2" xlink:href="#mf3a775efc4" y="335.230046"/>
      </g>
     </g>
     <g id="text_11">
      <!-- $\mathdefault{10^{-9}}$ -->
      <g transform="translate(93.575 337.920085)">
       <text>
        <tspan style="font-family:Helvetica;font-size:7.5px;font-style:regular;font-weight:regular;" x="0 4.171143" y="-0.5796875000000004">10</tspan>
        <tspan style="font-family:Helvetica;font-size:5.25px;font-style:regular;font-weight:regular;" x="8.410918 11.476836" y="-3.325">−9</tspan>
       </text>
      </g>
     </g>
    </g>
    <g id="ytick_3">
     <g id="line2d_12">
      <g>
       <use style="stroke:#000000;stroke-width:0.85;" x="115.2" xlink:href="#mf3a775efc4" y="255.179648"/>
      </g>
     </g>
     <g id="text_12">
      <!-- $\mathdefault{10^{-8}}$ -->
      <g transform="translate(93.575 257.869687)">
       <text>
        <tspan style="font-family:Helvetica;font-size:7.5px;font-style:regular;font-weight:regular;" x="0 4.171143" y="-0.5687500000000005">10</tspan>
        <tspan style="font-family:Helvetica;font-size:5.25px;font-style:regular;font-weight:regular;" x="8.410918 11.476836" y="-3.3140625000000004">−8</tspan>
       </text>
      </g>
     </g>
    </g>
    <g id="ytick_4">
     <g id="line2d_13">
      <g>
       <use style="stroke:#000000;stroke-width:0.85;" x="115.2" xlink:href="#mf3a775efc4" y="175.129251"/>
      </g>
     </g>
     <g id="text_13">
      <!-- $\mathdefault{10^{-7}}$ -->
      <g transform="translate(93.575 177.81929)">
       <text>
        <tspan style="font-family:Helvetica;font-size:7.5px;font-style:regular;font-weight:regular;" x="0 4.171143" y="-0.6453125000000011">10</tspan>
        <tspan style="font-family:Helvetica;font-size:5.25px;font-style:regular;font-weight:regular;" x="8.410918 11.476836" y="-3.390625000000001">−7</tspan>
       </text>
      </g>
     </g>
    </g>
    <g id="ytick_5">
     <g id="line2d_14">
      <g>
       <use style="stroke:#000000;stroke-width:0.85;" x="115.2" xlink:href="#mf3a775efc4" y="95.078853"/>
      </g>
     </g>
     <g id="text_14">
      <!-- $\mathdefault{10^{-6}}$ -->
      <g transform="translate(93.575 97.768892)">
       <text>
        <tspan style="font-family:Helvetica;font-size:7.5px;font-style:regular;font-weight:regular;" x="0 4.171143" y="-0.5687500000000005">10</tspan>
        <tspan style="font-family:Helvetica;font-size:5.25px;font-style:regular;font-weight:regular;" x="8.410918 11.476836" y="-3.3140625000000004">−6</tspan>
       </text>
      </g>
     </g>
    </g>
    <g id="ytick_6">
     <g id="line2d_15">
      <defs>
       <path d="M 0 0 
L -1.8 0 
" id="md3b7ffc454" style="stroke:#000000;stroke-width:0.85;"/>
      </defs>
      <g>
       <use style="stroke:#000000;stroke-width:0.85;" x="115.2" xlink:href="#md3b7ffc454" y="457.137095"/>
      </g>
     </g>
    </g>
    <g id="ytick_7">
     <g id="line2d_16">
      <g>
       <use style="stroke:#000000;stroke-width:0.85;" x="115.2" xlink:href="#md3b7ffc454" y="447.135699"/>
      </g>
     </g>
    </g>
    <g id="ytick_8">
     <g id="line2d_17">
      <g>
       <use style="stroke:#000000;stroke-width:0.85;" x="115.2" xlink:href="#md3b7ffc454" y="439.378014"/>
      </g>
     </g>
    </g>
    <g id="ytick_9">
     <g id="line2d_18">
      <g>
       <use style="stroke:#000000;stroke-width:0.85;" x="115.2" xlink:href="#md3b7ffc454" y="433.039524"/>
      </g>
     </g>
    </g>
    <g id="ytick_10">
     <g id="line2d_19">
      <g>
       <use style="stroke:#000000;stroke-width:0.85;" x="115.2" xlink:href="#md3b7ffc454" y="427.680407"/>
      </g>
     </g>
    </g>
    <g id="ytick_11">
     <g id="line2d_20">
      <g>
       <use style="stroke:#000000;stroke-width:0.85;" x="115.2" xlink:href="#md3b7ffc454" y="423.038128"/>
      </g>
     </g>
    </g>
    <g id="ytick_12">
     <g id="line2d_21">
      <g>
       <use style="stroke:#000000;stroke-width:0.85;" x="115.2" xlink:href="#md3b7ffc454" y="418.943349"/>
      </g>
     </g>
    </g>
    <g id="ytick_13">
     <g id="line2d_22">
      <g>
       <use style="stroke:#000000;stroke-width:0.85;" x="115.2" xlink:href="#md3b7ffc454" y="391.182872"/>
      </g>
     </g>
    </g>
    <g id="ytick_14">
     <g id="line2d_23">
      <g>
       <use style="stroke:#000000;stroke-width:0.85;" x="115.2" xlink:href="#md3b7ffc454" y="377.086697"/>
      </g>
     </g>
    </g>
    <g id="ytick_15">
     <g id="line2d_24">
      <g>
       <use style="stroke:#000000;stroke-width:0.85;" x="115.2" xlink:href="#md3b7ffc454" y="367.085302"/>
      </g>
     </g>
    </g>
    <g id="ytick_16">
     <g id="line2d_25">
      <g>
       <use style="stroke:#000000;stroke-width:0.85;" x="115.2" xlink:href="#md3b7ffc454" y="359.327617"/>
      </g>
     </g>
    </g>
    <g id="ytick_17">
     <g id="line2d_26">
      <g>
       <use style="stroke:#000000;stroke-width:0.85;" x="115.2" xlink:href="#md3b7ffc454" y="352.989126"/>
      </g>
     </g>
    </g>
    <g id="ytick_18">
     <g id="line2d_27">
      <g>
       <use style="stroke:#000000;stroke-width:0.85;" x="115.2" xlink:href="#md3b7ffc454" y="347.630009"/>
      </g>
     </g>
    </g>
    <g id="ytick_19">
     <g id="line2d_28">
      <g>
       <use style="stroke:#000000;stroke-width:0.85;" x="115.2" xlink:href="#md3b7ffc454" y="342.987731"/>
      </g>
     </g>
    </g>
    <g id="ytick_20">
     <g id="line2d_29">
      <g>
       <use style="stroke:#000000;stroke-width:0.85;" x="115.2" xlink:href="#md3b7ffc454" y="338.892951"/>
      </g>
     </g>
    </g>
    <g id="ytick_21">
     <g id="line2d_30">
      <g>
       <use style="stroke:#000000;stroke-width:0.85;" x="115.2" xlink:href="#md3b7ffc454" y="311.132475"/>
      </g>
     </g>
    </g>
    <g id="ytick_22">
     <g id="line2d_31">
      <g>
       <use style="stroke:#000000;stroke-width:0.85;" x="115.2" xlink:href="#md3b7ffc454" y="297.0363"/>
      </g>
     </g>
    </g>
    <g id="ytick_23">
     <g id="line2d_32">
      <g>
       <use style="stroke:#000000;stroke-width:0.85;" x="115.2" xlink:href="#md3b7ffc454" y="287.034904"/>
      </g>
     </g>
    </g>
    <g id="ytick_24">
     <g id="line2d_33">
      <g>
       <use style="stroke:#000000;stroke-width:0.85;" x="115.2" xlink:href="#md3b7ffc454" y="279.277219"/>
      </g>
     </g>
    </g>
    <g id="ytick_25">
     <g id="line2d_34">
      <g>
       <use style="stroke:#000000;stroke-width:0.85;" x="115.2" xlink:href="#md3b7ffc454" y="272.938729"/>
      </g>
     </g>
    </g>
    <g id="ytick_26">
     <g id="line2d_35">
      <g>
       <use style="stroke:#000000;stroke-width:0.85;" x="115.2" xlink:href="#md3b7ffc454" y="267.579612"/>
      </g>
     </g>
    </g>
    <g id="ytick_27">
     <g id="line2d_36">
      <g>
       <use style="stroke:#000000;stroke-width:0.85;" x="115.2" xlink:href="#md3b7ffc454" y="262.937333"/>
      </g>
     </g>
    </g>
    <g id="ytick_28">
     <g id="line2d_37">
      <g>
       <use style="stroke:#000000;stroke-width:0.85;" x="115.2" xlink:href="#md3b7ffc454" y="258.842554"/>
      </g>
     </g>
    </g>
    <g id="ytick_29">
     <g id="line2d_38">
      <g>
       <use style="stroke:#000000;stroke-width:0.85;" x="115.2" xlink:href="#md3b7ffc454" y="231.082077"/>
      </g>
     </g>
    </g>
    <g id="ytick_30">
     <g id="line2d_39">
      <g>
       <use style="stroke:#000000;stroke-width:0.85;" x="115.2" xlink:href="#md3b7ffc454" y="216.985902"/>
      </g>
     </g>
    </g>
    <g id="ytick_31">
     <g id="line2d_40">
      <g>
       <use style="stroke:#000000;stroke-width:0.85;" x="115.2" xlink:href="#md3b7ffc454" y="206.984507"/>
      </g>
     </g>
    </g>
    <g id="ytick_32">
     <g id="line2d_41">
      <g>
       <use style="stroke:#000000;stroke-width:0.85;" x="115.2" xlink:href="#md3b7ffc454" y="199.226822"/>
      </g>
     </g>
    </g>
    <g id="ytick_33">
     <g id="line2d_42">
      <g>
       <use style="stroke:#000000;stroke-width:0.85;" x="115.2" xlink:href="#md3b7ffc454" y="192.888331"/>
      </g>
     </g>
    </g>
    <g id="ytick_34">
     <g id="line2d_43">
      <g>
       <use style="stroke:#000000;stroke-width:0.85;" x="115.2" xlink:href="#md3b7ffc454" y="187.529214"/>
      </g>
     </g>
    </g>
    <g id="ytick_35">
     <g id="line2d_44">
      <g>
       <use style="stroke:#000000;stroke-width:0.85;" x="115.2" xlink:href="#md3b7ffc454" y="182.886936"/>
      </g>
     </g>
    </g>
    <g id="ytick_36">
     <g id="line2d_45">
      <g>
       <use style="stroke:#000000;stroke-width:0.85;" x="115.2" xlink:href="#md3b7ffc454" y="178.792156"/>
      </g>
     </g>
    </g>
    <g id="ytick_37">
     <g id="line2d_46">
      <g>
       <use style="stroke:#000000;stroke-width:0.85;" x="115.2" xlink:href="#md3b7ffc454" y="151.03168"/>
      </g>
     </g>
    </g>
    <g id="ytick_38">
     <g id="line2d_47">
      <g>
       <use style="stroke:#000000;stroke-width:0.85;" x="115.2" xlink:href="#md3b7ffc454" y="136.935505"/>
      </g>
     </g>
    </g>
    <g id="ytick_39">
     <g id="line2d_48">
      <g>
       <use style="stroke:#000000;stroke-width:0.85;" x="115.2" xlink:href="#md3b7ffc454" y="126.934109"/>
      </g>
     </g>
    </g>
    <g id="ytick_40">
     <g id="line2d_49">
      <g>
       <use style="stroke:#000000;stroke-width:0.85;" x="115.2" xlink:href="#md3b7ffc454" y="119.176424"/>
      </g>
     </g>
    </g>
    <g id="ytick_41">
     <g id="line2d_50">
      <g>
       <use style="stroke:#000000;stroke-width:0.85;" x="115.2" xlink:href="#md3b7ffc454" y="112.837934"/>
      </g>
     </g>
    </g>
    <g id="ytick_42">
     <g id="line2d_51">
      <g>
       <use style="stroke:#000000;stroke-width:0.85;" x="115.2" xlink:href="#md3b7ffc454" y="107.478817"/>
      </g>
     </g>
    </g>
    <g id="ytick_43">
     <g id="line2d_52">
      <g>
       <use style="stroke:#000000;stroke-width:0.85;" x="115.2" xlink:href="#md3b7ffc454" y="102.836538"/>
      </g>
     </g>
    </g>
    <g id="ytick_44">
     <g id="line2d_53">
      <g>
       <use style="stroke:#000000;stroke-width:0.85;" x="115.2" xlink:href="#md3b7ffc454" y="98.741759"/>
      </g>
     </g>
    </g>
    <g id="ytick_45">
     <g id="line2d_54">
      <g>
       <use style="stroke:#000000;stroke-width:0.85;" x="115.2" xlink:href="#md3b7ffc454" y="70.981282"/>
      </g>
     </g>
    </g>
   </g>
   <g id="line2d_55">
    <path clip-path="url(#pc67481646b)" d="M 115.2 414.934516 
L 117.216 424.821363 
L 119.232 410.120556 
L 121.248 438.689567 
L 123.264 438.689567 
L 125.28 420.523868 
L 127.296 424.366906 
L 129.312 436.064513 
L 131.328 434.822758 
L 133.344 460.8 
L 135.36 422.179679 
L 137.376 454.893384 
L 139.392 421.758274 
L 141.408 325.657157 
L 143.424 302.038017 
L 145.44 290.208755 
L 147.456 285.107692 
L 149.472 252.040411 
L 151.488 249.573089 
L 153.504 247.297032 
L 155.52 245.797343 
L 157.536 243.89421 
L 159.552 241.173981 
L 161.568 239.053356 
L 163.584 237.251325 
L 165.6 236.363927 
L 167.616 237.251325 
L 169.632 232.221741 
L 171.648 231.412173 
L 173.664 227.854015 
L 175.68 227.526066 
L 177.696 226.48263 
L 179.712 224.949894 
L 181.728 220.332214 
L 183.744 223.760995 
L 185.76 223.202233 
L 189.792 216.196487 
L 191.808 212.907608 
L 193.824 212.938539 
L 197.856 211.521655 
L 199.872 209.270889 
L 201.888 207.986137 
L 203.904 205.301541 
L 205.92 203.769119 
L 207.936 202.678686 
L 209.952 201.397185 
L 211.968 200.854509 
L 213.984 198.767489 
L 216 197.260163 
L 218.016 196.425921 
L 220.032 194.214701 
L 222.048 193.217842 
L 224.064 192.525197 
L 228.096 188.212318 
L 230.112 186.556602 
L 234.144 182.780196 
L 236.16 180.410291 
L 238.176 179.444096 
L 240.192 177.240826 
L 246.24 172.851878 
L 248.256 170.772786 
L 250.272 169.126999 
L 252.288 166.499823 
L 254.304 165.420417 
L 258.336 161.090602 
L 260.352 159.208854 
L 262.368 156.835439 
L 266.4 153.235919 
L 268.416 150.412492 
L 270.432 148.851311 
L 272.448 146.778269 
L 274.464 144.29753 
L 280.512 136.342737 
L 282.528 134.76662 
L 284.544 132.493777 
L 288.576 128.349773 
L 292.608 123.599992 
L 296.64 119.112723 
L 298.656 117.24862 
L 300.672 115.101922 
L 302.688 112.731887 
L 308.736 107.091117 
L 312.768 103.688744 
L 314.784 103.066751 
L 318.816 99.703098 
L 320.832 98.939401 
L 322.848 96.932055 
L 324.864 95.697235 
L 326.88 95.143925 
L 328.896 94.033007 
L 334.944 91.501193 
L 336.96 90.432534 
L 338.976 89.715167 
L 345.024 87.930562 
L 357.12 83.87795 
L 359.136 83.087235 
L 365.184 81.267761 
L 367.2 80.302412 
L 369.216 79.740821 
L 371.232 78.877654 
L 373.248 78.825554 
L 377.28 77.666017 
L 379.296 77.115881 
L 381.312 77.034479 
L 385.344 75.798024 
L 387.36 75.565601 
L 393.408 74.287171 
L 395.424 74.012214 
L 399.456 72.822385 
L 401.472 72.580564 
L 405.504 71.570304 
L 407.52 70.98389 
L 409.536 70.564004 
L 411.552 70.014804 
L 413.568 69.858941 
L 415.584 69.483468 
L 417.6 69.244038 
L 419.616 68.764852 
L 421.632 68.614644 
L 431.712 67.13025 
L 439.776 66.272514 
L 443.808 65.185582 
L 445.824 65.172343 
L 447.84 64.968209 
L 449.856 64.59589 
L 451.872 64.343508 
L 453.888 64.316949 
L 457.92 63.64218 
L 459.936 63.65485 
L 476.064 61.787675 
L 482.112 61.202314 
L 484.128 60.719558 
L 486.144 60.485105 
L 492.192 60.299237 
L 494.208 59.940957 
L 510.336 58.443885 
L 512.352 58.190054 
L 514.368 58.06335 
L 518.4 57.6 
L 518.4 57.6 
" style="fill:none;stroke:#1f77b4;stroke-linecap:square;stroke-width:0.85;"/>
   </g>
   <g id="patch_3">
    <path d="M 115.2 460.8 
L 115.2 57.6 
" style="fill:none;stroke:#000000;stroke-linecap:square;stroke-linejoin:miter;stroke-width:0.85;"/>
   </g>
   <g id="patch_4">
    <path d="M 518.4 460.8 
L 518.4 57.6 
" style="fill:none;stroke:#000000;stroke-linecap:square;stroke-linejoin:miter;stroke-width:0.85;"/>
   </g>
   <g id="patch_5">
    <path d="M 115.2 460.8 
L 518.4 460.8 
" style="fill:none;stroke:#000000;stroke-linecap:square;stroke-linejoin:miter;stroke-width:0.85;"/>
   </g>
   <g id="patch_6">
    <path d="M 115.2 57.6 
L 518.4 57.6 
" style="fill:none;stroke:#000000;stroke-linecap:square;stroke-linejoin:miter;stroke-width:0.85;"/>
   </g>
  </g>
 </g>
 <defs>
  <clipPath id="pc67481646b">
   <rect height="403.2" width="403.2" x="115.2" y="57.6"/>
  </clipPath>
 </defs>
</svg>
