<?xml version="1.0" encoding="utf-8" standalone="no"?>
<!DOCTYPE svg PUBLIC "-//W3C//DTD SVG 1.1//EN"
  "http://www.w3.org/Graphics/SVG/1.1/DTD/svg11.dtd">
<!-- Created with matplotlib (https://matplotlib.org/) -->
<svg height="576pt" version="1.1" viewBox="0 0 576 576" width="576pt" xmlns="http://www.w3.org/2000/svg" xmlns:xlink="http://www.w3.org/1999/xlink">
 <defs>
  <style type="text/css">
*{stroke-linecap:butt;stroke-linejoin:round;}
  </style>
 </defs>
 <g id="figure_1">
  <g id="patch_1">
   <path d="M 0 576 
L 576 576 
L 576 0 
L 0 0 
z
" style="fill:none;"/>
  </g>
  <g id="axes_1">
   <g id="patch_2">
    <path d="M 115.2 460.8 
L 518.4 460.8 
L 518.4 57.6 
L 115.2 57.6 
z
" style="fill:none;"/>
   </g>
   <g id="matplotlib.axis_1">
    <g id="xtick_1">
     <g id="line2d_1">
      <defs>
       <path d="M 0 0 
L 0 3.5 
" id="m6fc6c15dae" style="stroke:#000000;stroke-width:0.85;"/>
      </defs>
      <g>
       <use style="stroke:#000000;stroke-width:0.85;" x="115.2" xlink:href="#m6fc6c15dae" y="460.8"/>
      </g>
     </g>
     <g id="text_1">
      <text style="font-family:Helvetica;font-size:7.5px;font-style:normal;font-weight:medium;text-anchor:middle;" transform="rotate(-0, 115.2, 473.180078)" x="115.2" y="473.180078">−100</text>
     </g>
    </g>
    <g id="xtick_2">
     <g id="line2d_2">
      <g>
       <use style="stroke:#000000;stroke-width:0.85;" x="165.6" xlink:href="#m6fc6c15dae" y="460.8"/>
      </g>
     </g>
     <g id="text_2">
      <text style="font-family:Helvetica;font-size:7.5px;font-style:normal;font-weight:medium;text-anchor:middle;" transform="rotate(-0, 165.6, 473.180078)" x="165.6" y="473.180078">−75</text>
     </g>
    </g>
    <g id="xtick_3">
     <g id="line2d_3">
      <g>
       <use style="stroke:#000000;stroke-width:0.85;" x="216" xlink:href="#m6fc6c15dae" y="460.8"/>
      </g>
     </g>
     <g id="text_3">
      <text style="font-family:Helvetica;font-size:7.5px;font-style:normal;font-weight:medium;text-anchor:middle;" transform="rotate(-0, 216, 473.180078)" x="216" y="473.180078">−50</text>
     </g>
    </g>
    <g id="xtick_4">
     <g id="line2d_4">
      <g>
       <use style="stroke:#000000;stroke-width:0.85;" x="266.4" xlink:href="#m6fc6c15dae" y="460.8"/>
      </g>
     </g>
     <g id="text_4">
      <text style="font-family:Helvetica;font-size:7.5px;font-style:normal;font-weight:medium;text-anchor:middle;" transform="rotate(-0, 266.4, 473.180078)" x="266.4" y="473.180078">−25</text>
     </g>
    </g>
    <g id="xtick_5">
     <g id="line2d_5">
      <g>
       <use style="stroke:#000000;stroke-width:0.85;" x="316.8" xlink:href="#m6fc6c15dae" y="460.8"/>
      </g>
     </g>
     <g id="text_5">
      <text style="font-family:Helvetica;font-size:7.5px;font-style:normal;font-weight:medium;text-anchor:middle;" transform="rotate(-0, 316.8, 473.180078)" x="316.8" y="473.180078">0</text>
     </g>
    </g>
    <g id="xtick_6">
     <g id="line2d_6">
      <g>
       <use style="stroke:#000000;stroke-width:0.85;" x="367.2" xlink:href="#m6fc6c15dae" y="460.8"/>
      </g>
     </g>
     <g id="text_6">
      <text style="font-family:Helvetica;font-size:7.5px;font-style:normal;font-weight:medium;text-anchor:middle;" transform="rotate(-0, 367.2, 473.180078)" x="367.2" y="473.180078">25</text>
     </g>
    </g>
    <g id="xtick_7">
     <g id="line2d_7">
      <g>
       <use style="stroke:#000000;stroke-width:0.85;" x="417.6" xlink:href="#m6fc6c15dae" y="460.8"/>
      </g>
     </g>
     <g id="text_7">
      <text style="font-family:Helvetica;font-size:7.5px;font-style:normal;font-weight:medium;text-anchor:middle;" transform="rotate(-0, 417.6, 473.180078)" x="417.6" y="473.180078">50</text>
     </g>
    </g>
    <g id="xtick_8">
     <g id="line2d_8">
      <g>
       <use style="stroke:#000000;stroke-width:0.85;" x="468" xlink:href="#m6fc6c15dae" y="460.8"/>
      </g>
     </g>
     <g id="text_8">
      <text style="font-family:Helvetica;font-size:7.5px;font-style:normal;font-weight:medium;text-anchor:middle;" transform="rotate(-0, 468, 473.180078)" x="468" y="473.180078">75</text>
     </g>
    </g>
    <g id="xtick_9">
     <g id="line2d_9">
      <g>
       <use style="stroke:#000000;stroke-width:0.85;" x="518.4" xlink:href="#m6fc6c15dae" y="460.8"/>
      </g>
     </g>
     <g id="text_9">
      <text style="font-family:Helvetica;font-size:7.5px;font-style:normal;font-weight:medium;text-anchor:middle;" transform="rotate(-0, 518.4, 473.180078)" x="518.4" y="473.180078">100</text>
     </g>
    </g>
   </g>
   <g id="matplotlib.axis_2">
    <g id="ytick_1">
     <g id="line2d_10">
      <defs>
       <path d="M 0 0 
L -3.5 0 
" id="m22654b7cad" style="stroke:#000000;stroke-width:0.85;"/>
      </defs>
      <g>
       <use style="stroke:#000000;stroke-width:0.85;" x="115.2" xlink:href="#m22654b7cad" y="430.256251"/>
      </g>
     </g>
     <g id="text_10">
      <!-- $\mathdefault{10^{-9}}$ -->
      <g transform="translate(93.575 432.94629)">
       <text>
        <tspan style="font-family:Helvetica;font-size:7.5px;font-style:regular;font-weight:regular;" x="0 4.171143" y="-0.5796875000000004">10</tspan>
        <tspan style="font-family:Helvetica;font-size:5.25px;font-style:regular;font-weight:regular;" x="8.410918 11.476836" y="-3.325">−9</tspan>
       </text>
      </g>
     </g>
    </g>
    <g id="ytick_2">
     <g id="line2d_11">
      <g>
       <use style="stroke:#000000;stroke-width:0.85;" x="115.2" xlink:href="#m22654b7cad" y="201.828004"/>
      </g>
     </g>
     <g id="text_11">
      <!-- $\mathdefault{10^{-8}}$ -->
      <g transform="translate(93.575 204.518043)">
       <text>
        <tspan style="font-family:Helvetica;font-size:7.5px;font-style:regular;font-weight:regular;" x="0 4.171143" y="-0.5687500000000005">10</tspan>
        <tspan style="font-family:Helvetica;font-size:5.25px;font-style:regular;font-weight:regular;" x="8.410918 11.476836" y="-3.3140625000000004">−8</tspan>
       </text>
      </g>
     </g>
    </g>
    <g id="ytick_3">
     <g id="line2d_12">
      <defs>
       <path d="M 0 0 
L -1.8 0 
" id="m131c76f02a" style="stroke:#000000;stroke-width:0.85;"/>
      </defs>
      <g>
       <use style="stroke:#000000;stroke-width:0.85;" x="115.2" xlink:href="#m131c76f02a" y="452.393236"/>
      </g>
     </g>
    </g>
    <g id="ytick_4">
     <g id="line2d_13">
      <g>
       <use style="stroke:#000000;stroke-width:0.85;" x="115.2" xlink:href="#m131c76f02a" y="440.708555"/>
      </g>
     </g>
    </g>
    <g id="ytick_5">
     <g id="line2d_14">
      <g>
       <use style="stroke:#000000;stroke-width:0.85;" x="115.2" xlink:href="#m131c76f02a" y="361.492497"/>
      </g>
     </g>
    </g>
    <g id="ytick_6">
     <g id="line2d_15">
      <g>
       <use style="stroke:#000000;stroke-width:0.85;" x="115.2" xlink:href="#m131c76f02a" y="321.268279"/>
      </g>
     </g>
    </g>
    <g id="ytick_7">
     <g id="line2d_16">
      <g>
       <use style="stroke:#000000;stroke-width:0.85;" x="115.2" xlink:href="#m131c76f02a" y="292.728742"/>
      </g>
     </g>
    </g>
    <g id="ytick_8">
     <g id="line2d_17">
      <g>
       <use style="stroke:#000000;stroke-width:0.85;" x="115.2" xlink:href="#m131c76f02a" y="270.591758"/>
      </g>
     </g>
    </g>
    <g id="ytick_9">
     <g id="line2d_18">
      <g>
       <use style="stroke:#000000;stroke-width:0.85;" x="115.2" xlink:href="#m131c76f02a" y="252.504525"/>
      </g>
     </g>
    </g>
    <g id="ytick_10">
     <g id="line2d_19">
      <g>
       <use style="stroke:#000000;stroke-width:0.85;" x="115.2" xlink:href="#m131c76f02a" y="237.211987"/>
      </g>
     </g>
    </g>
    <g id="ytick_11">
     <g id="line2d_20">
      <g>
       <use style="stroke:#000000;stroke-width:0.85;" x="115.2" xlink:href="#m131c76f02a" y="223.964988"/>
      </g>
     </g>
    </g>
    <g id="ytick_12">
     <g id="line2d_21">
      <g>
       <use style="stroke:#000000;stroke-width:0.85;" x="115.2" xlink:href="#m131c76f02a" y="212.280307"/>
      </g>
     </g>
    </g>
    <g id="ytick_13">
     <g id="line2d_22">
      <g>
       <use style="stroke:#000000;stroke-width:0.85;" x="115.2" xlink:href="#m131c76f02a" y="133.064249"/>
      </g>
     </g>
    </g>
    <g id="ytick_14">
     <g id="line2d_23">
      <g>
       <use style="stroke:#000000;stroke-width:0.85;" x="115.2" xlink:href="#m131c76f02a" y="92.840031"/>
      </g>
     </g>
    </g>
    <g id="ytick_15">
     <g id="line2d_24">
      <g>
       <use style="stroke:#000000;stroke-width:0.85;" x="115.2" xlink:href="#m131c76f02a" y="64.300495"/>
      </g>
     </g>
    </g>
   </g>
   <g id="line2d_25">
    <path clip-path="url(#p1f7b6e0866)" d="M 115.2 456.313897 
L 117.216 460.8 
L 119.232 444.988213 
L 121.248 442.600353 
L 123.264 436.500202 
L 125.28 432.46313 
L 127.296 431.453913 
L 129.312 410.447944 
L 131.328 309.642404 
L 133.344 404.763996 
L 135.36 414.935373 
L 137.376 406.857499 
L 139.392 411.592003 
L 141.408 404.304712 
L 143.424 400.337475 
L 145.44 397.018303 
L 147.456 393.121949 
L 149.472 391.162778 
L 151.488 385.823681 
L 153.504 382.274704 
L 155.52 381.482764 
L 157.536 378.435574 
L 159.552 373.836599 
L 161.568 365.852749 
L 163.584 366.842465 
L 165.6 360.456274 
L 167.616 359.139696 
L 169.632 355.012471 
L 171.648 352.943227 
L 173.664 347.929785 
L 175.68 348.45032 
L 177.696 344.44407 
L 181.728 340.67374 
L 183.744 338.722623 
L 185.76 335.732067 
L 187.776 331.720582 
L 189.792 328.895273 
L 191.808 326.985383 
L 193.824 326.635699 
L 195.84 322.734063 
L 197.856 321.070067 
L 199.872 316.775082 
L 203.904 313.633349 
L 205.92 309.848498 
L 207.936 308.037816 
L 209.952 306.487255 
L 211.968 329.073989 
L 213.984 308.909827 
L 216 298.8671 
L 218.016 296.804332 
L 220.032 294.077134 
L 222.048 290.861528 
L 224.064 286.901384 
L 226.08 286.016658 
L 228.096 283.048273 
L 230.112 271.188782 
L 232.128 265.940666 
L 234.144 272.373514 
L 236.16 272.839219 
L 238.176 271.508669 
L 240.192 269.781593 
L 242.208 267.601601 
L 244.224 266.168114 
L 246.24 265.186251 
L 248.256 262.920092 
L 250.272 261.606581 
L 252.288 257.297648 
L 254.304 257.732416 
L 256.32 256.107483 
L 258.336 254.897545 
L 260.352 254.003875 
L 264.384 250.848471 
L 266.4 251.566524 
L 268.416 249.075753 
L 270.432 250.848471 
L 272.448 248.042936 
L 274.464 247.459792 
L 276.48 247.554123 
L 278.496 243.667463 
L 280.512 244.09187 
L 282.528 243.139494 
L 284.544 241.439048 
L 286.56 242.375163 
L 288.576 242.479723 
L 290.592 239.869105 
L 292.608 238.653802 
L 294.624 239.143918 
L 296.64 237.12699 
L 300.672 236.759511 
L 302.688 236.281006 
L 304.704 235.289156 
L 306.72 234.651803 
L 308.736 234.375965 
L 310.752 230.791721 
L 312.768 231.364585 
L 314.784 231.337867 
L 316.8 231.031122 
L 318.816 230.59266 
L 320.832 229.014394 
L 322.848 229.524581 
L 324.864 226.476644 
L 326.88 224.661866 
L 328.896 223.482538 
L 330.912 221.334047 
L 332.928 222.012624 
L 334.944 220.912282 
L 336.96 218.125937 
L 338.976 217.380468 
L 340.992 213.790849 
L 343.008 212.049098 
L 345.024 210.067542 
L 347.04 206.864362 
L 349.056 205.044223 
L 353.088 200.448764 
L 355.104 197.157981 
L 357.12 194.395364 
L 361.152 186.677289 
L 363.168 182.655472 
L 365.184 178.350922 
L 367.2 175.16875 
L 369.216 170.792871 
L 371.232 167.250854 
L 375.264 159.373775 
L 377.28 154.269376 
L 379.296 150.414159 
L 381.312 147.485962 
L 383.328 143.488999 
L 385.344 140.279636 
L 387.36 137.673605 
L 389.376 134.800565 
L 391.392 130.842322 
L 393.408 128.640605 
L 395.424 126.005091 
L 399.456 120.357527 
L 401.472 118.58426 
L 403.488 116.384086 
L 405.504 113.838581 
L 411.552 107.802435 
L 413.568 106.034135 
L 415.584 103.494625 
L 419.616 100.753125 
L 421.632 98.957284 
L 423.648 97.827695 
L 425.664 95.786769 
L 431.712 91.941348 
L 433.728 89.625522 
L 435.744 89.72802 
L 437.76 87.921094 
L 443.808 84.348421 
L 449.856 80.598428 
L 451.872 80.00393 
L 453.888 78.350041 
L 455.904 77.066807 
L 459.936 75.610764 
L 461.952 74.367749 
L 468 71.441227 
L 470.016 70.544446 
L 472.032 70.193781 
L 474.048 69.19084 
L 476.064 68.526077 
L 478.08 67.647455 
L 480.096 66.540346 
L 482.112 66.069627 
L 484.128 65.094827 
L 486.144 63.711973 
L 488.16 63.436226 
L 490.176 63.357581 
L 492.192 63.092615 
L 494.208 62.679408 
L 496.224 61.693709 
L 498.24 61.614019 
L 502.272 61.036376 
L 504.288 60.452534 
L 506.304 59.488609 
L 508.32 59.632838 
L 510.336 59.446089 
L 512.352 58.86446 
L 514.368 58.822207 
L 516.384 57.878568 
L 518.4 57.6 
L 518.4 57.6 
" style="fill:none;stroke:#1f77b4;stroke-linecap:square;stroke-width:0.85;"/>
   </g>
   <g id="patch_3">
    <path d="M 115.2 460.8 
L 115.2 57.6 
" style="fill:none;stroke:#000000;stroke-linecap:square;stroke-linejoin:miter;stroke-width:0.85;"/>
   </g>
   <g id="patch_4">
    <path d="M 518.4 460.8 
L 518.4 57.6 
" style="fill:none;stroke:#000000;stroke-linecap:square;stroke-linejoin:miter;stroke-width:0.85;"/>
   </g>
   <g id="patch_5">
    <path d="M 115.2 460.8 
L 518.4 460.8 
" style="fill:none;stroke:#000000;stroke-linecap:square;stroke-linejoin:miter;stroke-width:0.85;"/>
   </g>
   <g id="patch_6">
    <path d="M 115.2 57.6 
L 518.4 57.6 
" style="fill:none;stroke:#000000;stroke-linecap:square;stroke-linejoin:miter;stroke-width:0.85;"/>
   </g>
  </g>
 </g>
 <defs>
  <clipPath id="p1f7b6e0866">
   <rect height="403.2" width="403.2" x="115.2" y="57.6"/>
  </clipPath>
 </defs>
</svg>
