<?xml version="1.0" encoding="utf-8" standalone="no"?>
<!DOCTYPE svg PUBLIC "-//W3C//DTD SVG 1.1//EN"
  "http://www.w3.org/Graphics/SVG/1.1/DTD/svg11.dtd">
<!-- Created with matplotlib (https://matplotlib.org/) -->
<svg height="576pt" version="1.1" viewBox="0 0 576 576" width="576pt" xmlns="http://www.w3.org/2000/svg" xmlns:xlink="http://www.w3.org/1999/xlink">
 <defs>
  <style type="text/css">
*{stroke-linecap:butt;stroke-linejoin:round;}
  </style>
 </defs>
 <g id="figure_1">
  <g id="patch_1">
   <path d="M 0 576 
L 576 576 
L 576 0 
L 0 0 
z
" style="fill:none;"/>
  </g>
  <g id="axes_1">
   <g id="patch_2">
    <path d="M 115.2 460.8 
L 518.4 460.8 
L 518.4 57.6 
L 115.2 57.6 
z
" style="fill:none;"/>
   </g>
   <g id="matplotlib.axis_1">
    <g id="xtick_1">
     <g id="line2d_1">
      <defs>
       <path d="M 0 0 
L 0 3.5 
" id="mffdba12433" style="stroke:#000000;stroke-width:0.85;"/>
      </defs>
      <g>
       <use style="stroke:#000000;stroke-width:0.85;" x="115.2" xlink:href="#mffdba12433" y="460.8"/>
      </g>
     </g>
     <g id="text_1">
      <text style="font-family:Helvetica;font-size:7.5px;font-style:normal;font-weight:medium;text-anchor:middle;" transform="rotate(-0, 115.2, 473.180078)" x="115.2" y="473.180078">−100</text>
     </g>
    </g>
    <g id="xtick_2">
     <g id="line2d_2">
      <g>
       <use style="stroke:#000000;stroke-width:0.85;" x="165.6" xlink:href="#mffdba12433" y="460.8"/>
      </g>
     </g>
     <g id="text_2">
      <text style="font-family:Helvetica;font-size:7.5px;font-style:normal;font-weight:medium;text-anchor:middle;" transform="rotate(-0, 165.6, 473.180078)" x="165.6" y="473.180078">−75</text>
     </g>
    </g>
    <g id="xtick_3">
     <g id="line2d_3">
      <g>
       <use style="stroke:#000000;stroke-width:0.85;" x="216" xlink:href="#mffdba12433" y="460.8"/>
      </g>
     </g>
     <g id="text_3">
      <text style="font-family:Helvetica;font-size:7.5px;font-style:normal;font-weight:medium;text-anchor:middle;" transform="rotate(-0, 216, 473.180078)" x="216" y="473.180078">−50</text>
     </g>
    </g>
    <g id="xtick_4">
     <g id="line2d_4">
      <g>
       <use style="stroke:#000000;stroke-width:0.85;" x="266.4" xlink:href="#mffdba12433" y="460.8"/>
      </g>
     </g>
     <g id="text_4">
      <text style="font-family:Helvetica;font-size:7.5px;font-style:normal;font-weight:medium;text-anchor:middle;" transform="rotate(-0, 266.4, 473.180078)" x="266.4" y="473.180078">−25</text>
     </g>
    </g>
    <g id="xtick_5">
     <g id="line2d_5">
      <g>
       <use style="stroke:#000000;stroke-width:0.85;" x="316.8" xlink:href="#mffdba12433" y="460.8"/>
      </g>
     </g>
     <g id="text_5">
      <text style="font-family:Helvetica;font-size:7.5px;font-style:normal;font-weight:medium;text-anchor:middle;" transform="rotate(-0, 316.8, 473.180078)" x="316.8" y="473.180078">0</text>
     </g>
    </g>
    <g id="xtick_6">
     <g id="line2d_6">
      <g>
       <use style="stroke:#000000;stroke-width:0.85;" x="367.2" xlink:href="#mffdba12433" y="460.8"/>
      </g>
     </g>
     <g id="text_6">
      <text style="font-family:Helvetica;font-size:7.5px;font-style:normal;font-weight:medium;text-anchor:middle;" transform="rotate(-0, 367.2, 473.180078)" x="367.2" y="473.180078">25</text>
     </g>
    </g>
    <g id="xtick_7">
     <g id="line2d_7">
      <g>
       <use style="stroke:#000000;stroke-width:0.85;" x="417.6" xlink:href="#mffdba12433" y="460.8"/>
      </g>
     </g>
     <g id="text_7">
      <text style="font-family:Helvetica;font-size:7.5px;font-style:normal;font-weight:medium;text-anchor:middle;" transform="rotate(-0, 417.6, 473.180078)" x="417.6" y="473.180078">50</text>
     </g>
    </g>
    <g id="xtick_8">
     <g id="line2d_8">
      <g>
       <use style="stroke:#000000;stroke-width:0.85;" x="468" xlink:href="#mffdba12433" y="460.8"/>
      </g>
     </g>
     <g id="text_8">
      <text style="font-family:Helvetica;font-size:7.5px;font-style:normal;font-weight:medium;text-anchor:middle;" transform="rotate(-0, 468, 473.180078)" x="468" y="473.180078">75</text>
     </g>
    </g>
    <g id="xtick_9">
     <g id="line2d_9">
      <g>
       <use style="stroke:#000000;stroke-width:0.85;" x="518.4" xlink:href="#mffdba12433" y="460.8"/>
      </g>
     </g>
     <g id="text_9">
      <text style="font-family:Helvetica;font-size:7.5px;font-style:normal;font-weight:medium;text-anchor:middle;" transform="rotate(-0, 518.4, 473.180078)" x="518.4" y="473.180078">100</text>
     </g>
    </g>
   </g>
   <g id="matplotlib.axis_2">
    <g id="ytick_1">
     <g id="line2d_10">
      <defs>
       <path d="M 0 0 
L -3.5 0 
" id="m555c868ba7" style="stroke:#000000;stroke-width:0.85;"/>
      </defs>
      <g>
       <use style="stroke:#000000;stroke-width:0.85;" x="115.2" xlink:href="#m555c868ba7" y="347.935895"/>
      </g>
     </g>
     <g id="text_10">
      <!-- $\mathdefault{10^{-9}}$ -->
      <g transform="translate(93.575 350.625934)">
       <text>
        <tspan style="font-family:Helvetica;font-size:7.5px;font-style:regular;font-weight:regular;" x="0 4.171143" y="-0.5796875000000004">10</tspan>
        <tspan style="font-family:Helvetica;font-size:5.25px;font-style:regular;font-weight:regular;" x="8.410918 11.476836" y="-3.325">−9</tspan>
       </text>
      </g>
     </g>
    </g>
    <g id="ytick_2">
     <g id="line2d_11">
      <g>
       <use style="stroke:#000000;stroke-width:0.85;" x="115.2" xlink:href="#m555c868ba7" y="117.975249"/>
      </g>
     </g>
     <g id="text_11">
      <!-- $\mathdefault{10^{-8}}$ -->
      <g transform="translate(93.575 120.665288)">
       <text>
        <tspan style="font-family:Helvetica;font-size:7.5px;font-style:regular;font-weight:regular;" x="0 4.171143" y="-0.5687500000000005">10</tspan>
        <tspan style="font-family:Helvetica;font-size:5.25px;font-style:regular;font-weight:regular;" x="8.410918 11.476836" y="-3.3140625000000004">−8</tspan>
       </text>
      </g>
     </g>
    </g>
    <g id="ytick_3">
     <g id="line2d_12">
      <defs>
       <path d="M 0 0 
L -1.8 0 
" id="m62c2663035" style="stroke:#000000;stroke-width:0.85;"/>
      </defs>
      <g>
       <use style="stroke:#000000;stroke-width:0.85;" x="115.2" xlink:href="#m62c2663035" y="439.446436"/>
      </g>
     </g>
    </g>
    <g id="ytick_4">
     <g id="line2d_13">
      <g>
       <use style="stroke:#000000;stroke-width:0.85;" x="115.2" xlink:href="#m62c2663035" y="417.160947"/>
      </g>
     </g>
    </g>
    <g id="ytick_5">
     <g id="line2d_14">
      <g>
       <use style="stroke:#000000;stroke-width:0.85;" x="115.2" xlink:href="#m62c2663035" y="398.952377"/>
      </g>
     </g>
    </g>
    <g id="ytick_6">
     <g id="line2d_15">
      <g>
       <use style="stroke:#000000;stroke-width:0.85;" x="115.2" xlink:href="#m62c2663035" y="383.55725"/>
      </g>
     </g>
    </g>
    <g id="ytick_7">
     <g id="line2d_16">
      <g>
       <use style="stroke:#000000;stroke-width:0.85;" x="115.2" xlink:href="#m62c2663035" y="370.221384"/>
      </g>
     </g>
    </g>
    <g id="ytick_8">
     <g id="line2d_17">
      <g>
       <use style="stroke:#000000;stroke-width:0.85;" x="115.2" xlink:href="#m62c2663035" y="358.458317"/>
      </g>
     </g>
    </g>
    <g id="ytick_9">
     <g id="line2d_18">
      <g>
       <use style="stroke:#000000;stroke-width:0.85;" x="115.2" xlink:href="#m62c2663035" y="278.710843"/>
      </g>
     </g>
    </g>
    <g id="ytick_10">
     <g id="line2d_19">
      <g>
       <use style="stroke:#000000;stroke-width:0.85;" x="115.2" xlink:href="#m62c2663035" y="238.216783"/>
      </g>
     </g>
    </g>
    <g id="ytick_11">
     <g id="line2d_20">
      <g>
       <use style="stroke:#000000;stroke-width:0.85;" x="115.2" xlink:href="#m62c2663035" y="209.485791"/>
      </g>
     </g>
    </g>
    <g id="ytick_12">
     <g id="line2d_21">
      <g>
       <use style="stroke:#000000;stroke-width:0.85;" x="115.2" xlink:href="#m62c2663035" y="187.200302"/>
      </g>
     </g>
    </g>
    <g id="ytick_13">
     <g id="line2d_22">
      <g>
       <use style="stroke:#000000;stroke-width:0.85;" x="115.2" xlink:href="#m62c2663035" y="168.991731"/>
      </g>
     </g>
    </g>
    <g id="ytick_14">
     <g id="line2d_23">
      <g>
       <use style="stroke:#000000;stroke-width:0.85;" x="115.2" xlink:href="#m62c2663035" y="153.596604"/>
      </g>
     </g>
    </g>
    <g id="ytick_15">
     <g id="line2d_24">
      <g>
       <use style="stroke:#000000;stroke-width:0.85;" x="115.2" xlink:href="#m62c2663035" y="140.260739"/>
      </g>
     </g>
    </g>
    <g id="ytick_16">
     <g id="line2d_25">
      <g>
       <use style="stroke:#000000;stroke-width:0.85;" x="115.2" xlink:href="#m62c2663035" y="128.497671"/>
      </g>
     </g>
    </g>
   </g>
   <g id="line2d_26">
    <path clip-path="url(#pcd92fa3b12)" d="M 115.2 281.08582 
L 117.216 287.473384 
L 119.232 243.164419 
L 121.248 273.933298 
L 123.264 264.276225 
L 125.28 280.52489 
L 127.296 275.419995 
L 129.312 274.889921 
L 131.328 277.027312 
L 133.344 272.985752 
L 135.36 274.986089 
L 137.376 272.093834 
L 139.392 283.152539 
L 141.408 274.267075 
L 143.424 270.012639 
L 145.44 266.240098 
L 147.456 460.8 
L 149.472 255.82792 
L 151.488 300.996332 
L 153.504 262.988107 
L 155.52 256.585275 
L 157.536 256.865754 
L 159.552 253.861899 
L 161.568 253.512089 
L 163.584 249.5563 
L 165.6 247.708843 
L 167.616 248.185904 
L 169.632 242.989667 
L 171.648 245.178507 
L 173.664 246.544158 
L 175.68 245.823067 
L 177.696 244.53808 
L 179.712 243.094482 
L 181.728 241.258764 
L 183.744 238.550241 
L 185.76 234.524106 
L 187.776 232.209173 
L 189.792 232.838083 
L 191.808 231.677695 
L 193.824 229.762986 
L 195.84 228.607344 
L 199.872 220.035958 
L 201.888 219.510104 
L 203.904 214.713667 
L 205.92 211.886339 
L 207.936 211.963094 
L 209.952 206.315808 
L 211.968 204.185983 
L 213.984 203.47818 
L 216 201.384379 
L 218.016 198.883504 
L 220.032 196.926937 
L 222.048 192.955758 
L 224.064 189.810786 
L 226.08 185.890634 
L 228.096 182.938195 
L 230.112 182.708783 
L 232.128 184.015807 
L 234.144 187.400243 
L 236.16 189.258731 
L 238.176 176.382699 
L 240.192 173.799541 
L 242.208 172.171085 
L 244.224 169.375304 
L 246.24 167.242754 
L 248.256 164.57981 
L 250.272 159.412533 
L 252.288 161.676161 
L 254.304 161.428956 
L 256.32 163.093894 
L 258.336 158.524253 
L 260.352 157.30267 
L 262.368 158.269767 
L 264.384 156.609172 
L 266.4 156.110478 
L 268.416 154.600338 
L 270.432 152.306652 
L 272.448 151.144457 
L 274.464 152.560489 
L 276.48 151.214088 
L 278.496 150.672255 
L 280.512 148.019819 
L 282.528 150.506127 
L 284.544 149.132369 
L 286.56 144.376677 
L 288.576 144.702434 
L 290.592 146.772845 
L 292.608 138.344251 
L 294.624 140.773892 
L 296.64 141.302309 
L 298.656 139.663305 
L 300.672 140.510728 
L 302.688 137.284445 
L 304.704 137.624306 
L 306.72 138.246327 
L 308.736 137.721622 
L 310.752 136.439816 
L 312.768 133.37537 
L 314.784 134.594606 
L 316.8 131.986809 
L 318.816 129.680907 
L 320.832 131.448174 
L 322.848 132.355208 
L 324.864 130.232649 
L 326.88 126.683291 
L 328.896 128.032693 
L 330.912 124.751539 
L 332.928 124.144162 
L 334.944 125.362633 
L 336.96 124.559336 
L 338.976 121.989768 
L 340.992 121.83394 
L 343.008 120.421843 
L 345.024 116.932075 
L 347.04 119.029435 
L 349.056 116.026926 
L 351.072 112.684913 
L 353.088 111.348894 
L 355.104 114.452751 
L 357.12 110.437167 
L 359.136 110.761829 
L 361.152 106.781957 
L 363.168 105.257997 
L 365.184 108.284206 
L 367.2 104.173576 
L 369.216 101.504479 
L 371.232 99.758357 
L 377.28 96.218474 
L 379.296 95.227432 
L 381.312 93.845309 
L 383.328 92.714436 
L 385.344 93.845309 
L 387.36 90.687783 
L 389.376 94.585328 
L 391.392 90.24799 
L 393.408 92.924044 
L 395.424 89.269228 
L 397.44 87.922269 
L 399.456 87.959235 
L 401.472 92.234771 
L 403.488 85.577248 
L 405.504 88.35934 
L 407.52 84.58579 
L 409.536 88.314805 
L 411.552 85.642252 
L 413.568 85.469003 
L 415.584 86.666203 
L 417.6 84.943878 
L 419.616 80.715546 
L 423.648 78.794767 
L 425.664 79.369846 
L 427.68 77.215222 
L 429.696 76.718435 
L 431.712 76.890375 
L 433.728 75.210183 
L 435.744 74.522669 
L 437.76 78.102315 
L 439.776 79.648425 
L 441.792 76.949962 
L 443.808 76.533599 
L 445.824 74.148477 
L 447.84 72.32987 
L 449.856 71.291933 
L 451.872 73.685903 
L 453.888 70.512737 
L 455.904 69.708771 
L 457.92 68.70978 
L 459.936 72.014203 
L 461.952 69.229479 
L 463.968 68.453982 
L 465.984 67.377102 
L 468 70.190373 
L 470.016 70.004867 
L 472.032 67.094684 
L 474.048 66.050096 
L 476.064 65.369554 
L 478.08 64.121192 
L 480.096 67.485474 
L 482.112 67.563815 
L 484.128 64.301911 
L 486.144 67.136696 
L 488.16 63.164763 
L 490.176 64.705335 
L 492.192 62.16028 
L 494.208 65.54664 
L 496.224 64.898854 
L 498.24 61.556727 
L 500.256 64.975192 
L 502.272 63.413133 
L 504.288 60.141937 
L 506.304 59.222696 
L 508.32 58.515371 
L 510.336 62.108893 
L 512.352 58.482338 
L 514.368 57.6 
L 516.384 60.646931 
L 518.4 57.758356 
L 518.4 57.758356 
" style="fill:none;stroke:#1f77b4;stroke-linecap:square;stroke-width:0.85;"/>
   </g>
   <g id="patch_3">
    <path d="M 115.2 460.8 
L 115.2 57.6 
" style="fill:none;stroke:#000000;stroke-linecap:square;stroke-linejoin:miter;stroke-width:0.85;"/>
   </g>
   <g id="patch_4">
    <path d="M 518.4 460.8 
L 518.4 57.6 
" style="fill:none;stroke:#000000;stroke-linecap:square;stroke-linejoin:miter;stroke-width:0.85;"/>
   </g>
   <g id="patch_5">
    <path d="M 115.2 460.8 
L 518.4 460.8 
" style="fill:none;stroke:#000000;stroke-linecap:square;stroke-linejoin:miter;stroke-width:0.85;"/>
   </g>
   <g id="patch_6">
    <path d="M 115.2 57.6 
L 518.4 57.6 
" style="fill:none;stroke:#000000;stroke-linecap:square;stroke-linejoin:miter;stroke-width:0.85;"/>
   </g>
  </g>
 </g>
 <defs>
  <clipPath id="pcd92fa3b12">
   <rect height="403.2" width="403.2" x="115.2" y="57.6"/>
  </clipPath>
 </defs>
</svg>
