<?xml version="1.0" encoding="utf-8" standalone="no"?>
<!DOCTYPE svg PUBLIC "-//W3C//DTD SVG 1.1//EN"
  "http://www.w3.org/Graphics/SVG/1.1/DTD/svg11.dtd">
<!-- Created with matplotlib (https://matplotlib.org/) -->
<svg height="576pt" version="1.1" viewBox="0 0 576 576" width="576pt" xmlns="http://www.w3.org/2000/svg" xmlns:xlink="http://www.w3.org/1999/xlink">
 <defs>
  <style type="text/css">
*{stroke-linecap:butt;stroke-linejoin:round;}
  </style>
 </defs>
 <g id="figure_1">
  <g id="patch_1">
   <path d="M 0 576 
L 576 576 
L 576 0 
L 0 0 
z
" style="fill:none;"/>
  </g>
  <g id="axes_1">
   <g id="patch_2">
    <path d="M 115.2 460.8 
L 518.4 460.8 
L 518.4 57.6 
L 115.2 57.6 
z
" style="fill:none;"/>
   </g>
   <g id="matplotlib.axis_1">
    <g id="xtick_1">
     <g id="line2d_1">
      <defs>
       <path d="M 0 0 
L 0 3.5 
" id="mdcea06f2e3" style="stroke:#000000;stroke-width:0.85;"/>
      </defs>
      <g>
       <use style="stroke:#000000;stroke-width:0.85;" x="115.2" xlink:href="#mdcea06f2e3" y="460.8"/>
      </g>
     </g>
     <g id="text_1">
      <text style="font-family:Helvetica;font-size:7.5px;font-style:normal;font-weight:medium;text-anchor:middle;" transform="rotate(-0, 115.2, 473.180078)" x="115.2" y="473.180078">−100</text>
     </g>
    </g>
    <g id="xtick_2">
     <g id="line2d_2">
      <g>
       <use style="stroke:#000000;stroke-width:0.85;" x="165.6" xlink:href="#mdcea06f2e3" y="460.8"/>
      </g>
     </g>
     <g id="text_2">
      <text style="font-family:Helvetica;font-size:7.5px;font-style:normal;font-weight:medium;text-anchor:middle;" transform="rotate(-0, 165.6, 473.180078)" x="165.6" y="473.180078">−75</text>
     </g>
    </g>
    <g id="xtick_3">
     <g id="line2d_3">
      <g>
       <use style="stroke:#000000;stroke-width:0.85;" x="216" xlink:href="#mdcea06f2e3" y="460.8"/>
      </g>
     </g>
     <g id="text_3">
      <text style="font-family:Helvetica;font-size:7.5px;font-style:normal;font-weight:medium;text-anchor:middle;" transform="rotate(-0, 216, 473.180078)" x="216" y="473.180078">−50</text>
     </g>
    </g>
    <g id="xtick_4">
     <g id="line2d_4">
      <g>
       <use style="stroke:#000000;stroke-width:0.85;" x="266.4" xlink:href="#mdcea06f2e3" y="460.8"/>
      </g>
     </g>
     <g id="text_4">
      <text style="font-family:Helvetica;font-size:7.5px;font-style:normal;font-weight:medium;text-anchor:middle;" transform="rotate(-0, 266.4, 473.180078)" x="266.4" y="473.180078">−25</text>
     </g>
    </g>
    <g id="xtick_5">
     <g id="line2d_5">
      <g>
       <use style="stroke:#000000;stroke-width:0.85;" x="316.8" xlink:href="#mdcea06f2e3" y="460.8"/>
      </g>
     </g>
     <g id="text_5">
      <text style="font-family:Helvetica;font-size:7.5px;font-style:normal;font-weight:medium;text-anchor:middle;" transform="rotate(-0, 316.8, 473.180078)" x="316.8" y="473.180078">0</text>
     </g>
    </g>
    <g id="xtick_6">
     <g id="line2d_6">
      <g>
       <use style="stroke:#000000;stroke-width:0.85;" x="367.2" xlink:href="#mdcea06f2e3" y="460.8"/>
      </g>
     </g>
     <g id="text_6">
      <text style="font-family:Helvetica;font-size:7.5px;font-style:normal;font-weight:medium;text-anchor:middle;" transform="rotate(-0, 367.2, 473.180078)" x="367.2" y="473.180078">25</text>
     </g>
    </g>
    <g id="xtick_7">
     <g id="line2d_7">
      <g>
       <use style="stroke:#000000;stroke-width:0.85;" x="417.6" xlink:href="#mdcea06f2e3" y="460.8"/>
      </g>
     </g>
     <g id="text_7">
      <text style="font-family:Helvetica;font-size:7.5px;font-style:normal;font-weight:medium;text-anchor:middle;" transform="rotate(-0, 417.6, 473.180078)" x="417.6" y="473.180078">50</text>
     </g>
    </g>
    <g id="xtick_8">
     <g id="line2d_8">
      <g>
       <use style="stroke:#000000;stroke-width:0.85;" x="468" xlink:href="#mdcea06f2e3" y="460.8"/>
      </g>
     </g>
     <g id="text_8">
      <text style="font-family:Helvetica;font-size:7.5px;font-style:normal;font-weight:medium;text-anchor:middle;" transform="rotate(-0, 468, 473.180078)" x="468" y="473.180078">75</text>
     </g>
    </g>
    <g id="xtick_9">
     <g id="line2d_9">
      <g>
       <use style="stroke:#000000;stroke-width:0.85;" x="518.4" xlink:href="#mdcea06f2e3" y="460.8"/>
      </g>
     </g>
     <g id="text_9">
      <text style="font-family:Helvetica;font-size:7.5px;font-style:normal;font-weight:medium;text-anchor:middle;" transform="rotate(-0, 518.4, 473.180078)" x="518.4" y="473.180078">100</text>
     </g>
    </g>
   </g>
   <g id="matplotlib.axis_2">
    <g id="ytick_1">
     <g id="line2d_10">
      <defs>
       <path d="M 0 0 
L -3.5 0 
" id="m7ed4ce537b" style="stroke:#000000;stroke-width:0.85;"/>
      </defs>
      <g>
       <use style="stroke:#000000;stroke-width:0.85;" x="115.2" xlink:href="#m7ed4ce537b" y="402.310336"/>
      </g>
     </g>
     <g id="text_10">
      <!-- $\mathdefault{10^{-11}}$ -->
      <g transform="translate(90.65 405.000375)">
       <text>
        <tspan style="font-family:Helvetica;font-size:7.5px;font-style:regular;font-weight:regular;" x="0 4.171143" y="-0.6015625">10</tspan>
        <tspan style="font-family:Helvetica;font-size:5.25px;font-style:regular;font-weight:regular;" x="8.410918 11.476836 14.396636" y="-3.346875">−11</tspan>
       </text>
      </g>
     </g>
    </g>
    <g id="ytick_2">
     <g id="line2d_11">
      <g>
       <use style="stroke:#000000;stroke-width:0.85;" x="115.2" xlink:href="#m7ed4ce537b" y="290.44948"/>
      </g>
     </g>
     <g id="text_11">
      <!-- $\mathdefault{10^{-10}}$ -->
      <g transform="translate(90.65 293.139519)">
       <text>
        <tspan style="font-family:Helvetica;font-size:7.5px;font-style:regular;font-weight:regular;" x="0 4.171143" y="-0.5796875000000004">10</tspan>
        <tspan style="font-family:Helvetica;font-size:5.25px;font-style:regular;font-weight:regular;" x="8.410918 11.476836 14.396636" y="-3.325">−10</tspan>
       </text>
      </g>
     </g>
    </g>
    <g id="ytick_3">
     <g id="line2d_12">
      <g>
       <use style="stroke:#000000;stroke-width:0.85;" x="115.2" xlink:href="#m7ed4ce537b" y="178.588625"/>
      </g>
     </g>
     <g id="text_12">
      <!-- $\mathdefault{10^{-9}}$ -->
      <g transform="translate(93.575 181.278664)">
       <text>
        <tspan style="font-family:Helvetica;font-size:7.5px;font-style:regular;font-weight:regular;" x="0 4.171143" y="-0.5796875000000004">10</tspan>
        <tspan style="font-family:Helvetica;font-size:5.25px;font-style:regular;font-weight:regular;" x="8.410918 11.476836" y="-3.325">−9</tspan>
       </text>
      </g>
     </g>
    </g>
    <g id="ytick_4">
     <g id="line2d_13">
      <g>
       <use style="stroke:#000000;stroke-width:0.85;" x="115.2" xlink:href="#m7ed4ce537b" y="66.727769"/>
      </g>
     </g>
     <g id="text_13">
      <!-- $\mathdefault{10^{-8}}$ -->
      <g transform="translate(93.575 69.417808)">
       <text>
        <tspan style="font-family:Helvetica;font-size:7.5px;font-style:regular;font-weight:regular;" x="0 4.171143" y="-0.5687500000000005">10</tspan>
        <tspan style="font-family:Helvetica;font-size:5.25px;font-style:regular;font-weight:regular;" x="8.410918 11.476836" y="-3.3140625000000004">−8</tspan>
       </text>
      </g>
     </g>
    </g>
    <g id="ytick_5">
     <g id="line2d_14">
      <defs>
       <path d="M 0 0 
L -1.8 0 
" id="mc243a5af81" style="stroke:#000000;stroke-width:0.85;"/>
      </defs>
      <g>
       <use style="stroke:#000000;stroke-width:0.85;" x="115.2" xlink:href="#mc243a5af81" y="460.8"/>
      </g>
     </g>
    </g>
    <g id="ytick_6">
     <g id="line2d_15">
      <g>
       <use style="stroke:#000000;stroke-width:0.85;" x="115.2" xlink:href="#mc243a5af81" y="446.824246"/>
      </g>
     </g>
    </g>
    <g id="ytick_7">
     <g id="line2d_16">
      <g>
       <use style="stroke:#000000;stroke-width:0.85;" x="115.2" xlink:href="#mc243a5af81" y="435.983809"/>
      </g>
     </g>
    </g>
    <g id="ytick_8">
     <g id="line2d_17">
      <g>
       <use style="stroke:#000000;stroke-width:0.85;" x="115.2" xlink:href="#mc243a5af81" y="427.126527"/>
      </g>
     </g>
    </g>
    <g id="ytick_9">
     <g id="line2d_18">
      <g>
       <use style="stroke:#000000;stroke-width:0.85;" x="115.2" xlink:href="#mc243a5af81" y="419.637802"/>
      </g>
     </g>
    </g>
    <g id="ytick_10">
     <g id="line2d_19">
      <g>
       <use style="stroke:#000000;stroke-width:0.85;" x="115.2" xlink:href="#mc243a5af81" y="413.150773"/>
      </g>
     </g>
    </g>
    <g id="ytick_11">
     <g id="line2d_20">
      <g>
       <use style="stroke:#000000;stroke-width:0.85;" x="115.2" xlink:href="#mc243a5af81" y="407.428808"/>
      </g>
     </g>
    </g>
    <g id="ytick_12">
     <g id="line2d_21">
      <g>
       <use style="stroke:#000000;stroke-width:0.85;" x="115.2" xlink:href="#mc243a5af81" y="368.636863"/>
      </g>
     </g>
    </g>
    <g id="ytick_13">
     <g id="line2d_22">
      <g>
       <use style="stroke:#000000;stroke-width:0.85;" x="115.2" xlink:href="#mc243a5af81" y="348.939144"/>
      </g>
     </g>
    </g>
    <g id="ytick_14">
     <g id="line2d_23">
      <g>
       <use style="stroke:#000000;stroke-width:0.85;" x="115.2" xlink:href="#mc243a5af81" y="334.96339"/>
      </g>
     </g>
    </g>
    <g id="ytick_15">
     <g id="line2d_24">
      <g>
       <use style="stroke:#000000;stroke-width:0.85;" x="115.2" xlink:href="#mc243a5af81" y="324.122953"/>
      </g>
     </g>
    </g>
    <g id="ytick_16">
     <g id="line2d_25">
      <g>
       <use style="stroke:#000000;stroke-width:0.85;" x="115.2" xlink:href="#mc243a5af81" y="315.265671"/>
      </g>
     </g>
    </g>
    <g id="ytick_17">
     <g id="line2d_26">
      <g>
       <use style="stroke:#000000;stroke-width:0.85;" x="115.2" xlink:href="#mc243a5af81" y="307.776946"/>
      </g>
     </g>
    </g>
    <g id="ytick_18">
     <g id="line2d_27">
      <g>
       <use style="stroke:#000000;stroke-width:0.85;" x="115.2" xlink:href="#mc243a5af81" y="301.289917"/>
      </g>
     </g>
    </g>
    <g id="ytick_19">
     <g id="line2d_28">
      <g>
       <use style="stroke:#000000;stroke-width:0.85;" x="115.2" xlink:href="#mc243a5af81" y="295.567952"/>
      </g>
     </g>
    </g>
    <g id="ytick_20">
     <g id="line2d_29">
      <g>
       <use style="stroke:#000000;stroke-width:0.85;" x="115.2" xlink:href="#mc243a5af81" y="256.776007"/>
      </g>
     </g>
    </g>
    <g id="ytick_21">
     <g id="line2d_30">
      <g>
       <use style="stroke:#000000;stroke-width:0.85;" x="115.2" xlink:href="#mc243a5af81" y="237.078289"/>
      </g>
     </g>
    </g>
    <g id="ytick_22">
     <g id="line2d_31">
      <g>
       <use style="stroke:#000000;stroke-width:0.85;" x="115.2" xlink:href="#mc243a5af81" y="223.102535"/>
      </g>
     </g>
    </g>
    <g id="ytick_23">
     <g id="line2d_32">
      <g>
       <use style="stroke:#000000;stroke-width:0.85;" x="115.2" xlink:href="#mc243a5af81" y="212.262098"/>
      </g>
     </g>
    </g>
    <g id="ytick_24">
     <g id="line2d_33">
      <g>
       <use style="stroke:#000000;stroke-width:0.85;" x="115.2" xlink:href="#mc243a5af81" y="203.404816"/>
      </g>
     </g>
    </g>
    <g id="ytick_25">
     <g id="line2d_34">
      <g>
       <use style="stroke:#000000;stroke-width:0.85;" x="115.2" xlink:href="#mc243a5af81" y="195.91609"/>
      </g>
     </g>
    </g>
    <g id="ytick_26">
     <g id="line2d_35">
      <g>
       <use style="stroke:#000000;stroke-width:0.85;" x="115.2" xlink:href="#mc243a5af81" y="189.429062"/>
      </g>
     </g>
    </g>
    <g id="ytick_27">
     <g id="line2d_36">
      <g>
       <use style="stroke:#000000;stroke-width:0.85;" x="115.2" xlink:href="#mc243a5af81" y="183.707097"/>
      </g>
     </g>
    </g>
    <g id="ytick_28">
     <g id="line2d_37">
      <g>
       <use style="stroke:#000000;stroke-width:0.85;" x="115.2" xlink:href="#mc243a5af81" y="144.915152"/>
      </g>
     </g>
    </g>
    <g id="ytick_29">
     <g id="line2d_38">
      <g>
       <use style="stroke:#000000;stroke-width:0.85;" x="115.2" xlink:href="#mc243a5af81" y="125.217433"/>
      </g>
     </g>
    </g>
    <g id="ytick_30">
     <g id="line2d_39">
      <g>
       <use style="stroke:#000000;stroke-width:0.85;" x="115.2" xlink:href="#mc243a5af81" y="111.241679"/>
      </g>
     </g>
    </g>
    <g id="ytick_31">
     <g id="line2d_40">
      <g>
       <use style="stroke:#000000;stroke-width:0.85;" x="115.2" xlink:href="#mc243a5af81" y="100.401242"/>
      </g>
     </g>
    </g>
    <g id="ytick_32">
     <g id="line2d_41">
      <g>
       <use style="stroke:#000000;stroke-width:0.85;" x="115.2" xlink:href="#mc243a5af81" y="91.54396"/>
      </g>
     </g>
    </g>
    <g id="ytick_33">
     <g id="line2d_42">
      <g>
       <use style="stroke:#000000;stroke-width:0.85;" x="115.2" xlink:href="#mc243a5af81" y="84.055235"/>
      </g>
     </g>
    </g>
    <g id="ytick_34">
     <g id="line2d_43">
      <g>
       <use style="stroke:#000000;stroke-width:0.85;" x="115.2" xlink:href="#mc243a5af81" y="77.568206"/>
      </g>
     </g>
    </g>
    <g id="ytick_35">
     <g id="line2d_44">
      <g>
       <use style="stroke:#000000;stroke-width:0.85;" x="115.2" xlink:href="#mc243a5af81" y="71.846241"/>
      </g>
     </g>
    </g>
   </g>
   <g id="line2d_45">
    <path clip-path="url(#pf0f59b6e1c)" d="M 115.2 254.637643 
L 117.216 281.592198 
L 119.232 290.937731 
L 121.248 200.72709 
L 123.264 210.450248 
L 125.28 223.960221 
L 127.296 460.8 
L 129.312 435.983809 
L 131.328 435.983809 
L 133.344 235.485341 
L 135.36 368.636863 
L 137.376 254.637643 
L 139.392 271.403859 
L 141.408 303.146725 
L 143.424 283.239155 
L 145.44 321.292218 
L 147.456 299.501474 
L 149.472 350.5861 
L 151.488 397.680115 
L 153.504 359.779581 
L 155.52 273.414376 
L 157.536 397.680115 
L 159.552 259.524226 
L 161.568 287.162586 
L 163.584 299.501474 
L 165.6 294.500205 
L 167.616 419.637802 
L 169.632 352.290856 
L 171.648 248.941512 
L 173.664 309.904902 
L 175.68 292.432635 
L 177.696 291.929206 
L 179.712 323.160931 
L 181.728 307.776946 
L 183.744 281.189038 
L 185.76 276.961977 
L 187.776 260.041046 
L 189.792 337.455247 
L 191.808 322.217589 
L 193.824 359.779581 
L 197.856 305.738302 
L 199.872 336.193343 
L 201.888 355.891062 
L 203.904 348.939144 
L 205.92 262.165124 
L 207.936 316.912627 
L 209.952 267.313761 
L 211.968 361.847151 
L 213.984 260.301532 
L 216 276.961977 
L 218.016 274.451722 
L 220.032 285.379613 
L 222.048 257.510236 
L 224.064 287.162586 
L 226.08 313.672724 
L 228.096 314.462669 
L 230.112 247.716727 
L 232.128 260.301532 
L 234.144 252.589447 
L 236.16 277.703679 
L 238.176 231.572718 
L 240.192 220.271799 
L 242.208 207.808855 
L 244.224 220.732281 
L 246.24 207.19223 
L 248.256 181.801733 
L 250.272 187.875308 
L 252.288 183.437952 
L 254.304 162.625829 
L 256.32 148.154218 
L 258.336 152.753291 
L 260.352 182.957217 
L 262.368 153.327536 
L 264.384 93.375537 
L 266.4 74.92114 
L 268.416 142.475547 
L 270.432 161.280595 
L 272.448 141.741896 
L 274.464 177.578997 
L 276.48 184.249902 
L 278.496 175.941559 
L 282.528 172.393957 
L 284.544 166.824282 
L 286.56 174.670219 
L 288.576 166.368836 
L 290.592 172.479562 
L 292.608 167.438263 
L 294.624 169.047948 
L 296.64 165.396445 
L 298.656 167.787068 
L 300.672 163.579459 
L 302.688 169.368348 
L 304.704 161.793594 
L 306.72 165.359431 
L 308.736 156.24384 
L 310.752 162.871275 
L 312.768 158.247445 
L 314.784 159.477398 
L 316.8 159.053111 
L 318.816 157.32931 
L 320.832 155.816352 
L 322.848 151.374428 
L 324.864 149.550231 
L 326.88 150.331416 
L 328.896 147.792061 
L 330.912 147.355898 
L 332.928 147.509391 
L 334.944 140.484077 
L 336.96 142.291093 
L 338.976 138.934779 
L 340.992 140.461909 
L 343.008 140.706312 
L 345.024 134.367076 
L 347.04 134.838545 
L 349.056 134.661207 
L 353.088 133.629817 
L 355.104 132.619869 
L 357.12 133.803423 
L 359.136 129.444494 
L 361.152 129.586025 
L 363.168 126.083361 
L 365.184 128.017087 
L 367.2 124.846402 
L 369.216 126.001007 
L 371.232 123.530549 
L 373.248 124.65394 
L 375.264 119.697406 
L 377.28 122.83176 
L 379.296 119.929226 
L 381.312 114.937271 
L 383.328 111.7054 
L 385.344 112.533955 
L 387.36 115.663451 
L 389.376 116.862035 
L 391.392 113.618612 
L 393.408 113.554883 
L 395.424 110.339228 
L 397.44 111.047744 
L 399.456 106.347193 
L 401.472 107.244909 
L 403.488 104.695479 
L 405.504 100.96807 
L 407.52 100.781656 
L 409.536 97.910843 
L 411.552 99.097502 
L 415.584 97.938542 
L 417.6 97.09619 
L 419.616 99.239592 
L 421.632 96.054497 
L 423.648 99.363074 
L 425.664 93.283139 
L 427.68 92.682651 
L 429.696 87.565836 
L 431.712 94.04434 
L 433.728 88.843252 
L 435.744 92.873668 
L 437.76 89.413344 
L 439.776 89.351389 
L 441.792 85.442037 
L 443.808 87.283174 
L 445.824 90.725032 
L 447.84 88.068256 
L 449.856 87.565836 
L 451.872 79.906892 
L 453.888 85.585069 
L 455.904 82.605778 
L 457.92 82.679931 
L 459.936 82.283518 
L 461.952 82.673185 
L 463.968 81.857136 
L 465.984 83.530631 
L 468 80.079243 
L 470.016 82.62599 
L 472.032 78.760804 
L 474.048 82.3907 
L 476.064 81.757742 
L 478.08 72.24189 
L 480.096 68.347929 
L 482.112 72.72316 
L 484.128 63.554513 
L 486.144 60.992851 
L 488.16 60.725924 
L 490.176 58.580062 
L 492.192 57.6 
L 494.208 60.324006 
L 496.224 59.912717 
L 498.24 62.975466 
L 500.256 61.974045 
L 502.272 61.684169 
L 504.288 60.708753 
L 506.304 63.354686 
L 508.32 62.093132 
L 510.336 63.196318 
L 512.352 61.890419 
L 514.368 63.020457 
L 516.384 60.183691 
L 518.4 62.701924 
L 518.4 62.701924 
" style="fill:none;stroke:#1f77b4;stroke-linecap:square;stroke-width:0.85;"/>
   </g>
   <g id="patch_3">
    <path d="M 115.2 460.8 
L 115.2 57.6 
" style="fill:none;stroke:#000000;stroke-linecap:square;stroke-linejoin:miter;stroke-width:0.85;"/>
   </g>
   <g id="patch_4">
    <path d="M 518.4 460.8 
L 518.4 57.6 
" style="fill:none;stroke:#000000;stroke-linecap:square;stroke-linejoin:miter;stroke-width:0.85;"/>
   </g>
   <g id="patch_5">
    <path d="M 115.2 460.8 
L 518.4 460.8 
" style="fill:none;stroke:#000000;stroke-linecap:square;stroke-linejoin:miter;stroke-width:0.85;"/>
   </g>
   <g id="patch_6">
    <path d="M 115.2 57.6 
L 518.4 57.6 
" style="fill:none;stroke:#000000;stroke-linecap:square;stroke-linejoin:miter;stroke-width:0.85;"/>
   </g>
  </g>
 </g>
 <defs>
  <clipPath id="pf0f59b6e1c">
   <rect height="403.2" width="403.2" x="115.2" y="57.6"/>
  </clipPath>
 </defs>
</svg>
