<?xml version="1.0" encoding="utf-8" standalone="no"?>
<!DOCTYPE svg PUBLIC "-//W3C//DTD SVG 1.1//EN"
  "http://www.w3.org/Graphics/SVG/1.1/DTD/svg11.dtd">
<!-- Created with matplotlib (https://matplotlib.org/) -->
<svg height="576pt" version="1.1" viewBox="0 0 576 576" width="576pt" xmlns="http://www.w3.org/2000/svg" xmlns:xlink="http://www.w3.org/1999/xlink">
 <defs>
  <style type="text/css">
*{stroke-linecap:butt;stroke-linejoin:round;}
  </style>
 </defs>
 <g id="figure_1">
  <g id="patch_1">
   <path d="M 0 576 
L 576 576 
L 576 0 
L 0 0 
z
" style="fill:none;"/>
  </g>
  <g id="axes_1">
   <g id="patch_2">
    <path d="M 115.2 460.8 
L 518.4 460.8 
L 518.4 57.6 
L 115.2 57.6 
z
" style="fill:none;"/>
   </g>
   <g id="matplotlib.axis_1">
    <g id="xtick_1">
     <g id="line2d_1">
      <defs>
       <path d="M 0 0 
L 0 3.5 
" id="m6e5678c5b6" style="stroke:#000000;stroke-width:0.85;"/>
      </defs>
      <g>
       <use style="stroke:#000000;stroke-width:0.85;" x="115.2" xlink:href="#m6e5678c5b6" y="460.8"/>
      </g>
     </g>
     <g id="text_1">
      <text style="font-family:Helvetica;font-size:7.5px;font-style:normal;font-weight:medium;text-anchor:middle;" transform="rotate(-0, 115.2, 473.180078)" x="115.2" y="473.180078">−100</text>
     </g>
    </g>
    <g id="xtick_2">
     <g id="line2d_2">
      <g>
       <use style="stroke:#000000;stroke-width:0.85;" x="165.6" xlink:href="#m6e5678c5b6" y="460.8"/>
      </g>
     </g>
     <g id="text_2">
      <text style="font-family:Helvetica;font-size:7.5px;font-style:normal;font-weight:medium;text-anchor:middle;" transform="rotate(-0, 165.6, 473.180078)" x="165.6" y="473.180078">−75</text>
     </g>
    </g>
    <g id="xtick_3">
     <g id="line2d_3">
      <g>
       <use style="stroke:#000000;stroke-width:0.85;" x="216" xlink:href="#m6e5678c5b6" y="460.8"/>
      </g>
     </g>
     <g id="text_3">
      <text style="font-family:Helvetica;font-size:7.5px;font-style:normal;font-weight:medium;text-anchor:middle;" transform="rotate(-0, 216, 473.180078)" x="216" y="473.180078">−50</text>
     </g>
    </g>
    <g id="xtick_4">
     <g id="line2d_4">
      <g>
       <use style="stroke:#000000;stroke-width:0.85;" x="266.4" xlink:href="#m6e5678c5b6" y="460.8"/>
      </g>
     </g>
     <g id="text_4">
      <text style="font-family:Helvetica;font-size:7.5px;font-style:normal;font-weight:medium;text-anchor:middle;" transform="rotate(-0, 266.4, 473.180078)" x="266.4" y="473.180078">−25</text>
     </g>
    </g>
    <g id="xtick_5">
     <g id="line2d_5">
      <g>
       <use style="stroke:#000000;stroke-width:0.85;" x="316.8" xlink:href="#m6e5678c5b6" y="460.8"/>
      </g>
     </g>
     <g id="text_5">
      <text style="font-family:Helvetica;font-size:7.5px;font-style:normal;font-weight:medium;text-anchor:middle;" transform="rotate(-0, 316.8, 473.180078)" x="316.8" y="473.180078">0</text>
     </g>
    </g>
    <g id="xtick_6">
     <g id="line2d_6">
      <g>
       <use style="stroke:#000000;stroke-width:0.85;" x="367.2" xlink:href="#m6e5678c5b6" y="460.8"/>
      </g>
     </g>
     <g id="text_6">
      <text style="font-family:Helvetica;font-size:7.5px;font-style:normal;font-weight:medium;text-anchor:middle;" transform="rotate(-0, 367.2, 473.180078)" x="367.2" y="473.180078">25</text>
     </g>
    </g>
    <g id="xtick_7">
     <g id="line2d_7">
      <g>
       <use style="stroke:#000000;stroke-width:0.85;" x="417.6" xlink:href="#m6e5678c5b6" y="460.8"/>
      </g>
     </g>
     <g id="text_7">
      <text style="font-family:Helvetica;font-size:7.5px;font-style:normal;font-weight:medium;text-anchor:middle;" transform="rotate(-0, 417.6, 473.180078)" x="417.6" y="473.180078">50</text>
     </g>
    </g>
    <g id="xtick_8">
     <g id="line2d_8">
      <g>
       <use style="stroke:#000000;stroke-width:0.85;" x="468" xlink:href="#m6e5678c5b6" y="460.8"/>
      </g>
     </g>
     <g id="text_8">
      <text style="font-family:Helvetica;font-size:7.5px;font-style:normal;font-weight:medium;text-anchor:middle;" transform="rotate(-0, 468, 473.180078)" x="468" y="473.180078">75</text>
     </g>
    </g>
    <g id="xtick_9">
     <g id="line2d_9">
      <g>
       <use style="stroke:#000000;stroke-width:0.85;" x="518.4" xlink:href="#m6e5678c5b6" y="460.8"/>
      </g>
     </g>
     <g id="text_9">
      <text style="font-family:Helvetica;font-size:7.5px;font-style:normal;font-weight:medium;text-anchor:middle;" transform="rotate(-0, 518.4, 473.180078)" x="518.4" y="473.180078">100</text>
     </g>
    </g>
   </g>
   <g id="matplotlib.axis_2">
    <g id="ytick_1">
     <g id="line2d_10">
      <defs>
       <path d="M 0 0 
L -3.5 0 
" id="me4f28758bd" style="stroke:#000000;stroke-width:0.85;"/>
      </defs>
      <g>
       <use style="stroke:#000000;stroke-width:0.85;" x="115.2" xlink:href="#me4f28758bd" y="403.658184"/>
      </g>
     </g>
     <g id="text_10">
      <!-- $\mathdefault{10^{-10}}$ -->
      <g transform="translate(90.65 406.348223)">
       <text>
        <tspan style="font-family:Helvetica;font-size:7.5px;font-style:regular;font-weight:regular;" x="0 4.171143" y="-0.5796875000000004">10</tspan>
        <tspan style="font-family:Helvetica;font-size:5.25px;font-style:regular;font-weight:regular;" x="8.410918 11.476836 14.396636" y="-3.325">−10</tspan>
       </text>
      </g>
     </g>
    </g>
    <g id="ytick_2">
     <g id="line2d_11">
      <g>
       <use style="stroke:#000000;stroke-width:0.85;" x="115.2" xlink:href="#me4f28758bd" y="243.393859"/>
      </g>
     </g>
     <g id="text_11">
      <!-- $\mathdefault{10^{-9}}$ -->
      <g transform="translate(93.575 246.083898)">
       <text>
        <tspan style="font-family:Helvetica;font-size:7.5px;font-style:regular;font-weight:regular;" x="0 4.171143" y="-0.5796875000000004">10</tspan>
        <tspan style="font-family:Helvetica;font-size:5.25px;font-style:regular;font-weight:regular;" x="8.410918 11.476836" y="-3.325">−9</tspan>
       </text>
      </g>
     </g>
    </g>
    <g id="ytick_3">
     <g id="line2d_12">
      <g>
       <use style="stroke:#000000;stroke-width:0.85;" x="115.2" xlink:href="#me4f28758bd" y="83.129534"/>
      </g>
     </g>
     <g id="text_12">
      <!-- $\mathdefault{10^{-8}}$ -->
      <g transform="translate(93.575 85.819573)">
       <text>
        <tspan style="font-family:Helvetica;font-size:7.5px;font-style:regular;font-weight:regular;" x="0 4.171143" y="-0.5687500000000005">10</tspan>
        <tspan style="font-family:Helvetica;font-size:5.25px;font-style:regular;font-weight:regular;" x="8.410918 11.476836" y="-3.3140625000000004">−8</tspan>
       </text>
      </g>
     </g>
    </g>
    <g id="ytick_4">
     <g id="line2d_13">
      <defs>
       <path d="M 0 0 
L -1.8 0 
" id="m1e81fa2402" style="stroke:#000000;stroke-width:0.85;"/>
      </defs>
      <g>
       <use style="stroke:#000000;stroke-width:0.85;" x="115.2" xlink:href="#m1e81fa2402" y="451.902553"/>
      </g>
     </g>
    </g>
    <g id="ytick_5">
     <g id="line2d_14">
      <g>
       <use style="stroke:#000000;stroke-width:0.85;" x="115.2" xlink:href="#m1e81fa2402" y="439.212624"/>
      </g>
     </g>
    </g>
    <g id="ytick_6">
     <g id="line2d_15">
      <g>
       <use style="stroke:#000000;stroke-width:0.85;" x="115.2" xlink:href="#m1e81fa2402" y="428.483442"/>
      </g>
     </g>
    </g>
    <g id="ytick_7">
     <g id="line2d_16">
      <g>
       <use style="stroke:#000000;stroke-width:0.85;" x="115.2" xlink:href="#m1e81fa2402" y="419.189402"/>
      </g>
     </g>
    </g>
    <g id="ytick_8">
     <g id="line2d_17">
      <g>
       <use style="stroke:#000000;stroke-width:0.85;" x="115.2" xlink:href="#m1e81fa2402" y="410.991477"/>
      </g>
     </g>
    </g>
    <g id="ytick_9">
     <g id="line2d_18">
      <g>
       <use style="stroke:#000000;stroke-width:0.85;" x="115.2" xlink:href="#m1e81fa2402" y="355.413815"/>
      </g>
     </g>
    </g>
    <g id="ytick_10">
     <g id="line2d_19">
      <g>
       <use style="stroke:#000000;stroke-width:0.85;" x="115.2" xlink:href="#m1e81fa2402" y="327.192668"/>
      </g>
     </g>
    </g>
    <g id="ytick_11">
     <g id="line2d_20">
      <g>
       <use style="stroke:#000000;stroke-width:0.85;" x="115.2" xlink:href="#m1e81fa2402" y="307.169446"/>
      </g>
     </g>
    </g>
    <g id="ytick_12">
     <g id="line2d_21">
      <g>
       <use style="stroke:#000000;stroke-width:0.85;" x="115.2" xlink:href="#m1e81fa2402" y="291.638228"/>
      </g>
     </g>
    </g>
    <g id="ytick_13">
     <g id="line2d_22">
      <g>
       <use style="stroke:#000000;stroke-width:0.85;" x="115.2" xlink:href="#m1e81fa2402" y="278.948299"/>
      </g>
     </g>
    </g>
    <g id="ytick_14">
     <g id="line2d_23">
      <g>
       <use style="stroke:#000000;stroke-width:0.85;" x="115.2" xlink:href="#m1e81fa2402" y="268.219117"/>
      </g>
     </g>
    </g>
    <g id="ytick_15">
     <g id="line2d_24">
      <g>
       <use style="stroke:#000000;stroke-width:0.85;" x="115.2" xlink:href="#m1e81fa2402" y="258.925077"/>
      </g>
     </g>
    </g>
    <g id="ytick_16">
     <g id="line2d_25">
      <g>
       <use style="stroke:#000000;stroke-width:0.85;" x="115.2" xlink:href="#m1e81fa2402" y="250.727152"/>
      </g>
     </g>
    </g>
    <g id="ytick_17">
     <g id="line2d_26">
      <g>
       <use style="stroke:#000000;stroke-width:0.85;" x="115.2" xlink:href="#m1e81fa2402" y="195.14949"/>
      </g>
     </g>
    </g>
    <g id="ytick_18">
     <g id="line2d_27">
      <g>
       <use style="stroke:#000000;stroke-width:0.85;" x="115.2" xlink:href="#m1e81fa2402" y="166.928343"/>
      </g>
     </g>
    </g>
    <g id="ytick_19">
     <g id="line2d_28">
      <g>
       <use style="stroke:#000000;stroke-width:0.85;" x="115.2" xlink:href="#m1e81fa2402" y="146.905121"/>
      </g>
     </g>
    </g>
    <g id="ytick_20">
     <g id="line2d_29">
      <g>
       <use style="stroke:#000000;stroke-width:0.85;" x="115.2" xlink:href="#m1e81fa2402" y="131.373903"/>
      </g>
     </g>
    </g>
    <g id="ytick_21">
     <g id="line2d_30">
      <g>
       <use style="stroke:#000000;stroke-width:0.85;" x="115.2" xlink:href="#m1e81fa2402" y="118.683974"/>
      </g>
     </g>
    </g>
    <g id="ytick_22">
     <g id="line2d_31">
      <g>
       <use style="stroke:#000000;stroke-width:0.85;" x="115.2" xlink:href="#m1e81fa2402" y="107.954792"/>
      </g>
     </g>
    </g>
    <g id="ytick_23">
     <g id="line2d_32">
      <g>
       <use style="stroke:#000000;stroke-width:0.85;" x="115.2" xlink:href="#m1e81fa2402" y="98.660752"/>
      </g>
     </g>
    </g>
    <g id="ytick_24">
     <g id="line2d_33">
      <g>
       <use style="stroke:#000000;stroke-width:0.85;" x="115.2" xlink:href="#m1e81fa2402" y="90.462828"/>
      </g>
     </g>
    </g>
   </g>
   <g id="line2d_34">
    <path clip-path="url(#pbacb46c4f5)" d="M 115.2 354.721253 
L 117.216 331.499315 
L 119.232 430.50103 
L 121.248 421.849671 
L 123.264 406.499473 
L 125.28 460.8 
L 127.296 426.522695 
L 131.328 430.50103 
L 133.344 410.991477 
L 135.36 414.969812 
L 137.376 381.240557 
L 139.392 365.911376 
L 141.408 310.556635 
L 143.424 302.623086 
L 145.44 291.360376 
L 147.456 261.404797 
L 149.472 269.930313 
L 153.504 311.476092 
L 155.52 307.868969 
L 157.536 307.169446 
L 159.552 298.817022 
L 161.568 294.190112 
L 163.584 303.278168 
L 165.6 293.186565 
L 167.616 296.989296 
L 169.632 308.044953 
L 171.648 303.939474 
L 173.664 295.796943 
L 175.68 284.751819 
L 177.696 289.851704 
L 179.712 275.995736 
L 181.728 297.745024 
L 183.744 305.450793 
L 185.76 284.878023 
L 187.776 305.112097 
L 189.792 292.337751 
L 191.808 284.751819 
L 193.824 279.297182 
L 195.84 286.152819 
L 197.856 278.832393 
L 199.872 291.083628 
L 201.888 282.885704 
L 203.904 278.370687 
L 205.92 283.008567 
L 207.936 271.893972 
L 209.952 288.641205 
L 211.968 277.003666 
L 213.984 270.853565 
L 216 278.370687 
L 218.016 276.218463 
L 220.032 265.393739 
L 222.048 263.417081 
L 224.064 267.231839 
L 226.08 257.97457 
L 228.096 259.536774 
L 230.112 259.449059 
L 232.128 255.198537 
L 234.144 269.726799 
L 236.16 251.504836 
L 238.176 255.529188 
L 240.192 250.26468 
L 242.208 250.804531 
L 244.224 256.446662 
L 246.24 257.461532 
L 248.256 256.530672 
L 250.272 246.452995 
L 252.288 240.932238 
L 254.304 242.152167 
L 256.32 237.140774 
L 258.336 239.46968 
L 260.352 246.452995 
L 262.368 246.96397 
L 264.384 239.076077 
L 266.4 236.444433 
L 268.416 231.638198 
L 270.432 237.331901 
L 272.448 228.029887 
L 274.464 224.175697 
L 276.48 224.97237 
L 278.496 230.241457 
L 280.512 223.023494 
L 282.528 222.71254 
L 284.544 216.10698 
L 286.56 215.079972 
L 288.576 215.919121 
L 290.592 211.512177 
L 292.608 212.576854 
L 294.624 217.292731 
L 296.64 210.07434 
L 298.656 209.859054 
L 300.672 203.691925 
L 302.688 201.866833 
L 304.704 202.020311 
L 306.72 197.521104 
L 308.736 204.483314 
L 310.752 194.940997 
L 312.768 194.906309 
L 314.784 191.357008 
L 316.8 193.295161 
L 318.816 195.743635 
L 320.832 193.737079 
L 322.848 188.674086 
L 324.864 187.79184 
L 326.88 181.423285 
L 328.896 185.694681 
L 330.912 177.398933 
L 334.944 180.402212 
L 336.96 179.008455 
L 338.976 175.562645 
L 340.992 172.65625 
L 343.008 168.595394 
L 345.024 170.035982 
L 347.04 170.060246 
L 349.056 166.00645 
L 351.072 163.532455 
L 353.088 159.685591 
L 355.104 161.765315 
L 357.12 156.398309 
L 359.136 153.833583 
L 361.152 156.498096 
L 363.168 150.695376 
L 365.184 150.310581 
L 367.2 149.132855 
L 371.232 143.625332 
L 373.248 142.603695 
L 375.264 139.877004 
L 377.28 141.596837 
L 379.296 136.634832 
L 381.312 138.02995 
L 383.328 136.380072 
L 387.36 129.141081 
L 389.376 128.523706 
L 391.392 128.403553 
L 393.408 127.056121 
L 395.424 124.14788 
L 397.44 122.535504 
L 399.456 119.207956 
L 401.472 118.602819 
L 403.488 115.25495 
L 405.504 115.321237 
L 407.52 112.441494 
L 409.536 111.326325 
L 411.552 107.746299 
L 413.568 106.771728 
L 415.584 105.24408 
L 417.6 102.588951 
L 419.616 101.538301 
L 421.632 100.942406 
L 423.648 97.839098 
L 427.68 95.298015 
L 429.696 92.774456 
L 431.712 91.703453 
L 433.728 89.145209 
L 435.744 88.255474 
L 437.76 87.074305 
L 439.776 86.305134 
L 441.792 84.132027 
L 443.808 83.73772 
L 445.824 81.614893 
L 447.84 80.836075 
L 449.856 80.849545 
L 451.872 79.462396 
L 453.888 78.251442 
L 455.904 77.464242 
L 457.92 75.136075 
L 459.936 75.746841 
L 461.952 73.377631 
L 465.984 72.715266 
L 468 70.957743 
L 470.016 70.846805 
L 472.032 70.242679 
L 474.048 69.787254 
L 476.064 68.760574 
L 480.096 68.602221 
L 482.112 66.757062 
L 484.128 66.647123 
L 486.144 66.28009 
L 488.16 65.195842 
L 490.176 64.895255 
L 492.192 63.605753 
L 494.208 63.921935 
L 496.224 63.264837 
L 498.24 63.291002 
L 500.256 62.831926 
L 502.272 62.07175 
L 504.288 60.999988 
L 506.304 60.626218 
L 508.32 61.040517 
L 510.336 59.705452 
L 512.352 59.358334 
L 514.368 59.328662 
L 516.384 58.649661 
L 518.4 57.6 
L 518.4 57.6 
" style="fill:none;stroke:#1f77b4;stroke-linecap:square;stroke-width:0.85;"/>
   </g>
   <g id="patch_3">
    <path d="M 115.2 460.8 
L 115.2 57.6 
" style="fill:none;stroke:#000000;stroke-linecap:square;stroke-linejoin:miter;stroke-width:0.85;"/>
   </g>
   <g id="patch_4">
    <path d="M 518.4 460.8 
L 518.4 57.6 
" style="fill:none;stroke:#000000;stroke-linecap:square;stroke-linejoin:miter;stroke-width:0.85;"/>
   </g>
   <g id="patch_5">
    <path d="M 115.2 460.8 
L 518.4 460.8 
" style="fill:none;stroke:#000000;stroke-linecap:square;stroke-linejoin:miter;stroke-width:0.85;"/>
   </g>
   <g id="patch_6">
    <path d="M 115.2 57.6 
L 518.4 57.6 
" style="fill:none;stroke:#000000;stroke-linecap:square;stroke-linejoin:miter;stroke-width:0.85;"/>
   </g>
  </g>
 </g>
 <defs>
  <clipPath id="pbacb46c4f5">
   <rect height="403.2" width="403.2" x="115.2" y="57.6"/>
  </clipPath>
 </defs>
</svg>
