<?xml version="1.0" encoding="utf-8" standalone="no"?>
<!DOCTYPE svg PUBLIC "-//W3C//DTD SVG 1.1//EN"
  "http://www.w3.org/Graphics/SVG/1.1/DTD/svg11.dtd">
<!-- Created with matplotlib (https://matplotlib.org/) -->
<svg height="576pt" version="1.1" viewBox="0 0 576 576" width="576pt" xmlns="http://www.w3.org/2000/svg" xmlns:xlink="http://www.w3.org/1999/xlink">
 <defs>
  <style type="text/css">
*{stroke-linecap:butt;stroke-linejoin:round;}
  </style>
 </defs>
 <g id="figure_1">
  <g id="patch_1">
   <path d="M 0 576 
L 576 576 
L 576 0 
L 0 0 
z
" style="fill:none;"/>
  </g>
  <g id="axes_1">
   <g id="patch_2">
    <path d="M 115.2 460.8 
L 518.4 460.8 
L 518.4 57.6 
L 115.2 57.6 
z
" style="fill:none;"/>
   </g>
   <g id="matplotlib.axis_1">
    <g id="xtick_1">
     <g id="line2d_1">
      <defs>
       <path d="M 0 0 
L 0 3.5 
" id="m34e27384ff" style="stroke:#000000;stroke-width:0.85;"/>
      </defs>
      <g>
       <use style="stroke:#000000;stroke-width:0.85;" x="115.2" xlink:href="#m34e27384ff" y="460.8"/>
      </g>
     </g>
     <g id="text_1">
      <text style="font-family:Helvetica;font-size:7.5px;font-style:normal;font-weight:medium;text-anchor:middle;" transform="rotate(-0, 115.2, 473.180078)" x="115.2" y="473.180078">−100</text>
     </g>
    </g>
    <g id="xtick_2">
     <g id="line2d_2">
      <g>
       <use style="stroke:#000000;stroke-width:0.85;" x="165.6" xlink:href="#m34e27384ff" y="460.8"/>
      </g>
     </g>
     <g id="text_2">
      <text style="font-family:Helvetica;font-size:7.5px;font-style:normal;font-weight:medium;text-anchor:middle;" transform="rotate(-0, 165.6, 473.180078)" x="165.6" y="473.180078">−75</text>
     </g>
    </g>
    <g id="xtick_3">
     <g id="line2d_3">
      <g>
       <use style="stroke:#000000;stroke-width:0.85;" x="216" xlink:href="#m34e27384ff" y="460.8"/>
      </g>
     </g>
     <g id="text_3">
      <text style="font-family:Helvetica;font-size:7.5px;font-style:normal;font-weight:medium;text-anchor:middle;" transform="rotate(-0, 216, 473.180078)" x="216" y="473.180078">−50</text>
     </g>
    </g>
    <g id="xtick_4">
     <g id="line2d_4">
      <g>
       <use style="stroke:#000000;stroke-width:0.85;" x="266.4" xlink:href="#m34e27384ff" y="460.8"/>
      </g>
     </g>
     <g id="text_4">
      <text style="font-family:Helvetica;font-size:7.5px;font-style:normal;font-weight:medium;text-anchor:middle;" transform="rotate(-0, 266.4, 473.180078)" x="266.4" y="473.180078">−25</text>
     </g>
    </g>
    <g id="xtick_5">
     <g id="line2d_5">
      <g>
       <use style="stroke:#000000;stroke-width:0.85;" x="316.8" xlink:href="#m34e27384ff" y="460.8"/>
      </g>
     </g>
     <g id="text_5">
      <text style="font-family:Helvetica;font-size:7.5px;font-style:normal;font-weight:medium;text-anchor:middle;" transform="rotate(-0, 316.8, 473.180078)" x="316.8" y="473.180078">0</text>
     </g>
    </g>
    <g id="xtick_6">
     <g id="line2d_6">
      <g>
       <use style="stroke:#000000;stroke-width:0.85;" x="367.2" xlink:href="#m34e27384ff" y="460.8"/>
      </g>
     </g>
     <g id="text_6">
      <text style="font-family:Helvetica;font-size:7.5px;font-style:normal;font-weight:medium;text-anchor:middle;" transform="rotate(-0, 367.2, 473.180078)" x="367.2" y="473.180078">25</text>
     </g>
    </g>
    <g id="xtick_7">
     <g id="line2d_7">
      <g>
       <use style="stroke:#000000;stroke-width:0.85;" x="417.6" xlink:href="#m34e27384ff" y="460.8"/>
      </g>
     </g>
     <g id="text_7">
      <text style="font-family:Helvetica;font-size:7.5px;font-style:normal;font-weight:medium;text-anchor:middle;" transform="rotate(-0, 417.6, 473.180078)" x="417.6" y="473.180078">50</text>
     </g>
    </g>
    <g id="xtick_8">
     <g id="line2d_8">
      <g>
       <use style="stroke:#000000;stroke-width:0.85;" x="468" xlink:href="#m34e27384ff" y="460.8"/>
      </g>
     </g>
     <g id="text_8">
      <text style="font-family:Helvetica;font-size:7.5px;font-style:normal;font-weight:medium;text-anchor:middle;" transform="rotate(-0, 468, 473.180078)" x="468" y="473.180078">75</text>
     </g>
    </g>
    <g id="xtick_9">
     <g id="line2d_9">
      <g>
       <use style="stroke:#000000;stroke-width:0.85;" x="518.4" xlink:href="#m34e27384ff" y="460.8"/>
      </g>
     </g>
     <g id="text_9">
      <text style="font-family:Helvetica;font-size:7.5px;font-style:normal;font-weight:medium;text-anchor:middle;" transform="rotate(-0, 518.4, 473.180078)" x="518.4" y="473.180078">100</text>
     </g>
    </g>
   </g>
   <g id="matplotlib.axis_2">
    <g id="ytick_1">
     <g id="line2d_10">
      <defs>
       <path d="M 0 0 
L -3.5 0 
" id="mf7ba0c1027" style="stroke:#000000;stroke-width:0.85;"/>
      </defs>
      <g>
       <use style="stroke:#000000;stroke-width:0.85;" x="115.2" xlink:href="#mf7ba0c1027" y="439.332963"/>
      </g>
     </g>
     <g id="text_10">
      <!-- $\mathdefault{10^{-10}}$ -->
      <g transform="translate(90.65 442.023002)">
       <text>
        <tspan style="font-family:Helvetica;font-size:7.5px;font-style:regular;font-weight:regular;" x="0 4.171143" y="-0.5796875000000004">10</tspan>
        <tspan style="font-family:Helvetica;font-size:5.25px;font-style:regular;font-weight:regular;" x="8.410918 11.476836 14.396636" y="-3.325">−10</tspan>
       </text>
      </g>
     </g>
    </g>
    <g id="ytick_2">
     <g id="line2d_11">
      <g>
       <use style="stroke:#000000;stroke-width:0.85;" x="115.2" xlink:href="#mf7ba0c1027" y="365.923771"/>
      </g>
     </g>
     <g id="text_11">
      <!-- $\mathdefault{10^{-9}}$ -->
      <g transform="translate(93.575 368.61381)">
       <text>
        <tspan style="font-family:Helvetica;font-size:7.5px;font-style:regular;font-weight:regular;" x="0 4.171143" y="-0.5796875000000004">10</tspan>
        <tspan style="font-family:Helvetica;font-size:5.25px;font-style:regular;font-weight:regular;" x="8.410918 11.476836" y="-3.325">−9</tspan>
       </text>
      </g>
     </g>
    </g>
    <g id="ytick_3">
     <g id="line2d_12">
      <g>
       <use style="stroke:#000000;stroke-width:0.85;" x="115.2" xlink:href="#mf7ba0c1027" y="292.514579"/>
      </g>
     </g>
     <g id="text_12">
      <!-- $\mathdefault{10^{-8}}$ -->
      <g transform="translate(93.575 295.204618)">
       <text>
        <tspan style="font-family:Helvetica;font-size:7.5px;font-style:regular;font-weight:regular;" x="0 4.171143" y="-0.5687500000000005">10</tspan>
        <tspan style="font-family:Helvetica;font-size:5.25px;font-style:regular;font-weight:regular;" x="8.410918 11.476836" y="-3.3140625000000004">−8</tspan>
       </text>
      </g>
     </g>
    </g>
    <g id="ytick_4">
     <g id="line2d_13">
      <g>
       <use style="stroke:#000000;stroke-width:0.85;" x="115.2" xlink:href="#mf7ba0c1027" y="219.105387"/>
      </g>
     </g>
     <g id="text_13">
      <!-- $\mathdefault{10^{-7}}$ -->
      <g transform="translate(93.575 221.795427)">
       <text>
        <tspan style="font-family:Helvetica;font-size:7.5px;font-style:regular;font-weight:regular;" x="0 4.171143" y="-0.6453125000000011">10</tspan>
        <tspan style="font-family:Helvetica;font-size:5.25px;font-style:regular;font-weight:regular;" x="8.410918 11.476836" y="-3.390625000000001">−7</tspan>
       </text>
      </g>
     </g>
    </g>
    <g id="ytick_5">
     <g id="line2d_14">
      <g>
       <use style="stroke:#000000;stroke-width:0.85;" x="115.2" xlink:href="#mf7ba0c1027" y="145.696196"/>
      </g>
     </g>
     <g id="text_14">
      <!-- $\mathdefault{10^{-6}}$ -->
      <g transform="translate(93.575 148.386235)">
       <text>
        <tspan style="font-family:Helvetica;font-size:7.5px;font-style:regular;font-weight:regular;" x="0 4.171143" y="-0.5687500000000005">10</tspan>
        <tspan style="font-family:Helvetica;font-size:5.25px;font-style:regular;font-weight:regular;" x="8.410918 11.476836" y="-3.3140625000000004">−6</tspan>
       </text>
      </g>
     </g>
    </g>
    <g id="ytick_6">
     <g id="line2d_15">
      <g>
       <use style="stroke:#000000;stroke-width:0.85;" x="115.2" xlink:href="#mf7ba0c1027" y="72.287004"/>
      </g>
     </g>
     <g id="text_15">
      <!-- $\mathdefault{10^{-5}}$ -->
      <g transform="translate(93.575 74.977043)">
       <text>
        <tspan style="font-family:Helvetica;font-size:7.5px;font-style:regular;font-weight:regular;" x="0 4.171143" y="-0.6453125000000011">10</tspan>
        <tspan style="font-family:Helvetica;font-size:5.25px;font-style:regular;font-weight:regular;" x="8.410918 11.476836" y="-3.390625000000001">−5</tspan>
       </text>
      </g>
     </g>
    </g>
    <g id="ytick_7">
     <g id="line2d_16">
      <defs>
       <path d="M 0 0 
L -1.8 0 
" id="m2e77b94ba8" style="stroke:#000000;stroke-width:0.85;"/>
      </defs>
      <g>
       <use style="stroke:#000000;stroke-width:0.85;" x="115.2" xlink:href="#m2e77b94ba8" y="455.6187"/>
      </g>
     </g>
    </g>
    <g id="ytick_8">
     <g id="line2d_17">
      <g>
       <use style="stroke:#000000;stroke-width:0.85;" x="115.2" xlink:href="#m2e77b94ba8" y="450.704191"/>
      </g>
     </g>
    </g>
    <g id="ytick_9">
     <g id="line2d_18">
      <g>
       <use style="stroke:#000000;stroke-width:0.85;" x="115.2" xlink:href="#m2e77b94ba8" y="446.447049"/>
      </g>
     </g>
    </g>
    <g id="ytick_10">
     <g id="line2d_19">
      <g>
       <use style="stroke:#000000;stroke-width:0.85;" x="115.2" xlink:href="#m2e77b94ba8" y="442.691983"/>
      </g>
     </g>
    </g>
    <g id="ytick_11">
     <g id="line2d_20">
      <g>
       <use style="stroke:#000000;stroke-width:0.85;" x="115.2" xlink:href="#m2e77b94ba8" y="417.234594"/>
      </g>
     </g>
    </g>
    <g id="ytick_12">
     <g id="line2d_21">
      <g>
       <use style="stroke:#000000;stroke-width:0.85;" x="115.2" xlink:href="#m2e77b94ba8" y="404.307877"/>
      </g>
     </g>
    </g>
    <g id="ytick_13">
     <g id="line2d_22">
      <g>
       <use style="stroke:#000000;stroke-width:0.85;" x="115.2" xlink:href="#m2e77b94ba8" y="395.136226"/>
      </g>
     </g>
    </g>
    <g id="ytick_14">
     <g id="line2d_23">
      <g>
       <use style="stroke:#000000;stroke-width:0.85;" x="115.2" xlink:href="#m2e77b94ba8" y="388.02214"/>
      </g>
     </g>
    </g>
    <g id="ytick_15">
     <g id="line2d_24">
      <g>
       <use style="stroke:#000000;stroke-width:0.85;" x="115.2" xlink:href="#m2e77b94ba8" y="382.209509"/>
      </g>
     </g>
    </g>
    <g id="ytick_16">
     <g id="line2d_25">
      <g>
       <use style="stroke:#000000;stroke-width:0.85;" x="115.2" xlink:href="#m2e77b94ba8" y="377.294999"/>
      </g>
     </g>
    </g>
    <g id="ytick_17">
     <g id="line2d_26">
      <g>
       <use style="stroke:#000000;stroke-width:0.85;" x="115.2" xlink:href="#m2e77b94ba8" y="373.037857"/>
      </g>
     </g>
    </g>
    <g id="ytick_18">
     <g id="line2d_27">
      <g>
       <use style="stroke:#000000;stroke-width:0.85;" x="115.2" xlink:href="#m2e77b94ba8" y="369.282792"/>
      </g>
     </g>
    </g>
    <g id="ytick_19">
     <g id="line2d_28">
      <g>
       <use style="stroke:#000000;stroke-width:0.85;" x="115.2" xlink:href="#m2e77b94ba8" y="343.825402"/>
      </g>
     </g>
    </g>
    <g id="ytick_20">
     <g id="line2d_29">
      <g>
       <use style="stroke:#000000;stroke-width:0.85;" x="115.2" xlink:href="#m2e77b94ba8" y="330.898685"/>
      </g>
     </g>
    </g>
    <g id="ytick_21">
     <g id="line2d_30">
      <g>
       <use style="stroke:#000000;stroke-width:0.85;" x="115.2" xlink:href="#m2e77b94ba8" y="321.727034"/>
      </g>
     </g>
    </g>
    <g id="ytick_22">
     <g id="line2d_31">
      <g>
       <use style="stroke:#000000;stroke-width:0.85;" x="115.2" xlink:href="#m2e77b94ba8" y="314.612948"/>
      </g>
     </g>
    </g>
    <g id="ytick_23">
     <g id="line2d_32">
      <g>
       <use style="stroke:#000000;stroke-width:0.85;" x="115.2" xlink:href="#m2e77b94ba8" y="308.800317"/>
      </g>
     </g>
    </g>
    <g id="ytick_24">
     <g id="line2d_33">
      <g>
       <use style="stroke:#000000;stroke-width:0.85;" x="115.2" xlink:href="#m2e77b94ba8" y="303.885807"/>
      </g>
     </g>
    </g>
    <g id="ytick_25">
     <g id="line2d_34">
      <g>
       <use style="stroke:#000000;stroke-width:0.85;" x="115.2" xlink:href="#m2e77b94ba8" y="299.628665"/>
      </g>
     </g>
    </g>
    <g id="ytick_26">
     <g id="line2d_35">
      <g>
       <use style="stroke:#000000;stroke-width:0.85;" x="115.2" xlink:href="#m2e77b94ba8" y="295.8736"/>
      </g>
     </g>
    </g>
    <g id="ytick_27">
     <g id="line2d_36">
      <g>
       <use style="stroke:#000000;stroke-width:0.85;" x="115.2" xlink:href="#m2e77b94ba8" y="270.416211"/>
      </g>
     </g>
    </g>
    <g id="ytick_28">
     <g id="line2d_37">
      <g>
       <use style="stroke:#000000;stroke-width:0.85;" x="115.2" xlink:href="#m2e77b94ba8" y="257.489494"/>
      </g>
     </g>
    </g>
    <g id="ytick_29">
     <g id="line2d_38">
      <g>
       <use style="stroke:#000000;stroke-width:0.85;" x="115.2" xlink:href="#m2e77b94ba8" y="248.317842"/>
      </g>
     </g>
    </g>
    <g id="ytick_30">
     <g id="line2d_39">
      <g>
       <use style="stroke:#000000;stroke-width:0.85;" x="115.2" xlink:href="#m2e77b94ba8" y="241.203756"/>
      </g>
     </g>
    </g>
    <g id="ytick_31">
     <g id="line2d_40">
      <g>
       <use style="stroke:#000000;stroke-width:0.85;" x="115.2" xlink:href="#m2e77b94ba8" y="235.391125"/>
      </g>
     </g>
    </g>
    <g id="ytick_32">
     <g id="line2d_41">
      <g>
       <use style="stroke:#000000;stroke-width:0.85;" x="115.2" xlink:href="#m2e77b94ba8" y="230.476615"/>
      </g>
     </g>
    </g>
    <g id="ytick_33">
     <g id="line2d_42">
      <g>
       <use style="stroke:#000000;stroke-width:0.85;" x="115.2" xlink:href="#m2e77b94ba8" y="226.219473"/>
      </g>
     </g>
    </g>
    <g id="ytick_34">
     <g id="line2d_43">
      <g>
       <use style="stroke:#000000;stroke-width:0.85;" x="115.2" xlink:href="#m2e77b94ba8" y="222.464408"/>
      </g>
     </g>
    </g>
    <g id="ytick_35">
     <g id="line2d_44">
      <g>
       <use style="stroke:#000000;stroke-width:0.85;" x="115.2" xlink:href="#m2e77b94ba8" y="197.007019"/>
      </g>
     </g>
    </g>
    <g id="ytick_36">
     <g id="line2d_45">
      <g>
       <use style="stroke:#000000;stroke-width:0.85;" x="115.2" xlink:href="#m2e77b94ba8" y="184.080302"/>
      </g>
     </g>
    </g>
    <g id="ytick_37">
     <g id="line2d_46">
      <g>
       <use style="stroke:#000000;stroke-width:0.85;" x="115.2" xlink:href="#m2e77b94ba8" y="174.90865"/>
      </g>
     </g>
    </g>
    <g id="ytick_38">
     <g id="line2d_47">
      <g>
       <use style="stroke:#000000;stroke-width:0.85;" x="115.2" xlink:href="#m2e77b94ba8" y="167.794564"/>
      </g>
     </g>
    </g>
    <g id="ytick_39">
     <g id="line2d_48">
      <g>
       <use style="stroke:#000000;stroke-width:0.85;" x="115.2" xlink:href="#m2e77b94ba8" y="161.981933"/>
      </g>
     </g>
    </g>
    <g id="ytick_40">
     <g id="line2d_49">
      <g>
       <use style="stroke:#000000;stroke-width:0.85;" x="115.2" xlink:href="#m2e77b94ba8" y="157.067423"/>
      </g>
     </g>
    </g>
    <g id="ytick_41">
     <g id="line2d_50">
      <g>
       <use style="stroke:#000000;stroke-width:0.85;" x="115.2" xlink:href="#m2e77b94ba8" y="152.810281"/>
      </g>
     </g>
    </g>
    <g id="ytick_42">
     <g id="line2d_51">
      <g>
       <use style="stroke:#000000;stroke-width:0.85;" x="115.2" xlink:href="#m2e77b94ba8" y="149.055216"/>
      </g>
     </g>
    </g>
    <g id="ytick_43">
     <g id="line2d_52">
      <g>
       <use style="stroke:#000000;stroke-width:0.85;" x="115.2" xlink:href="#m2e77b94ba8" y="123.597827"/>
      </g>
     </g>
    </g>
    <g id="ytick_44">
     <g id="line2d_53">
      <g>
       <use style="stroke:#000000;stroke-width:0.85;" x="115.2" xlink:href="#m2e77b94ba8" y="110.67111"/>
      </g>
     </g>
    </g>
    <g id="ytick_45">
     <g id="line2d_54">
      <g>
       <use style="stroke:#000000;stroke-width:0.85;" x="115.2" xlink:href="#m2e77b94ba8" y="101.499458"/>
      </g>
     </g>
    </g>
    <g id="ytick_46">
     <g id="line2d_55">
      <g>
       <use style="stroke:#000000;stroke-width:0.85;" x="115.2" xlink:href="#m2e77b94ba8" y="94.385373"/>
      </g>
     </g>
    </g>
    <g id="ytick_47">
     <g id="line2d_56">
      <g>
       <use style="stroke:#000000;stroke-width:0.85;" x="115.2" xlink:href="#m2e77b94ba8" y="88.572741"/>
      </g>
     </g>
    </g>
    <g id="ytick_48">
     <g id="line2d_57">
      <g>
       <use style="stroke:#000000;stroke-width:0.85;" x="115.2" xlink:href="#m2e77b94ba8" y="83.658232"/>
      </g>
     </g>
    </g>
    <g id="ytick_49">
     <g id="line2d_58">
      <g>
       <use style="stroke:#000000;stroke-width:0.85;" x="115.2" xlink:href="#m2e77b94ba8" y="79.40109"/>
      </g>
     </g>
    </g>
    <g id="ytick_50">
     <g id="line2d_59">
      <g>
       <use style="stroke:#000000;stroke-width:0.85;" x="115.2" xlink:href="#m2e77b94ba8" y="75.646024"/>
      </g>
     </g>
    </g>
   </g>
   <g id="line2d_60">
    <path clip-path="url(#p07650d0dee)" d="M 115.2 444.891559 
L 117.216 452.100671 
L 119.232 450.704191 
L 121.248 408.142745 
L 123.264 419.548236 
L 125.28 408.992961 
L 127.296 429.52998 
L 129.312 416.603263 
L 131.328 424.150043 
L 133.344 432.993358 
L 135.36 414.633726 
L 137.376 420.066641 
L 139.392 432.993358 
L 141.408 416.759927 
L 143.424 428.605822 
L 145.44 417.234594 
L 147.456 460.8 
L 149.472 426.406246 
L 151.488 438.082559 
L 153.504 423.175006 
L 155.52 416.137835 
L 157.536 425.567218 
L 159.552 420.241333 
L 161.568 418.370432 
L 163.584 358.253457 
L 165.6 315.114215 
L 167.616 287.297274 
L 169.632 280.547985 
L 171.648 281.196318 
L 173.664 278.622801 
L 175.68 279.99427 
L 177.696 279.899693 
L 179.712 279.481768 
L 181.728 281.43866 
L 183.744 276.220554 
L 185.76 274.264265 
L 187.776 270.735017 
L 189.792 267.562182 
L 191.808 261.631464 
L 193.824 263.020269 
L 195.84 265.84697 
L 197.856 260.453052 
L 199.872 259.313273 
L 203.904 260.057828 
L 205.92 258.727912 
L 207.936 256.324015 
L 209.952 258.618724 
L 211.968 254.081096 
L 213.984 252.238822 
L 216 251.681291 
L 218.016 251.936509 
L 220.032 254.056276 
L 222.048 250.590373 
L 224.064 253.694779 
L 228.096 251.686605 
L 230.112 252.033081 
L 234.144 250.155972 
L 236.16 247.6381 
L 238.176 248.544203 
L 240.192 244.746088 
L 242.208 241.203756 
L 244.224 242.234707 
L 246.24 240.012879 
L 248.256 237.496336 
L 250.272 235.94263 
L 252.288 237.133426 
L 256.32 232.409088 
L 258.336 231.941213 
L 260.352 230.988525 
L 262.368 229.699606 
L 264.384 225.694198 
L 266.4 226.982931 
L 270.432 227.153185 
L 272.448 223.677426 
L 274.464 224.269813 
L 276.48 221.997071 
L 278.496 222.231465 
L 280.512 224.381346 
L 282.528 220.934569 
L 284.544 219.159951 
L 286.56 224.67727 
L 288.576 221.770972 
L 290.592 221.032973 
L 292.608 222.228301 
L 294.624 222.735842 
L 296.64 219.561992 
L 298.656 218.741791 
L 300.672 217.073436 
L 302.688 217.082711 
L 304.704 214.563783 
L 306.72 214.238371 
L 308.736 213.506009 
L 310.752 214.564336 
L 312.768 213.024228 
L 314.784 213.523934 
L 316.8 212.666113 
L 318.816 210.477619 
L 320.832 209.981913 
L 322.848 209.62069 
L 326.88 208.501455 
L 328.896 207.187018 
L 330.912 206.642607 
L 332.928 204.04011 
L 334.944 202.651126 
L 336.96 203.18299 
L 340.992 201.557354 
L 343.008 200.314716 
L 345.024 198.716731 
L 347.04 195.181684 
L 349.056 193.865836 
L 351.072 191.224024 
L 355.104 188.149867 
L 357.12 183.895925 
L 359.136 182.119123 
L 361.152 178.428366 
L 363.168 175.463562 
L 367.2 168.017169 
L 371.232 161.265023 
L 373.248 158.567901 
L 379.296 148.588228 
L 385.344 139.70315 
L 387.36 137.06405 
L 389.376 134.20227 
L 391.392 131.569798 
L 395.424 126.882721 
L 397.44 124.318618 
L 403.488 117.675527 
L 407.52 113.644466 
L 411.552 109.732041 
L 423.648 99.662685 
L 427.68 96.621701 
L 433.728 92.438847 
L 441.792 87.337515 
L 445.824 84.971644 
L 453.888 80.594961 
L 468 73.933708 
L 474.048 71.397886 
L 480.096 69.077281 
L 486.144 66.921977 
L 494.208 64.235253 
L 502.272 61.752414 
L 516.384 58.055976 
L 518.4 57.6 
L 518.4 57.6 
" style="fill:none;stroke:#1f77b4;stroke-linecap:square;stroke-width:0.85;"/>
   </g>
   <g id="patch_3">
    <path d="M 115.2 460.8 
L 115.2 57.6 
" style="fill:none;stroke:#000000;stroke-linecap:square;stroke-linejoin:miter;stroke-width:0.85;"/>
   </g>
   <g id="patch_4">
    <path d="M 518.4 460.8 
L 518.4 57.6 
" style="fill:none;stroke:#000000;stroke-linecap:square;stroke-linejoin:miter;stroke-width:0.85;"/>
   </g>
   <g id="patch_5">
    <path d="M 115.2 460.8 
L 518.4 460.8 
" style="fill:none;stroke:#000000;stroke-linecap:square;stroke-linejoin:miter;stroke-width:0.85;"/>
   </g>
   <g id="patch_6">
    <path d="M 115.2 57.6 
L 518.4 57.6 
" style="fill:none;stroke:#000000;stroke-linecap:square;stroke-linejoin:miter;stroke-width:0.85;"/>
   </g>
  </g>
 </g>
 <defs>
  <clipPath id="p07650d0dee">
   <rect height="403.2" width="403.2" x="115.2" y="57.6"/>
  </clipPath>
 </defs>
</svg>
