<?xml version="1.0" encoding="utf-8" standalone="no"?>
<!DOCTYPE svg PUBLIC "-//W3C//DTD SVG 1.1//EN"
  "http://www.w3.org/Graphics/SVG/1.1/DTD/svg11.dtd">
<!-- Created with matplotlib (https://matplotlib.org/) -->
<svg height="576pt" version="1.1" viewBox="0 0 576 576" width="576pt" xmlns="http://www.w3.org/2000/svg" xmlns:xlink="http://www.w3.org/1999/xlink">
 <defs>
  <style type="text/css">
*{stroke-linecap:butt;stroke-linejoin:round;}
  </style>
 </defs>
 <g id="figure_1">
  <g id="patch_1">
   <path d="M 0 576 
L 576 576 
L 576 0 
L 0 0 
z
" style="fill:none;"/>
  </g>
  <g id="axes_1">
   <g id="patch_2">
    <path d="M 115.2 460.8 
L 518.4 460.8 
L 518.4 57.6 
L 115.2 57.6 
z
" style="fill:none;"/>
   </g>
   <g id="matplotlib.axis_1">
    <g id="xtick_1">
     <g id="line2d_1">
      <defs>
       <path d="M 0 0 
L 0 3.5 
" id="m9be23ffa67" style="stroke:#000000;stroke-width:0.85;"/>
      </defs>
      <g>
       <use style="stroke:#000000;stroke-width:0.85;" x="115.2" xlink:href="#m9be23ffa67" y="460.8"/>
      </g>
     </g>
     <g id="text_1">
      <text style="font-family:Helvetica;font-size:7.5px;font-style:normal;font-weight:medium;text-anchor:middle;" transform="rotate(-0, 115.2, 473.180078)" x="115.2" y="473.180078">−100</text>
     </g>
    </g>
    <g id="xtick_2">
     <g id="line2d_2">
      <g>
       <use style="stroke:#000000;stroke-width:0.85;" x="165.6" xlink:href="#m9be23ffa67" y="460.8"/>
      </g>
     </g>
     <g id="text_2">
      <text style="font-family:Helvetica;font-size:7.5px;font-style:normal;font-weight:medium;text-anchor:middle;" transform="rotate(-0, 165.6, 473.180078)" x="165.6" y="473.180078">−75</text>
     </g>
    </g>
    <g id="xtick_3">
     <g id="line2d_3">
      <g>
       <use style="stroke:#000000;stroke-width:0.85;" x="216" xlink:href="#m9be23ffa67" y="460.8"/>
      </g>
     </g>
     <g id="text_3">
      <text style="font-family:Helvetica;font-size:7.5px;font-style:normal;font-weight:medium;text-anchor:middle;" transform="rotate(-0, 216, 473.180078)" x="216" y="473.180078">−50</text>
     </g>
    </g>
    <g id="xtick_4">
     <g id="line2d_4">
      <g>
       <use style="stroke:#000000;stroke-width:0.85;" x="266.4" xlink:href="#m9be23ffa67" y="460.8"/>
      </g>
     </g>
     <g id="text_4">
      <text style="font-family:Helvetica;font-size:7.5px;font-style:normal;font-weight:medium;text-anchor:middle;" transform="rotate(-0, 266.4, 473.180078)" x="266.4" y="473.180078">−25</text>
     </g>
    </g>
    <g id="xtick_5">
     <g id="line2d_5">
      <g>
       <use style="stroke:#000000;stroke-width:0.85;" x="316.8" xlink:href="#m9be23ffa67" y="460.8"/>
      </g>
     </g>
     <g id="text_5">
      <text style="font-family:Helvetica;font-size:7.5px;font-style:normal;font-weight:medium;text-anchor:middle;" transform="rotate(-0, 316.8, 473.180078)" x="316.8" y="473.180078">0</text>
     </g>
    </g>
    <g id="xtick_6">
     <g id="line2d_6">
      <g>
       <use style="stroke:#000000;stroke-width:0.85;" x="367.2" xlink:href="#m9be23ffa67" y="460.8"/>
      </g>
     </g>
     <g id="text_6">
      <text style="font-family:Helvetica;font-size:7.5px;font-style:normal;font-weight:medium;text-anchor:middle;" transform="rotate(-0, 367.2, 473.180078)" x="367.2" y="473.180078">25</text>
     </g>
    </g>
    <g id="xtick_7">
     <g id="line2d_7">
      <g>
       <use style="stroke:#000000;stroke-width:0.85;" x="417.6" xlink:href="#m9be23ffa67" y="460.8"/>
      </g>
     </g>
     <g id="text_7">
      <text style="font-family:Helvetica;font-size:7.5px;font-style:normal;font-weight:medium;text-anchor:middle;" transform="rotate(-0, 417.6, 473.180078)" x="417.6" y="473.180078">50</text>
     </g>
    </g>
    <g id="xtick_8">
     <g id="line2d_8">
      <g>
       <use style="stroke:#000000;stroke-width:0.85;" x="468" xlink:href="#m9be23ffa67" y="460.8"/>
      </g>
     </g>
     <g id="text_8">
      <text style="font-family:Helvetica;font-size:7.5px;font-style:normal;font-weight:medium;text-anchor:middle;" transform="rotate(-0, 468, 473.180078)" x="468" y="473.180078">75</text>
     </g>
    </g>
    <g id="xtick_9">
     <g id="line2d_9">
      <g>
       <use style="stroke:#000000;stroke-width:0.85;" x="518.4" xlink:href="#m9be23ffa67" y="460.8"/>
      </g>
     </g>
     <g id="text_9">
      <text style="font-family:Helvetica;font-size:7.5px;font-style:normal;font-weight:medium;text-anchor:middle;" transform="rotate(-0, 518.4, 473.180078)" x="518.4" y="473.180078">100</text>
     </g>
    </g>
   </g>
   <g id="matplotlib.axis_2">
    <g id="ytick_1">
     <g id="line2d_10">
      <defs>
       <path d="M 0 0 
L -3.5 0 
" id="mc4113c9b57" style="stroke:#000000;stroke-width:0.85;"/>
      </defs>
      <g>
       <use style="stroke:#000000;stroke-width:0.85;" x="115.2" xlink:href="#mc4113c9b57" y="442.19044"/>
      </g>
     </g>
     <g id="text_10">
      <!-- $\mathdefault{10^{-11}}$ -->
      <g transform="translate(90.65 444.880479)">
       <text>
        <tspan style="font-family:Helvetica;font-size:7.5px;font-style:regular;font-weight:regular;" x="0 4.171143" y="-0.6015625">10</tspan>
        <tspan style="font-family:Helvetica;font-size:5.25px;font-style:regular;font-weight:regular;" x="8.410918 11.476836 14.396636" y="-3.346875">−11</tspan>
       </text>
      </g>
     </g>
    </g>
    <g id="ytick_2">
     <g id="line2d_11">
      <g>
       <use style="stroke:#000000;stroke-width:0.85;" x="115.2" xlink:href="#mc4113c9b57" y="358.30644"/>
      </g>
     </g>
     <g id="text_11">
      <!-- $\mathdefault{10^{-10}}$ -->
      <g transform="translate(90.65 360.996479)">
       <text>
        <tspan style="font-family:Helvetica;font-size:7.5px;font-style:regular;font-weight:regular;" x="0 4.171143" y="-0.5796875000000004">10</tspan>
        <tspan style="font-family:Helvetica;font-size:5.25px;font-style:regular;font-weight:regular;" x="8.410918 11.476836 14.396636" y="-3.325">−10</tspan>
       </text>
      </g>
     </g>
    </g>
    <g id="ytick_3">
     <g id="line2d_12">
      <g>
       <use style="stroke:#000000;stroke-width:0.85;" x="115.2" xlink:href="#mc4113c9b57" y="274.422441"/>
      </g>
     </g>
     <g id="text_12">
      <!-- $\mathdefault{10^{-9}}$ -->
      <g transform="translate(93.575 277.11248)">
       <text>
        <tspan style="font-family:Helvetica;font-size:7.5px;font-style:regular;font-weight:regular;" x="0 4.171143" y="-0.5796875000000004">10</tspan>
        <tspan style="font-family:Helvetica;font-size:5.25px;font-style:regular;font-weight:regular;" x="8.410918 11.476836" y="-3.325">−9</tspan>
       </text>
      </g>
     </g>
    </g>
    <g id="ytick_4">
     <g id="line2d_13">
      <g>
       <use style="stroke:#000000;stroke-width:0.85;" x="115.2" xlink:href="#mc4113c9b57" y="190.538442"/>
      </g>
     </g>
     <g id="text_13">
      <!-- $\mathdefault{10^{-8}}$ -->
      <g transform="translate(93.575 193.228481)">
       <text>
        <tspan style="font-family:Helvetica;font-size:7.5px;font-style:regular;font-weight:regular;" x="0 4.171143" y="-0.5687500000000005">10</tspan>
        <tspan style="font-family:Helvetica;font-size:5.25px;font-style:regular;font-weight:regular;" x="8.410918 11.476836" y="-3.3140625000000004">−8</tspan>
       </text>
      </g>
     </g>
    </g>
    <g id="ytick_5">
     <g id="line2d_14">
      <g>
       <use style="stroke:#000000;stroke-width:0.85;" x="115.2" xlink:href="#mc4113c9b57" y="106.654442"/>
      </g>
     </g>
     <g id="text_14">
      <!-- $\mathdefault{10^{-7}}$ -->
      <g transform="translate(93.575 109.344481)">
       <text>
        <tspan style="font-family:Helvetica;font-size:7.5px;font-style:regular;font-weight:regular;" x="0 4.171143" y="-0.6453125000000011">10</tspan>
        <tspan style="font-family:Helvetica;font-size:5.25px;font-style:regular;font-weight:regular;" x="8.410918 11.476836" y="-3.390625000000001">−7</tspan>
       </text>
      </g>
     </g>
    </g>
    <g id="ytick_6">
     <g id="line2d_15">
      <defs>
       <path d="M 0 0 
L -1.8 0 
" id="me8dd8df81b" style="stroke:#000000;stroke-width:0.85;"/>
      </defs>
      <g>
       <use style="stroke:#000000;stroke-width:0.85;" x="115.2" xlink:href="#me8dd8df81b" y="460.8"/>
      </g>
     </g>
    </g>
    <g id="ytick_7">
     <g id="line2d_16">
      <g>
       <use style="stroke:#000000;stroke-width:0.85;" x="115.2" xlink:href="#me8dd8df81b" y="455.184236"/>
      </g>
     </g>
    </g>
    <g id="ytick_8">
     <g id="line2d_17">
      <g>
       <use style="stroke:#000000;stroke-width:0.85;" x="115.2" xlink:href="#me8dd8df81b" y="450.319639"/>
      </g>
     </g>
    </g>
    <g id="ytick_9">
     <g id="line2d_18">
      <g>
       <use style="stroke:#000000;stroke-width:0.85;" x="115.2" xlink:href="#me8dd8df81b" y="446.028761"/>
      </g>
     </g>
    </g>
    <g id="ytick_10">
     <g id="line2d_19">
      <g>
       <use style="stroke:#000000;stroke-width:0.85;" x="115.2" xlink:href="#me8dd8df81b" y="416.93884"/>
      </g>
     </g>
    </g>
    <g id="ytick_11">
     <g id="line2d_20">
      <g>
       <use style="stroke:#000000;stroke-width:0.85;" x="115.2" xlink:href="#me8dd8df81b" y="402.167601"/>
      </g>
     </g>
    </g>
    <g id="ytick_12">
     <g id="line2d_21">
      <g>
       <use style="stroke:#000000;stroke-width:0.85;" x="115.2" xlink:href="#me8dd8df81b" y="391.68724"/>
      </g>
     </g>
    </g>
    <g id="ytick_13">
     <g id="line2d_22">
      <g>
       <use style="stroke:#000000;stroke-width:0.85;" x="115.2" xlink:href="#me8dd8df81b" y="383.55804"/>
      </g>
     </g>
    </g>
    <g id="ytick_14">
     <g id="line2d_23">
      <g>
       <use style="stroke:#000000;stroke-width:0.85;" x="115.2" xlink:href="#me8dd8df81b" y="376.916001"/>
      </g>
     </g>
    </g>
    <g id="ytick_15">
     <g id="line2d_24">
      <g>
       <use style="stroke:#000000;stroke-width:0.85;" x="115.2" xlink:href="#me8dd8df81b" y="371.300236"/>
      </g>
     </g>
    </g>
    <g id="ytick_16">
     <g id="line2d_25">
      <g>
       <use style="stroke:#000000;stroke-width:0.85;" x="115.2" xlink:href="#me8dd8df81b" y="366.43564"/>
      </g>
     </g>
    </g>
    <g id="ytick_17">
     <g id="line2d_26">
      <g>
       <use style="stroke:#000000;stroke-width:0.85;" x="115.2" xlink:href="#me8dd8df81b" y="362.144762"/>
      </g>
     </g>
    </g>
    <g id="ytick_18">
     <g id="line2d_27">
      <g>
       <use style="stroke:#000000;stroke-width:0.85;" x="115.2" xlink:href="#me8dd8df81b" y="333.05484"/>
      </g>
     </g>
    </g>
    <g id="ytick_19">
     <g id="line2d_28">
      <g>
       <use style="stroke:#000000;stroke-width:0.85;" x="115.2" xlink:href="#me8dd8df81b" y="318.283601"/>
      </g>
     </g>
    </g>
    <g id="ytick_20">
     <g id="line2d_29">
      <g>
       <use style="stroke:#000000;stroke-width:0.85;" x="115.2" xlink:href="#me8dd8df81b" y="307.80324"/>
      </g>
     </g>
    </g>
    <g id="ytick_21">
     <g id="line2d_30">
      <g>
       <use style="stroke:#000000;stroke-width:0.85;" x="115.2" xlink:href="#me8dd8df81b" y="299.674041"/>
      </g>
     </g>
    </g>
    <g id="ytick_22">
     <g id="line2d_31">
      <g>
       <use style="stroke:#000000;stroke-width:0.85;" x="115.2" xlink:href="#me8dd8df81b" y="293.032001"/>
      </g>
     </g>
    </g>
    <g id="ytick_23">
     <g id="line2d_32">
      <g>
       <use style="stroke:#000000;stroke-width:0.85;" x="115.2" xlink:href="#me8dd8df81b" y="287.416237"/>
      </g>
     </g>
    </g>
    <g id="ytick_24">
     <g id="line2d_33">
      <g>
       <use style="stroke:#000000;stroke-width:0.85;" x="115.2" xlink:href="#me8dd8df81b" y="282.55164"/>
      </g>
     </g>
    </g>
    <g id="ytick_25">
     <g id="line2d_34">
      <g>
       <use style="stroke:#000000;stroke-width:0.85;" x="115.2" xlink:href="#me8dd8df81b" y="278.260762"/>
      </g>
     </g>
    </g>
    <g id="ytick_26">
     <g id="line2d_35">
      <g>
       <use style="stroke:#000000;stroke-width:0.85;" x="115.2" xlink:href="#me8dd8df81b" y="249.170841"/>
      </g>
     </g>
    </g>
    <g id="ytick_27">
     <g id="line2d_36">
      <g>
       <use style="stroke:#000000;stroke-width:0.85;" x="115.2" xlink:href="#me8dd8df81b" y="234.399602"/>
      </g>
     </g>
    </g>
    <g id="ytick_28">
     <g id="line2d_37">
      <g>
       <use style="stroke:#000000;stroke-width:0.85;" x="115.2" xlink:href="#me8dd8df81b" y="223.919241"/>
      </g>
     </g>
    </g>
    <g id="ytick_29">
     <g id="line2d_38">
      <g>
       <use style="stroke:#000000;stroke-width:0.85;" x="115.2" xlink:href="#me8dd8df81b" y="215.790042"/>
      </g>
     </g>
    </g>
    <g id="ytick_30">
     <g id="line2d_39">
      <g>
       <use style="stroke:#000000;stroke-width:0.85;" x="115.2" xlink:href="#me8dd8df81b" y="209.148002"/>
      </g>
     </g>
    </g>
    <g id="ytick_31">
     <g id="line2d_40">
      <g>
       <use style="stroke:#000000;stroke-width:0.85;" x="115.2" xlink:href="#me8dd8df81b" y="203.532238"/>
      </g>
     </g>
    </g>
    <g id="ytick_32">
     <g id="line2d_41">
      <g>
       <use style="stroke:#000000;stroke-width:0.85;" x="115.2" xlink:href="#me8dd8df81b" y="198.667641"/>
      </g>
     </g>
    </g>
    <g id="ytick_33">
     <g id="line2d_42">
      <g>
       <use style="stroke:#000000;stroke-width:0.85;" x="115.2" xlink:href="#me8dd8df81b" y="194.376763"/>
      </g>
     </g>
    </g>
    <g id="ytick_34">
     <g id="line2d_43">
      <g>
       <use style="stroke:#000000;stroke-width:0.85;" x="115.2" xlink:href="#me8dd8df81b" y="165.286842"/>
      </g>
     </g>
    </g>
    <g id="ytick_35">
     <g id="line2d_44">
      <g>
       <use style="stroke:#000000;stroke-width:0.85;" x="115.2" xlink:href="#me8dd8df81b" y="150.515603"/>
      </g>
     </g>
    </g>
    <g id="ytick_36">
     <g id="line2d_45">
      <g>
       <use style="stroke:#000000;stroke-width:0.85;" x="115.2" xlink:href="#me8dd8df81b" y="140.035242"/>
      </g>
     </g>
    </g>
    <g id="ytick_37">
     <g id="line2d_46">
      <g>
       <use style="stroke:#000000;stroke-width:0.85;" x="115.2" xlink:href="#me8dd8df81b" y="131.906042"/>
      </g>
     </g>
    </g>
    <g id="ytick_38">
     <g id="line2d_47">
      <g>
       <use style="stroke:#000000;stroke-width:0.85;" x="115.2" xlink:href="#me8dd8df81b" y="125.264003"/>
      </g>
     </g>
    </g>
    <g id="ytick_39">
     <g id="line2d_48">
      <g>
       <use style="stroke:#000000;stroke-width:0.85;" x="115.2" xlink:href="#me8dd8df81b" y="119.648238"/>
      </g>
     </g>
    </g>
    <g id="ytick_40">
     <g id="line2d_49">
      <g>
       <use style="stroke:#000000;stroke-width:0.85;" x="115.2" xlink:href="#me8dd8df81b" y="114.783642"/>
      </g>
     </g>
    </g>
    <g id="ytick_41">
     <g id="line2d_50">
      <g>
       <use style="stroke:#000000;stroke-width:0.85;" x="115.2" xlink:href="#me8dd8df81b" y="110.492764"/>
      </g>
     </g>
    </g>
    <g id="ytick_42">
     <g id="line2d_51">
      <g>
       <use style="stroke:#000000;stroke-width:0.85;" x="115.2" xlink:href="#me8dd8df81b" y="81.402842"/>
      </g>
     </g>
    </g>
    <g id="ytick_43">
     <g id="line2d_52">
      <g>
       <use style="stroke:#000000;stroke-width:0.85;" x="115.2" xlink:href="#me8dd8df81b" y="66.631603"/>
      </g>
     </g>
    </g>
   </g>
   <g id="line2d_53">
    <path clip-path="url(#pa2a83af706)" d="M 115.2 233.571194 
L 117.216 253.890007 
L 119.232 266.089801 
L 121.248 275.532081 
L 123.264 273.629662 
L 125.28 282.871809 
L 127.296 298.952624 
L 129.312 318.772607 
L 131.328 325.960244 
L 133.344 329.748626 
L 135.36 325.218256 
L 137.376 321.321223 
L 139.392 337.919437 
L 141.408 334.542 
L 143.424 344.271193 
L 145.44 332.692346 
L 147.456 341.873594 
L 149.472 398.695417 
L 151.488 358.30644 
L 153.504 460.8 
L 155.52 378.784634 
L 157.536 366.43564 
L 159.552 385.812183 
L 161.568 368.786801 
L 163.584 389.052572 
L 165.6 371.300236 
L 167.616 402.167601 
L 169.632 416.93884 
L 171.648 416.93884 
L 175.68 329.089235 
L 177.696 340.731483 
L 179.712 321.058187 
L 181.728 314.046734 
L 183.744 333.237449 
L 185.76 314.154997 
L 187.776 303.431496 
L 189.792 306.11264 
L 191.808 296.13568 
L 193.824 294.20429 
L 195.84 298.245216 
L 197.856 296.601463 
L 199.872 289.504662 
L 201.888 293.398139 
L 203.904 283.00989 
L 205.92 295.806587 
L 207.936 291.023986 
L 209.952 290.284546 
L 211.968 297.345656 
L 213.984 290.397334 
L 216 296.601463 
L 218.016 301.850755 
L 220.032 297.414069 
L 222.048 315.479883 
L 224.064 310.447017 
L 226.08 316.738199 
L 228.096 312.563899 
L 230.112 314.92198 
L 232.128 320.927378 
L 234.144 321.321223 
L 236.16 332.873142 
L 238.176 317.562185 
L 240.192 339.624092 
L 242.208 326.110472 
L 246.24 323.637203 
L 248.256 326.717659 
L 250.272 333.237449 
L 252.288 324.061639 
L 254.304 330.420173 
L 256.32 329.582656 
L 258.336 320.280285 
L 260.352 324.491079 
L 262.368 311.94642 
L 264.384 315.144117 
L 266.4 308.077498 
L 268.416 308.353836 
L 270.432 310.742001 
L 272.448 302.711663 
L 274.464 304.91529 
L 276.48 301.161201 
L 278.496 301.313311 
L 280.512 300.708644 
L 282.528 298.315342 
L 284.544 296.735645 
L 286.56 293.767993 
L 288.576 301.313311 
L 290.592 291.896262 
L 292.608 293.767993 
L 294.624 290.340896 
L 296.64 288.525877 
L 298.656 289.230129 
L 300.672 283.802392 
L 302.688 284.660739 
L 306.72 280.730854 
L 308.736 277.302013 
L 310.752 274.862249 
L 312.768 273.629662 
L 314.784 272.16247 
L 316.8 268.115886 
L 318.816 265.858679 
L 320.832 265.145734 
L 322.848 262.504499 
L 324.864 257.322817 
L 326.88 255.263305 
L 328.896 251.039474 
L 330.912 247.341392 
L 332.928 242.422701 
L 334.944 239.236453 
L 336.96 234.205823 
L 340.992 223.656074 
L 343.008 218.630209 
L 345.024 211.53156 
L 347.04 205.703427 
L 351.072 192.368747 
L 353.088 186.967037 
L 357.12 175.299058 
L 361.152 164.82709 
L 363.168 159.972612 
L 369.216 147.334921 
L 373.248 140.091753 
L 377.28 133.48211 
L 379.296 130.531203 
L 387.36 119.840263 
L 393.408 112.99189 
L 401.472 105.086817 
L 405.504 101.560331 
L 413.568 95.346475 
L 421.632 89.935226 
L 431.712 84.07013 
L 435.744 82.122667 
L 439.776 80.138148 
L 443.808 78.288099 
L 449.856 75.752486 
L 463.968 70.459402 
L 470.016 68.449908 
L 478.08 66.105122 
L 490.176 62.954881 
L 508.32 59.307059 
L 518.4 57.6 
L 518.4 57.6 
" style="fill:none;stroke:#1f77b4;stroke-linecap:square;stroke-width:0.85;"/>
   </g>
   <g id="patch_3">
    <path d="M 115.2 460.8 
L 115.2 57.6 
" style="fill:none;stroke:#000000;stroke-linecap:square;stroke-linejoin:miter;stroke-width:0.85;"/>
   </g>
   <g id="patch_4">
    <path d="M 518.4 460.8 
L 518.4 57.6 
" style="fill:none;stroke:#000000;stroke-linecap:square;stroke-linejoin:miter;stroke-width:0.85;"/>
   </g>
   <g id="patch_5">
    <path d="M 115.2 460.8 
L 518.4 460.8 
" style="fill:none;stroke:#000000;stroke-linecap:square;stroke-linejoin:miter;stroke-width:0.85;"/>
   </g>
   <g id="patch_6">
    <path d="M 115.2 57.6 
L 518.4 57.6 
" style="fill:none;stroke:#000000;stroke-linecap:square;stroke-linejoin:miter;stroke-width:0.85;"/>
   </g>
  </g>
 </g>
 <defs>
  <clipPath id="pa2a83af706">
   <rect height="403.2" width="403.2" x="115.2" y="57.6"/>
  </clipPath>
 </defs>
</svg>
