<?xml version="1.0" encoding="utf-8" standalone="no"?>
<!DOCTYPE svg PUBLIC "-//W3C//DTD SVG 1.1//EN"
  "http://www.w3.org/Graphics/SVG/1.1/DTD/svg11.dtd">
<!-- Created with matplotlib (https://matplotlib.org/) -->
<svg height="576pt" version="1.1" viewBox="0 0 576 576" width="576pt" xmlns="http://www.w3.org/2000/svg" xmlns:xlink="http://www.w3.org/1999/xlink">
 <defs>
  <style type="text/css">
*{stroke-linecap:butt;stroke-linejoin:round;}
  </style>
 </defs>
 <g id="figure_1">
  <g id="patch_1">
   <path d="M 0 576 
L 576 576 
L 576 0 
L 0 0 
z
" style="fill:none;"/>
  </g>
  <g id="axes_1">
   <g id="patch_2">
    <path d="M 115.2 460.8 
L 518.4 460.8 
L 518.4 57.6 
L 115.2 57.6 
z
" style="fill:none;"/>
   </g>
   <g id="matplotlib.axis_1">
    <g id="xtick_1">
     <g id="line2d_1">
      <defs>
       <path d="M 0 0 
L 0 3.5 
" id="m7f287ff789" style="stroke:#000000;stroke-width:0.85;"/>
      </defs>
      <g>
       <use style="stroke:#000000;stroke-width:0.85;" x="115.2" xlink:href="#m7f287ff789" y="460.8"/>
      </g>
     </g>
     <g id="text_1">
      <text style="font-family:Helvetica;font-size:7.5px;font-style:normal;font-weight:medium;text-anchor:middle;" transform="rotate(-0, 115.2, 473.180078)" x="115.2" y="473.180078">−100</text>
     </g>
    </g>
    <g id="xtick_2">
     <g id="line2d_2">
      <g>
       <use style="stroke:#000000;stroke-width:0.85;" x="165.6" xlink:href="#m7f287ff789" y="460.8"/>
      </g>
     </g>
     <g id="text_2">
      <text style="font-family:Helvetica;font-size:7.5px;font-style:normal;font-weight:medium;text-anchor:middle;" transform="rotate(-0, 165.6, 473.180078)" x="165.6" y="473.180078">−75</text>
     </g>
    </g>
    <g id="xtick_3">
     <g id="line2d_3">
      <g>
       <use style="stroke:#000000;stroke-width:0.85;" x="216" xlink:href="#m7f287ff789" y="460.8"/>
      </g>
     </g>
     <g id="text_3">
      <text style="font-family:Helvetica;font-size:7.5px;font-style:normal;font-weight:medium;text-anchor:middle;" transform="rotate(-0, 216, 473.180078)" x="216" y="473.180078">−50</text>
     </g>
    </g>
    <g id="xtick_4">
     <g id="line2d_4">
      <g>
       <use style="stroke:#000000;stroke-width:0.85;" x="266.4" xlink:href="#m7f287ff789" y="460.8"/>
      </g>
     </g>
     <g id="text_4">
      <text style="font-family:Helvetica;font-size:7.5px;font-style:normal;font-weight:medium;text-anchor:middle;" transform="rotate(-0, 266.4, 473.180078)" x="266.4" y="473.180078">−25</text>
     </g>
    </g>
    <g id="xtick_5">
     <g id="line2d_5">
      <g>
       <use style="stroke:#000000;stroke-width:0.85;" x="316.8" xlink:href="#m7f287ff789" y="460.8"/>
      </g>
     </g>
     <g id="text_5">
      <text style="font-family:Helvetica;font-size:7.5px;font-style:normal;font-weight:medium;text-anchor:middle;" transform="rotate(-0, 316.8, 473.180078)" x="316.8" y="473.180078">0</text>
     </g>
    </g>
    <g id="xtick_6">
     <g id="line2d_6">
      <g>
       <use style="stroke:#000000;stroke-width:0.85;" x="367.2" xlink:href="#m7f287ff789" y="460.8"/>
      </g>
     </g>
     <g id="text_6">
      <text style="font-family:Helvetica;font-size:7.5px;font-style:normal;font-weight:medium;text-anchor:middle;" transform="rotate(-0, 367.2, 473.180078)" x="367.2" y="473.180078">25</text>
     </g>
    </g>
    <g id="xtick_7">
     <g id="line2d_7">
      <g>
       <use style="stroke:#000000;stroke-width:0.85;" x="417.6" xlink:href="#m7f287ff789" y="460.8"/>
      </g>
     </g>
     <g id="text_7">
      <text style="font-family:Helvetica;font-size:7.5px;font-style:normal;font-weight:medium;text-anchor:middle;" transform="rotate(-0, 417.6, 473.180078)" x="417.6" y="473.180078">50</text>
     </g>
    </g>
    <g id="xtick_8">
     <g id="line2d_8">
      <g>
       <use style="stroke:#000000;stroke-width:0.85;" x="468" xlink:href="#m7f287ff789" y="460.8"/>
      </g>
     </g>
     <g id="text_8">
      <text style="font-family:Helvetica;font-size:7.5px;font-style:normal;font-weight:medium;text-anchor:middle;" transform="rotate(-0, 468, 473.180078)" x="468" y="473.180078">75</text>
     </g>
    </g>
    <g id="xtick_9">
     <g id="line2d_9">
      <g>
       <use style="stroke:#000000;stroke-width:0.85;" x="518.4" xlink:href="#m7f287ff789" y="460.8"/>
      </g>
     </g>
     <g id="text_9">
      <text style="font-family:Helvetica;font-size:7.5px;font-style:normal;font-weight:medium;text-anchor:middle;" transform="rotate(-0, 518.4, 473.180078)" x="518.4" y="473.180078">100</text>
     </g>
    </g>
   </g>
   <g id="matplotlib.axis_2">
    <g id="ytick_1">
     <g id="line2d_10">
      <defs>
       <path d="M 0 0 
L -3.5 0 
" id="m3ca99d93a5" style="stroke:#000000;stroke-width:0.85;"/>
      </defs>
      <g>
       <use style="stroke:#000000;stroke-width:0.85;" x="115.2" xlink:href="#m3ca99d93a5" y="350.493589"/>
      </g>
     </g>
     <g id="text_10">
      <!-- $\mathdefault{10^{-7}}$ -->
      <g transform="translate(93.575 353.183628)">
       <text>
        <tspan style="font-family:Helvetica;font-size:7.5px;font-style:regular;font-weight:regular;" x="0 4.171143" y="-0.6453125000000011">10</tspan>
        <tspan style="font-family:Helvetica;font-size:5.25px;font-style:regular;font-weight:regular;" x="8.410918 11.476836" y="-3.390625000000001">−7</tspan>
       </text>
      </g>
     </g>
    </g>
    <g id="ytick_2">
     <g id="line2d_11">
      <g>
       <use style="stroke:#000000;stroke-width:0.85;" x="115.2" xlink:href="#m3ca99d93a5" y="68.405701"/>
      </g>
     </g>
     <g id="text_11">
      <!-- $\mathdefault{10^{-6}}$ -->
      <g transform="translate(93.575 71.09574)">
       <text>
        <tspan style="font-family:Helvetica;font-size:7.5px;font-style:regular;font-weight:regular;" x="0 4.171143" y="-0.5687500000000005">10</tspan>
        <tspan style="font-family:Helvetica;font-size:5.25px;font-style:regular;font-weight:regular;" x="8.410918 11.476836" y="-3.3140625000000004">−6</tspan>
       </text>
      </g>
     </g>
    </g>
    <g id="ytick_3">
     <g id="line2d_12">
      <defs>
       <path d="M 0 0 
L -1.8 0 
" id="md773f455fe" style="stroke:#000000;stroke-width:0.85;"/>
      </defs>
      <g>
       <use style="stroke:#000000;stroke-width:0.85;" x="115.2" xlink:href="#md773f455fe" y="435.410505"/>
      </g>
     </g>
    </g>
    <g id="ytick_4">
     <g id="line2d_13">
      <g>
       <use style="stroke:#000000;stroke-width:0.85;" x="115.2" xlink:href="#md773f455fe" y="413.074435"/>
      </g>
     </g>
    </g>
    <g id="ytick_5">
     <g id="line2d_14">
      <g>
       <use style="stroke:#000000;stroke-width:0.85;" x="115.2" xlink:href="#md773f455fe" y="394.189556"/>
      </g>
     </g>
    </g>
    <g id="ytick_6">
     <g id="line2d_15">
      <g>
       <use style="stroke:#000000;stroke-width:0.85;" x="115.2" xlink:href="#md773f455fe" y="377.83073"/>
      </g>
     </g>
    </g>
    <g id="ytick_7">
     <g id="line2d_16">
      <g>
       <use style="stroke:#000000;stroke-width:0.85;" x="115.2" xlink:href="#md773f455fe" y="363.401223"/>
      </g>
     </g>
    </g>
    <g id="ytick_8">
     <g id="line2d_17">
      <g>
       <use style="stroke:#000000;stroke-width:0.85;" x="115.2" xlink:href="#md773f455fe" y="265.576673"/>
      </g>
     </g>
    </g>
    <g id="ytick_9">
     <g id="line2d_18">
      <g>
       <use style="stroke:#000000;stroke-width:0.85;" x="115.2" xlink:href="#md773f455fe" y="215.903462"/>
      </g>
     </g>
    </g>
    <g id="ytick_10">
     <g id="line2d_19">
      <g>
       <use style="stroke:#000000;stroke-width:0.85;" x="115.2" xlink:href="#md773f455fe" y="180.659757"/>
      </g>
     </g>
    </g>
    <g id="ytick_11">
     <g id="line2d_20">
      <g>
       <use style="stroke:#000000;stroke-width:0.85;" x="115.2" xlink:href="#md773f455fe" y="153.322616"/>
      </g>
     </g>
    </g>
    <g id="ytick_12">
     <g id="line2d_21">
      <g>
       <use style="stroke:#000000;stroke-width:0.85;" x="115.2" xlink:href="#md773f455fe" y="130.986546"/>
      </g>
     </g>
    </g>
    <g id="ytick_13">
     <g id="line2d_22">
      <g>
       <use style="stroke:#000000;stroke-width:0.85;" x="115.2" xlink:href="#md773f455fe" y="112.101667"/>
      </g>
     </g>
    </g>
    <g id="ytick_14">
     <g id="line2d_23">
      <g>
       <use style="stroke:#000000;stroke-width:0.85;" x="115.2" xlink:href="#md773f455fe" y="95.742842"/>
      </g>
     </g>
    </g>
    <g id="ytick_15">
     <g id="line2d_24">
      <g>
       <use style="stroke:#000000;stroke-width:0.85;" x="115.2" xlink:href="#md773f455fe" y="81.313334"/>
      </g>
     </g>
    </g>
   </g>
   <g id="line2d_25">
    <path clip-path="url(#p3e3a7ca0e0)" d="M 115.2 438.993097 
L 117.216 452.027222 
L 119.232 443.249136 
L 121.248 442.527717 
L 123.264 457.942747 
L 125.28 452.83241 
L 127.296 440.238144 
L 129.312 434.923886 
L 131.328 454.181503 
L 133.344 411.621145 
L 135.36 409.902041 
L 137.376 434.62651 
L 139.392 430.563207 
L 141.408 452.11705 
L 143.424 440.424338 
L 145.44 439.602629 
L 147.456 427.412859 
L 149.472 446.419068 
L 151.488 448.252818 
L 153.504 450.521216 
L 155.52 448.350812 
L 157.536 460.204593 
L 159.552 458.022286 
L 161.568 460.8 
L 163.584 450.012259 
L 165.6 454.330099 
L 167.616 452.294093 
L 169.632 453.759558 
L 171.648 450.94326 
L 173.664 450.073001 
L 175.68 451.430973 
L 177.696 449.008856 
L 179.712 444.942972 
L 181.728 446.394946 
L 183.744 445.956208 
L 187.776 444.227337 
L 189.792 442.774657 
L 191.808 421.822388 
L 193.824 429.496281 
L 195.84 424.697938 
L 197.856 420.572228 
L 199.872 423.939226 
L 201.888 411.504172 
L 203.904 416.306007 
L 205.92 418.198927 
L 207.936 387.781371 
L 209.952 395.884859 
L 211.968 396.711015 
L 213.984 384.232361 
L 216 366.343834 
L 218.016 383.156049 
L 220.032 362.807812 
L 222.048 381.55437 
L 224.064 331.00814 
L 226.08 384.337284 
L 228.096 374.120331 
L 230.112 348.837483 
L 232.128 336.110917 
L 234.144 273.177183 
L 236.16 306.37142 
L 238.176 310.389928 
L 240.192 342.826919 
L 242.208 364.752162 
L 244.224 349.991108 
L 246.24 343.731306 
L 248.256 377.055256 
L 250.272 365.088442 
L 252.288 295.7903 
L 254.304 368.522877 
L 256.32 362.462866 
L 258.336 357.150744 
L 260.352 354.026995 
L 262.368 297.383252 
L 264.384 285.390211 
L 266.4 291.218887 
L 268.416 278.030503 
L 270.432 351.350468 
L 272.448 356.952998 
L 274.464 355.57636 
L 276.48 350.480114 
L 278.496 348.511584 
L 280.512 345.612146 
L 282.528 337.877506 
L 284.544 339.252337 
L 286.56 332.120818 
L 288.576 327.296859 
L 290.592 320.862152 
L 292.608 318.475063 
L 294.624 315.809189 
L 296.64 309.495985 
L 302.688 287.8831 
L 306.72 272.140085 
L 308.736 264.580447 
L 310.752 258.026863 
L 312.768 249.436415 
L 314.784 241.975613 
L 316.8 232.932903 
L 320.832 219.655205 
L 322.848 211.180656 
L 324.864 204.80834 
L 328.896 193.391241 
L 330.912 186.890153 
L 332.928 181.474081 
L 340.992 161.312841 
L 343.008 156.361472 
L 345.024 152.096332 
L 349.056 142.963028 
L 351.072 140.088074 
L 353.088 135.976982 
L 355.104 131.588317 
L 357.12 129.797867 
L 359.136 126.701055 
L 361.152 123.08764 
L 363.168 120.988482 
L 365.184 116.936952 
L 367.2 114.138152 
L 371.232 109.819876 
L 373.248 107.350631 
L 375.264 104.43434 
L 377.28 102.81105 
L 379.296 100.51283 
L 383.328 96.344612 
L 385.344 93.682207 
L 389.376 91.479533 
L 393.408 88.239402 
L 399.456 84.076212 
L 403.488 80.801229 
L 407.52 78.469005 
L 409.536 77.296279 
L 411.552 75.993828 
L 413.568 74.93745 
L 415.584 74.156879 
L 419.616 72.051381 
L 421.632 71.324053 
L 423.648 70.36178 
L 427.68 68.943469 
L 429.696 68.557706 
L 435.744 66.955236 
L 439.776 65.932863 
L 441.792 65.24445 
L 445.824 64.711942 
L 447.84 64.213701 
L 451.872 63.721014 
L 453.888 63.338395 
L 455.904 62.127803 
L 457.92 62.92299 
L 459.936 62.243082 
L 461.952 62.052173 
L 463.968 61.379381 
L 465.984 61.61212 
L 468 61.21638 
L 470.016 61.271846 
L 472.032 60.710264 
L 474.048 60.726373 
L 476.064 60.919836 
L 478.08 60.524024 
L 480.096 60.350685 
L 482.112 59.698558 
L 484.128 59.647221 
L 488.16 58.816293 
L 490.176 58.458833 
L 492.192 58.556013 
L 494.208 58.074259 
L 498.24 57.80319 
L 500.256 57.840271 
L 502.272 57.742534 
L 506.304 58.218473 
L 508.32 57.718954 
L 510.336 58.066377 
L 512.352 58.084393 
L 516.384 57.6 
L 518.4 57.714463 
L 518.4 57.714463 
" style="fill:none;stroke:#1f77b4;stroke-linecap:square;stroke-width:0.85;"/>
   </g>
   <g id="patch_3">
    <path d="M 115.2 460.8 
L 115.2 57.6 
" style="fill:none;stroke:#000000;stroke-linecap:square;stroke-linejoin:miter;stroke-width:0.85;"/>
   </g>
   <g id="patch_4">
    <path d="M 518.4 460.8 
L 518.4 57.6 
" style="fill:none;stroke:#000000;stroke-linecap:square;stroke-linejoin:miter;stroke-width:0.85;"/>
   </g>
   <g id="patch_5">
    <path d="M 115.2 460.8 
L 518.4 460.8 
" style="fill:none;stroke:#000000;stroke-linecap:square;stroke-linejoin:miter;stroke-width:0.85;"/>
   </g>
   <g id="patch_6">
    <path d="M 115.2 57.6 
L 518.4 57.6 
" style="fill:none;stroke:#000000;stroke-linecap:square;stroke-linejoin:miter;stroke-width:0.85;"/>
   </g>
  </g>
 </g>
 <defs>
  <clipPath id="p3e3a7ca0e0">
   <rect height="403.2" width="403.2" x="115.2" y="57.6"/>
  </clipPath>
 </defs>
</svg>
