<?xml version="1.0" encoding="utf-8" standalone="no"?>
<!DOCTYPE svg PUBLIC "-//W3C//DTD SVG 1.1//EN"
  "http://www.w3.org/Graphics/SVG/1.1/DTD/svg11.dtd">
<!-- Created with matplotlib (https://matplotlib.org/) -->
<svg height="576pt" version="1.1" viewBox="0 0 576 576" width="576pt" xmlns="http://www.w3.org/2000/svg" xmlns:xlink="http://www.w3.org/1999/xlink">
 <defs>
  <style type="text/css">
*{stroke-linecap:butt;stroke-linejoin:round;}
  </style>
 </defs>
 <g id="figure_1">
  <g id="patch_1">
   <path d="M 0 576 
L 576 576 
L 576 0 
L 0 0 
z
" style="fill:none;"/>
  </g>
  <g id="axes_1">
   <g id="patch_2">
    <path d="M 115.2 460.8 
L 518.4 460.8 
L 518.4 57.6 
L 115.2 57.6 
z
" style="fill:none;"/>
   </g>
   <g id="matplotlib.axis_1">
    <g id="xtick_1">
     <g id="line2d_1">
      <defs>
       <path d="M 0 0 
L 0 3.5 
" id="md59999f6c4" style="stroke:#000000;stroke-width:0.85;"/>
      </defs>
      <g>
       <use style="stroke:#000000;stroke-width:0.85;" x="115.2" xlink:href="#md59999f6c4" y="460.8"/>
      </g>
     </g>
     <g id="text_1">
      <text style="font-family:Helvetica;font-size:7.5px;font-style:normal;font-weight:medium;text-anchor:middle;" transform="rotate(-0, 115.2, 473.180078)" x="115.2" y="473.180078">−100</text>
     </g>
    </g>
    <g id="xtick_2">
     <g id="line2d_2">
      <g>
       <use style="stroke:#000000;stroke-width:0.85;" x="165.6" xlink:href="#md59999f6c4" y="460.8"/>
      </g>
     </g>
     <g id="text_2">
      <text style="font-family:Helvetica;font-size:7.5px;font-style:normal;font-weight:medium;text-anchor:middle;" transform="rotate(-0, 165.6, 473.180078)" x="165.6" y="473.180078">−75</text>
     </g>
    </g>
    <g id="xtick_3">
     <g id="line2d_3">
      <g>
       <use style="stroke:#000000;stroke-width:0.85;" x="216" xlink:href="#md59999f6c4" y="460.8"/>
      </g>
     </g>
     <g id="text_3">
      <text style="font-family:Helvetica;font-size:7.5px;font-style:normal;font-weight:medium;text-anchor:middle;" transform="rotate(-0, 216, 473.180078)" x="216" y="473.180078">−50</text>
     </g>
    </g>
    <g id="xtick_4">
     <g id="line2d_4">
      <g>
       <use style="stroke:#000000;stroke-width:0.85;" x="266.4" xlink:href="#md59999f6c4" y="460.8"/>
      </g>
     </g>
     <g id="text_4">
      <text style="font-family:Helvetica;font-size:7.5px;font-style:normal;font-weight:medium;text-anchor:middle;" transform="rotate(-0, 266.4, 473.180078)" x="266.4" y="473.180078">−25</text>
     </g>
    </g>
    <g id="xtick_5">
     <g id="line2d_5">
      <g>
       <use style="stroke:#000000;stroke-width:0.85;" x="316.8" xlink:href="#md59999f6c4" y="460.8"/>
      </g>
     </g>
     <g id="text_5">
      <text style="font-family:Helvetica;font-size:7.5px;font-style:normal;font-weight:medium;text-anchor:middle;" transform="rotate(-0, 316.8, 473.180078)" x="316.8" y="473.180078">0</text>
     </g>
    </g>
    <g id="xtick_6">
     <g id="line2d_6">
      <g>
       <use style="stroke:#000000;stroke-width:0.85;" x="367.2" xlink:href="#md59999f6c4" y="460.8"/>
      </g>
     </g>
     <g id="text_6">
      <text style="font-family:Helvetica;font-size:7.5px;font-style:normal;font-weight:medium;text-anchor:middle;" transform="rotate(-0, 367.2, 473.180078)" x="367.2" y="473.180078">25</text>
     </g>
    </g>
    <g id="xtick_7">
     <g id="line2d_7">
      <g>
       <use style="stroke:#000000;stroke-width:0.85;" x="417.6" xlink:href="#md59999f6c4" y="460.8"/>
      </g>
     </g>
     <g id="text_7">
      <text style="font-family:Helvetica;font-size:7.5px;font-style:normal;font-weight:medium;text-anchor:middle;" transform="rotate(-0, 417.6, 473.180078)" x="417.6" y="473.180078">50</text>
     </g>
    </g>
    <g id="xtick_8">
     <g id="line2d_8">
      <g>
       <use style="stroke:#000000;stroke-width:0.85;" x="468" xlink:href="#md59999f6c4" y="460.8"/>
      </g>
     </g>
     <g id="text_8">
      <text style="font-family:Helvetica;font-size:7.5px;font-style:normal;font-weight:medium;text-anchor:middle;" transform="rotate(-0, 468, 473.180078)" x="468" y="473.180078">75</text>
     </g>
    </g>
    <g id="xtick_9">
     <g id="line2d_9">
      <g>
       <use style="stroke:#000000;stroke-width:0.85;" x="518.4" xlink:href="#md59999f6c4" y="460.8"/>
      </g>
     </g>
     <g id="text_9">
      <text style="font-family:Helvetica;font-size:7.5px;font-style:normal;font-weight:medium;text-anchor:middle;" transform="rotate(-0, 518.4, 473.180078)" x="518.4" y="473.180078">100</text>
     </g>
    </g>
   </g>
   <g id="matplotlib.axis_2">
    <g id="ytick_1">
     <g id="line2d_10">
      <defs>
       <path d="M 0 0 
L -3.5 0 
" id="m1618651d5f" style="stroke:#000000;stroke-width:0.85;"/>
      </defs>
      <g>
       <use style="stroke:#000000;stroke-width:0.85;" x="115.2" xlink:href="#m1618651d5f" y="208.147752"/>
      </g>
     </g>
     <g id="text_10">
      <!-- $\mathdefault{10^{-8}}$ -->
      <g transform="translate(93.575 210.837791)">
       <text>
        <tspan style="font-family:Helvetica;font-size:7.5px;font-style:regular;font-weight:regular;" x="0 4.171143" y="-0.5687500000000005">10</tspan>
        <tspan style="font-family:Helvetica;font-size:5.25px;font-style:regular;font-weight:regular;" x="8.410918 11.476836" y="-3.3140625000000004">−8</tspan>
       </text>
      </g>
     </g>
    </g>
    <g id="ytick_2">
     <g id="line2d_11">
      <defs>
       <path d="M 0 0 
L -1.8 0 
" id="ma04aa6a821" style="stroke:#000000;stroke-width:0.85;"/>
      </defs>
      <g>
       <use style="stroke:#000000;stroke-width:0.85;" x="115.2" xlink:href="#ma04aa6a821" y="406.852483"/>
      </g>
     </g>
    </g>
    <g id="ytick_3">
     <g id="line2d_12">
      <g>
       <use style="stroke:#000000;stroke-width:0.85;" x="115.2" xlink:href="#ma04aa6a821" y="356.792872"/>
      </g>
     </g>
    </g>
    <g id="ytick_4">
     <g id="line2d_13">
      <g>
       <use style="stroke:#000000;stroke-width:0.85;" x="115.2" xlink:href="#ma04aa6a821" y="321.275013"/>
      </g>
     </g>
    </g>
    <g id="ytick_5">
     <g id="line2d_14">
      <g>
       <use style="stroke:#000000;stroke-width:0.85;" x="115.2" xlink:href="#ma04aa6a821" y="293.725221"/>
      </g>
     </g>
    </g>
    <g id="ytick_6">
     <g id="line2d_15">
      <g>
       <use style="stroke:#000000;stroke-width:0.85;" x="115.2" xlink:href="#ma04aa6a821" y="271.215403"/>
      </g>
     </g>
    </g>
    <g id="ytick_7">
     <g id="line2d_16">
      <g>
       <use style="stroke:#000000;stroke-width:0.85;" x="115.2" xlink:href="#ma04aa6a821" y="252.183622"/>
      </g>
     </g>
    </g>
    <g id="ytick_8">
     <g id="line2d_17">
      <g>
       <use style="stroke:#000000;stroke-width:0.85;" x="115.2" xlink:href="#ma04aa6a821" y="235.697544"/>
      </g>
     </g>
    </g>
    <g id="ytick_9">
     <g id="line2d_18">
      <g>
       <use style="stroke:#000000;stroke-width:0.85;" x="115.2" xlink:href="#ma04aa6a821" y="221.155792"/>
      </g>
     </g>
    </g>
    <g id="ytick_10">
     <g id="line2d_19">
      <g>
       <use style="stroke:#000000;stroke-width:0.85;" x="115.2" xlink:href="#ma04aa6a821" y="122.570282"/>
      </g>
     </g>
    </g>
    <g id="ytick_11">
     <g id="line2d_20">
      <g>
       <use style="stroke:#000000;stroke-width:0.85;" x="115.2" xlink:href="#ma04aa6a821" y="72.510672"/>
      </g>
     </g>
    </g>
   </g>
   <g id="line2d_21">
    <path clip-path="url(#p6494be559a)" d="M 115.2 454.558032 
L 117.216 460.8 
L 119.232 454.467217 
L 121.248 454.648913 
L 123.264 456.020222 
L 127.296 454.195174 
L 129.312 423.762587 
L 131.328 439.60311 
L 133.344 421.865833 
L 135.36 454.104626 
L 137.376 455.928326 
L 139.392 448.184375 
L 141.408 446.215785 
L 143.424 439.522652 
L 145.44 446.130902 
L 147.456 437.528066 
L 149.472 436.975309 
L 151.488 432.564094 
L 153.504 431.428975 
L 155.52 430.827819 
L 157.536 428.305066 
L 159.552 428.378534 
L 161.568 430.453577 
L 163.584 434.866128 
L 165.6 419.586467 
L 167.616 425.545208 
L 169.632 422.424803 
L 171.648 416.411067 
L 173.664 416.54454 
L 175.68 415.613247 
L 177.696 412.278879 
L 179.712 414.491756 
L 181.728 415.018248 
L 183.744 405.929971 
L 185.76 408.03098 
L 187.776 402.903786 
L 189.792 398.672397 
L 191.808 402.545578 
L 193.824 397.23644 
L 195.84 395.591388 
L 197.856 393.247098 
L 199.872 389.436234 
L 201.888 386.156412 
L 203.904 378.71149 
L 205.92 381.696217 
L 207.936 372.762666 
L 209.952 373.044008 
L 211.968 368.572423 
L 213.984 366.329225 
L 218.016 353.623876 
L 220.032 352.029765 
L 222.048 343.797179 
L 224.064 339.466005 
L 226.08 334.043221 
L 228.096 328.194006 
L 230.112 324.179405 
L 232.128 314.899026 
L 234.144 312.030716 
L 236.16 305.749494 
L 238.176 301.996555 
L 240.192 299.435766 
L 242.208 289.836327 
L 244.224 284.934249 
L 250.272 274.383411 
L 252.288 269.905447 
L 256.32 261.847066 
L 258.336 258.256757 
L 260.352 254.426186 
L 262.368 252.536876 
L 264.384 247.646988 
L 266.4 244.856574 
L 268.416 243.38608 
L 270.432 241.091692 
L 272.448 238.239066 
L 274.464 235.836517 
L 276.48 233.996281 
L 278.496 231.958282 
L 280.512 230.455259 
L 282.528 227.546348 
L 284.544 226.238641 
L 286.56 223.860211 
L 288.576 222.105983 
L 290.592 220.703925 
L 292.608 218.939762 
L 294.624 216.935028 
L 296.64 216.709865 
L 298.656 214.402583 
L 302.688 211.870134 
L 304.704 209.863396 
L 306.72 208.642591 
L 308.736 206.760453 
L 310.752 207.446016 
L 312.768 204.738323 
L 314.784 204.258858 
L 316.8 202.253421 
L 318.816 202.041731 
L 320.832 200.604817 
L 322.848 198.874819 
L 324.864 196.268361 
L 326.88 195.552766 
L 328.896 194.431837 
L 330.912 193.518236 
L 332.928 190.495848 
L 334.944 189.695839 
L 336.96 187.149269 
L 338.976 186.370587 
L 340.992 184.317798 
L 343.008 182.921014 
L 345.024 180.380858 
L 347.04 179.535829 
L 349.056 176.431827 
L 351.072 174.762496 
L 353.088 172.762686 
L 355.104 169.334611 
L 357.12 167.331414 
L 359.136 164.759284 
L 361.152 162.759992 
L 363.168 158.897408 
L 365.184 156.023112 
L 367.2 152.276232 
L 369.216 149.627211 
L 371.232 147.788727 
L 375.264 141.918325 
L 377.28 139.338883 
L 379.296 136.086936 
L 381.312 134.17339 
L 385.344 128.623966 
L 387.36 126.802682 
L 389.376 124.054542 
L 391.392 122.56411 
L 393.408 120.890332 
L 395.424 118.179945 
L 397.44 116.264665 
L 399.456 114.621508 
L 401.472 112.327671 
L 403.488 110.892902 
L 407.52 107.20273 
L 409.536 105.658993 
L 411.552 103.693809 
L 413.568 102.580983 
L 415.584 100.912197 
L 417.6 99.562476 
L 419.616 98.374424 
L 421.632 96.921554 
L 423.648 95.674098 
L 425.664 93.963256 
L 427.68 92.72095 
L 429.696 91.117241 
L 431.712 90.178216 
L 433.728 89.109682 
L 435.744 87.240847 
L 439.776 84.962102 
L 441.792 83.752634 
L 445.824 81.634249 
L 447.84 80.417298 
L 449.856 79.808925 
L 453.888 77.327928 
L 455.904 76.704747 
L 457.92 75.653349 
L 459.936 74.87483 
L 461.952 73.880442 
L 463.968 72.588889 
L 468 71.31886 
L 470.016 70.725212 
L 472.032 69.904513 
L 474.048 68.893246 
L 476.064 68.096507 
L 478.08 67.001448 
L 480.096 66.808744 
L 482.112 65.896511 
L 484.128 65.23128 
L 486.144 64.987096 
L 488.16 64.38452 
L 490.176 63.539701 
L 492.192 63.03557 
L 494.208 62.769061 
L 502.272 60.668665 
L 504.288 59.600206 
L 506.304 60.131418 
L 508.32 59.581673 
L 512.352 58.908974 
L 514.368 58.335277 
L 516.384 58.162954 
L 518.4 57.6 
L 518.4 57.6 
" style="fill:none;stroke:#1f77b4;stroke-linecap:square;stroke-width:0.85;"/>
   </g>
   <g id="patch_3">
    <path d="M 115.2 460.8 
L 115.2 57.6 
" style="fill:none;stroke:#000000;stroke-linecap:square;stroke-linejoin:miter;stroke-width:0.85;"/>
   </g>
   <g id="patch_4">
    <path d="M 518.4 460.8 
L 518.4 57.6 
" style="fill:none;stroke:#000000;stroke-linecap:square;stroke-linejoin:miter;stroke-width:0.85;"/>
   </g>
   <g id="patch_5">
    <path d="M 115.2 460.8 
L 518.4 460.8 
" style="fill:none;stroke:#000000;stroke-linecap:square;stroke-linejoin:miter;stroke-width:0.85;"/>
   </g>
   <g id="patch_6">
    <path d="M 115.2 57.6 
L 518.4 57.6 
" style="fill:none;stroke:#000000;stroke-linecap:square;stroke-linejoin:miter;stroke-width:0.85;"/>
   </g>
  </g>
 </g>
 <defs>
  <clipPath id="p6494be559a">
   <rect height="403.2" width="403.2" x="115.2" y="57.6"/>
  </clipPath>
 </defs>
</svg>
