<?xml version="1.0" encoding="utf-8" standalone="no"?>
<!DOCTYPE svg PUBLIC "-//W3C//DTD SVG 1.1//EN"
  "http://www.w3.org/Graphics/SVG/1.1/DTD/svg11.dtd">
<!-- Created with matplotlib (https://matplotlib.org/) -->
<svg height="184.96pt" version="1.1" viewBox="0 0 458.08 184.96" width="458.08pt" xmlns="http://www.w3.org/2000/svg" xmlns:xlink="http://www.w3.org/1999/xlink">
 <defs>
  <style type="text/css">
*{stroke-linecap:butt;stroke-linejoin:round;}
  </style>
 </defs>
 <g id="figure_1">
  <g id="patch_1">
   <path d="M 0 184.96 
L 458.08 184.96 
L 458.08 0 
L 0 0 
z
" style="fill:none;"/>
  </g>
  <g id="axes_1">
   <g id="patch_2">
    <path d="M 16.249844 152.620156 
L 444.260078 152.620156 
L 444.260078 3.6 
L 16.249844 3.6 
z
" style="fill:none;"/>
   </g>
   <g id="matplotlib.axis_1">
    <g id="xtick_1">
     <g id="line2d_1">
      <defs>
       <path d="M 0 0 
L 0 3.5 
" id="m00ad3dffd5" style="stroke:#000000;stroke-width:0.8;"/>
      </defs>
      <g>
       <use style="stroke:#000000;stroke-width:0.8;" x="50.040125" xlink:href="#m00ad3dffd5" y="152.620156"/>
      </g>
     </g>
     <g id="text_1">
      <text style="font-family:Verdana;font-size:9px;font-style:normal;font-weight:normal;text-anchor:middle;" transform="rotate(-0, 50.040125, 166.45875)" x="50.040125" y="166.45875">5.0</text>
     </g>
    </g>
    <g id="xtick_2">
     <g id="line2d_2">
      <g>
       <use style="stroke:#000000;stroke-width:0.8;" x="106.357262" xlink:href="#m00ad3dffd5" y="152.620156"/>
      </g>
     </g>
     <g id="text_2">
      <text style="font-family:Verdana;font-size:9px;font-style:normal;font-weight:normal;text-anchor:middle;" transform="rotate(-0, 106.357262, 166.45875)" x="106.357262" y="166.45875">7.5</text>
     </g>
    </g>
    <g id="xtick_3">
     <g id="line2d_3">
      <g>
       <use style="stroke:#000000;stroke-width:0.8;" x="162.674398" xlink:href="#m00ad3dffd5" y="152.620156"/>
      </g>
     </g>
     <g id="text_3">
      <text style="font-family:Verdana;font-size:9px;font-style:normal;font-weight:normal;text-anchor:middle;" transform="rotate(-0, 162.674398, 166.45875)" x="162.674398" y="166.45875">10.0</text>
     </g>
    </g>
    <g id="xtick_4">
     <g id="line2d_4">
      <g>
       <use style="stroke:#000000;stroke-width:0.8;" x="218.991534" xlink:href="#m00ad3dffd5" y="152.620156"/>
      </g>
     </g>
     <g id="text_4">
      <text style="font-family:Verdana;font-size:9px;font-style:normal;font-weight:normal;text-anchor:middle;" transform="rotate(-0, 218.991534, 166.45875)" x="218.991534" y="166.45875">12.5</text>
     </g>
    </g>
    <g id="xtick_5">
     <g id="line2d_5">
      <g>
       <use style="stroke:#000000;stroke-width:0.8;" x="275.30867" xlink:href="#m00ad3dffd5" y="152.620156"/>
      </g>
     </g>
     <g id="text_5">
      <text style="font-family:Verdana;font-size:9px;font-style:normal;font-weight:normal;text-anchor:middle;" transform="rotate(-0, 275.30867, 166.45875)" x="275.30867" y="166.45875">15.0</text>
     </g>
    </g>
    <g id="xtick_6">
     <g id="line2d_6">
      <g>
       <use style="stroke:#000000;stroke-width:0.8;" x="331.625806" xlink:href="#m00ad3dffd5" y="152.620156"/>
      </g>
     </g>
     <g id="text_6">
      <text style="font-family:Verdana;font-size:9px;font-style:normal;font-weight:normal;text-anchor:middle;" transform="rotate(-0, 331.625806, 166.45875)" x="331.625806" y="166.45875">17.5</text>
     </g>
    </g>
    <g id="xtick_7">
     <g id="line2d_7">
      <g>
       <use style="stroke:#000000;stroke-width:0.8;" x="387.942942" xlink:href="#m00ad3dffd5" y="152.620156"/>
      </g>
     </g>
     <g id="text_7">
      <text style="font-family:Verdana;font-size:9px;font-style:normal;font-weight:normal;text-anchor:middle;" transform="rotate(-0, 387.942942, 166.45875)" x="387.942942" y="166.45875">20.0</text>
     </g>
    </g>
    <g id="xtick_8">
     <g id="line2d_8">
      <g>
       <use style="stroke:#000000;stroke-width:0.8;" x="444.260078" xlink:href="#m00ad3dffd5" y="152.620156"/>
      </g>
     </g>
     <g id="text_8">
      <text style="font-family:Verdana;font-size:9px;font-style:normal;font-weight:normal;text-anchor:middle;" transform="rotate(-0, 444.260078, 166.45875)" x="444.260078" y="166.45875">22.5</text>
     </g>
    </g>
    <g id="text_9">
     <!-- $|q|$ (nm) -->
     <g transform="translate(211.444961 179.2)">
      <text>
       <tspan style="font-family:DejaVu Sans;font-size:9px;font-style:book;font-weight:book;" x="0 8.745117" y="-0.125">||</tspan>
       <tspan style="font-family:DejaVu Sans;font-size:9px;font-style:oblique;font-weight:oblique;" x="3.032227" y="-0.125">q</tspan>
       <tspan style="font-family:Verdana;font-size:9px;font-style:regular;font-weight:regular;" x="11.777344 14.941406 19.02832 24.723633 33.477539" y="-0.125"> (nm)</tspan>
      </text>
     </g>
    </g>
   </g>
   <g id="matplotlib.axis_2">
    <g id="text_10">
     <text style="font-family:Verdana;font-size:9px;font-style:normal;font-weight:normal;text-anchor:middle;" transform="rotate(-90, 10.438594, 78.110078)" x="10.438594" y="78.110078">Intensity (a.u.)</text>
    </g>
   </g>
   <g id="line2d_9">
    <path clip-path="url(#p0f68f6bf74)" d="M 15.911941 91.443404 
L 16.452585 89.615295 
L 16.99323 91.574241 
L 17.533874 88.531241 
L 18.074519 84.049559 
L 18.63769 77.668844 
L 19.178335 66.832262 
L 19.718979 51.606775 
L 20.259624 28.081626 
L 20.755342 -1 
M 24.531397 -1 
L 24.629834 1.616384 
L 25.170478 9.723887 
L 25.711123 11.286004 
L 26.251767 13.726536 
L 26.814938 32.028769 
L 27.355583 34.187363 
L 28.436872 45.605003 
L 28.977517 49.768886 
L 31.703266 79.234838 
L 32.807082 87.0693 
L 33.347726 89.459876 
L 33.888371 92.620587 
L 34.429015 94.995833 
L 34.992187 98.314869 
L 35.532831 98.114869 
L 36.073476 97.111167 
L 37.154765 93.504465 
L 37.717936 91.936268 
L 38.258581 92.641556 
L 38.799225 94.75081 
L 40.98433 112.72802 
L 41.524974 115.158245 
L 42.065619 116.66274 
L 42.606263 117.427411 
L 43.169435 118.563625 
L 43.710079 119.084595 
L 44.250724 119.226974 
L 45.332013 120.024332 
L 45.895184 119.798605 
L 46.976473 120.281601 
L 47.517118 120.763804 
L 48.057762 120.579046 
L 49.161578 120.469267 
L 49.702223 121.202924 
L 50.242867 121.510502 
L 50.783512 121.328387 
L 51.346683 121.62592 
L 51.887327 121.311647 
L 52.968616 121.355083 
L 53.509261 121.553145 
L 54.072432 121.460898 
L 54.613077 121.20821 
L 55.153721 121.920635 
L 55.694366 122.077375 
L 56.23501 121.551911 
L 56.798182 122.028476 
L 57.879471 122.244247 
L 58.420115 122.104864 
L 58.96076 122.182045 
L 59.523931 121.766273 
L 60.064576 121.863806 
L 60.60522 122.141516 
L 61.145865 121.873322 
L 61.686509 121.740194 
L 62.249681 121.833322 
L 63.33097 121.130765 
L 63.871614 120.420192 
L 64.412259 120.268121 
L 64.97543 120.79799 
L 65.516074 121.140809 
L 66.056719 121.77341 
L 66.597363 121.768123 
L 67.138008 122.065304 
L 68.241824 122.150767 
L 69.323113 121.795965 
L 69.863757 122.121164 
L 70.967573 121.707418 
L 72.048862 122.157904 
L 73.152678 121.723806 
L 73.693323 121.855965 
L 74.774612 121.622484 
L 75.315256 121.667506 
L 76.419072 120.919576 
L 76.959716 120.729619 
L 77.500361 120.765302 
L 78.604177 120.088385 
L 79.144821 118.573316 
L 79.685466 115.836219 
L 80.22611 107.495765 
L 80.766755 86.093439 
L 81.329926 51.584748 
L 81.870571 29.243742 
L 82.411215 39.628782 
L 83.492504 89.75926 
L 84.055676 102.995846 
L 84.59632 109.02123 
L 85.136965 111.976037 
L 85.677609 113.660709 
L 86.218254 113.975247 
L 86.781425 114.116393 
L 87.32207 114.862209 
L 87.862714 115.107936 
L 88.403359 114.609081 
L 88.944003 113.523 
L 89.507174 111.863966 
L 90.588463 107.981052 
L 91.129108 106.437349 
L 91.669752 106.051974 
L 92.232924 106.322459 
L 94.395502 113.311105 
L 94.958673 114.267142 
L 96.580607 115.087407 
L 97.121251 115.862915 
L 97.661896 115.631109 
L 99.306356 115.895603 
L 99.847001 115.942475 
L 100.950816 116.791992 
L 101.491461 116.920626 
L 103.113394 116.851816 
L 103.676566 117.047499 
L 104.21721 117.353931 
L 105.298499 117.003446 
L 106.94296 117.726619 
L 107.483604 117.499218 
L 108.024249 117.486178 
L 108.564893 117.337191 
L 109.128065 117.056662 
L 109.668709 117.231111 
L 110.209354 117.653403 
L 111.290643 118.050232 
L 111.853814 117.825738 
L 113.475748 117.855077 
L 114.016392 117.740804 
L 115.120208 117.883271 
L 115.660852 117.798249 
L 116.201497 118.026003 
L 116.742141 117.499394 
L 117.845957 117.432786 
L 118.386602 117.205385 
L 118.927246 116.799128 
L 119.467891 116.79067 
L 120.571707 117.248204 
L 121.652996 117.231023 
L 122.19364 117.24838 
L 122.756812 116.95534 
L 123.838101 117.216662 
L 124.91939 116.761595 
L 125.482561 117.04979 
L 127.104494 116.332608 
L 128.20831 116.179039 
L 128.748955 115.984149 
L 129.289599 115.520095 
L 129.830244 115.255249 
L 130.93406 115.350404 
L 131.474704 115.141152 
L 132.555993 114.598332 
L 133.096638 114.651107 
L 133.659809 113.988727 
L 135.281743 112.914981 
L 136.385558 111.428547 
L 137.466847 109.33383 
L 138.007492 109.07145 
L 138.548137 108.974358 
L 139.111308 109.47753 
L 140.733241 111.905288 
L 141.273886 112.077711 
L 141.837057 112.090751 
L 142.377702 112.288724 
L 142.918346 112.297006 
L 143.458991 111.916301 
L 143.999635 111.097621 
L 144.562807 110.772246 
L 145.103451 109.887135 
L 146.18474 109.519028 
L 146.725385 109.565636 
L 147.288556 109.437354 
L 147.829201 109.1659 
L 148.369845 108.154356 
L 148.91049 108.020083 
L 149.451134 107.208628 
L 150.55495 105.122281 
L 151.095594 105.090034 
L 152.176883 106.094617 
L 152.740055 107.003694 
L 153.280699 106.978055 
L 153.821344 107.113474 
L 154.361988 106.403252 
L 154.902633 106.095587 
L 155.465804 105.292149 
L 157.628382 101.219191 
L 158.191554 100.385093 
L 158.732198 99.098571 
L 159.272843 98.160948 
L 159.813487 97.77108 
L 160.354132 98.077071 
L 160.917303 98.705178 
L 161.457947 100.323242 
L 163.643052 109.854624 
L 164.183697 111.053304 
L 164.724341 111.543789 
L 165.80563 111.45815 
L 166.909446 110.89022 
L 167.450091 110.499823 
L 168.53138 108.991186 
L 169.094551 108.788895 
L 169.635196 108.861759 
L 170.716485 108.568542 
L 172.360945 106.683869 
L 172.90159 106.541314 
L 174.54605 105.800432 
L 175.086694 105.85541 
L 175.627339 106.381843 
L 176.167983 106.483164 
L 176.708628 106.751799 
L 177.271799 106.71735 
L 178.353088 107.304663 
L 179.434377 108.153035 
L 179.997549 108.409687 
L 180.538193 108.251361 
L 181.078838 108.779203 
L 181.619482 108.71797 
L 182.160127 108.852331 
L 184.345232 108.54211 
L 185.449047 107.871096 
L 186.530336 108.057881 
L 187.070981 107.77277 
L 188.174797 106.7029 
L 189.79673 104.499196 
L 190.900546 101.785624 
L 191.441191 101.303773 
L 191.981835 101.033816 
L 192.52248 100.970292 
L 193.626296 100.999807 
L 194.16694 100.914168 
L 194.707585 100.970028 
L 195.248229 100.841393 
L 195.788874 101.080688 
L 196.352045 101.063332 
L 198.514623 101.873025 
L 199.077794 101.815668 
L 200.159083 101.292671 
L 200.699728 101.143684 
L 201.240372 100.496723 
L 201.803544 100.337163 
L 202.344188 99.90888 
L 202.884833 99.811788 
L 203.425477 99.573197 
L 203.966122 98.785442 
L 205.069938 97.8013 
L 206.151227 96.411077 
L 206.691871 96.194865 
L 207.232516 95.572221 
L 207.795687 95.277067 
L 208.336332 94.729312 
L 208.876976 93.883496 
L 209.417621 93.31583 
L 210.521436 91.747105 
L 211.062081 90.276882 
L 211.602725 87.74331 
L 213.247186 76.401265 
L 213.78783 71.337115 
L 214.328475 64.735607 
L 214.869119 59.576832 
L 215.409764 56.85436 
L 215.972935 60.043793 
L 216.51358 63.770671 
L 217.054224 66.645742 
L 218.135513 68.873235 
L 218.698685 72.047777 
L 219.779974 82.839601 
L 220.320618 85.922602 
L 220.861263 87.314763 
L 221.424434 87.18234 
L 222.505723 83.861453 
L 223.587012 78.107171 
L 225.772117 63.001507 
L 226.312761 60.653486 
L 226.875933 59.784762 
L 227.416577 59.479034 
L 227.957222 60.062295 
L 228.497866 61.09842 
L 229.601682 64.621157 
L 230.142327 67.719929 
L 231.76426 79.646733 
L 232.327432 81.244709 
L 232.868076 82.12286 
L 233.949365 81.059422 
L 234.49001 80.101271 
L 235.053181 79.68964 
L 235.593825 80.298804 
L 236.13447 81.245061 
L 237.215759 83.528765 
L 237.77893 84.257577 
L 238.319575 84.761014 
L 238.860219 85.096786 
L 239.400864 85.098195 
L 239.941508 84.739076 
L 240.50468 84.778635 
L 241.045324 84.26815 
L 241.585969 83.599691 
L 242.667258 81.635282 
L 243.230429 81.248585 
L 243.771074 81.469996 
L 244.311718 80.934664 
L 244.852363 80.61343 
L 245.393007 80.638893 
L 246.496823 81.558894 
L 247.037467 81.63819 
L 247.578112 81.531846 
L 248.118757 81.64004 
L 248.681928 81.607 
L 249.222572 81.362242 
L 249.763217 80.717836 
L 250.303861 80.663562 
L 250.844506 80.864091 
L 251.407677 80.790083 
L 251.948322 80.270346 
L 255.214716 79.274397 
L 257.399821 76.604701 
L 259.584925 74.439323 
L 260.12557 73.855446 
L 260.666214 73.575798 
L 261.206859 73.625225 
L 261.747503 73.421877 
L 262.851319 74.058265 
L 263.391964 74.71113 
L 263.932608 74.484962 
L 264.473253 74.81254 
L 265.577069 74.505755 
L 266.117713 74.729456 
L 267.199002 74.540381 
L 267.762174 74.245843 
L 268.302818 74.340468 
L 268.843463 74.178882 
L 269.384107 73.763904 
L 271.028567 73.439586 
L 272.109856 72.77747 
L 272.650501 72.814915 
L 273.213672 72.728748 
L 274.294961 71.563019 
L 274.835606 70.98804 
L 277.020711 69.975087 
L 277.561355 69.981959 
L 278.102 70.356321 
L 279.74646 70.967688 
L 280.287105 71.033943 
L 280.827749 70.976762 
L 281.390921 71.480464 
L 282.47221 71.507688 
L 283.553499 71.558702 
L 284.11667 71.89879 
L 284.657314 71.618702 
L 285.738603 71.640464 
L 286.279248 71.36434 
L 287.383064 71.015617 
L 287.923708 71.167247 
L 289.568169 70.409449 
L 290.108813 70.608832 
L 291.190102 69.56839 
L 291.730747 69.626188 
L 292.293918 69.503104 
L 292.834563 69.677201 
L 296.100956 69.571914 
L 297.182245 69.644778 
L 297.745417 69.466452 
L 298.286061 68.807508 
L 298.826706 69.002398 
L 299.36735 68.977464 
L 299.907995 68.814732 
L 300.471166 68.853499 
L 301.552455 67.911559 
L 302.633744 67.875171 
L 303.196916 67.738079 
L 303.73756 68.094908 
L 305.359494 68.639314 
L 307.003954 70.168744 
L 307.544599 70.174294 
L 308.085243 70.7913 
L 308.625888 70.794383 
L 309.189059 70.579229 
L 309.729703 70.628392 
L 310.270348 70.497114 
L 310.810992 70.575616 
L 311.351637 70.858965 
L 311.914808 70.697467 
L 312.455453 70.698084 
L 312.996097 70.980199 
L 314.077386 71.076234 
L 314.640558 70.758612 
L 315.721847 71.583548 
L 316.803136 71.410684 
L 317.366307 71.855002 
L 317.906952 71.947072 
L 318.447596 71.72575 
L 318.988241 71.665662 
L 319.528885 72.467249 
L 320.092056 72.651126 
L 321.173345 73.386282 
L 321.71399 73.203815 
L 322.254634 73.473859 
L 323.35845 72.379056 
L 323.899095 72.550686 
L 324.439739 71.896676 
L 326.0842 67.965392 
L 327.706133 65.304154 
L 328.809949 63.817367 
L 329.350594 62.760978 
L 329.891238 62.15481 
L 330.431883 61.305469 
L 330.995054 60.897539 
L 331.535699 60.717803 
L 332.076343 61.082561 
L 333.157632 61.254368 
L 333.720803 61.443795 
L 334.261448 61.370667 
L 335.342737 62.589172 
L 335.883381 64.075518 
L 336.987197 67.855964 
L 337.527842 68.826979 
L 338.068486 70.245396 
L 338.609131 71.168921 
L 339.172302 71.606984 
L 339.712947 72.523637 
L 340.794236 73.919234 
L 341.33488 74.629456 
L 341.898052 75.071835 
L 342.979341 76.688666 
L 343.519985 77.692544 
L 344.623801 78.957128 
L 345.164445 80.023121 
L 345.70509 80.82832 
L 346.245734 81.420039 
L 346.786379 82.321627 
L 349.512128 84.017665 
L 350.0753 83.949119 
L 350.615944 83.527532 
L 351.156589 83.75555 
L 351.697233 83.275461 
L 352.237878 83.138456 
L 353.882338 82.477662 
L 354.422983 82.423653 
L 355.526798 81.827353 
L 357.689377 81.654489 
L 358.252548 81.564886 
L 358.793192 81.812551 
L 359.333837 81.439775 
L 359.874481 80.794488 
L 360.415126 80.588937 
L 360.978297 79.993605 
L 361.518942 79.593252 
L 362.059586 78.718713 
L 362.600231 77.224614 
L 363.704047 71.840729 
L 364.785336 62.536308 
L 365.866625 58.619121 
L 366.970441 55.184754 
L 367.511085 52.620873 
L 368.592374 49.092233 
L 369.155545 50.345099 
L 369.69619 53.848188 
L 370.236834 56.434977 
L 370.777479 60.271106 
L 371.881295 63.131023 
L 372.421939 64.258778 
L 372.962584 65.664595 
L 373.503228 71.786191 
L 374.607044 79.694134 
L 375.147689 83.163655 
L 375.688333 85.584187 
L 376.228978 87.276613 
L 377.332794 88.635029 
L 377.873438 89.178731 
L 378.954727 89.834326 
L 379.495372 89.543753 
L 380.599187 89.592916 
L 381.139832 89.910097 
L 381.680476 89.67415 
L 382.221121 89.309568 
L 383.865581 87.629213 
L 388.776436 78.747788 
L 389.31708 78.319241 
L 389.857725 77.636245 
L 390.961541 77.129019 
L 391.502185 77.47228 
L 392.04283 77.6788 
L 392.583474 77.59413 
L 393.124119 77.731663 
L 394.227934 78.821357 
L 395.309223 80.972109 
L 397.494328 86.345246 
L 398.034973 86.946216 
L 398.575617 88.115821 
L 401.301367 91.231597 
L 402.405183 91.632655 
L 402.945827 92.142084 
L 403.486472 92.313714 
L 404.027116 92.196357 
L 405.130932 91.650453 
L 405.671576 91.127192 
L 406.212221 90.239525 
L 406.752865 89.968776 
L 407.316037 89.525956 
L 407.856681 89.558555 
L 408.93797 89.179083 
L 410.041786 87.949125 
L 410.582431 87.56049 
L 411.123075 87.388243 
L 411.66372 87.747451 
L 412.767536 89.521727 
L 413.30818 91.10402 
L 416.03393 96.059535 
L 416.574574 96.75284 
L 417.115219 97.763238 
L 417.655863 98.106939 
L 419.300323 99.46095 
L 419.840968 99.820158 
L 420.922257 100.247912 
L 421.485428 100.099982 
L 422.026073 100.128264 
L 422.566717 100.277692 
L 423.107362 100.705093 
L 427.477572 101.648971 
L 428.018216 101.613377 
L 430.743965 102.083333 
L 431.28461 102.053113 
L 431.825254 101.844743 
L 432.388426 101.848091 
L 432.92907 102.111439 
L 433.469715 102.045976 
L 434.010359 102.170734 
L 436.195464 101.84069 
L 436.736109 102.094787 
L 437.839925 102.217166 
L 438.921214 102.730295 
L 439.461858 102.810823 
L 440.002503 102.739282 
L 441.106319 102.936727 
L 442.187608 103.261573 
L 442.728252 103.667036 
L 443.291423 103.733556 
L 443.832068 103.642895 
L 444.372712 103.712939 
L 444.372712 103.712939 
" style="fill:none;stroke:#1f77b4;stroke-linecap:square;"/>
   </g>
   <g id="line2d_10">
    <path clip-path="url(#p0f68f6bf74)" d="M 16.930525 78.110078 
L 17.634283 77.733033 
L 19.041799 77.454257 
L 19.745558 77.251462 
L 20.449316 76.836409 
L 23.264348 76.215815 
L 24.671865 76.203912 
L 25.375623 76.502298 
L 27.486897 76.877701 
L 28.190655 77.178093 
L 28.894414 76.877701 
L 30.30193 76.766524 
L 31.005688 76.734336 
L 31.709446 76.459641 
L 32.413204 76.335492 
L 33.820721 75.520363 
L 34.524479 74.731526 
L 35.228237 74.554528 
L 35.931995 73.572262 
L 37.339512 72.970362 
L 38.04327 73.146399 
L 38.747028 72.970362 
L 39.450786 73.146399 
L 40.154544 73.948257 
L 40.858302 74.375006 
L 42.265819 75.930235 
L 42.969577 76.262324 
L 43.673335 76.91058 
L 44.377093 76.91058 
L 45.080851 76.771264 
L 45.784609 76.771264 
L 47.192126 77.179481 
L 48.599642 77.178008 
L 49.3034 76.942473 
L 50.007158 76.942473 
L 51.414675 77.10686 
L 52.822191 77.190695 
L 53.525949 77.419559 
L 54.229707 77.494035 
L 57.04474 77.394397 
L 57.748498 77.394397 
L 58.452256 77.604148 
L 59.156014 77.443758 
L 59.859773 77.604148 
L 61.267289 77.393571 
L 67.601112 77.4847 
L 69.712387 77.707354 
L 71.823661 77.489677 
L 74.638694 77.570218 
L 75.342452 77.288164 
L 76.749968 77.276928 
L 77.453726 77.068803 
L 78.157485 76.593073 
L 79.565001 76.415605 
L 82.380034 75.433696 
L 84.491308 75.343135 
L 85.195066 74.843371 
L 85.898824 74.701546 
L 86.602583 73.37954 
L 87.306341 73.341686 
L 88.010099 73.128709 
L 88.713857 72.58973 
L 90.121373 72.56542 
L 90.825131 73.501789 
L 92.232648 73.646592 
L 92.936406 74.129768 
L 93.640164 75.327274 
L 94.343922 75.70359 
L 96.455197 76.260946 
L 98.566471 76.308114 
L 99.270229 76.386902 
L 99.973987 76.619815 
L 100.677746 76.619815 
L 102.085262 76.438764 
L 104.900295 76.659893 
L 105.604053 76.384828 
L 106.307811 74.244591 
L 107.011569 74.211152 
L 107.715327 71.881101 
L 108.419085 71.352977 
L 109.122844 71.352977 
L 111.234118 71.845403 
L 111.937876 72.962972 
L 112.641634 72.962972 
L 113.345392 71.954367 
L 114.049151 71.806943 
L 115.456667 71.851945 
L 116.160425 72.382381 
L 116.864183 72.767824 
L 117.567941 72.978442 
L 118.2717 72.978442 
L 118.975458 72.144257 
L 119.679216 72.144257 
L 120.382974 72.527734 
L 121.79049 72.527734 
L 122.494249 72.911059 
L 123.198007 72.911059 
L 123.901765 71.92729 
L 124.605523 71.92729 
L 125.309281 72.340722 
L 126.013039 72.369708 
L 126.716797 72.787679 
L 127.420556 73.031813 
L 128.124314 73.8024 
L 128.828072 73.8024 
L 129.53183 73.34172 
L 130.939346 72.767921 
L 131.643105 72.690452 
L 132.346863 72.767921 
L 133.050621 72.980417 
L 133.754379 72.980417 
L 134.458137 72.673161 
L 135.161895 72.673161 
L 135.865654 72.880531 
L 139.384444 73.215353 
L 140.791961 73.139544 
L 141.495719 73.166278 
L 142.199477 73.519906 
L 142.903235 73.740371 
L 143.606993 74.28373 
L 144.310751 74.28373 
L 145.01451 73.977499 
L 147.125784 73.95159 
L 147.829542 73.332207 
L 149.940817 73.310431 
L 150.644575 72.272748 
L 151.348333 72.144756 
L 152.755849 70.191695 
L 153.459607 69.792287 
L 154.163366 69.701797 
L 154.867124 69.2066 
L 156.978398 68.929805 
L 157.682156 69.006281 
L 159.793431 71.050747 
L 160.497189 72.096281 
L 161.904705 72.202205 
L 162.608463 71.699506 
L 163.312222 71.699506 
L 164.01598 72.4748 
L 164.719738 72.730644 
L 165.423496 72.730644 
L 166.831012 72.371013 
L 167.534771 71.601905 
L 168.238529 71.588787 
L 168.942287 71.353846 
L 169.646045 71.353846 
L 170.349803 71.715768 
L 171.053561 71.715768 
L 172.461078 70.570443 
L 173.164836 70.540713 
L 173.868594 70.227021 
L 174.572352 70.227021 
L 175.27611 70.698298 
L 175.979868 71.608902 
L 176.683627 71.608902 
L 178.091143 71.291876 
L 178.794901 70.896228 
L 179.498659 70.896228 
L 180.906176 71.342876 
L 181.609934 71.151815 
L 183.01745 71.098534 
L 183.721208 71.356485 
L 185.832483 71.422897 
L 186.536241 72.185241 
L 187.239999 72.185241 
L 188.647515 71.932367 
L 189.351273 72.049384 
L 190.75879 71.831115 
L 191.462548 71.831115 
L 192.166306 72.316409 
L 192.870064 72.316409 
L 194.277581 71.622252 
L 195.685097 71.622252 
L 196.388855 70.855177 
L 197.092613 70.855177 
L 197.796371 70.48258 
L 198.500129 71.015629 
L 199.907646 71.015629 
L 200.611404 70.252021 
L 201.315162 70.252021 
L 202.01892 70.680809 
L 202.722678 70.680809 
L 203.426437 70.096789 
L 204.130195 69.890801 
L 204.833953 69.116931 
L 206.241469 69.008167 
L 206.945227 68.500111 
L 207.648986 68.500111 
L 208.352744 68.373482 
L 210.464018 68.28836 
L 211.167776 68.802144 
L 211.871534 69.572354 
L 212.575293 69.66148 
L 213.982809 69.557421 
L 216.094083 69.611253 
L 216.797842 69.249614 
L 218.205358 69.249614 
L 218.909116 68.387387 
L 219.612874 68.387387 
L 220.316632 68.547735 
L 221.020391 68.547735 
L 221.724149 68.187581 
L 222.427907 68.187581 
L 223.131665 69.094218 
L 223.835423 69.260247 
L 225.946698 68.868518 
L 229.465488 69.117075 
L 230.169247 69.054444 
L 230.873005 68.638723 
L 231.576763 68.546812 
L 232.280521 67.765396 
L 232.984279 67.916742 
L 233.688037 67.916742 
L 234.391796 68.259963 
L 235.095554 68.259963 
L 235.799312 66.781262 
L 236.50307 65.709712 
L 237.206828 65.657229 
L 237.910586 65.295466 
L 238.614344 65.295466 
L 239.318103 65.909039 
L 240.725619 65.974594 
L 241.429377 64.096637 
L 242.133135 63.900675 
L 243.540652 63.987879 
L 244.948168 65.024435 
L 245.651926 65.024435 
L 246.355684 64.426783 
L 247.059442 64.426783 
L 247.7632 64.717105 
L 248.466959 65.260458 
L 249.170717 65.352996 
L 249.874475 65.583747 
L 250.578233 66.743275 
L 251.281991 66.743275 
L 251.985749 66.147563 
L 252.689508 66.02926 
L 253.393266 65.782814 
L 254.097024 65.353559 
L 254.800782 65.353559 
L 255.50454 66.555271 
L 256.208298 66.555271 
L 256.912057 67.256186 
L 257.615815 66.810429 
L 258.319573 67.029982 
L 259.023331 67.029982 
L 259.727089 67.87487 
L 260.430847 68.095228 
L 261.134605 68.62242 
L 261.838364 68.62242 
L 262.542122 68.323255 
L 263.949638 68.312625 
L 264.653396 68.736529 
L 266.060913 68.736529 
L 266.764671 68.619982 
L 267.468429 68.30731 
L 268.875945 68.234299 
L 269.579703 68.064001 
L 270.283462 67.557481 
L 270.98722 67.557481 
L 271.690978 68.701872 
L 272.394736 68.701872 
L 273.098494 67.239832 
L 273.802252 66.952704 
L 275.209769 66.945394 
L 275.913527 67.156776 
L 276.617285 67.248339 
L 278.024801 67.240023 
L 279.432318 67.240023 
L 280.136076 67.109608 
L 280.839834 67.109608 
L 281.543592 67.769171 
L 282.951108 67.845317 
L 283.654866 67.482342 
L 284.358625 66.911219 
L 285.062383 66.886602 
L 285.766141 66.492688 
L 286.469899 65.750266 
L 287.173657 65.436131 
L 287.877415 64.552708 
L 288.581174 62.666111 
L 289.284932 61.356299 
L 289.98869 58.267312 
L 290.692448 57.610017 
L 291.396206 57.610017 
L 292.803723 58.212048 
L 293.507481 58.212048 
L 294.211239 56.307478 
L 294.914997 56.200333 
L 295.618755 55.962641 
L 296.322513 56.200333 
L 297.026271 55.962641 
L 297.73003 56.369056 
L 299.137546 56.369056 
L 299.841304 53.379388 
L 300.545062 53.379388 
L 301.24882 55.21339 
L 301.952579 55.475643 
L 302.656337 57.168876 
L 303.360095 59.511293 
L 304.063853 59.640451 
L 304.767611 60.472221 
L 305.471369 59.744644 
L 306.175128 60.221504 
L 306.878886 60.221504 
L 307.582644 61.257772 
L 308.99016 62.162617 
L 311.805193 62.074133 
L 312.508951 61.879745 
L 313.212709 61.879745 
L 313.916467 61.74057 
L 314.620225 60.623931 
L 315.323984 57.262303 
L 316.027742 54.925169 
L 317.435258 49.434621 
L 318.842774 46.212881 
L 319.546533 43.836941 
L 320.250291 42.207753 
L 321.657807 36.262397 
L 322.361565 34.642473 
L 323.065323 29.977159 
L 325.176598 20.466119 
L 325.880356 20.143264 
L 327.287872 18.502016 
L 327.99163 18.789244 
L 328.695389 18.789244 
L 330.102905 25.273421 
L 330.806663 27.677799 
L 331.510421 29.171664 
L 332.214179 28.359957 
L 332.917937 28.493143 
L 333.621696 28.493143 
L 334.325454 29.463769 
L 335.029212 32.276733 
L 335.73297 36.947525 
L 336.436728 39.316182 
L 338.548003 52.422335 
L 339.251761 53.605894 
L 339.955519 53.969655 
L 340.659277 57.07902 
L 341.363035 57.798706 
L 342.770552 57.798706 
L 343.47431 59.119865 
L 344.178068 59.57283 
L 344.881826 59.827301 
L 345.585584 62.223917 
L 346.289342 63.603944 
L 346.993101 63.939389 
L 347.696859 64.736433 
L 348.400617 65.324477 
L 349.104375 65.644952 
L 349.808133 65.324477 
L 351.21565 63.531304 
L 351.919408 60.568893 
L 352.623166 57.089786 
L 353.326924 54.663548 
L 354.030682 53.065107 
L 354.73444 52.617368 
L 355.438199 51.443671 
L 356.845715 50.339195 
L 357.549473 49.543113 
L 358.253231 46.467459 
L 359.660747 45.092093 
L 363.883296 45.126499 
L 364.587055 46.99965 
L 365.290813 51.629502 
L 365.994571 52.471336 
L 366.698329 54.017251 
L 367.402087 54.803507 
L 368.105845 54.982112 
L 368.809604 54.982112 
L 369.513362 54.322751 
L 370.920878 54.256939 
L 371.624636 56.199683 
L 372.328394 56.953986 
L 373.032152 57.015568 
L 373.735911 56.953986 
L 374.439669 57.171118 
L 375.847185 59.921154 
L 376.550943 60.321294 
L 377.254701 60.321294 
L 377.95846 59.788081 
L 378.662218 59.707514 
L 379.365976 56.770675 
L 380.069734 55.213402 
L 380.773492 54.877346 
L 381.47725 53.717494 
L 382.181008 52.329544 
L 382.884767 50.539939 
L 383.588525 49.262857 
L 384.292283 48.881932 
L 384.996041 48.876253 
L 385.699799 48.493078 
L 387.107316 46.907056 
L 387.811074 47.616245 
L 388.514832 47.131007 
L 389.922348 47.131007 
L 390.626106 46.545875 
L 391.329865 45.378232 
L 392.033623 45.17972 
L 392.737381 45.17972 
L 393.441139 44.951033 
L 394.144897 46.491573 
L 394.848655 47.400274 
L 395.552413 49.743693 
L 396.256172 51.560261 
L 396.95993 52.952214 
L 398.367446 53.491485 
L 399.774962 56.486775 
L 400.478721 57.330006 
L 401.182479 57.732277 
L 401.886237 59.151933 
L 402.589995 59.788448 
L 403.293753 61.08041 
L 403.997511 62.044878 
L 404.70127 62.435409 
L 405.405028 62.262756 
L 406.108786 62.435409 
L 406.812544 62.874675 
L 407.516302 64.130487 
L 408.22006 64.543761 
L 408.923818 64.707265 
L 409.627577 65.425935 
L 410.331335 65.425935 
L 411.035093 64.422184 
L 411.738851 64.133427 
L 413.146367 64.701966 
L 413.850126 65.295348 
L 414.553884 65.715578 
L 415.9614 65.759681 
L 416.665158 65.55667 
L 417.368916 65.55667 
L 418.072675 66.108401 
L 418.776433 66.108401 
L 419.480191 65.812748 
L 420.887707 65.906645 
L 421.591465 66.107187 
L 423.70274 66.116477 
L 424.406498 65.703152 
L 425.110256 65.674734 
L 425.814014 65.025477 
L 426.517772 64.531923 
L 427.925289 64.295912 
L 429.332805 64.681045 
L 430.036563 65.468069 
L 431.444079 65.772097 
L 432.851596 65.715602 
L 434.259112 64.528669 
L 434.96287 64.528669 
L 435.666628 64.955866 
L 436.370387 65.871053 
L 437.074145 65.871053 
L 439.185419 63.785883 
L 439.889177 63.785883 
L 440.592936 64.447139 
L 442.000452 64.447139 
L 442.70421 65.681358 
L 443.407968 66.15934 
L 444.111726 66.161548 
L 444.111726 66.161548 
" style="fill:none;stroke:#ff7f0e;stroke-linecap:square;"/>
   </g>
   <g id="line2d_11">
    <path clip-path="url(#p0f68f6bf74)" d="M 16.249844 152.620156 
L 22.638138 152.607177 
L 22.874742 152.503289 
L 23.111345 151.821498 
L 23.347949 148.47774 
L 23.584552 136.313258 
L 23.821156 103.899379 
L 24.185892 -1 
M 25.098408 -1 
L 25.47738 106.761755 
L 25.713984 137.534537 
L 25.950587 148.853703 
L 26.187191 151.906438 
L 26.423794 152.517509 
L 26.897001 152.619228 
L 57.18225 152.620156 
L 93.145982 152.589337 
L 93.382586 152.419438 
L 93.619189 151.628012 
L 93.855793 148.898062 
L 94.092396 142.022124 
L 94.802207 105.858492 
L 95.03881 108.439869 
L 95.748621 145.498265 
L 95.985224 150.387435 
L 96.221828 152.088906 
L 96.458431 152.524219 
L 96.931638 152.618788 
L 110.181434 152.607331 
L 110.418038 152.520694 
L 110.654641 152.034696 
L 110.891245 150.004498 
L 111.127848 143.750578 
L 111.364452 129.792504 
L 111.837659 86.508427 
L 112.074262 78.226749 
L 112.310866 89.084086 
L 112.784073 132.35833 
L 113.020676 145.054448 
L 113.25728 150.476042 
L 113.493883 152.158974 
L 113.730487 152.544868 
L 114.203694 152.619279 
L 135.498009 152.614661 
L 135.734613 152.573826 
L 135.971216 152.323706 
L 136.20782 151.180489 
L 136.444423 147.313785 
L 136.681027 137.775903 
L 137.390837 90.505861 
L 137.627441 94.963032 
L 138.337251 143.805848 
L 138.573855 149.905278 
L 138.810458 151.985501 
L 139.047062 152.507553 
L 139.520269 152.618607 
L 157.975342 152.620156 
L 166.729672 152.520387 
L 166.966275 152.048058 
L 167.202879 150.130319 
L 167.439482 144.395899 
L 167.676086 132.002105 
L 168.149293 95.966894 
L 168.385896 90.525913 
L 168.6225 100.966278 
L 169.095707 136.99294 
L 169.33231 146.93675 
L 169.568914 151.05138 
L 169.805517 152.291503 
L 170.042121 152.5679 
L 170.751931 152.620116 
L 198.197937 152.572269 
L 199.380955 152.302955 
L 200.090766 152.584123 
L 201.03718 152.607875 
L 201.273783 152.532769 
L 201.510387 152.146662 
L 201.74699 150.672901 
L 201.983594 146.54221 
L 202.456801 126.732055 
L 202.693404 117.292921 
L 202.930008 116.031685 
L 203.166611 123.859151 
L 203.639818 144.850548 
L 203.876422 149.950014 
L 204.113025 151.923698 
L 204.349629 152.482283 
L 204.822836 152.617794 
L 217.126218 152.620156 
L 238.183929 152.54729 
L 238.420533 152.246814 
L 238.657136 151.168228 
L 238.89374 148.334132 
L 239.603551 131.519012 
L 239.840154 131.918035 
L 240.786568 150.967146 
L 241.023172 151.797544 
L 241.496379 152.269816 
L 241.732982 152.381474 
L 241.969586 152.268859 
L 242.206189 151.639332 
L 242.442793 150.126992 
L 242.916 145.275879 
L 243.152603 144.204389 
L 243.389207 145.116965 
L 243.862414 148.937946 
L 244.335621 150.691809 
L 245.045431 152.331985 
L 245.518638 152.597892 
L 247.174863 152.620156 
L 250.960519 152.573657 
L 251.197122 152.418373 
L 251.433726 151.955082 
L 251.670329 150.952411 
L 252.38014 146.807162 
L 252.853347 145.251838 
L 253.08995 143.916996 
L 253.326554 143.223452 
L 253.563157 143.963733 
L 253.799761 145.258692 
L 254.036364 145.364162 
L 254.509571 142.259545 
L 254.746175 142.622875 
L 255.692589 152.018853 
L 255.929192 152.470449 
L 256.402399 152.616099 
L 261.84428 152.596746 
L 262.080883 152.481197 
L 262.317487 151.994139 
L 262.55409 150.479683 
L 262.790694 147.065482 
L 263.263901 136.265858 
L 263.500504 134.065354 
L 263.737108 136.642764 
L 264.446918 150.670286 
L 264.683522 152.063017 
L 264.920125 152.499189 
L 265.393332 152.604033 
L 265.629936 152.533587 
L 265.866539 152.205381 
L 266.103143 151.107867 
L 266.339746 148.435113 
L 267.049557 135.667145 
L 267.28616 137.052867 
L 267.995971 150.316217 
L 268.232574 151.918123 
L 268.469178 152.457784 
L 268.942385 152.616353 
L 276.04049 152.614791 
L 276.513697 152.445964 
L 276.7503 151.959776 
L 276.986904 150.705968 
L 277.933318 142.384872 
L 278.169921 144.122764 
L 278.643128 149.629464 
L 278.879732 151.350483 
L 279.116335 152.192128 
L 279.352939 152.506633 
L 279.826146 152.616405 
L 285.268027 152.607786 
L 285.741234 152.512716 
L 286.214441 152.149324 
L 286.451044 151.59084 
L 286.687648 150.133105 
L 286.924251 146.945551 
L 287.397458 136.868754 
L 287.634062 134.8638 
L 287.870665 137.384459 
L 288.343872 147.705374 
L 288.580476 150.773969 
L 288.817079 152.09379 
L 289.053683 152.506255 
L 289.52689 152.617824 
L 294.96877 152.604413 
L 295.205374 152.504716 
L 295.441977 151.977694 
L 295.678581 149.906443 
L 295.915184 143.920434 
L 296.388391 113.530346 
L 296.624995 97.832791 
L 296.861598 94.339767 
L 297.098202 105.566905 
L 297.571409 139.211059 
L 297.808012 147.887093 
L 298.044616 151.352183 
L 298.281219 152.362344 
L 298.517823 152.580371 
L 299.464237 152.620155 
L 309.16498 152.509325 
L 309.401584 152.211707 
L 309.638187 151.476805 
L 310.347998 147.775412 
L 310.584601 148.046555 
L 311.294412 151.607164 
L 311.767619 152.394952 
L 312.240826 152.58737 
L 313.660447 152.620156 
L 316.972896 152.560491 
L 317.91931 152.38055 
L 318.155913 152.423155 
L 318.392517 152.336763 
L 318.62912 151.631549 
L 318.865724 149.056162 
L 319.102327 142.555249 
L 319.812138 108.921578 
L 320.048741 111.551703 
L 320.758552 146.104131 
L 320.995156 150.588139 
L 321.231759 152.139108 
L 321.468363 152.533104 
L 321.94157 152.608137 
L 323.597794 152.587523 
L 324.780812 152.597114 
L 325.254019 152.384531 
L 325.963829 151.645218 
L 326.200433 151.718294 
L 326.67364 152.251315 
L 326.910243 152.263174 
L 327.146847 151.414156 
L 327.38345 147.949499 
L 327.620054 138.455678 
L 328.329864 76.67014 
L 328.566468 76.042002 
L 329.512882 147.600607 
L 329.749485 151.345575 
L 329.986089 152.374518 
L 330.222692 152.584227 
L 331.169106 152.620155 
L 334.008348 152.584836 
L 334.244952 152.402654 
L 334.481555 151.603605 
L 334.718159 149.0142 
L 334.954762 142.911996 
L 335.664573 116.409045 
L 335.901176 120.268915 
L 336.610987 148.011972 
L 336.84759 150.827301 
L 337.084194 151.419099 
L 337.557401 151.060477 
L 337.794004 151.050326 
L 338.267211 151.354512 
L 338.740418 151.838123 
L 338.977022 151.783986 
L 339.213625 151.276077 
L 339.686832 149.783408 
L 339.923436 149.780267 
L 340.86985 152.437716 
L 341.343057 152.611316 
L 344.655506 152.615846 
L 345.128713 152.499382 
L 345.365316 152.197103 
L 345.60192 151.492575 
L 346.31173 147.594941 
L 346.548334 145.757919 
L 346.784937 141.934571 
L 347.258144 129.343293 
L 347.494748 127.500589 
L 347.731351 131.823696 
L 348.204558 146.347119 
L 348.441162 150.340765 
L 348.677765 151.991506 
L 348.914369 152.488564 
L 349.387576 152.617635 
L 356.722284 152.602088 
L 356.958888 152.540161 
L 357.195491 152.351345 
L 357.668698 151.2931 
L 357.905302 150.670545 
L 358.141905 150.446294 
L 358.378509 150.780481 
L 358.851716 152.044104 
L 359.088319 152.406811 
L 359.561526 152.603447 
L 361.690958 152.592452 
L 361.927562 152.45707 
L 362.164165 151.845852 
L 362.400769 149.823542 
L 362.637372 144.953334 
L 363.347183 122.426255 
L 363.583786 125.153601 
L 364.293597 148.668218 
L 364.5302 151.427279 
L 364.766804 152.346877 
L 365.003407 152.57264 
L 365.713218 152.620074 
L 367.606046 152.534026 
L 368.315856 152.525004 
L 369.498874 152.619599 
L 372.338116 152.57717 
L 372.574719 152.459806 
L 372.811323 152.166183 
L 373.521133 150.651071 
L 373.757737 150.770292 
L 374.467547 152.317882 
L 374.704151 152.501578 
L 375.177358 152.511027 
L 375.887168 152.518936 
L 376.833582 152.618134 
L 381.329049 152.603685 
L 381.565652 152.51603 
L 381.802256 152.12055 
L 382.038859 150.800793 
L 382.275463 147.591678 
L 382.985273 132.327452 
L 383.221877 134.009423 
L 383.931687 149.865899 
L 384.168291 151.765534 
L 384.404894 152.399176 
L 384.878101 152.590423 
L 387.244136 152.620156 
L 392.449413 152.575392 
L 393.632431 152.236145 
L 394.342241 152.569212 
L 395.288655 152.620084 
L 398.127897 152.550857 
L 398.364501 152.383496 
L 398.601104 151.977761 
L 399.074311 150.11526 
L 399.547518 148.055856 
L 399.784122 147.922145 
L 400.020725 148.622012 
L 400.730536 151.945482 
L 400.967139 152.388052 
L 401.203743 152.549294 
L 401.440347 152.555572 
L 401.67695 152.408052 
L 401.913554 151.977325 
L 402.623364 149.109405 
L 402.859968 149.058327 
L 403.806382 152.351846 
L 404.042985 152.477116 
L 404.279589 152.420893 
L 404.516192 152.225071 
L 404.752796 151.715185 
L 404.989399 150.323986 
L 405.226003 147.22682 
L 405.69921 137.357455 
L 405.935813 135.297388 
L 406.172417 137.473718 
L 406.645624 146.384364 
L 406.882227 148.960681 
L 407.355434 151.206661 
L 407.828641 152.317778 
L 408.301848 152.596748 
L 409.248262 152.562825 
L 410.667883 152.27057 
L 411.377694 151.860613 
L 411.850901 152.161555 
L 412.324108 152.521028 
L 413.033918 152.618853 
L 419.422213 152.591069 
L 419.658816 152.493631 
L 419.89542 152.202441 
L 420.368627 150.62967 
L 420.60523 149.747151 
L 420.841834 149.472852 
L 421.078437 150.003382 
L 421.551644 151.829282 
L 421.788248 152.332477 
L 422.024851 152.539198 
L 422.498058 152.570869 
L 422.734662 152.455755 
L 422.971265 152.182088 
L 423.681076 151.027156 
L 423.917679 151.209026 
L 424.62749 152.432669 
L 425.100697 152.607862 
L 427.939939 152.620156 
L 430.305974 152.588301 
L 430.542577 152.492763 
L 430.779181 152.233483 
L 431.488991 150.550162 
L 431.725595 150.520544 
L 432.435405 151.62613 
L 432.672009 151.368677 
L 433.145216 150.507964 
L 433.381819 150.320602 
L 433.855026 150.357824 
L 434.328233 150.720615 
L 435.274647 152.421609 
L 435.747854 152.605924 
L 437.404079 152.578669 
L 437.877286 152.372819 
L 438.350493 152.13023 
L 439.060303 152.311618 
L 439.296907 152.081712 
L 439.53351 151.369985 
L 440.243321 148.043404 
L 440.479924 148.33722 
L 441.189735 151.721173 
L 441.426338 152.264711 
L 441.899546 152.588133 
L 442.609356 152.607932 
L 443.082563 152.41129 
L 443.319167 152.044508 
L 444.028977 150.316641 
L 444.028977 150.316641 
" style="fill:none;stroke:#2ca02c;stroke-linecap:square;"/>
   </g>
   <g id="patch_3">
    <path d="M 16.249844 152.620156 
L 16.249844 3.6 
" style="fill:none;stroke:#000000;stroke-linecap:square;stroke-linejoin:miter;stroke-width:0.8;"/>
   </g>
   <g id="patch_4">
    <path d="M 444.260078 152.620156 
L 444.260078 3.6 
" style="fill:none;stroke:#000000;stroke-linecap:square;stroke-linejoin:miter;stroke-width:0.8;"/>
   </g>
   <g id="patch_5">
    <path d="M 16.249844 152.620156 
L 444.260078 152.620156 
" style="fill:none;stroke:#000000;stroke-linecap:square;stroke-linejoin:miter;stroke-width:0.8;"/>
   </g>
   <g id="patch_6">
    <path d="M 16.249844 3.6 
L 444.260078 3.6 
" style="fill:none;stroke:#000000;stroke-linecap:square;stroke-linejoin:miter;stroke-width:0.8;"/>
   </g>
   <g id="legend_1">
    <g id="line2d_12">
     <path d="M 362.901228 13.419899 
L 377.895228 13.419899 
" style="fill:none;stroke:#1f77b4;stroke-linecap:square;"/>
    </g>
    <g id="line2d_13"/>
    <g id="text_11">
     <text style="font-family:Verdana;font-size:7.497px;font-style:normal;font-weight:normal;text-anchor:start;" transform="rotate(-0, 383.892828, 16.043849)" x="383.892828" y="16.043849">SiO2/Gr/BPE</text>
    </g>
    <g id="line2d_14">
     <path d="M 362.901228 24.373718 
L 377.895228 24.373718 
" style="fill:none;stroke:#ff7f0e;stroke-linecap:square;"/>
    </g>
    <g id="line2d_15"/>
    <g id="text_12">
     <text style="font-family:Verdana;font-size:7.497px;font-style:normal;font-weight:normal;text-anchor:start;" transform="rotate(-0, 383.892828, 26.997668)" x="383.892828" y="26.997668">Au/Gr/BPE</text>
    </g>
    <g id="line2d_16">
     <path d="M 362.901228 35.327538 
L 377.895228 35.327538 
" style="fill:none;stroke:#2ca02c;stroke-linecap:square;"/>
    </g>
    <g id="line2d_17"/>
    <g id="text_13">
     <text style="font-family:Verdana;font-size:7.497px;font-style:normal;font-weight:normal;text-anchor:start;" transform="rotate(-0, 383.892828, 37.951488)" x="383.892828" y="37.951488">Power Sample</text>
    </g>
   </g>
  </g>
 </g>
 <defs>
  <clipPath id="p0f68f6bf74">
   <rect height="149.020156" width="428.010234" x="16.249844" y="3.6"/>
  </clipPath>
 </defs>
</svg>
