<?xml version="1.0" encoding="UTF-8" standalone="no"?>
<!-- Generator: Adobe Illustrator 22.0.0, SVG Export Plug-In . SVG Version: 6.00 Build 0)  -->

<svg
   xmlns:dc="http://purl.org/dc/elements/1.1/"
   xmlns:cc="http://creativecommons.org/ns#"
   xmlns:rdf="http://www.w3.org/1999/02/22-rdf-syntax-ns#"
   xmlns:svg="http://www.w3.org/2000/svg"
   xmlns="http://www.w3.org/2000/svg"
   xmlns:xlink="http://www.w3.org/1999/xlink"
   xmlns:sodipodi="http://sodipodi.sourceforge.net/DTD/sodipodi-0.dtd"
   xmlns:inkscape="http://www.inkscape.org/namespaces/inkscape"
   version="1.1"
   id="Layer_1"
   x="0px"
   y="0px"
   viewBox="0 0 622.55848 165.58771"
   xml:space="preserve"
   sodipodi:docname="model_2D.svg"
   width="466.91885pt"
   height="124.19078pt"
   inkscape:version="0.92.4 (5da689c313, 2019-01-14)"
   enable-background="new"><metadata
     id="metadata673"><rdf:RDF><cc:Work
         rdf:about=""><dc:format>image/svg+xml</dc:format><dc:type
           rdf:resource="http://purl.org/dc/dcmitype/StillImage" /><dc:title></dc:title></cc:Work></rdf:RDF></metadata><defs
     id="defs671"><marker
   inkscape:isstock="true"
   style="overflow:visible;"
   id="marker8214"
   refX="0.0"
   refY="0.0"
   orient="auto"
   inkscape:stockid="Arrow1Mend"><path
     transform="scale(0.4) rotate(180) translate(10,0)"
     style="fill-rule:evenodd;stroke:#000000;stroke-width:1pt;stroke-opacity:1;fill:#000000;fill-opacity:1"
     d="M 0.0,0.0 L 5.0,-5.0 L -12.5,0.0 L 5.0,5.0 L 0.0,0.0 z "
     id="path8212" /></marker><marker
   inkscape:isstock="true"
   style="overflow:visible;"
   id="marker8154"
   refX="0.0"
   refY="0.0"
   orient="auto"
   inkscape:stockid="Arrow1Mend"><path
     transform="scale(0.4) rotate(180) translate(10,0)"
     style="fill-rule:evenodd;stroke:#000000;stroke-width:1pt;stroke-opacity:1;fill:#000000;fill-opacity:1"
     d="M 0.0,0.0 L 5.0,-5.0 L -12.5,0.0 L 5.0,5.0 L 0.0,0.0 z "
     id="path8152" /></marker><marker
   inkscape:stockid="Arrow1Mstart"
   orient="auto"
   refY="0.0"
   refX="0.0"
   id="marker2928"
   style="overflow:visible"
   inkscape:isstock="true"><path
     id="path2926"
     d="M 0.0,0.0 L 5.0,-5.0 L -12.5,0.0 L 5.0,5.0 L 0.0,0.0 z "
     style="fill-rule:evenodd;stroke:#000000;stroke-width:1pt;stroke-opacity:1;fill:#000000;fill-opacity:1"
     transform="scale(0.4) translate(10,0)" /></marker><marker
   inkscape:stockid="Arrow1Mstart"
   orient="auto"
   refY="0.0"
   refX="0.0"
   id="Arrow1Mstart"
   style="overflow:visible"
   inkscape:isstock="true"><path
     id="path2495"
     d="M 0.0,0.0 L 5.0,-5.0 L -12.5,0.0 L 5.0,5.0 L 0.0,0.0 z "
     style="fill-rule:evenodd;stroke:#000000;stroke-width:1pt;stroke-opacity:1;fill:#000000;fill-opacity:1"
     transform="scale(0.4) translate(10,0)" /></marker><marker
   inkscape:stockid="Arrow1Mend"
   orient="auto"
   refY="0.0"
   refX="0.0"
   id="marker2797"
   style="overflow:visible;"
   inkscape:isstock="true"><path
     id="path2795"
     d="M 0.0,0.0 L 5.0,-5.0 L -12.5,0.0 L 5.0,5.0 L 0.0,0.0 z "
     style="fill-rule:evenodd;stroke:#000000;stroke-width:1pt;stroke-opacity:1;fill:#000000;fill-opacity:1"
     transform="scale(0.4) rotate(180) translate(10,0)" /></marker><marker
   inkscape:stockid="Arrow1Mend"
   orient="auto"
   refY="0.0"
   refX="0.0"
   id="Arrow1Mend"
   style="overflow:visible;"
   inkscape:isstock="true"><path
     id="path2498"
     d="M 0.0,0.0 L 5.0,-5.0 L -12.5,0.0 L 5.0,5.0 L 0.0,0.0 z "
     style="fill-rule:evenodd;stroke:#000000;stroke-width:1pt;stroke-opacity:1;fill:#000000;fill-opacity:1"
     transform="scale(0.4) rotate(180) translate(10,0)" /></marker><defs
   id="defs5"><rect
     y="0"
     height="237.89999"
     width="608.5"
     x="-15"
     id="SVGID_1_" /></defs><clipPath
   id="SVGID_2_"><use
     height="100%"
     width="100%"
     y="0"
     x="0"
     id="use7"
     style="overflow:visible"
     xlink:href="#SVGID_1_" /></clipPath><defs
   id="defs301"><rect
     y="0"
     height="237.89999"
     width="608.5"
     x="-15"
     id="SVGID_29_" /></defs><clipPath
   id="SVGID_30_"><use
     height="100%"
     width="100%"
     y="0"
     x="0"
     id="use303"
     style="overflow:visible"
     xlink:href="#SVGID_29_" /></clipPath><defs
   id="defs369"><rect
     id="SVGID_37_"
     x="-15"
     width="608.5"
     height="237.89999"
     y="0" /></defs><clipPath
   id="SVGID_38_"><use
     xlink:href="#SVGID_37_"
     style="overflow:visible"
     id="use371"
     x="0"
     y="0"
     width="100%"
     height="100%" /></clipPath><defs
   id="defs241"><rect
     id="SVGID_23_"
     x="-15"
     width="608.5"
     height="237.89999"
     y="0" /></defs><clipPath
   id="SVGID_24_"><use
     xlink:href="#SVGID_23_"
     style="overflow:visible"
     id="use243"
     x="0"
     y="0"
     width="100%"
     height="100%" /></clipPath><defs
   id="defs309"><rect
     id="SVGID_31_"
     x="430.89999"
     y="25.1"
     width="31.700001"
     height="6.4000001" /></defs><clipPath
   id="SVGID_32_"><use
     xlink:href="#SVGID_31_"
     style="overflow:visible"
     id="use311"
     x="0"
     y="0"
     width="100%"
     height="100%" /></clipPath><defs
   id="defs379"><rect
     id="SVGID_39_"
     x="406"
     y="46.799999"
     width="145.39999"
     height="145.39999" /></defs><clipPath
   id="SVGID_40_"><use
     xlink:href="#SVGID_39_"
     style="overflow:visible"
     id="use381"
     x="0"
     y="0"
     width="100%"
     height="100%" /></clipPath><defs
   id="defs315"><polygon
     points="437.3,31.5 430.9,26.9 456.1,25.1 462.5,29.7 "
     id="SVGID_33_" /></defs><clipPath
   id="SVGID_34_"><use
     height="100%"
     width="100%"
     y="0"
     x="0"
     id="use317"
     style="overflow:visible"
     xlink:href="#SVGID_33_" /></clipPath><defs
   id="defs255"><rect
     id="SVGID_25_"
     x="342"
     y="57.299999"
     width="208"
     height="62.400002" /></defs><clipPath
   id="SVGID_26_"><use
     xlink:href="#SVGID_25_"
     style="overflow:visible"
     id="use257"
     x="0"
     y="0"
     width="100%"
     height="100%" /></clipPath><defs
   id="defs269"><rect
     id="SVGID_27_"
     x="342"
     y="119.7"
     width="208"
     height="48" /></defs><clipPath
   id="SVGID_28_"><use
     xlink:href="#SVGID_27_"
     style="overflow:visible"
     id="use271"
     x="0"
     y="0"
     width="100%"
     height="100%" /></clipPath><clipPath
   id="SVGID_30_-6"><use
     height="100%"
     width="100%"
     y="0"
     x="0"
     id="use303-2"
     style="overflow:visible"
     xlink:href="#SVGID_29_" /></clipPath><clipPath
   id="clipPath1122"><use
     height="100%"
     width="100%"
     y="0"
     x="0"
     id="use1120"
     style="overflow:visible"
     xlink:href="#SVGID_29_" /></clipPath><clipPath
   id="clipPath1126"><use
     height="100%"
     width="100%"
     y="0"
     x="0"
     id="use1124"
     style="overflow:visible"
     xlink:href="#SVGID_29_" /></clipPath><marker
   inkscape:stockid="Arrow1Mend"
   orient="auto"
   refY="0"
   refX="0"
   id="Arrow1Mend-0"
   style="overflow:visible"
   inkscape:isstock="true"><path
     inkscape:connector-curvature="0"
     id="path2498-6"
     d="M 0,0 5,-5 -12.5,0 5,5 Z"
     style="fill:#000000;fill-opacity:1;fill-rule:evenodd;stroke:#000000;stroke-width:1.00000003pt;stroke-opacity:1"
     transform="matrix(-0.4,0,0,-0.4,-4,0)" /></marker><marker
   inkscape:stockid="Arrow1Mend"
   orient="auto"
   refY="0"
   refX="0"
   id="marker2797-9"
   style="overflow:visible"
   inkscape:isstock="true"><path
     inkscape:connector-curvature="0"
     id="path2795-5"
     d="M 0,0 5,-5 -12.5,0 5,5 Z"
     style="fill:#000000;fill-opacity:1;fill-rule:evenodd;stroke:#000000;stroke-width:1.00000003pt;stroke-opacity:1"
     transform="matrix(-0.4,0,0,-0.4,-4,0)" /></marker><marker
   inkscape:stockid="Arrow1Mstart"
   orient="auto"
   refY="0"
   refX="0"
   id="marker2928-4"
   style="overflow:visible"
   inkscape:isstock="true"><path
     inkscape:connector-curvature="0"
     id="path2926-9"
     d="M 0,0 5,-5 -12.5,0 5,5 Z"
     style="fill:#000000;fill-opacity:1;fill-rule:evenodd;stroke:#000000;stroke-width:1.00000003pt;stroke-opacity:1"
     transform="matrix(0.4,0,0,0.4,4,0)" /></marker>


















<defs
   id="defs223"><rect
     id="SVGID_21_"
     x="-15"
     width="608.5"
     height="237.89999"
     y="0" /></defs><clipPath
   id="SVGID_22_"><use
     xlink:href="#SVGID_21_"
     style="overflow:visible"
     id="use225"
     x="0"
     y="0"
     width="100%"
     height="100%" /></clipPath><defs
   id="defs145"><rect
     id="SVGID_19_"
     x="-15"
     width="608.5"
     height="237.89999"
     y="0" /></defs><clipPath
   id="SVGID_20_"><use
     xlink:href="#SVGID_19_"
     style="overflow:visible"
     id="use147"
     x="0"
     y="0"
     width="100%"
     height="100%" /></clipPath><defs
   id="defs121"><rect
     id="SVGID_17_"
     x="-15"
     width="608.5"
     height="237.89999"
     y="0" /></defs><clipPath
   id="SVGID_18_"><use
     xlink:href="#SVGID_17_"
     style="overflow:visible"
     id="use123"
     x="0"
     y="0"
     width="100%"
     height="100%" /></clipPath>
<defs
   id="defs59"><rect
     id="SVGID_9_"
     x="-15"
     width="608.5"
     height="237.89999"
     y="0" /></defs><clipPath
   id="SVGID_10_"><use
     xlink:href="#SVGID_9_"
     style="overflow:visible"
     id="use61"
     x="0"
     y="0"
     width="100%"
     height="100%" /></clipPath><defs
   id="defs13"><rect
     id="SVGID_3_"
     x="-15"
     width="608.5"
     height="237.89999"
     y="0" /></defs><clipPath
   id="SVGID_4_"><use
     xlink:href="#SVGID_3_"
     style="overflow:visible"
     id="use15"
     x="0"
     y="0"
     width="100%"
     height="100%" /></clipPath><defs
   id="defs65"><rect
     id="SVGID_11_"
     x="27.5"
     y="64.5"
     width="203.5"
     height="110.7" /></defs><clipPath
   id="SVGID_12_"><use
     xlink:href="#SVGID_11_"
     style="overflow:visible"
     id="use67"
     x="0"
     y="0"
     width="100%"
     height="100%" /></clipPath><defs
   id="defs79"><rect
     id="SVGID_13_"
     x="-8.8999996"
     y="119.4"
     width="282.89999"
     height="1" /></defs><clipPath
   id="SVGID_14_"><use
     xlink:href="#SVGID_13_"
     style="overflow:visible"
     id="use81"
     x="0"
     y="0"
     width="100%"
     height="100%" /></clipPath><defs
   id="defs95"><rect
     id="SVGID_15_"
     x="90.5"
     y="49.400002"
     width="140.8"
     height="140.8" /></defs><clipPath
   id="SVGID_16_"><use
     xlink:href="#SVGID_15_"
     style="overflow:visible"
     id="use97"
     x="0"
     y="0"
     width="100%"
     height="100%" /></clipPath><defs
   id="defs19"><rect
     id="SVGID_5_"
     x="119.9"
     y="37.400002"
     width="31.700001"
     height="6.4000001" /></defs><clipPath
   id="SVGID_6_"><use
     xlink:href="#SVGID_5_"
     style="overflow:visible"
     id="use21"
     x="0"
     y="0"
     width="100%"
     height="100%" /></clipPath><defs
   id="defs25"><polygon
     points="126.4,43.7 119.9,39.1 145.1,37.4 151.5,42 "
     id="SVGID_7_" /></defs><clipPath
   id="SVGID_8_"><use
     height="100%"
     width="100%"
     y="0"
     x="0"
     id="use27"
     style="overflow:visible"
     xlink:href="#SVGID_7_" /></clipPath><clipPath
   id="SVGID_30_-3"><use
     height="100%"
     width="100%"
     y="0"
     x="0"
     id="use303-0"
     style="overflow:visible"
     xlink:href="#SVGID_29_" /></clipPath><clipPath
   id="clipPath1723"><use
     height="100%"
     width="100%"
     y="0"
     x="0"
     id="use1721"
     style="overflow:visible"
     xlink:href="#SVGID_29_" /></clipPath><clipPath
   id="clipPath1727"><use
     height="100%"
     width="100%"
     y="0"
     x="0"
     id="use1725"
     style="overflow:visible"
     xlink:href="#SVGID_29_" /></clipPath><marker
   inkscape:stockid="Arrow1Mend"
   orient="auto"
   refY="0"
   refX="0"
   id="Arrow1Mend-0-1"
   style="overflow:visible"
   inkscape:isstock="true"><path
     inkscape:connector-curvature="0"
     id="path2498-6-3"
     d="M 0,0 5,-5 -12.5,0 5,5 Z"
     style="fill:#000000;fill-opacity:1;fill-rule:evenodd;stroke:#000000;stroke-width:1.00000003pt;stroke-opacity:1"
     transform="matrix(-0.4,0,0,-0.4,-4,0)" /></marker><marker
   inkscape:stockid="Arrow1Mend"
   orient="auto"
   refY="0"
   refX="0"
   id="marker2797-9-7"
   style="overflow:visible"
   inkscape:isstock="true"><path
     inkscape:connector-curvature="0"
     id="path2795-5-3"
     d="M 0,0 5,-5 -12.5,0 5,5 Z"
     style="fill:#000000;fill-opacity:1;fill-rule:evenodd;stroke:#000000;stroke-width:1.00000003pt;stroke-opacity:1"
     transform="matrix(-0.4,0,0,-0.4,-4,0)" /></marker><marker
   inkscape:stockid="Arrow1Mstart"
   orient="auto"
   refY="0"
   refX="0"
   id="marker2928-4-6"
   style="overflow:visible"
   inkscape:isstock="true"><path
     inkscape:connector-curvature="0"
     id="path2926-9-8"
     d="M 0,0 5,-5 -12.5,0 5,5 Z"
     style="fill:#000000;fill-opacity:1;fill-rule:evenodd;stroke:#000000;stroke-width:1.00000003pt;stroke-opacity:1"
     transform="matrix(0.4,0,0,0.4,4,0)" /></marker><marker
   inkscape:stockid="Arrow1Mend"
   orient="auto"
   refY="0"
   refX="0"
   id="marker2882"
   style="overflow:visible"
   inkscape:isstock="true"
   inkscape:collect="always"><path
     inkscape:connector-curvature="0"
     id="path2880"
     d="M 0,0 5,-5 -12.5,0 5,5 Z"
     style="fill:#000000;fill-opacity:1;fill-rule:evenodd;stroke:#000000;stroke-width:1.00000003pt;stroke-opacity:1"
     transform="matrix(-0.4,0,0,-0.4,-4,0)" /></marker></defs><sodipodi:namedview
     pagecolor="#ffffff"
     bordercolor="#666666"
     borderopacity="1"
     objecttolerance="10"
     gridtolerance="10"
     guidetolerance="10"
     inkscape:pageopacity="0"
     inkscape:pageshadow="2"
     inkscape:window-width="1263"
     inkscape:window-height="870"
     id="namedview669"
     showgrid="false"
     units="pt"
     inkscape:zoom="0.7790433"
     inkscape:cx="353.41092"
     inkscape:cy="113.23098"
     inkscape:window-x="-5"
     inkscape:window-y="0"
     inkscape:window-maximized="0"
     inkscape:current-layer="layer3"
     fit-margin-top="0"
     fit-margin-left="0"
     fit-margin-right="0"
     fit-margin-bottom="0" /><style
     type="text/css"
     id="style2">
	.st0{clip-path:url(#SVGID_2_);fill:none;stroke:#666666;stroke-miterlimit:10;stroke-dasharray:6,6;}
	.st1{clip-path:url(#SVGID_2_);}
	.st2{clip-path:url(#SVGID_4_);enable-background:new    ;}
	.st3{clip-path:url(#SVGID_6_);}
	.st4{clip-path:url(#SVGID_8_);fill:#ED1C24;}
	.st5{font-family:'Arial-ItalicMT';}
	.st6{font-size:12px;}
	.st7{font-family:'ArialMT';}
	.st8{font-size:6.996px;}
	.st9{opacity:0.6;clip-path:url(#SVGID_10_);}
	.st10{clip-path:url(#SVGID_12_);fill:#00A99D;}
	.st11{clip-path:url(#SVGID_12_);fill:none;stroke:#000000;stroke-miterlimit:10;}
	.st12{clip-path:url(#SVGID_14_);fill:none;stroke:#000000;stroke-miterlimit:10;}
	.st13{clip-path:url(#SVGID_14_);fill:none;stroke:#000000;stroke-miterlimit:10;stroke-dasharray:5.892,5.892;}
	.st14{clip-path:url(#SVGID_16_);fill:none;stroke:#000000;stroke-miterlimit:10;stroke-dasharray:5.934,5.934;}
	.st15{clip-path:url(#SVGID_2_);fill:none;stroke:#0000FF;stroke-miterlimit:10;}
	.st16{clip-path:url(#SVGID_2_);fill:#0000FF;}
	.st17{clip-path:url(#SVGID_2_);fill:none;stroke:#ED1C24;stroke-miterlimit:10;}
	.st18{clip-path:url(#SVGID_2_);fill:#ED1C24;}
	.st19{clip-path:url(#SVGID_2_);fill:#808080;}
	.st20{clip-path:url(#SVGID_2_);fill:none;stroke:#666666;stroke-miterlimit:10;}
	.st21{clip-path:url(#SVGID_18_);fill:none;stroke:#666666;stroke-miterlimit:10;}
	.st22{clip-path:url(#SVGID_18_);fill:#808080;}
	.st23{clip-path:url(#SVGID_20_);fill:none;stroke:#000000;stroke-miterlimit:10;}
	.st24{clip-path:url(#SVGID_20_);}
	.st25{clip-path:url(#SVGID_22_);fill:none;stroke:#000000;stroke-miterlimit:10;}
	.st26{clip-path:url(#SVGID_22_);}
	.st27{clip-path:url(#SVGID_24_);fill:none;stroke:#000000;stroke-miterlimit:10;stroke-dasharray:6,6;}
	.st28{clip-path:url(#SVGID_24_);fill:none;stroke:#666666;stroke-miterlimit:10;}
	.st29{opacity:0.5;clip-path:url(#SVGID_24_);}
	.st30{clip-path:url(#SVGID_26_);fill:#ED1C24;}
	.st31{clip-path:url(#SVGID_24_);fill:none;stroke:#000000;stroke-miterlimit:10;}
	.st32{clip-path:url(#SVGID_28_);fill:#29ABE2;}
	.st33{clip-path:url(#SVGID_30_);fill:none;stroke:#666666;stroke-miterlimit:10;stroke-dasharray:6,6;}
	.st34{clip-path:url(#SVGID_30_);enable-background:new    ;}
	.st35{clip-path:url(#SVGID_32_);}
	.st36{clip-path:url(#SVGID_34_);fill:#ED1C24;}
	.st37{clip-path:url(#SVGID_30_);fill:none;stroke:#000000;stroke-miterlimit:10;}
	.st38{clip-path:url(#SVGID_30_);}
	.st39{clip-path:url(#SVGID_36_);fill:none;stroke:#000000;stroke-miterlimit:10;}
	.st40{clip-path:url(#SVGID_36_);}
	.st41{clip-path:url(#SVGID_38_);fill:none;stroke:#0000FF;stroke-miterlimit:10;}
	.st42{clip-path:url(#SVGID_38_);fill:#0000FF;}
	.st43{opacity:0.6;clip-path:url(#SVGID_38_);}
	.st44{clip-path:url(#SVGID_40_);fill:none;stroke:#000000;stroke-miterlimit:10;stroke-dasharray:5.968,5.968;}
	.st45{clip-path:url(#SVGID_38_);fill:none;stroke:#000000;stroke-miterlimit:10;}
	.st46{clip-path:url(#SVGID_38_);}
	.st47{clip-path:url(#SVGID_42_);}
	.st48{font-family:'Arial-BoldMT';}
	.st49{font-size:20px;}
	.st50{opacity:0.65;fill:#6DE881;stroke:#000000;stroke-miterlimit:10;}
	.st51{fill:none;stroke:#000000;stroke-width:0.75;stroke-miterlimit:10;stroke-dasharray:9.6905,2.4226;}
	.st52{fill:none;stroke:#000000;stroke-width:0.75;stroke-miterlimit:10;}
	.st53{fill:none;stroke:#444444;stroke-width:0.75;stroke-miterlimit:10;}
	.st54{fill:#444444;}
	.st55{fill:none;stroke:#444444;stroke-miterlimit:10;stroke-dasharray:9.6,2.4;}
	.st56{opacity:0.8;}
	.st57{fill:none;stroke:#444444;stroke-miterlimit:10;}
</style><g
     inkscape:groupmode="layer"
     id="layer1"
     inkscape:label="Layer 1"
     transform="translate(7.170059,8.6611395)"
     style="display:inline"><path
   style="opacity:1;fill:#9fffaf;fill-opacity:0.50196078;stroke:#000000;stroke-width:0.81591505;stroke-miterlimit:10"
   inkscape:connector-curvature="0"
   id="path570"
   d="m 570.50688,33.900198 c -0.0816,0 -10.18741,0.08159 0.16319,0.08159 1.9582,3.345252 4.32435,7.995968 6.20095,13.870556 1.22388,3.834801 2.9373,10.770079 2.9373,19.500372 0,21.45857 -10.28054,40.469384 -26.27247,52.463334 0,0 -0.0816,0.0816 -0.16318,0.0816 h -78.16466 c -0.0816,0 -0.0816,0 -0.16318,-0.0816 -15.91035,-11.91236 -26.27247,-31.004764 -26.27247,-52.463334 0,-8.730293 1.71342,-15.583979 2.9373,-19.500372 0,0 2.36615,-7.669601 6.20095,-13.952146 0,0 112.67787,0.08159 112.59627,0 z"
   class="st50"
   sodipodi:nodetypes="cccscsscsccc" /><circle
   class="st51"
   cx="513.96783"
   cy="67.825165"
   r="65.60054"
   id="circle572"
   style="fill:none;stroke:#000000;stroke-width:0.60741246;stroke-miterlimit:10;stroke-dasharray:7.84817354, 1.96202314" /><line
   class="st52"
   x1="570.74066"
   y1="34.619953"
   x2="585.39954"
   y2="61.022152"
   id="line578"
   style="fill:none;stroke:#000000;stroke-width:0.60741246;stroke-miterlimit:10" /><line
   class="st52"
   x1="553.32812"
   y1="120.22461"
   x2="576.97675"
   y2="98.114807"
   id="line580"
   style="fill:none;stroke:#000000;stroke-width:0.60741246;stroke-miterlimit:10" /><path
   class="st53"
   d="m 573.25129,40.856058 c -0.80989,0.323953 -1.70076,0.566918 -2.59163,0.566918 -3.72546,0 -6.72203,-2.996568 -6.72203,-6.722031"
   id="path582"
   inkscape:connector-curvature="0"
   style="fill:none;stroke:#444444;stroke-width:0.60741246;stroke-miterlimit:10" /><path
   class="st53"
   d="m 546.93008,119.6577 c 0,-3.72547 2.99657,-6.72203 6.72203,-6.72203 1.86273,0 3.56349,0.72889 4.77831,1.94372"
   id="path584"
   inkscape:connector-curvature="0"
   style="fill:none;stroke:#444444;stroke-width:0.60741246;stroke-miterlimit:10" /><line
   style="fill:none;stroke:#444444;stroke-width:0.60741246;stroke-miterlimit:10"
   id="line588"
   y2="37.130596"
   x2="461.48743"
   y1="77.138824"
   x1="513.96783"
   class="st53" /><polygon
   class="st54"
   points="676.7,67.5 676.3,71 672.2,64.1 680,66.2 "
   id="polygon590"
   style="fill:#444444"
   transform="matrix(0.80988324,0,0,0.80988324,-86.317623,-17.374547)" /><line
   class="st55"
   x1="514.53479"
   y1="-13.163155"
   x2="514.53479"
   y2="148.81349"
   id="line610"
   style="fill:none;stroke:#444444;stroke-width:0.80988324;stroke-miterlimit:10;stroke-dasharray:7.7748791, 1.94371978" /><line
   class="st55"
   x1="595.52307"
   y1="75.923996"
   x2="433.54645"
   y2="75.923996"
   id="line612"
   style="fill:none;stroke:#444444;stroke-width:0.80988324;stroke-miterlimit:10;stroke-dasharray:7.7748791, 1.94371978" /><line
   class="st57"
   x1="525.54919"
   y1="40.289139"
   x2="525.54919"
   y2="114.0695"
   id="line618"
   style="fill:none;stroke:#444444;stroke-width:0.80988324;stroke-miterlimit:10" /><polygon
   style="fill:#444444"
   id="polygon620"
   points="755.5,64.2 751.4,74.1 755.5,71.8 759.6,74.1 "
   class="st54"
   transform="matrix(0.80988324,0,0,0.80988324,-86.317623,-17.374547)" /><polygon
   style="fill:#444444"
   id="polygon624"
   points="755.5,169.4 751.4,159.4 755.5,161.8 759.6,159.4 "
   class="st54"
   transform="matrix(0.80988324,0,0,0.80988324,-86.317623,-17.374547)" />
<path
   style="opacity:0.6;fill:#00a99d;fill-opacity:0.51351348"
   inkscape:connector-curvature="0"
   id="path70"
   clip-path="url(#SVGID_12_)"
   d="m 204.6,64.9 c 15.8,13.1 25.9,32.8 25.9,55 0,22.1 -10,41.8 -25.7,54.8 h -151 l 0.2,0.1 C 38.1,161.8 28,142 28,119.9 28,97.8 38,78.1 53.7,65 h 151"
   class="st10"
   transform="matrix(0.80988324,0,0,0.80988324,-19.664263,-21.504956)" /><path
   class="st30"
   d="M 515.8,57.3 H 376.2 C 355.6,70.4 342,93.5 342,119.7 H 550 C 550,93.5 536.4,70.4 515.8,57.3"
   clip-path="url(#SVGID_26_)"
   id="path260"
   inkscape:connector-curvature="0"
   style="fill:#ff6565;fill-opacity:0.22522523"
   transform="matrix(0.80988324,0,0,0.80988324,-43.474829,-21.019022)" /><path
   class="st32"
   d="m 532.3,167.7 c 11,-12.9 17.7,-29.7 17.7,-48 H 342 c 0,18.3 6.7,35.1 17.7,48 z"
   clip-path="url(#SVGID_28_)"
   id="path274"
   inkscape:connector-curvature="0"
   style="fill:#65ccff;fill-opacity:0.33333333"
   transform="matrix(0.80988324,0,0,0.80988324,-43.474829,-21.019022)" /><path
   class="st31"
   d="m 342,119.7 c 0,18.3 6.7,35.1 17.7,48 H 532.3 C 543.3,154.8 550,138 550,119.7 550,93.5 536.4,70.5 515.8,57.3 H 376.2 C 355.6,70.4 342,93.5 342,119.7 Z"
   clip-path="url(#SVGID_24_)"
   id="path266"
   inkscape:connector-curvature="0"
   style="fill:none;stroke:#000000;stroke-miterlimit:10"
   transform="matrix(0.80988324,0,0,0.80988324,-43.474829,-21.019022)" /><circle
   class="st44"
   cx="478.70001"
   cy="119.4"
   r="72.199997"
   clip-path="url(#SVGID_40_)"
   id="circle384"
   style="display:inline;fill:none;stroke:#000000;stroke-miterlimit:10;stroke-dasharray:5.968, 5.968"
   transform="matrix(0.80988324,0,0,0.80988324,-43.474829,-21.019021)" /><line
   transform="matrix(0.80988324,0,0,0.80988324,-43.710944,-20.93803)"
   class="st37"
   x1="416.5"
   y1="62.900002"
   x2="416.5"
   y2="114.3"
   clip-path="url(#SVGID_30_)"
   id="line330"
   style="display:inline;fill:none;stroke:#000000;stroke-miterlimit:10" /><polygon
   style="display:inline"
   transform="matrix(0.80988324,0,0,0.80988324,-43.710944,-20.93803)"
   class="st38"
   points="419.7,65.2 416.5,57.3 413.2,65.2 416.5,63.3 "
   clip-path="url(#SVGID_30_)"
   id="polygon332" /><polygon
   style="display:inline"
   transform="matrix(0.80988324,0,0,0.80988324,-43.710944,-20.93803)"
   class="st38"
   points="419.7,112 416.5,120 413.2,112 416.5,113.9 "
   clip-path="url(#SVGID_30_)"
   id="polygon334" /><line
   class="st57"
   x1="322.3876"
   y1="31.027298"
   x2="322.3876"
   y2="108.93806"
   id="line650"
   style="display:inline;fill:none;stroke:#444444;stroke-width:0.80988324;stroke-miterlimit:10" /><polygon
   style="display:inline;fill:#444444"
   id="polygon652"
   points="459.3,64.9 463.4,67.3 459.3,57.4 455.3,67.3 "
   class="st54"
   transform="matrix(0.80988324,0,0,0.80988324,-49.591734,-21.12918)" /><polygon
   style="display:inline;fill:#444444"
   id="polygon656"
   points="459.3,160.1 463.4,157.7 459.3,167.7 455.3,157.7 "
   class="st54"
   transform="matrix(0.80988324,0,0,0.80988324,-49.591734,-21.12918)" /><path
   style="display:inline;fill:none;stroke:#000000;stroke-width:1px;stroke-linecap:butt;stroke-linejoin:miter;stroke-opacity:1;marker-end:url(#Arrow1Mend-0-1)"
   d="m 317.08244,75.771949 h 83.95859"
   id="path2771"
   inkscape:connector-curvature="0" /><path
   style="display:inline;fill:none;stroke:#000000;stroke-width:1px;stroke-linecap:butt;stroke-linejoin:miter;stroke-opacity:1;marker-end:url(#marker2797-9-7)"
   d="M 346.35449,75.09121 374.02684,25.468279"
   id="path2793"
   inkscape:connector-curvature="0" /><path
   style="display:inline;fill:none;stroke:#000000;stroke-width:1px;stroke-linecap:butt;stroke-linejoin:miter;stroke-opacity:1;marker-start:url(#marker2928-4-6);marker-end:url(#marker2882)"
   d="M 293.60542,76.247956 V 114.80134"
   id="path2846"
   inkscape:connector-curvature="0" /></g><g
     inkscape:groupmode="layer"
     id="layer3"
     inkscape:label="Text"
     style="display:inline"
     sodipodi:insensitive="true"><g
       style="display:inline"
       transform="matrix(0.80988324,0,0,0.80988324,-8.980683,-0.8248454)"
       class="st1"
       clip-path="url(#SVGID_2_)"
       id="g142"><text
   transform="translate(207.6813,164.3945)"
   class="st5 st6"
   id="text140"
   style="font-size:12px;font-family:Arial-ItalicMT">$\theta$</text>

</g><g
       style="display:inline"
       transform="matrix(0.80988324,0,0,0.80988324,-21.492667,-43.040795)"
       class="st1"
       clip-path="url(#SVGID_2_)"
       id="g160"><text
   transform="translate(167.6407,200.8369)"
   class="st5 st6"
   id="text158"
   style="font-size:12px;font-family:Arial-ItalicMT">$r$</text>

</g><text
       transform="translate(7.170059,8.6611395)"
       style="font-size:9.71859932px;font-family:Arial-ItalicMT;display:inline;stroke-width:0.80988324"
       id="text284"
       class="st5 st6"
       x="149.85703"
       y="31.373199">$\theta$</text>
<text
       transform="translate(7.170059,8.6611395)"
       class="st5 st6"
       id="text664"
       style="font-size:9.71859837px;font-family:Arial-ItalicMT;display:inline;stroke-width:0.80988324"
       x="92.160011"
       y="65.07222">$H$</text>
<g
       style="display:inline"
       transform="matrix(0.80988324,0,0,0.80988324,-33.447917,-19.130293)"
       class="st1"
       clip-path="url(#SVGID_2_)"
       id="g52"><text
   transform="translate(182.5748,104.2773)"
   class="st5 st6"
   id="text50"
   style="font-size:12px;font-family:Arial-ItalicMT">$R_2$</text>

</g><text
       class="st5 st6"
       id="text42"
       style="font-size:9.71859932px;font-family:Arial-ItalicMT;stroke-width:0.80988324"
       x="128.45078"
       y="95.176224">$R_1$</text>
<text
       class="st5 st6"
       id="text236"
       style="font-size:9.71859932px;font-family:Arial-ItalicMT;stroke-width:0.80988324"
       x="35.270203"
       y="63.687641">$δ$</text>
<text
       y="35.889046"
       x="387.47034"
       style="font-size:9.71859932px;font-family:Arial-ItalicMT;display:inline;stroke-width:0.80988324"
       id="text136"
       class="st5 st6">$\theta_{\mathrm{t}}$</text>
<text
       style="font-style:normal;font-variant:normal;font-weight:normal;font-stretch:normal;font-size:9.71859932px;font-family:Arial-ItalicMT;-inkscape-font-specification:'Arial-ItalicMT, Normal';font-variant-ligatures:normal;font-variant-caps:normal;font-variant-numeric:normal;font-feature-settings:normal;text-align:start;writing-mode:lr-tb;text-anchor:start;display:inline;stroke-width:0.80988324"
       id="text420"
       class="st5 st6"
       x="278.93243"
       y="29.347153"><tspan
         y="29.347153"
         x="278.93243"
         id="tspan1182"
         sodipodi:role="line"
         style="stroke-width:0.80988324">$r_{\mathrm{t}}$</tspan></text>
<text
       class="st5 st6"
       id="text338"
       style="font-size:9.71859932px;font-family:Arial-ItalicMT;fill:#000000;fill-opacity:1;stroke-width:0.80988324"
       x="302.13434"
       y="60.396683">$\delta_{\mathrm{t}}$</text>
<text
       y="120.93874"
       x="275.01346"
       class="st5 st6"
       id="text1186"
       style="font-style:normal;font-variant:normal;font-weight:normal;font-stretch:normal;font-size:9.71859932px;font-family:Arial-ItalicMT;-inkscape-font-specification:'Arial-ItalicMT, Normal';font-variant-ligatures:normal;font-variant-caps:normal;font-variant-numeric:normal;font-feature-settings:normal;text-align:start;writing-mode:lr-tb;text-anchor:start;display:inline;stroke-width:0.80988324"><tspan
         y="120.93874"
         x="275.01346"
         sodipodi:role="line"
         id="tspan1184"
         style="stroke-width:0.80988324">$r_{\mathrm{b}}$</tspan></text>
<text
       class="st5 st6"
       id="text360"
       style="font-size:9.71859932px;font-family:Arial-ItalicMT;stroke-width:0.80988324"
       x="302.13434"
       y="105.28074">$\delta_{\mathrm{b}}$</text>
<text
       class="st5 st6"
       id="text396"
       style="font-size:9.71859932px;font-family:Arial-ItalicMT;stroke-width:0.80988324"
       x="362.47598"
       y="94.260109">$R_1$</text>
<text
       class="st5 st6"
       id="text404"
       style="font-size:9.71859932px;font-family:Arial-ItalicMT;stroke-width:0.80988324"
       x="366.47598"
       y="64.773491">$R_2$</text>
<text
       class="st5 st6"
       id="text666"
       style="font-size:9.71859932px;font-family:Arial-ItalicMT;stroke-width:0.80988324"
       x="330.87119"
       y="75.81369">$H$</text>
<text
       class="st5 st6"
       id="text1175"
       style="font-style:normal;font-variant:normal;font-weight:normal;font-stretch:normal;font-size:9.71859932px;font-family:Arial-ItalicMT;-inkscape-font-specification:'Arial-ItalicMT, Normal';font-variant-ligatures:normal;font-variant-caps:normal;font-variant-numeric:normal;font-feature-settings:normal;text-align:start;writing-mode:lr-tb;text-anchor:start;display:inline;stroke-width:0.80988324"
       x="397.21042"
       y="130.90059"><tspan
         y="130.90059"
         x="397.21042"
         id="tspan1177"
         sodipodi:role="line"
         style="stroke-width:0.80988324">$\theta_{\mathrm{b}}$</tspan></text>
<text
       transform="translate(7.170059,8.6611395)"
       y="57.553261"
       x="468.06372"
       class="st5 st6"
       id="text598"
       style="font-style:normal;font-variant:normal;font-weight:normal;font-stretch:normal;font-size:9.71859932px;font-family:Arial-ItalicMT;-inkscape-font-specification:'Arial-ItalicMT, Normal';font-variant-ligatures:normal;font-variant-caps:normal;font-variant-numeric:normal;font-feature-settings:normal;text-align:start;writing-mode:lr-tb;text-anchor:start;display:inline;stroke-width:0.80988324"><tspan
         id="tspan2273"
         sodipodi:role="line"
         x="468.06372"
         y="57.553261"
         style="stroke-width:0.80988324">$R$</tspan></text>
<text
       y="44.476532"
       x="583.02063"
       class="st5 st6"
       id="text600"
       style="font-size:9.71859932px;font-family:Arial-ItalicMT;display:inline;stroke-width:0.80988324">$\theta_{\mathrm{t}}$</text>
<text
       y="129.21779"
       x="568.92181"
       class="st5 st6"
       id="text604"
       style="font-size:9.71859932px;font-family:Arial-ItalicMT;display:inline;stroke-width:0.80988324">$\theta_{\mathrm{b}}$</text>
<text
       class="st5 st6"
       id="text632"
       style="font-size:9.71859837px;font-family:Arial-ItalicMT;stroke-width:0.80988324"
       x="536.90808"
       y="81.086395">$H_0$</text>
<text
       xml:space="preserve"
       style="font-style:normal;font-variant:normal;font-weight:normal;font-stretch:normal;font-size:12px;line-height:1.25;font-family:arial;-inkscape-font-specification:'arial, Normal';font-variant-ligatures:normal;font-variant-caps:normal;font-variant-numeric:normal;font-feature-settings:normal;text-align:start;letter-spacing:0px;word-spacing:0px;writing-mode:lr-tb;text-anchor:start;fill:#000000;fill-opacity:1;stroke:none"
       x="6.3536229"
       y="13.554584"
       id="text2337"><tspan
         sodipodi:role="line"
         id="tspan2335"
         x="6.3536229"
         y="13.554584"
         style="font-style:normal;font-variant:normal;font-weight:bold;font-stretch:normal;font-size:12px;font-family:arial;-inkscape-font-specification:'arial, Bold';font-variant-ligatures:normal;font-variant-caps:normal;font-variant-numeric:normal;font-feature-settings:normal;text-align:start;writing-mode:lr-tb;text-anchor:start">\Lsize a</tspan></text>
<text
       id="text2341"
       y="13.554584"
       x="220.35362"
       style="font-style:normal;font-variant:normal;font-weight:normal;font-stretch:normal;font-size:12px;line-height:1.25;font-family:arial;-inkscape-font-specification:'arial, Normal';font-variant-ligatures:normal;font-variant-caps:normal;font-variant-numeric:normal;font-feature-settings:normal;text-align:start;letter-spacing:0px;word-spacing:0px;writing-mode:lr-tb;text-anchor:start;fill:#000000;fill-opacity:1;stroke:none"
       xml:space="preserve"><tspan
         style="font-style:normal;font-variant:normal;font-weight:bold;font-stretch:normal;font-size:12px;font-family:arial;-inkscape-font-specification:'arial, Bold';font-variant-ligatures:normal;font-variant-caps:normal;font-variant-numeric:normal;font-feature-settings:normal;text-align:start;writing-mode:lr-tb;text-anchor:start"
         y="13.554584"
         x="220.35362"
         id="tspan2339"
         sodipodi:role="line">\Lsize b</tspan></text>
<text
       xml:space="preserve"
       style="font-style:normal;font-variant:normal;font-weight:normal;font-stretch:normal;font-size:12px;line-height:1.25;font-family:arial;-inkscape-font-specification:'arial, Normal';font-variant-ligatures:normal;font-variant-caps:normal;font-variant-numeric:normal;font-feature-settings:normal;text-align:start;letter-spacing:0px;word-spacing:0px;writing-mode:lr-tb;text-anchor:start;fill:#000000;fill-opacity:1;stroke:none"
       x="442.35364"
       y="13.554584"
       id="text2345"><tspan
         sodipodi:role="line"
         id="tspan2343"
         x="442.35364"
         y="13.554584"
         style="font-style:normal;font-variant:normal;font-weight:bold;font-stretch:normal;font-size:12px;font-family:arial;-inkscape-font-specification:'arial, Bold';font-variant-ligatures:normal;font-variant-caps:normal;font-variant-numeric:normal;font-feature-settings:normal;text-align:start;writing-mode:lr-tb;text-anchor:start">\Lsize c</tspan></text>
</g><line
     class="st57"
     x1="96.352692"
     y1="44.993279"
     x2="96.352692"
     y2="120.4744"
     id="line636"
     style="fill:none;stroke:#444444;stroke-width:0.80988324;stroke-miterlimit:10" /><polygon
     style="fill:#444444"
     id="polygon638"
     points="146.4,76.3 142.3,66.4 138.3,76.3 142.3,73.9 "
     class="st54"
     transform="matrix(0.80988324,0,0,0.80988324,-18.893699,-14.452154)" /><polygon
     style="fill:#444444"
     id="polygon642"
     points="146.4,163.7 142.3,173.7 138.3,163.7 142.3,166.1 "
     class="st54"
     transform="matrix(0.80988324,0,0,0.80988324,-18.893699,-14.452154)" /><line
     style="fill:none;stroke:#666666;stroke-miterlimit:10;stroke-dasharray:6, 6"
     id="line10"
     clip-path="url(#SVGID_2_)"
     y2="203.5"
     x2="132.3"
     y1="31.1"
     x1="132.3"
     class="st0"
     transform="matrix(0.80988324,0,0,0.80988324,-12.656178,-12.762826)" /><path
     style="fill:#ed1c24"
     inkscape:connector-curvature="0"
     id="path30"
     clip-path="url(#SVGID_8_)"
     d="m 122.4,38.9 c -0.9,0.6 -0.9,1.3 0,2 2.2,1.6 9,2.5 15.3,2 6.2,-0.4 9.5,-2.1 7.3,-3.6 -0.2,-0.1 -0.4,-0.3 -0.7,-0.4 h -0.6 l -0.2,0.1 c 0.2,0.1 0.4,0.2 0.5,0.3 2,1.4 -1,2.9 -6.7,3.3 -5.7,0.4 -12,-0.4 -14,-1.9 -0.8,-0.6 -0.8,-1.2 0,-1.8 h -0.9"
     class="st4"
     transform="matrix(0.80988324,0,0,0.80988324,-12.656178,-12.762826)" /><polygon
     style="fill:#ed1c24"
     id="polygon32"
     clip-path="url(#SVGID_8_)"
     points="139.9,37.9 142.6,39.8 143.5,39.1 143.7,39 144.3,38.9 147.1,38.8 "
     class="st4"
     transform="matrix(0.80988324,0,0,0.80988324,-12.656178,-12.762826)" /><path
     class="st11"
     d="m 204.6,64.9 c 15.8,13.1 25.9,32.8 25.9,55 0,22.1 -10,41.8 -25.7,54.8 h -151 l 0.2,0.1 C 38.1,161.8 28,142 28,119.9 28,97.8 38,78.1 53.7,65 h 151"
     clip-path="url(#SVGID_12_)"
     id="path72"
     inkscape:connector-curvature="0"
     style="fill:none;stroke:#000000;stroke-miterlimit:10"
     transform="matrix(0.80988324,0,0,0.80988324,-12.575192,-12.924805)" /><line
     class="st12"
     x1="-8.8999996"
     y1="119.9"
     x2="-5.9000001"
     y2="119.9"
     clip-path="url(#SVGID_14_)"
     id="line84"
     style="fill:none;stroke:#000000;stroke-miterlimit:10"
     transform="matrix(0.80988324,0,0,0.80988324,-12.575192,-12.924805)" /><line
     class="st13"
     x1="0"
     y1="119.9"
     x2="268.10001"
     y2="119.9"
     clip-path="url(#SVGID_14_)"
     id="line86"
     style="fill:none;stroke:#000000;stroke-miterlimit:10;stroke-dasharray:5.892, 5.892"
     transform="matrix(0.80988324,0,0,0.80988324,-12.575192,-12.924805)" /><line
     class="st12"
     x1="271"
     y1="119.9"
     x2="274"
     y2="119.9"
     clip-path="url(#SVGID_14_)"
     id="line88"
     style="fill:none;stroke:#000000;stroke-miterlimit:10"
     transform="matrix(0.80988324,0,0,0.80988324,-12.575192,-12.924805)" /><circle
     class="st14"
     cx="160.89999"
     cy="119.8"
     r="69.900002"
     clip-path="url(#SVGID_16_)"
     id="circle100"
     style="fill:none;stroke:#000000;stroke-miterlimit:10;stroke-dasharray:5.934, 5.934"
     transform="matrix(0.80988324,0,0,0.80988324,-12.575192,-12.924805)" /><line
     style="fill:#808080"
     id="line116"
     clip-path="url(#SVGID_2_)"
     y2="136.60001"
     x2="245.5"
     y1="174.7"
     x1="204.7"
     class="st19"
     transform="matrix(0.80988324,0,0,0.80988324,-12.656178,-12.762826)" /><line
     style="fill:none;stroke:#666666;stroke-miterlimit:10"
     id="line118"
     clip-path="url(#SVGID_2_)"
     y2="136.60001"
     x2="245.5"
     y1="174.7"
     x1="204.7"
     class="st20"
     transform="matrix(0.80988324,0,0,0.80988324,-12.656178,-12.762826)" /><path
     class="st21"
     d="m 196.5,174.7 c 0,-4.5 3.6,-8.2 8.2,-8.2 2.3,0 4.3,0.9 5.8,2.4"
     clip-path="url(#SVGID_18_)"
     id="path126"
     inkscape:connector-curvature="0"
     style="fill:none;stroke:#666666;stroke-miterlimit:10"
     transform="matrix(0.80988324,0,0,0.80988324,-12.656178,-12.762826)" /><line
     class="st22"
     x1="204.7"
     y1="64.699997"
     x2="245.5"
     y2="102.7"
     clip-path="url(#SVGID_18_)"
     id="line128"
     style="fill:#808080"
     transform="matrix(0.80988324,0,0,0.80988324,-12.656178,-12.762826)" /><line
     class="st21"
     x1="204.7"
     y1="64.699997"
     x2="245.5"
     y2="102.7"
     clip-path="url(#SVGID_18_)"
     id="line130"
     style="fill:none;stroke:#666666;stroke-miterlimit:10"
     transform="matrix(0.80988324,0,0,0.80988324,-12.656178,-12.762826)" /><path
     class="st21"
     d="m 196.5,64.6 c 0,4.5 3.6,8.2 8.2,8.2 2.3,0 4.3,-0.9 5.8,-2.4"
     clip-path="url(#SVGID_18_)"
     id="path132"
     inkscape:connector-curvature="0"
     style="fill:none;stroke:#666666;stroke-miterlimit:10"
     transform="matrix(0.80988324,0,0,0.80988324,-12.656178,-12.762826)" /><line
     class="st23"
     x1="137.39999"
     y1="183.7"
     x2="197.60001"
     y2="183.7"
     clip-path="url(#SVGID_20_)"
     id="line150"
     style="fill:none;stroke:#000000;stroke-miterlimit:10"
     transform="matrix(0.80988324,0,0,0.80988324,-12.656178,-17.622125)" /><polygon
     class="st24"
     points="139.6,186.7 137.8,183.7 139.6,180.6 132.1,183.7 "
     clip-path="url(#SVGID_20_)"
     id="polygon152"
     transform="matrix(0.80988324,0,0,0.80988324,-12.656178,-17.622125)" /><polygon
     class="st24"
     points="195.5,186.7 197.2,183.7 195.5,180.6 202.9,183.7 "
     clip-path="url(#SVGID_20_)"
     id="polygon154"
     transform="matrix(0.80988324,0,0,0.80988324,-12.656178,-17.622125)" /><line
     class="st25"
     x1="84.300003"
     y1="114.6"
     x2="84.300003"
     y2="69.900002"
     clip-path="url(#SVGID_22_)"
     id="line228"
     style="fill:none;stroke:#000000;stroke-miterlimit:10"
     transform="matrix(0.80988324,0,0,0.80988324,-12.656178,-12.762826)" /><polygon
     class="st26"
     points="84.3,119.9 87.3,112.4 84.3,114.2 81.2,112.4 "
     clip-path="url(#SVGID_22_)"
     id="polygon230"
     transform="matrix(0.80988324,0,0,0.80988324,-12.656178,-12.762826)" /><polygon
     class="st26"
     points="84.3,64.6 87.3,72.1 84.3,70.3 81.2,72.1 "
     clip-path="url(#SVGID_22_)"
     id="polygon232"
     transform="matrix(0.80988324,0,0,0.80988324,-12.656178,-12.762826)" /><text
     class="st7 st8"
     id="text342"
     style="font-size:6.99599981px;font-family:ArialMT"
     x="397.72437"
     y="146.29436" />
<text
     class="st7 st8"
     id="text364"
     style="font-size:6.99599981px;font-family:ArialMT"
     x="397.72437"
     y="201.71475" />
<line
     class="st27"
     x1="300.70001"
     y1="119.7"
     x2="586.40002"
     y2="119.7"
     clip-path="url(#SVGID_24_)"
     id="line246"
     style="fill:none;stroke:#000000;stroke-miterlimit:10;stroke-dasharray:6, 6"
     transform="matrix(0.80988324,0,0,0.80988324,-36.30477,-12.357883)" /><line
     class="st28"
     x1="531.70001"
     y1="167.7"
     x2="555.20001"
     y2="144.2"
     clip-path="url(#SVGID_24_)"
     id="line248"
     style="fill:none;stroke:#666666;stroke-miterlimit:10"
     transform="matrix(0.80988324,0,0,0.80988324,-36.30477,-12.357883)" /><path
     class="st28"
     d="m 523.1,167.5 c 0,-4.9 3.9,-8.8 8.8,-8.8 1.8,0 3.5,0.6 4.9,1.5"
     clip-path="url(#SVGID_24_)"
     id="path250"
     inkscape:connector-curvature="0"
     style="fill:none;stroke:#666666;stroke-miterlimit:10"
     transform="matrix(0.80988324,0,0,0.80988324,-36.30477,-12.357883)" /><line
     class="st28"
     x1="515.29999"
     y1="57.299999"
     x2="534.70001"
     y2="70.400002"
     clip-path="url(#SVGID_24_)"
     id="line252"
     style="fill:none;stroke:#666666;stroke-miterlimit:10"
     transform="matrix(0.80988324,0,0,0.80988324,-36.30477,-12.357883)" /><path
     class="st28"
     d="m 521.5,61.5 c -1.3,2 -3.5,3.2 -6.1,3.2 -4,0 -7.3,-3.3 -7.3,-7.3"
     clip-path="url(#SVGID_24_)"
     id="path280"
     inkscape:connector-curvature="0"
     style="fill:none;stroke:#666666;stroke-miterlimit:10"
     transform="matrix(0.80988324,0,0,0.80988324,-36.30477,-12.357883)" /><line
     transform="matrix(0.80988324,0,0,0.80988324,-36.30477,-12.357883)"
     class="st33"
     x1="445.29999"
     y1="18.9"
     x2="445.29999"
     y2="191.3"
     clip-path="url(#SVGID_30_)"
     id="line306"
     style="fill:none;stroke:#666666;stroke-miterlimit:10;stroke-dasharray:6, 6" /><path
     style="fill:#ed1c24"
     inkscape:connector-curvature="0"
     id="path320"
     clip-path="url(#SVGID_34_)"
     d="m 433.4,26.7 c -0.9,0.6 -0.9,1.3 0,2 2.2,1.6 9,2.5 15.3,2 6.2,-0.4 9.5,-2.1 7.3,-3.6 -0.2,-0.1 -0.4,-0.3 -0.7,-0.4 h -0.6 l -0.2,0.1 c 0.2,0.1 0.4,0.2 0.5,0.3 2,1.4 -1,2.9 -6.7,3.3 -5.7,0.4 -12,-0.4 -14,-1.9 -0.8,-0.6 -0.8,-1.2 0,-1.8 h -0.9"
     class="st36"
     transform="matrix(0.80988324,0,0,0.80988324,-36.30477,-12.357883)" /><polygon
     style="fill:#ed1c24"
     id="polygon322"
     clip-path="url(#SVGID_34_)"
     points="450.9,25.6 453.6,27.5 454.5,26.9 454.7,26.7 455.3,26.7 458.1,26.6 "
     class="st36"
     transform="matrix(0.80988324,0,0,0.80988324,-36.30477,-12.357883)" /><path
     style="fill:none;stroke:#000000;stroke-width:1px;stroke-linecap:butt;stroke-linejoin:miter;stroke-opacity:1;marker-end:url(#marker8154)"
     d="M 96.111474,84.077476 H 173.93128"
     id="path8144"
     inkscape:connector-curvature="0" /><path
     style="fill:none;stroke:#000000;stroke-width:1px;stroke-linecap:butt;stroke-linejoin:miter;stroke-opacity:1;marker-end:url(#marker8214)"
     d="M 113.44042,83.917022 153.2889,39.798594"
     id="path8204"
     inkscape:connector-curvature="0" /></svg>