<?xml version="1.0" encoding="utf-8" standalone="no"?>
<!DOCTYPE svg PUBLIC "-//W3C//DTD SVG 1.1//EN"
  "http://www.w3.org/Graphics/SVG/1.1/DTD/svg11.dtd">
<!-- Created with matplotlib (https://matplotlib.org/) -->
<svg height="205.191111pt" version="1.1" viewBox="0 0 276 205.191111" width="276pt" xmlns="http://www.w3.org/2000/svg" xmlns:xlink="http://www.w3.org/1999/xlink">
 <defs>
  <style type="text/css">
*{stroke-linecap:butt;stroke-linejoin:round;}
  </style>
 </defs>
 <g id="figure_1">
  <g id="patch_1">
   <path d="M 0 205.191111 
L 276 205.191111 
L 276 0 
L 0 0 
z
" style="fill:none;"/>
  </g>
  <g id="axes_1">
   <g id="patch_2">
    <path d="M 37.967656 171.861267 
L 265.041094 171.861267 
L 265.041094 7.019297 
L 37.967656 7.019297 
z
" style="fill:none;"/>
   </g>
   <g id="matplotlib.axis_1">
    <g id="xtick_1">
     <g id="line2d_1">
      <defs>
       <path d="M 0 0 
L 0 3.5 
" id="m0ff863fcd8" style="stroke:#000000;stroke-width:0.8;"/>
      </defs>
      <g>
       <use style="stroke:#000000;stroke-width:0.8;" x="37.967656" xlink:href="#m0ff863fcd8" y="171.861267"/>
      </g>
     </g>
     <g id="text_1">
      <text style="font-family:Verdana;font-size:9px;font-style:normal;font-weight:normal;text-anchor:middle;" transform="rotate(-0, 37.967656, 185.699861)" x="37.967656" y="185.699861">-2.0</text>
     </g>
    </g>
    <g id="xtick_2">
     <g id="line2d_2">
      <g>
       <use style="stroke:#000000;stroke-width:0.8;" x="66.351836" xlink:href="#m0ff863fcd8" y="171.861267"/>
      </g>
     </g>
     <g id="text_2">
      <text style="font-family:Verdana;font-size:9px;font-style:normal;font-weight:normal;text-anchor:middle;" transform="rotate(-0, 66.351836, 185.699861)" x="66.351836" y="185.699861">-1.5</text>
     </g>
    </g>
    <g id="xtick_3">
     <g id="line2d_3">
      <g>
       <use style="stroke:#000000;stroke-width:0.8;" x="94.736016" xlink:href="#m0ff863fcd8" y="171.861267"/>
      </g>
     </g>
     <g id="text_3">
      <text style="font-family:Verdana;font-size:9px;font-style:normal;font-weight:normal;text-anchor:middle;" transform="rotate(-0, 94.736016, 185.699861)" x="94.736016" y="185.699861">-1.0</text>
     </g>
    </g>
    <g id="xtick_4">
     <g id="line2d_4">
      <g>
       <use style="stroke:#000000;stroke-width:0.8;" x="123.120195" xlink:href="#m0ff863fcd8" y="171.861267"/>
      </g>
     </g>
     <g id="text_4">
      <text style="font-family:Verdana;font-size:9px;font-style:normal;font-weight:normal;text-anchor:middle;" transform="rotate(-0, 123.120195, 185.699861)" x="123.120195" y="185.699861">-0.5</text>
     </g>
    </g>
    <g id="xtick_5">
     <g id="line2d_5">
      <g>
       <use style="stroke:#000000;stroke-width:0.8;" x="151.504375" xlink:href="#m0ff863fcd8" y="171.861267"/>
      </g>
     </g>
     <g id="text_5">
      <text style="font-family:Verdana;font-size:9px;font-style:normal;font-weight:normal;text-anchor:middle;" transform="rotate(-0, 151.504375, 185.699861)" x="151.504375" y="185.699861">0.0</text>
     </g>
    </g>
    <g id="xtick_6">
     <g id="line2d_6">
      <g>
       <use style="stroke:#000000;stroke-width:0.8;" x="179.888555" xlink:href="#m0ff863fcd8" y="171.861267"/>
      </g>
     </g>
     <g id="text_6">
      <text style="font-family:Verdana;font-size:9px;font-style:normal;font-weight:normal;text-anchor:middle;" transform="rotate(-0, 179.888555, 185.699861)" x="179.888555" y="185.699861">0.5</text>
     </g>
    </g>
    <g id="xtick_7">
     <g id="line2d_7">
      <g>
       <use style="stroke:#000000;stroke-width:0.8;" x="208.272734" xlink:href="#m0ff863fcd8" y="171.861267"/>
      </g>
     </g>
     <g id="text_7">
      <text style="font-family:Verdana;font-size:9px;font-style:normal;font-weight:normal;text-anchor:middle;" transform="rotate(-0, 208.272734, 185.699861)" x="208.272734" y="185.699861">1.0</text>
     </g>
    </g>
    <g id="xtick_8">
     <g id="line2d_8">
      <g>
       <use style="stroke:#000000;stroke-width:0.8;" x="236.656914" xlink:href="#m0ff863fcd8" y="171.861267"/>
      </g>
     </g>
     <g id="text_8">
      <text style="font-family:Verdana;font-size:9px;font-style:normal;font-weight:normal;text-anchor:middle;" transform="rotate(-0, 236.656914, 185.699861)" x="236.656914" y="185.699861">1.5</text>
     </g>
    </g>
    <g id="xtick_9">
     <g id="line2d_9">
      <g>
       <use style="stroke:#000000;stroke-width:0.8;" x="265.041094" xlink:href="#m0ff863fcd8" y="171.861267"/>
      </g>
     </g>
     <g id="text_9">
      <text style="font-family:Verdana;font-size:9px;font-style:normal;font-weight:normal;text-anchor:middle;" transform="rotate(-0, 265.041094, 185.699861)" x="265.041094" y="185.699861">2.0</text>
     </g>
    </g>
    <g id="text_10">
     <!-- $\sigma_{\mathrm{2D}}$ ($10^{13}$ $e\cdot$cm$^{-2}$) -->
     <g transform="translate(109.429375 199.701111)">
      <text>
       <tspan style="font-family:DejaVu Sans;font-size:9px;font-style:oblique;font-weight:oblique;" x="0 45.025488" y="-0.8734375000000014">σe</tspan>
       <tspan style="font-family:DejaVu Sans;font-size:6.3px;font-style:book;font-weight:book;" x="5.704102 9.712354 33.598828 37.60708 70.459277 75.737988" y="0.6031249999999986 0.6031249999999986 -4.318750000000001 -4.318750000000001 -4.318750000000001 -4.318750000000001">2D13−2</tspan>
       <tspan style="font-family:Verdana;font-size:9px;font-style:regular;font-weight:regular;" x="14.80957 17.973633 41.861426 56.930273 61.619238 79.992334" y="-0.8734375000000014"> ( cm)</tspan>
       <tspan style="font-family:DejaVu Sans;font-size:9px;font-style:book;font-weight:book;" x="22.060547 27.786621 52.316016" y="-0.8734375000000014">10⋅</tspan>
      </text>
     </g>
    </g>
   </g>
   <g id="matplotlib.axis_2">
    <g id="ytick_1">
     <g id="line2d_10">
      <defs>
       <path d="M 0 0 
L -3.5 0 
" id="mc328282aba" style="stroke:#000000;stroke-width:0.8;"/>
      </defs>
      <g>
       <use style="stroke:#000000;stroke-width:0.8;" x="37.967656" xlink:href="#mc328282aba" y="156.875634"/>
      </g>
     </g>
     <g id="text_11">
      <text style="font-family:Verdana;font-size:9px;font-style:normal;font-weight:normal;text-anchor:end;" transform="rotate(-0, 30.967656, 160.294931)" x="30.967656" y="160.294931">0.0</text>
     </g>
    </g>
    <g id="ytick_2">
     <g id="line2d_11">
      <g>
       <use style="stroke:#000000;stroke-width:0.8;" x="37.967656" xlink:href="#mc328282aba" y="126.904366"/>
      </g>
     </g>
     <g id="text_12">
      <text style="font-family:Verdana;font-size:9px;font-style:normal;font-weight:normal;text-anchor:end;" transform="rotate(-0, 30.967656, 130.323663)" x="30.967656" y="130.323663">0.1</text>
     </g>
    </g>
    <g id="ytick_3">
     <g id="line2d_12">
      <g>
       <use style="stroke:#000000;stroke-width:0.8;" x="37.967656" xlink:href="#mc328282aba" y="96.933099"/>
      </g>
     </g>
     <g id="text_13">
      <text style="font-family:Verdana;font-size:9px;font-style:normal;font-weight:normal;text-anchor:end;" transform="rotate(-0, 30.967656, 100.352396)" x="30.967656" y="100.352396">0.2</text>
     </g>
    </g>
    <g id="ytick_4">
     <g id="line2d_13">
      <g>
       <use style="stroke:#000000;stroke-width:0.8;" x="37.967656" xlink:href="#mc328282aba" y="66.961832"/>
      </g>
     </g>
     <g id="text_14">
      <text style="font-family:Verdana;font-size:9px;font-style:normal;font-weight:normal;text-anchor:end;" transform="rotate(-0, 30.967656, 70.381128)" x="30.967656" y="70.381128">0.3</text>
     </g>
    </g>
    <g id="ytick_5">
     <g id="line2d_14">
      <g>
       <use style="stroke:#000000;stroke-width:0.8;" x="37.967656" xlink:href="#mc328282aba" y="36.990564"/>
      </g>
     </g>
     <g id="text_15">
      <text style="font-family:Verdana;font-size:9px;font-style:normal;font-weight:normal;text-anchor:end;" transform="rotate(-0, 30.967656, 40.409861)" x="30.967656" y="40.409861">0.4</text>
     </g>
    </g>
    <g id="ytick_6">
     <g id="line2d_15">
      <g>
       <use style="stroke:#000000;stroke-width:0.8;" x="37.967656" xlink:href="#mc328282aba" y="7.019297"/>
      </g>
     </g>
     <g id="text_16">
      <text style="font-family:Verdana;font-size:9px;font-style:normal;font-weight:normal;text-anchor:end;" transform="rotate(-0, 30.967656, 10.438594)" x="30.967656" y="10.438594">0.5</text>
     </g>
    </g>
    <g id="text_17">
     <!-- $\Delta\cos\theta$ -->
     <g transform="translate(10.438594 102.850282)rotate(-90)">
      <text>
       <tspan style="font-family:DejaVu Sans;font-size:9px;font-style:book;font-weight:book;" x="0 6.156738 11.10498 16.611328" y="-0.09375">Δcos</tspan>
       <tspan style="font-family:DejaVu Sans;font-size:9px;font-style:oblique;font-weight:oblique;" x="21.300293" y="-0.09375">θ</tspan>
      </text>
     </g>
    </g>
   </g>
   <g id="LineCollection_1">
    <path clip-path="url(#pf6304a81d9)" d="M 180.095059 120.998178 
L 228.297717 120.998178 
" style="fill:none;stroke:#1f77b4;"/>
    <path clip-path="url(#pf6304a81d9)" d="M 175.528492 126.189677 
L 223.179632 126.189677 
" style="fill:none;stroke:#1f77b4;"/>
    <path clip-path="url(#pf6304a81d9)" d="M 151.271359 156.255748 
L 151.737391 156.255748 
" style="fill:none;stroke:#1f77b4;"/>
    <path clip-path="url(#pf6304a81d9)" d="M 68.742231 126.240206 
L 99.075712 126.240206 
" style="fill:none;stroke:#1f77b4;"/>
    <path clip-path="url(#pf6304a81d9)" d="M 39.511786 121.299878 
L 99.075712 121.299878 
" style="fill:none;stroke:#1f77b4;"/>
   </g>
   <g id="LineCollection_2">
    <path clip-path="url(#pf6304a81d9)" d="M 201.278859 140.884539 
L 201.278859 101.499068 
" style="fill:none;stroke:#1f77b4;"/>
    <path clip-path="url(#pf6304a81d9)" d="M 196.177319 141.242605 
L 196.177319 111.343736 
" style="fill:none;stroke:#1f77b4;"/>
    <path clip-path="url(#pf6304a81d9)" d="M 151.504375 171.548266 
L 151.504375 141.089137 
" style="fill:none;stroke:#1f77b4;"/>
    <path clip-path="url(#pf6304a81d9)" d="M 84.770718 146.727205 
L 84.770718 106.134665 
" style="fill:none;stroke:#1f77b4;"/>
    <path clip-path="url(#pf6304a81d9)" d="M 72.085808 131.304724 
L 72.085808 111.393499 
" style="fill:none;stroke:#1f77b4;"/>
   </g>
   <g id="line2d_16">
    <path clip-path="url(#pf6304a81d9)" d="M -1 149.552245 
L 3.495212 151.37982 
L 10.670333 154.025608 
L 17.667191 156.307797 
L 24.485785 158.258464 
L 31.126114 159.907649 
L 37.58818 161.283445 
L 43.871982 162.412092 
L 49.977521 163.318067 
L 55.904795 164.02417 
L 64.461461 164.754545 
L 72.617034 165.147873 
L 80.371513 165.262413 
L 87.724899 165.149951 
L 94.67719 164.856354 
L 103.322989 164.252339 
L 111.255732 163.480184 
L 120.168926 162.382329 
L 129.394082 161.010615 
L 139.198596 159.315537 
L 149.894429 157.218968 
L 152.178435 156.660293 
L 162.785137 153.053013 
L 175.040779 148.665594 
L 189.881247 143.11278 
L 210.604424 135.089995 
L 244.207167 122.027965 
L 259.136768 116.447069 
L 271.882636 111.895742 
L 277 110.140658 
L 277 110.140658 
" style="fill:none;stroke:#666666;stroke-linecap:square;stroke-opacity:0.8;"/>
   </g>
   <g id="line2d_17">
    <defs>
     <path d="M 0 3 
C 0.795609 3 1.55874 2.683901 2.12132 2.12132 
C 2.683901 1.55874 3 0.795609 3 0 
C 3 -0.795609 2.683901 -1.55874 2.12132 -2.12132 
C 1.55874 -2.683901 0.795609 -3 0 -3 
C -0.795609 -3 -1.55874 -2.683901 -2.12132 -2.12132 
C -2.683901 -1.55874 -3 -0.795609 -3 0 
C -3 0.795609 -2.683901 1.55874 -2.12132 2.12132 
C -1.55874 2.683901 -0.795609 3 0 3 
z
" id="m633ec5f06d"/>
    </defs>
    <g clip-path="url(#pf6304a81d9)">
     <use style="fill:#ff7f0e;" x="107.807412" xlink:href="#m633ec5f06d" y="105.021686"/>
     <use style="fill:#ff7f0e;" x="151.504375" xlink:href="#m633ec5f06d" y="156.875634"/>
     <use style="fill:#ff7f0e;" x="195.201338" xlink:href="#m633ec5f06d" y="17.479118"/>
    </g>
   </g>
   <g id="line2d_18">
    <path clip-path="url(#pf6304a81d9)" d="M 85.142829 -1 
L 87.746946 15.512914 
L 90.599628 31.996079 
L 93.452309 46.985715 
L 96.30499 60.633862 
L 99.157672 73.070906 
L 102.010353 84.407941 
L 104.863035 94.73896 
L 107.715716 104.142897 
L 110.568397 112.685509 
L 113.421079 120.421097 
L 116.27376 127.394069 
L 119.126441 133.640348 
L 121.265952 137.865659 
L 123.405463 141.70825 
L 125.544974 145.176186 
L 127.684486 148.276009 
L 129.823997 151.012895 
L 131.963508 153.390759 
L 134.103019 155.412095 
L 136.24253 157.075693 
L 137.66887 157.986283 
L 139.095211 158.677379 
L 140.521552 159.112854 
L 141.947892 159.293343 
L 143.374233 159.219447 
L 144.800574 158.890745 
L 146.226914 158.306489 
L 147.653255 157.46574 
L 149.079596 156.367412 
L 150.505937 155.010299 
L 151.932277 153.393094 
L 153.358618 151.514413 
L 154.784959 149.372821 
L 156.92447 145.664284 
L 159.063981 141.356039 
L 161.203492 136.44348 
L 163.343003 130.922544 
L 165.482514 124.790009 
L 167.622025 118.043827 
L 169.761536 110.683476 
L 172.614217 99.91704 
L 175.466899 88.071441 
L 178.31958 75.165874 
L 181.172261 61.230819 
L 184.024943 46.310246 
L 187.590794 26.366473 
L 191.156646 5.135505 
L 192.152283 -1 
L 192.152283 -1 
" style="fill:none;stroke:#ff7f0e;stroke-dasharray:3.7,1.6;stroke-dashoffset:0;stroke-opacity:0.5;"/>
   </g>
   <g id="line2d_19">
    <path clip-path="url(#pf6304a81d9)" d="M 37.967656 12.244047 
L 40.249801 23.507035 
L 42.531946 33.93924 
L 44.814092 43.595768 
L 47.096237 52.528722 
L 49.378382 60.78732 
L 51.660527 68.418007 
L 53.942672 75.464567 
L 56.224817 81.968235 
L 58.506962 87.967803 
L 60.789107 93.499723 
L 63.071252 98.598211 
L 65.353397 103.295345 
L 67.635543 107.621163 
L 69.917688 111.603761 
L 72.199833 115.269376 
L 74.481978 118.642487 
L 76.764123 121.745894 
L 80.187341 125.941288 
L 83.610558 129.642513 
L 87.033776 132.907825 
L 90.456994 135.789013 
L 93.880211 138.331943 
L 97.303429 140.577074 
L 100.726647 142.559947 
L 104.149864 144.311647 
L 107.573082 145.859233 
L 112.137372 147.645207 
L 116.701662 149.15635 
L 121.265952 150.430583 
L 125.830243 151.49829 
L 131.535605 152.578491 
L 137.240968 153.408143 
L 142.946331 154.01132 
L 148.651694 154.400868 
L 153.215984 154.538461 
L 156.639201 154.366403 
L 160.062419 153.900373 
L 163.485637 153.141671 
L 166.908854 152.088074 
L 170.332072 150.736302 
L 173.75529 149.082384 
L 177.178507 147.121853 
L 180.601725 144.849915 
L 184.024943 142.261652 
L 187.44816 139.35225 
L 190.871378 136.117252 
L 194.294596 132.552841 
L 197.717813 128.656147 
L 201.141031 124.425592 
L 204.564249 119.861247 
L 207.987466 114.965237 
L 211.410684 109.742155 
L 214.833902 104.199519 
L 219.398192 96.33168 
L 223.962482 87.952547 
L 228.526772 79.113707 
L 234.232135 67.525133 
L 241.07857 53.068846 
L 253.630368 26.439442 
L 258.194658 17.309256 
L 261.617876 10.883357 
L 265.041094 4.951308 
L 265.041094 4.951308 
" style="fill:none;stroke:#1f77b4;stroke-dasharray:3.7,1.6;stroke-dashoffset:0;stroke-opacity:0.5;"/>
   </g>
   <g id="line2d_20">
    <defs>
     <path d="M -3 3 
L 3 3 
L 3 -3 
L -3 -3 
z
" id="m4cf0c17a75"/>
    </defs>
    <g clip-path="url(#pf6304a81d9)">
     <use style="fill:#1f77b4;" x="201.278859" xlink:href="#m4cf0c17a75" y="120.998178"/>
     <use style="fill:#1f77b4;" x="196.177319" xlink:href="#m4cf0c17a75" y="126.189677"/>
     <use style="fill:#1f77b4;" x="151.504375" xlink:href="#m4cf0c17a75" y="156.255748"/>
     <use style="fill:#1f77b4;" x="84.770718" xlink:href="#m4cf0c17a75" y="126.240206"/>
     <use style="fill:#1f77b4;" x="72.085808" xlink:href="#m4cf0c17a75" y="121.299878"/>
    </g>
   </g>
   <g id="patch_3">
    <path d="M 37.967656 171.861267 
L 37.967656 7.019297 
" style="fill:none;stroke:#000000;stroke-linecap:square;stroke-linejoin:miter;stroke-width:0.8;"/>
   </g>
   <g id="patch_4">
    <path d="M 265.041094 171.861267 
L 265.041094 7.019297 
" style="fill:none;stroke:#000000;stroke-linecap:square;stroke-linejoin:miter;stroke-width:0.8;"/>
   </g>
   <g id="patch_5">
    <path d="M 37.967656 171.861267 
L 265.041094 171.861267 
" style="fill:none;stroke:#000000;stroke-linecap:square;stroke-linejoin:miter;stroke-width:0.8;"/>
   </g>
   <g id="patch_6">
    <path d="M 37.967656 7.019297 
L 265.041094 7.019297 
" style="fill:none;stroke:#000000;stroke-linecap:square;stroke-linejoin:miter;stroke-width:0.8;"/>
   </g>
   <g id="text_18">
    <!-- $f$=0.036 -->
    <g transform="translate(103.25127 71.929903)">
     <text>
      <tspan style="font-family:DejaVu Sans;font-size:9px;font-style:oblique;font-weight:oblique;" x="0" y="-0.15625">f</tspan>
      <tspan style="font-family:Verdana;font-size:9px;font-style:regular;font-weight:regular;" x="3.168457 10.533691 16.255371 19.529297 25.250977 30.972656" y="-0.15625">=0.036</tspan>
     </text>
    </g>
    <text style="font-family:Verdana;font-size:9px;font-style:normal;font-weight:normal;" transform="translate(103.25127 81.947465)"/>
   </g>
   <g id="text_19">
    <!-- $f$=0.030 -->
    <g transform="translate(199.75748 86.915536)">
     <text>
      <tspan style="font-family:DejaVu Sans;font-size:9px;font-style:oblique;font-weight:oblique;" x="0" y="-0.15625">f</tspan>
      <tspan style="font-family:Verdana;font-size:9px;font-style:regular;font-weight:regular;" x="3.168457 10.533691 16.255371 19.529297 25.250977 30.972656" y="-0.15625">=0.030</tspan>
     </text>
    </g>
    <text style="font-family:Verdana;font-size:9px;font-style:normal;font-weight:normal;" transform="translate(199.75748 96.933099)"/>
   </g>
   <g id="legend_1">
    <g id="patch_7">
     <path d="M 102.394925 45.918184 
L 200.613825 45.918184 
Q 202.113225 45.918184 202.113225 44.418784 
L 202.113225 12.267197 
Q 202.113225 10.767797 200.613825 10.767797 
L 102.394925 10.767797 
Q 100.895525 10.767797 100.895525 12.267197 
L 100.895525 44.418784 
Q 100.895525 45.918184 102.394925 45.918184 
z
" style="fill:#ffffff;opacity:0.8;stroke:#cccccc;stroke-linejoin:miter;"/>
    </g>
    <g id="line2d_21">
     <path d="M 103.894325 16.839195 
L 118.888325 16.839195 
" style="fill:none;stroke:#666666;stroke-linecap:square;stroke-opacity:0.8;"/>
    </g>
    <g id="line2d_22"/>
    <g id="text_20">
     <text style="font-family:Verdana;font-size:7.497px;font-style:normal;font-weight:normal;text-anchor:start;" transform="rotate(-0, 124.885925, 19.463145)" x="124.885925" y="19.463145">Theoretical</text>
    </g>
    <g id="line2d_23"/>
    <g id="line2d_24">
     <g>
      <use style="fill:#ff7f0e;" x="111.391325" xlink:href="#m633ec5f06d" y="27.793015"/>
     </g>
    </g>
    <g id="text_21">
     <text style="font-family:Verdana;font-size:7.497px;font-style:normal;font-weight:normal;text-anchor:start;" transform="rotate(-0, 124.885925, 30.416965)" x="124.885925" y="30.416965">Electrowetting Data</text>
    </g>
    <g id="LineCollection_3">
     <path d="M 107.642825 38.786663 
L 115.139825 38.786663 
" style="fill:none;stroke:#1f77b4;"/>
    </g>
    <g id="LineCollection_4">
     <path d="M 111.391325 42.535163 
L 111.391325 35.038163 
" style="fill:none;stroke:#1f77b4;"/>
    </g>
    <g id="line2d_25"/>
    <g id="line2d_26">
     <g>
      <use style="fill:#1f77b4;" x="111.391325" xlink:href="#m4cf0c17a75" y="38.786663"/>
     </g>
    </g>
    <g id="text_22">
     <text style="font-family:Verdana;font-size:7.497px;font-style:normal;font-weight:normal;text-anchor:start;" transform="rotate(-0, 124.885925, 41.410613)" x="124.885925" y="41.410613">ESEM Data</text>
    </g>
   </g>
  </g>
 </g>
 <defs>
  <clipPath id="pf6304a81d9">
   <rect height="164.84197" width="227.073437" x="37.967656" y="7.019297"/>
  </clipPath>
 </defs>
</svg>
