<svg id="Layer_1" data-name="Layer 1" xmlns="http://www.w3.org/2000/svg" xmlns:xlink="http://www.w3.org/1999/xlink" viewBox="0 0 206.82 115.95"><defs><style>.cls-1,.cls-10,.cls-69{fill:none;}.cls-2{fill:#b4b9bb;}.cls-3{fill:url(#linear-gradient);}.cls-4{clip-path:url(#clip-path);}.cls-5{opacity:0.21;}.cls-6{clip-path:url(#clip-path-2);}.cls-7{fill:#27aae1;}.cls-8{clip-path:url(#clip-path-3);}.cls-9{fill:url(#radial-gradient);}.cls-10{stroke:#231f20;}.cls-10,.cls-69{stroke-miterlimit:10;stroke-width:0.75px;}.cls-11{clip-path:url(#clip-path-5);}.cls-12{fill:url(#radial-gradient-2);}.cls-13{clip-path:url(#clip-path-7);}.cls-14{fill:url(#radial-gradient-3);}.cls-15{clip-path:url(#clip-path-9);}.cls-16{fill:url(#radial-gradient-4);}.cls-17{clip-path:url(#clip-path-11);}.cls-18{fill:url(#radial-gradient-5);}.cls-19{clip-path:url(#clip-path-13);}.cls-20{fill:url(#radial-gradient-6);}.cls-21{clip-path:url(#clip-path-15);}.cls-22{fill:url(#radial-gradient-7);}.cls-23{clip-path:url(#clip-path-17);}.cls-24{fill:url(#radial-gradient-8);}.cls-25{clip-path:url(#clip-path-19);}.cls-26{fill:url(#radial-gradient-9);}.cls-27{clip-path:url(#clip-path-21);}.cls-28{fill:url(#radial-gradient-10);}.cls-29{clip-path:url(#clip-path-23);}.cls-30{fill:url(#radial-gradient-11);}.cls-31{clip-path:url(#clip-path-25);}.cls-32{fill:url(#radial-gradient-12);}.cls-33{clip-path:url(#clip-path-27);}.cls-34{fill:url(#radial-gradient-13);}.cls-35{clip-path:url(#clip-path-29);}.cls-36{fill:url(#radial-gradient-14);}.cls-37{clip-path:url(#clip-path-31);}.cls-38{fill:url(#radial-gradient-15);}.cls-39{clip-path:url(#clip-path-33);}.cls-40{fill:url(#radial-gradient-16);}.cls-41{clip-path:url(#clip-path-35);}.cls-42{fill:url(#radial-gradient-17);}.cls-43{clip-path:url(#clip-path-37);}.cls-44{fill:url(#radial-gradient-18);}.cls-45{clip-path:url(#clip-path-39);}.cls-46{fill:url(#radial-gradient-19);}.cls-47{clip-path:url(#clip-path-41);}.cls-48{fill:url(#radial-gradient-20);}.cls-49{clip-path:url(#clip-path-43);}.cls-50{fill:url(#radial-gradient-21);}.cls-51{clip-path:url(#clip-path-45);}.cls-52{fill:url(#radial-gradient-22);}.cls-53,.cls-54,.cls-56,.cls-57,.cls-58,.cls-61{fill:#231f20;}.cls-54,.cls-57{font-size:9px;}.cls-54,.cls-56,.cls-58,.cls-61{font-family:ArialMT, Arial;}.cls-55{letter-spacing:-0.02em;}.cls-56{font-size:5.14px;}.cls-57{font-family:Arial-ItalicMT, Arial;font-style:italic;}.cls-58{font-size:5px;}.cls-59{clip-path:url(#clip-path-48);}.cls-60{fill:url(#radial-gradient-23);}.cls-61{font-size:8px;}.cls-62{clip-path:url(#clip-path-49);}.cls-63{fill:url(#radial-gradient-24);}.cls-64{clip-path:url(#clip-path-50);}.cls-65{fill:url(#radial-gradient-25);}.cls-66{letter-spacing:-0.05em;}.cls-67{opacity:0.66;}.cls-68{clip-path:url(#clip-path-51);}.cls-69{stroke:#f15a29;}</style><linearGradient id="linear-gradient" y1="115.65" x2="1" y2="115.65" gradientTransform="matrix(-158.72, 0, 0, 158.72, 188.9, -18295.91)" gradientUnits="userSpaceOnUse"><stop offset="0" stop-color="#fff"/><stop offset="0.22" stop-color="#fff"/><stop offset="0.23" stop-color="#fcfefe"/><stop offset="0.6" stop-color="#afe1dc"/><stop offset="0.87" stop-color="#7fcfc7"/><stop offset="1" stop-color="#6dc8bf"/></linearGradient><clipPath id="clip-path"><rect class="cls-1" width="206.82" height="115.65"/></clipPath><clipPath id="clip-path-2"><rect class="cls-1" x="19.79" y="29.85" width="10.44" height="60.14"/></clipPath><clipPath id="clip-path-3"><path class="cls-1" d="M14.07,47.91a2.72,2.72,0,1,0,2.72-2.73,2.72,2.72,0,0,0-2.72,2.73"/></clipPath><radialGradient id="radial-gradient" cx="0" cy="115.65" r="1" gradientTransform="matrix(2.72, 0, 0, -2.72, 16.79, 362.52)" gradientUnits="userSpaceOnUse"><stop offset="0" stop-color="#fff"/><stop offset="0.12" stop-color="#fff"/><stop offset="1" stop-color="#ee2a7b"/></radialGradient><clipPath id="clip-path-5"><path class="cls-1" d="M14.07,71.17a2.72,2.72,0,1,0,2.72-2.72,2.72,2.72,0,0,0-2.72,2.72"/></clipPath><radialGradient id="radial-gradient-2" cx="0" cy="115.65" r="1" gradientTransform="matrix(2.72, 0, 0, -2.72, 16.79, 385.78)" xlink:href="#radial-gradient"/><clipPath id="clip-path-7"><path class="cls-1" d="M14.07,82.8a2.72,2.72,0,1,0,2.72-2.72,2.72,2.72,0,0,0-2.72,2.72"/></clipPath><radialGradient id="radial-gradient-3" cx="0" cy="115.65" r="1" gradientTransform="matrix(2.72, 0, 0, -2.72, 16.79, 397.41)" xlink:href="#radial-gradient"/><clipPath id="clip-path-9"><path class="cls-1" d="M14.07,59.54a2.72,2.72,0,1,0,2.72-2.72,2.72,2.72,0,0,0-2.72,2.72"/></clipPath><radialGradient id="radial-gradient-4" cx="0" cy="115.65" r="1" gradientTransform="matrix(2.72, 0, 0, -2.72, 16.79, 374.15)" xlink:href="#radial-gradient"/><clipPath id="clip-path-11"><path class="cls-1" d="M14.07,36.27a2.72,2.72,0,1,0,2.72-2.72,2.72,2.72,0,0,0-2.72,2.72"/></clipPath><radialGradient id="radial-gradient-5" cx="0" cy="115.65" r="1" gradientTransform="matrix(2.72, 0, 0, -2.72, 16.79, 350.89)" xlink:href="#radial-gradient"/><clipPath id="clip-path-13"><path class="cls-1" d="M31.83,36.27a2.72,2.72,0,1,0,2.71-2.72,2.72,2.72,0,0,0-2.71,2.72"/></clipPath><radialGradient id="radial-gradient-6" cx="0" cy="115.65" r="1" gradientTransform="matrix(2.72, 0, 0, -2.72, 34.55, 350.89)" gradientUnits="userSpaceOnUse"><stop offset="0" stop-color="#fff"/><stop offset="0.12" stop-color="#fff"/><stop offset="1" stop-color="#27aae1"/></radialGradient><clipPath id="clip-path-15"><path class="cls-1" d="M31.83,48.3a2.72,2.72,0,1,0,2.71-2.72,2.72,2.72,0,0,0-2.71,2.72"/></clipPath><radialGradient id="radial-gradient-7" cx="0" cy="115.65" r="1" gradientTransform="matrix(2.72, 0, 0, -2.72, 34.55, 362.92)" xlink:href="#radial-gradient-6"/><clipPath id="clip-path-17"><path class="cls-1" d="M31.83,59.54a2.72,2.72,0,1,0,2.71-2.72,2.71,2.71,0,0,0-2.71,2.72"/></clipPath><radialGradient id="radial-gradient-8" cx="0" cy="115.65" r="1" gradientTransform="matrix(2.72, 0, 0, -2.72, 34.55, 374.15)" xlink:href="#radial-gradient-6"/><clipPath id="clip-path-19"><path class="cls-1" d="M31.83,70.77a2.72,2.72,0,1,0,2.71-2.72,2.71,2.71,0,0,0-2.71,2.72"/></clipPath><radialGradient id="radial-gradient-9" cx="0" cy="115.65" r="1" gradientTransform="matrix(2.72, 0, 0, -2.72, 34.55, 385.38)" xlink:href="#radial-gradient-6"/><clipPath id="clip-path-21"><path class="cls-1" d="M31.83,82.8a2.72,2.72,0,1,0,2.71-2.72,2.71,2.71,0,0,0-2.71,2.72"/></clipPath><radialGradient id="radial-gradient-10" cx="0" cy="115.65" r="1" gradientTransform="matrix(2.72, 0, 0, -2.72, 34.55, 397.41)" xlink:href="#radial-gradient-6"/><clipPath id="clip-path-23"><path class="cls-1" d="M45.05,56.82a2.72,2.72,0,1,0,2.73-2.73,2.72,2.72,0,0,0-2.73,2.73"/></clipPath><radialGradient id="radial-gradient-11" cx="0" cy="115.65" r="1" gradientTransform="matrix(2.72, 0, 0, -2.72, 47.77, 371.43)" xlink:href="#radial-gradient-6"/><clipPath id="clip-path-25"><path class="cls-1" d="M52,72.34a2.72,2.72,0,1,0,2.72-2.72A2.72,2.72,0,0,0,52,72.34"/></clipPath><radialGradient id="radial-gradient-12" cx="0" cy="115.65" r="1" gradientTransform="matrix(2.72, 0, 0, -2.72, 54.67, 386.95)" xlink:href="#radial-gradient-6"/><clipPath id="clip-path-27"><path class="cls-1" d="M46.51,38.07a2.72,2.72,0,1,0,2.71-2.72,2.71,2.71,0,0,0-2.71,2.72"/></clipPath><radialGradient id="radial-gradient-13" cx="0" cy="115.65" r="1" gradientTransform="matrix(2.72, 0, 0, -2.72, 49.23, 352.68)" xlink:href="#radial-gradient-6"/><clipPath id="clip-path-29"><path class="cls-1" d="M61.54,62.26a2.72,2.72,0,1,0,2.72-2.72,2.72,2.72,0,0,0-2.72,2.72"/></clipPath><radialGradient id="radial-gradient-14" cx="0" cy="115.65" r="1" gradientTransform="matrix(2.72, 0, 0, -2.72, 64.26, 376.87)" xlink:href="#radial-gradient-6"/><clipPath id="clip-path-31"><path class="cls-1" d="M58.82,44.44a2.72,2.72,0,1,0,2.72-2.72,2.72,2.72,0,0,0-2.72,2.72"/></clipPath><radialGradient id="radial-gradient-15" cx="0" cy="115.65" r="1" gradientTransform="matrix(2.72, 0, 0, -2.72, 61.54, 359.05)" xlink:href="#radial-gradient-6"/><clipPath id="clip-path-33"><path class="cls-1" d="M66.44,77.11a2.72,2.72,0,1,0,2.72-2.72,2.72,2.72,0,0,0-2.72,2.72"/></clipPath><radialGradient id="radial-gradient-16" cx="0" cy="115.65" r="1" gradientTransform="matrix(2.72, 0, 0, -2.72, 69.16, 391.73)" xlink:href="#radial-gradient-6"/><clipPath id="clip-path-35"><path class="cls-1" d="M86.51,36.27a2.72,2.72,0,1,0,2.72-2.72,2.72,2.72,0,0,0-2.72,2.72"/></clipPath><radialGradient id="radial-gradient-17" cx="0" cy="115.65" r="1" gradientTransform="matrix(2.72, 0, 0, -2.72, 89.23, 350.89)" xlink:href="#radial-gradient-6"/><clipPath id="clip-path-37"><path class="cls-1" d="M161.19,70.77a2.72,2.72,0,1,0,2.72-2.72,2.72,2.72,0,0,0-2.72,2.72"/></clipPath><radialGradient id="radial-gradient-18" cx="0" cy="115.65" r="1" gradientTransform="matrix(2.72, 0, 0, -2.72, 163.91, 385.38)" gradientUnits="userSpaceOnUse"><stop offset="0" stop-color="#fff"/><stop offset="0.12" stop-color="#fff"/><stop offset="1" stop-color="#f26522"/></radialGradient><clipPath id="clip-path-39"><path class="cls-1" d="M101.64,68.05a2.72,2.72,0,1,0,2.72-2.73,2.72,2.72,0,0,0-2.72,2.73"/></clipPath><radialGradient id="radial-gradient-19" cx="0" cy="115.65" r="1" gradientTransform="matrix(2.72, 0, 0, -2.72, 104.36, 382.66)" xlink:href="#radial-gradient-6"/><clipPath id="clip-path-41"><path class="cls-1" d="M125.08,50.63a2.72,2.72,0,1,0,2.72-2.72,2.72,2.72,0,0,0-2.72,2.72"/></clipPath><radialGradient id="radial-gradient-20" cx="0" cy="115.65" r="1" gradientTransform="matrix(2.72, 0, 0, -2.72, 127.8, 365.24)" xlink:href="#radial-gradient-6"/><clipPath id="clip-path-43"><path class="cls-1" d="M172,45.64a2.72,2.72,0,1,0,2.72-2.72A2.72,2.72,0,0,0,172,45.64"/></clipPath><radialGradient id="radial-gradient-21" cx="0" cy="115.65" r="1" gradientTransform="matrix(2.72, 0, 0, -2.72, 174.7, 360.25)" xlink:href="#radial-gradient-18"/><clipPath id="clip-path-45"><path class="cls-1" d="M48,49.63a2.72,2.72,0,1,0,2.72-2.72A2.72,2.72,0,0,0,48,49.63"/></clipPath><radialGradient id="radial-gradient-22" cx="0" cy="115.65" r="1" gradientTransform="matrix(2.72, 0, 0, -2.72, 50.68, 364.24)" xlink:href="#radial-gradient-18"/><clipPath id="clip-path-48"><path class="cls-1" d="M7.1,111a2.72,2.72,0,1,0,2.72-2.73A2.72,2.72,0,0,0,7.1,111"/></clipPath><radialGradient id="radial-gradient-23" cx="0.63" cy="114.76" r="1" gradientTransform="matrix(2.72, 0, 0, -2.72, 8.1, 423.2)" xlink:href="#radial-gradient"/><clipPath id="clip-path-49"><path class="cls-1" d="M116.17,111a2.72,2.72,0,1,0,2.72-2.73,2.72,2.72,0,0,0-2.72,2.73"/></clipPath><radialGradient id="radial-gradient-24" cx="15.13" cy="114.76" r="1" gradientTransform="matrix(2.72, 0, 0, -2.72, 77.73, 423.2)" xlink:href="#radial-gradient-18"/><clipPath id="clip-path-50"><path class="cls-1" d="M163.61,111a2.72,2.72,0,1,0,2.72-2.73,2.72,2.72,0,0,0-2.72,2.73"/></clipPath><radialGradient id="radial-gradient-25" cx="19.09" cy="114.76" r="1" gradientTransform="matrix(2.72, 0, 0, -2.72, 114.39, 423.2)" xlink:href="#radial-gradient-6"/><clipPath id="clip-path-51"><rect class="cls-1" x="19.61" y="29.68" width="177.44" height="60.74"/></clipPath></defs><title>scheme-EDL</title><rect class="cls-2" x="13.71" y="29.89" width="6.22" height="60.14"/><rect class="cls-3" x="30.18" y="29.89" width="158.72" height="60.14"/><rect class="cls-1" x="30.18" y="29.89" width="158.73" height="60.14"/><g class="cls-4"><g class="cls-5"><g class="cls-6"><rect class="cls-7" x="19.79" y="29.85" width="10.44" height="60.14"/></g></g></g><g class="cls-8"><rect class="cls-9" x="14.07" y="45.18" width="5.44" height="5.44"/></g><g class="cls-4"><line class="cls-10" x1="15.34" y1="47.9" x2="18.24" y2="47.9"/><line class="cls-10" x1="16.79" y1="46.45" x2="16.79" y2="49.36"/></g><g class="cls-11"><rect class="cls-12" x="14.07" y="68.45" width="5.44" height="5.44"/></g><g class="cls-4"><line class="cls-10" x1="15.34" y1="71.17" x2="18.24" y2="71.17"/><line class="cls-10" x1="16.79" y1="69.71" x2="16.79" y2="72.62"/></g><g class="cls-13"><rect class="cls-14" x="14.07" y="80.08" width="5.44" height="5.44"/></g><g class="cls-4"><line class="cls-10" x1="15.34" y1="82.8" x2="18.24" y2="82.8"/><line class="cls-10" x1="16.79" y1="81.34" x2="16.79" y2="84.25"/></g><g class="cls-15"><rect class="cls-16" x="14.07" y="56.82" width="5.44" height="5.44"/></g><g class="cls-4"><line class="cls-10" x1="15.34" y1="59.53" x2="18.24" y2="59.53"/><line class="cls-10" x1="16.79" y1="58.08" x2="16.79" y2="60.99"/></g><g class="cls-17"><rect class="cls-18" x="14.07" y="33.55" width="5.44" height="5.44"/></g><g class="cls-4"><line class="cls-10" x1="15.34" y1="36.27" x2="18.24" y2="36.27"/><line class="cls-10" x1="16.79" y1="34.82" x2="16.79" y2="37.73"/></g><g class="cls-19"><rect class="cls-20" x="31.82" y="33.55" width="5.44" height="5.44"/></g><g class="cls-4"><line class="cls-10" x1="33.09" y1="36.27" x2="36" y2="36.27"/></g><g class="cls-21"><rect class="cls-22" x="31.82" y="45.58" width="5.44" height="5.44"/></g><g class="cls-4"><line class="cls-10" x1="33.09" y1="48.3" x2="36" y2="48.3"/></g><g class="cls-23"><rect class="cls-24" x="31.82" y="56.82" width="5.44" height="5.44"/></g><g class="cls-4"><line class="cls-10" x1="33.09" y1="59.53" x2="36" y2="59.53"/></g><g class="cls-25"><rect class="cls-26" x="31.82" y="68.05" width="5.44" height="5.44"/></g><g class="cls-4"><line class="cls-10" x1="33.09" y1="70.77" x2="36" y2="70.77"/></g><g class="cls-27"><rect class="cls-28" x="31.82" y="80.08" width="5.44" height="5.44"/></g><g class="cls-4"><line class="cls-10" x1="33.09" y1="82.8" x2="36" y2="82.8"/></g><g class="cls-29"><rect class="cls-30" x="45.05" y="54.09" width="5.44" height="5.44"/></g><g class="cls-4"><line class="cls-10" x1="46.32" y1="56.81" x2="49.23" y2="56.81"/></g><g class="cls-31"><rect class="cls-32" x="51.95" y="69.62" width="5.44" height="5.44"/></g><g class="cls-4"><line class="cls-10" x1="53.22" y1="72.34" x2="56.12" y2="72.34"/></g><g class="cls-33"><rect class="cls-34" x="46.5" y="35.35" width="5.44" height="5.44"/></g><g class="cls-4"><line class="cls-10" x1="47.77" y1="38.07" x2="50.68" y2="38.07"/></g><g class="cls-35"><rect class="cls-36" x="61.54" y="59.54" width="5.44" height="5.44"/></g><g class="cls-4"><line class="cls-10" x1="62.81" y1="62.26" x2="65.71" y2="62.26"/></g><g class="cls-37"><rect class="cls-38" x="58.82" y="41.72" width="5.44" height="5.44"/></g><g class="cls-4"><line class="cls-10" x1="60.09" y1="44.44" x2="62.99" y2="44.44"/></g><g class="cls-39"><rect class="cls-40" x="66.44" y="74.39" width="5.44" height="5.44"/></g><g class="cls-4"><line class="cls-10" x1="67.71" y1="77.11" x2="70.61" y2="77.11"/></g><g class="cls-41"><rect class="cls-42" x="86.51" y="33.55" width="5.44" height="5.44"/></g><g class="cls-4"><line class="cls-10" x1="87.78" y1="36.27" x2="90.68" y2="36.27"/></g><g class="cls-43"><rect class="cls-44" x="161.19" y="68.05" width="5.44" height="5.44"/></g><g class="cls-4"><line class="cls-10" x1="162.46" y1="70.77" x2="165.36" y2="70.77"/><line class="cls-10" x1="163.91" y1="69.31" x2="163.91" y2="72.22"/></g><g class="cls-45"><rect class="cls-46" x="101.64" y="65.32" width="5.44" height="5.44"/></g><g class="cls-4"><line class="cls-10" x1="102.91" y1="68.04" x2="105.82" y2="68.04"/></g><g class="cls-47"><rect class="cls-48" x="125.08" y="47.91" width="5.44" height="5.44"/></g><g class="cls-4"><line class="cls-10" x1="126.35" y1="50.62" x2="129.25" y2="50.62"/></g><g class="cls-49"><rect class="cls-50" x="171.98" y="42.92" width="5.44" height="5.44"/></g><g class="cls-4"><line class="cls-10" x1="173.25" y1="45.64" x2="176.15" y2="45.64"/><line class="cls-10" x1="174.7" y1="44.19" x2="174.7" y2="47.09"/></g><g class="cls-51"><rect class="cls-52" x="47.96" y="46.91" width="5.44" height="5.44"/></g><g class="cls-4"><line class="cls-10" x1="49.23" y1="49.63" x2="52.13" y2="49.63"/><line class="cls-10" x1="50.68" y1="48.18" x2="50.68" y2="51.08"/><line class="cls-10" x1="19.92" y1="90.03" x2="196.57" y2="90.03"/><path class="cls-53" d="M199.74,90a15.84,15.84,0,0,0-4.49,2.49l.91-2.49-.91-2.5a16.11,16.11,0,0,0,4.49,2.5"/></g><text class="cls-54" transform="translate(5.38 13.74)">2D Material</text><text class="cls-54" transform="translate(46.51 28.36)">Di<tspan class="cls-55" x="8.5" y="0">f</tspan><tspan x="10.84" y="0">fuse Layer</tspan></text><text class="cls-54" transform="translate(109.83 28.36)">Bulk Solution</text><g class="cls-4"><text class="cls-56" transform="translate(25.87 87.43) rotate(-90)">Helmholtz Double Layer</text></g><text class="cls-57" transform="translate(13.34 97.76)">σ</text><text class="cls-58" transform="translate(18.32 99.96)">2D</text><text class="cls-57" transform="translate(31.82 97.77)">σ</text><text class="cls-58" transform="translate(36.81 99.96)">L</text><text class="cls-57" transform="translate(20.91 26.08)">φ</text><text class="cls-58" transform="translate(25.22 29.28)">2D</text><text class="cls-57" transform="translate(31.82 26.08)">φ</text><text class="cls-58" transform="translate(36.13 29.28)">GC</text><g class="cls-59"><rect class="cls-60" x="7.1" y="108.26" width="5.44" height="5.44"/></g><line class="cls-10" x1="8.37" y1="110.98" x2="11.27" y2="110.98"/><line class="cls-10" x1="9.82" y1="109.53" x2="9.82" y2="112.44"/><rect class="cls-1" width="206.82" height="115.65"/><text class="cls-61" transform="translate(13.71 113.35)">= Charges in 2D Material</text><g class="cls-62"><rect class="cls-63" x="116.17" y="108.26" width="5.44" height="5.44"/></g><text class="cls-61" transform="translate(123.08 113.35)">= Cations</text><g class="cls-64"><rect class="cls-65" x="163.61" y="108.26" width="5.44" height="5.44"/></g><text class="cls-61" transform="translate(170.62 113.35)">=<tspan class="cls-66" x="4.67" y="0"> </tspan><tspan x="6.46" y="0">Anions</tspan></text><line class="cls-10" x1="14.81" y1="15.87" x2="14.81" y2="27.05"/><polygon class="cls-53" points="14.81 29.89 13.29 26.16 14.81 27.04 16.34 26.16 14.81 29.89"/><g class="cls-67"><g class="cls-68"><path class="cls-69" d="M197.05,90H71.92C52.3,84.23,50.85,76.53,43,65.32A216.84,216.84,0,0,1,30.18,45.18L19.92,29.89"/></g></g><line class="cls-10" x1="19.79" y1="90.03" x2="19.79" y2="27.05"/><path class="cls-53" d="M19.79,23.88a15.67,15.67,0,0,0,2.5,4.48l-2.5-.9-2.49.9a15.89,15.89,0,0,0,2.49-4.48"/><rect class="cls-1" width="206.82" height="115.65"/><rect class="cls-1" width="206.82" height="115.65"/><line class="cls-10" x1="117.43" y1="110.98" x2="120.34" y2="110.98"/><line class="cls-10" x1="118.89" y1="109.53" x2="118.89" y2="112.44"/><line class="cls-10" x1="164.88" y1="110.98" x2="167.78" y2="110.98"/></svg>