<?xml version="1.0" encoding="utf-8" standalone="no"?>
<!DOCTYPE svg PUBLIC "-//W3C//DTD SVG 1.1//EN"
  "http://www.w3.org/Graphics/SVG/1.1/DTD/svg11.dtd">
<!-- Created with matplotlib (https://matplotlib.org/) -->
<svg height="180pt" version="1.1" viewBox="0 0 180 180" width="180pt" xmlns="http://www.w3.org/2000/svg" xmlns:xlink="http://www.w3.org/1999/xlink">
 <defs>
  <style type="text/css">
*{stroke-linecap:butt;stroke-linejoin:round;}
  </style>
 </defs>
 <g id="figure_1">
  <g id="patch_1">
   <path d="M 0 180 
L 180 180 
L 180 0 
L 0 0 
z
" style="fill:none;"/>
  </g>
  <g id="axes_1">
   <g id="patch_2">
    <path d="M 36 144 
L 162 144 
L 162 18 
L 36 18 
z
" style="fill:none;"/>
   </g>
   <g id="matplotlib.axis_1">
    <g id="xtick_1">
     <g id="line2d_1">
      <defs>
       <path d="M 0 0 
L 0 3.5 
" id="ma658295f03" style="stroke:#000000;stroke-width:0.85;"/>
      </defs>
      <g>
       <use style="stroke:#000000;stroke-width:0.85;" x="36" xlink:href="#ma658295f03" y="144"/>
      </g>
     </g>
     <g id="text_1">
      <text style="font-family:Helvetica;font-size:7.5px;font-style:normal;font-weight:medium;text-anchor:middle;" transform="rotate(-0, 36, 156.380078)" x="36" y="156.380078">−100</text>
     </g>
    </g>
    <g id="xtick_2">
     <g id="line2d_2">
      <g>
       <use style="stroke:#000000;stroke-width:0.85;" x="67.5" xlink:href="#ma658295f03" y="144"/>
      </g>
     </g>
     <g id="text_2">
      <text style="font-family:Helvetica;font-size:7.5px;font-style:normal;font-weight:medium;text-anchor:middle;" transform="rotate(-0, 67.5, 156.380078)" x="67.5" y="156.380078">−50</text>
     </g>
    </g>
    <g id="xtick_3">
     <g id="line2d_3">
      <g>
       <use style="stroke:#000000;stroke-width:0.85;" x="99" xlink:href="#ma658295f03" y="144"/>
      </g>
     </g>
     <g id="text_3">
      <text style="font-family:Helvetica;font-size:7.5px;font-style:normal;font-weight:medium;text-anchor:middle;" transform="rotate(-0, 99, 156.380078)" x="99" y="156.380078">0</text>
     </g>
    </g>
    <g id="xtick_4">
     <g id="line2d_4">
      <g>
       <use style="stroke:#000000;stroke-width:0.85;" x="130.5" xlink:href="#ma658295f03" y="144"/>
      </g>
     </g>
     <g id="text_4">
      <text style="font-family:Helvetica;font-size:7.5px;font-style:normal;font-weight:medium;text-anchor:middle;" transform="rotate(-0, 130.5, 156.380078)" x="130.5" y="156.380078">50</text>
     </g>
    </g>
    <g id="xtick_5">
     <g id="line2d_5">
      <g>
       <use style="stroke:#000000;stroke-width:0.85;" x="162" xlink:href="#ma658295f03" y="144"/>
      </g>
     </g>
     <g id="text_5">
      <text style="font-family:Helvetica;font-size:7.5px;font-style:normal;font-weight:medium;text-anchor:middle;" transform="rotate(-0, 162, 156.380078)" x="162" y="156.380078">100</text>
     </g>
    </g>
    <g id="text_6">
     <text style="font-family:Helvetica;font-size:7.5px;font-style:normal;font-weight:normal;text-anchor:middle;" transform="rotate(-0, 99, 170.323437)" x="99" y="170.323437">$J</text>
    </g>
   </g>
   <g id="matplotlib.axis_2">
    <g id="ytick_1">
     <g id="line2d_6">
      <defs>
       <path d="M 0 0 
L -3.5 0 
" id="mbda6a2611d" style="stroke:#000000;stroke-width:0.85;"/>
      </defs>
      <g>
       <use style="stroke:#000000;stroke-width:0.85;" x="36" xlink:href="#mbda6a2611d" y="130"/>
      </g>
     </g>
     <g id="text_7">
      <text style="font-family:Helvetica;font-size:7.5px;font-style:normal;font-weight:medium;text-anchor:end;" transform="rotate(-0, 29, 132.690039)" x="29" y="132.690039">1</text>
     </g>
    </g>
    <g id="ytick_2">
     <g id="line2d_7">
      <g>
       <use style="stroke:#000000;stroke-width:0.85;" x="36" xlink:href="#mbda6a2611d" y="102"/>
      </g>
     </g>
     <g id="text_8">
      <text style="font-family:Helvetica;font-size:7.5px;font-style:normal;font-weight:medium;text-anchor:end;" transform="rotate(-0, 29, 104.690039)" x="29" y="104.690039">2</text>
     </g>
    </g>
    <g id="ytick_3">
     <g id="line2d_8">
      <g>
       <use style="stroke:#000000;stroke-width:0.85;" x="36" xlink:href="#mbda6a2611d" y="74"/>
      </g>
     </g>
     <g id="text_9">
      <text style="font-family:Helvetica;font-size:7.5px;font-style:normal;font-weight:medium;text-anchor:end;" transform="rotate(-0, 29, 76.690039)" x="29" y="76.690039">3</text>
     </g>
    </g>
    <g id="ytick_4">
     <g id="line2d_9">
      <g>
       <use style="stroke:#000000;stroke-width:0.85;" x="36" xlink:href="#mbda6a2611d" y="46"/>
      </g>
     </g>
     <g id="text_10">
      <text style="font-family:Helvetica;font-size:7.5px;font-style:normal;font-weight:medium;text-anchor:end;" transform="rotate(-0, 29, 48.690039)" x="29" y="48.690039">4</text>
     </g>
    </g>
    <g id="ytick_5">
     <g id="line2d_10">
      <g>
       <use style="stroke:#000000;stroke-width:0.85;" x="36" xlink:href="#mbda6a2611d" y="18"/>
      </g>
     </g>
     <g id="text_11">
      <text style="font-family:Helvetica;font-size:7.5px;font-style:normal;font-weight:medium;text-anchor:end;" transform="rotate(-0, 29, 20.690039)" x="29" y="20.690039">5</text>
     </g>
    </g>
    <g id="text_12">
     <!-- $I_{\mathrm{d}}$ (A) -->
     <g transform="translate(15.504297 89.7375)rotate(-90)">
      <text>
       <tspan style="font-family:Arial;font-size:7.5px;font-style:italic;font-weight:italic;" x="0" y="-0.265625">I</tspan>
       <tspan style="font-family:Arial;font-size:5.25px;font-style:regular;font-weight:regular;" x="2.08374" y="1.97453125">d</tspan>
       <tspan style="font-family:Helvetica;font-size:7.5px;font-style:regular;font-weight:regular;" x="5.376899 7.46064 9.958198 14.96064" y="-0.265625"> (A)</tspan>
      </text>
     </g>
    </g>
   </g>
   <g id="line2d_11"/>
   <g id="line2d_12">
    <path clip-path="url(#p88c33fc507)" d="M 162 104.560221 
L 161.37 103.738228 
L 159.48 101.966115 
L 157.59 100.708747 
L 156.96 100.426378 
L 155.7 99.653039 
L 151.92 97.595175 
L 148.77 95.341456 
L 146.88 93.812302 
L 144.36 91.404725 
L 141.84 88.464775 
L 139.95 86.022972 
L 138.06 83.300857 
L 136.17 80.115826 
L 133.65 75.259196 
L 131.76 71.024031 
L 130.5 67.855853 
L 127.98 60.755489 
L 126.09 54.804756 
L 124.2 48.157202 
L 121.05 37.000439 
L 119.79 33.312204 
L 119.16 31.840852 
L 118.53 30.683868 
L 117.9 29.856485 
L 117.27 29.477288 
L 116.64 29.540489 
L 116.01 30.056077 
L 115.38 30.987844 
L 114.75 32.415889 
L 114.12 34.314177 
L 112.86 39.230155 
L 110.97 48.418884 
L 109.08 58.467101 
L 107.19 68.248545 
L 105.3 76.953901 
L 103.41 84.412042 
L 102.15 88.767976 
L 99.63 96.097798 
L 97.74 100.820238 
L 95.22 106.282618 
L 93.33 109.830803 
L 91.44 112.947162 
L 90.18 114.816082 
L 87.66 118.126911 
L 85.14 120.847232 
L 83.25 122.723023 
L 78.84 126.438451 
L 76.32 128.212431 
L 71.91 130.932401 
L 68.13 132.866346 
L 65.61 134.072921 
L 59.31 136.471474 
L 55.53 137.698784 
L 50.49 139.072876 
L 45.45 140.160723 
L 36 141.76 
L 36 141.76 
" style="fill:none;stroke:#ff7f0e;stroke-linecap:square;stroke-width:0.85;"/>
    <defs>
     <path d="M 0 2 
C 0.530406 2 1.03916 1.789267 1.414214 1.414214 
C 1.789267 1.03916 2 0.530406 2 0 
C 2 -0.530406 1.789267 -1.03916 1.414214 -1.414214 
C 1.03916 -1.789267 0.530406 -2 0 -2 
C -0.530406 -2 -1.03916 -1.789267 -1.414214 -1.414214 
C -1.789267 -1.03916 -2 -0.530406 -2 0 
C -2 0.530406 -1.789267 1.03916 -1.414214 1.414214 
C -1.03916 1.789267 -0.530406 2 0 2 
z
" id="md3afed0b90"/>
    </defs>
    <g clip-path="url(#p88c33fc507)">
     <use style="fill:#ff7f0e;" x="162" xlink:href="#md3afed0b90" y="104.560221"/>
     <use style="fill:#ff7f0e;" x="161.37" xlink:href="#md3afed0b90" y="103.738228"/>
     <use style="fill:#ff7f0e;" x="160.74" xlink:href="#md3afed0b90" y="103.120739"/>
     <use style="fill:#ff7f0e;" x="160.11" xlink:href="#md3afed0b90" y="102.511945"/>
     <use style="fill:#ff7f0e;" x="159.48" xlink:href="#md3afed0b90" y="101.966115"/>
     <use style="fill:#ff7f0e;" x="158.85" xlink:href="#md3afed0b90" y="101.534306"/>
     <use style="fill:#ff7f0e;" x="158.22" xlink:href="#md3afed0b90" y="101.135144"/>
     <use style="fill:#ff7f0e;" x="157.59" xlink:href="#md3afed0b90" y="100.708747"/>
     <use style="fill:#ff7f0e;" x="156.96" xlink:href="#md3afed0b90" y="100.426378"/>
     <use style="fill:#ff7f0e;" x="156.33" xlink:href="#md3afed0b90" y="100.001223"/>
     <use style="fill:#ff7f0e;" x="155.7" xlink:href="#md3afed0b90" y="99.653039"/>
     <use style="fill:#ff7f0e;" x="155.07" xlink:href="#md3afed0b90" y="99.318049"/>
     <use style="fill:#ff7f0e;" x="154.44" xlink:href="#md3afed0b90" y="98.98461"/>
     <use style="fill:#ff7f0e;" x="153.81" xlink:href="#md3afed0b90" y="98.638446"/>
     <use style="fill:#ff7f0e;" x="153.18" xlink:href="#md3afed0b90" y="98.312196"/>
     <use style="fill:#ff7f0e;" x="152.55" xlink:href="#md3afed0b90" y="97.917729"/>
     <use style="fill:#ff7f0e;" x="151.92" xlink:href="#md3afed0b90" y="97.595175"/>
     <use style="fill:#ff7f0e;" x="151.29" xlink:href="#md3afed0b90" y="97.167857"/>
     <use style="fill:#ff7f0e;" x="150.66" xlink:href="#md3afed0b90" y="96.747412"/>
     <use style="fill:#ff7f0e;" x="150.03" xlink:href="#md3afed0b90" y="96.318392"/>
     <use style="fill:#ff7f0e;" x="149.4" xlink:href="#md3afed0b90" y="95.811968"/>
     <use style="fill:#ff7f0e;" x="148.77" xlink:href="#md3afed0b90" y="95.341456"/>
     <use style="fill:#ff7f0e;" x="148.14" xlink:href="#md3afed0b90" y="94.877019"/>
     <use style="fill:#ff7f0e;" x="147.51" xlink:href="#md3afed0b90" y="94.366728"/>
     <use style="fill:#ff7f0e;" x="146.88" xlink:href="#md3afed0b90" y="93.812302"/>
     <use style="fill:#ff7f0e;" x="146.25" xlink:href="#md3afed0b90" y="93.227063"/>
     <use style="fill:#ff7f0e;" x="145.62" xlink:href="#md3afed0b90" y="92.632285"/>
     <use style="fill:#ff7f0e;" x="144.99" xlink:href="#md3afed0b90" y="92.000716"/>
     <use style="fill:#ff7f0e;" x="144.36" xlink:href="#md3afed0b90" y="91.404725"/>
     <use style="fill:#ff7f0e;" x="143.73" xlink:href="#md3afed0b90" y="90.700873"/>
     <use style="fill:#ff7f0e;" x="143.1" xlink:href="#md3afed0b90" y="89.955351"/>
     <use style="fill:#ff7f0e;" x="142.47" xlink:href="#md3afed0b90" y="89.21803"/>
     <use style="fill:#ff7f0e;" x="141.84" xlink:href="#md3afed0b90" y="88.464775"/>
     <use style="fill:#ff7f0e;" x="141.21" xlink:href="#md3afed0b90" y="87.70838"/>
     <use style="fill:#ff7f0e;" x="140.58" xlink:href="#md3afed0b90" y="86.904862"/>
     <use style="fill:#ff7f0e;" x="139.95" xlink:href="#md3afed0b90" y="86.022972"/>
     <use style="fill:#ff7f0e;" x="139.32" xlink:href="#md3afed0b90" y="85.171407"/>
     <use style="fill:#ff7f0e;" x="138.69" xlink:href="#md3afed0b90" y="84.269836"/>
     <use style="fill:#ff7f0e;" x="138.06" xlink:href="#md3afed0b90" y="83.300857"/>
     <use style="fill:#ff7f0e;" x="137.43" xlink:href="#md3afed0b90" y="82.276964"/>
     <use style="fill:#ff7f0e;" x="136.8" xlink:href="#md3afed0b90" y="81.243473"/>
     <use style="fill:#ff7f0e;" x="136.17" xlink:href="#md3afed0b90" y="80.115826"/>
     <use style="fill:#ff7f0e;" x="135.54" xlink:href="#md3afed0b90" y="78.942976"/>
     <use style="fill:#ff7f0e;" x="134.91" xlink:href="#md3afed0b90" y="77.81107"/>
     <use style="fill:#ff7f0e;" x="134.28" xlink:href="#md3afed0b90" y="76.55548"/>
     <use style="fill:#ff7f0e;" x="133.65" xlink:href="#md3afed0b90" y="75.259196"/>
     <use style="fill:#ff7f0e;" x="133.02" xlink:href="#md3afed0b90" y="73.916314"/>
     <use style="fill:#ff7f0e;" x="132.39" xlink:href="#md3afed0b90" y="72.469243"/>
     <use style="fill:#ff7f0e;" x="131.76" xlink:href="#md3afed0b90" y="71.024031"/>
     <use style="fill:#ff7f0e;" x="131.13" xlink:href="#md3afed0b90" y="69.537192"/>
     <use style="fill:#ff7f0e;" x="130.5" xlink:href="#md3afed0b90" y="67.855853"/>
     <use style="fill:#ff7f0e;" x="129.87" xlink:href="#md3afed0b90" y="66.144122"/>
     <use style="fill:#ff7f0e;" x="129.24" xlink:href="#md3afed0b90" y="64.44551"/>
     <use style="fill:#ff7f0e;" x="128.61" xlink:href="#md3afed0b90" y="62.607042"/>
     <use style="fill:#ff7f0e;" x="127.98" xlink:href="#md3afed0b90" y="60.755489"/>
     <use style="fill:#ff7f0e;" x="127.35" xlink:href="#md3afed0b90" y="58.849675"/>
     <use style="fill:#ff7f0e;" x="126.72" xlink:href="#md3afed0b90" y="56.80978"/>
     <use style="fill:#ff7f0e;" x="126.09" xlink:href="#md3afed0b90" y="54.804756"/>
     <use style="fill:#ff7f0e;" x="125.46" xlink:href="#md3afed0b90" y="52.690079"/>
     <use style="fill:#ff7f0e;" x="124.83" xlink:href="#md3afed0b90" y="50.353576"/>
     <use style="fill:#ff7f0e;" x="124.2" xlink:href="#md3afed0b90" y="48.157202"/>
     <use style="fill:#ff7f0e;" x="123.57" xlink:href="#md3afed0b90" y="45.890426"/>
     <use style="fill:#ff7f0e;" x="122.94" xlink:href="#md3afed0b90" y="43.607362"/>
     <use style="fill:#ff7f0e;" x="122.31" xlink:href="#md3afed0b90" y="41.338281"/>
     <use style="fill:#ff7f0e;" x="121.68" xlink:href="#md3afed0b90" y="39.00967"/>
     <use style="fill:#ff7f0e;" x="121.05" xlink:href="#md3afed0b90" y="37.000439"/>
     <use style="fill:#ff7f0e;" x="120.42" xlink:href="#md3afed0b90" y="35.00019"/>
     <use style="fill:#ff7f0e;" x="119.79" xlink:href="#md3afed0b90" y="33.312204"/>
     <use style="fill:#ff7f0e;" x="119.16" xlink:href="#md3afed0b90" y="31.840852"/>
     <use style="fill:#ff7f0e;" x="118.53" xlink:href="#md3afed0b90" y="30.683868"/>
     <use style="fill:#ff7f0e;" x="117.9" xlink:href="#md3afed0b90" y="29.856485"/>
     <use style="fill:#ff7f0e;" x="117.27" xlink:href="#md3afed0b90" y="29.477288"/>
     <use style="fill:#ff7f0e;" x="116.64" xlink:href="#md3afed0b90" y="29.540489"/>
     <use style="fill:#ff7f0e;" x="116.01" xlink:href="#md3afed0b90" y="30.056077"/>
     <use style="fill:#ff7f0e;" x="115.38" xlink:href="#md3afed0b90" y="30.987844"/>
     <use style="fill:#ff7f0e;" x="114.75" xlink:href="#md3afed0b90" y="32.415889"/>
     <use style="fill:#ff7f0e;" x="114.12" xlink:href="#md3afed0b90" y="34.314177"/>
     <use style="fill:#ff7f0e;" x="113.49" xlink:href="#md3afed0b90" y="36.568719"/>
     <use style="fill:#ff7f0e;" x="112.86" xlink:href="#md3afed0b90" y="39.230155"/>
     <use style="fill:#ff7f0e;" x="112.23" xlink:href="#md3afed0b90" y="42.181705"/>
     <use style="fill:#ff7f0e;" x="111.6" xlink:href="#md3afed0b90" y="45.239213"/>
     <use style="fill:#ff7f0e;" x="110.97" xlink:href="#md3afed0b90" y="48.418884"/>
     <use style="fill:#ff7f0e;" x="110.34" xlink:href="#md3afed0b90" y="51.634839"/>
     <use style="fill:#ff7f0e;" x="109.71" xlink:href="#md3afed0b90" y="55.115302"/>
     <use style="fill:#ff7f0e;" x="109.08" xlink:href="#md3afed0b90" y="58.467101"/>
     <use style="fill:#ff7f0e;" x="108.45" xlink:href="#md3afed0b90" y="61.898301"/>
     <use style="fill:#ff7f0e;" x="107.82" xlink:href="#md3afed0b90" y="65.161751"/>
     <use style="fill:#ff7f0e;" x="107.19" xlink:href="#md3afed0b90" y="68.248545"/>
     <use style="fill:#ff7f0e;" x="106.56" xlink:href="#md3afed0b90" y="71.260789"/>
     <use style="fill:#ff7f0e;" x="105.93" xlink:href="#md3afed0b90" y="74.19434"/>
     <use style="fill:#ff7f0e;" x="105.3" xlink:href="#md3afed0b90" y="76.953901"/>
     <use style="fill:#ff7f0e;" x="104.67" xlink:href="#md3afed0b90" y="79.593572"/>
     <use style="fill:#ff7f0e;" x="104.04" xlink:href="#md3afed0b90" y="82.080768"/>
     <use style="fill:#ff7f0e;" x="103.41" xlink:href="#md3afed0b90" y="84.412042"/>
     <use style="fill:#ff7f0e;" x="102.78" xlink:href="#md3afed0b90" y="86.68079"/>
     <use style="fill:#ff7f0e;" x="102.15" xlink:href="#md3afed0b90" y="88.767976"/>
     <use style="fill:#ff7f0e;" x="101.52" xlink:href="#md3afed0b90" y="90.686904"/>
     <use style="fill:#ff7f0e;" x="100.89" xlink:href="#md3afed0b90" y="92.548836"/>
     <use style="fill:#ff7f0e;" x="100.26" xlink:href="#md3afed0b90" y="94.360373"/>
     <use style="fill:#ff7f0e;" x="99.63" xlink:href="#md3afed0b90" y="96.097798"/>
     <use style="fill:#ff7f0e;" x="99" xlink:href="#md3afed0b90" y="97.749449"/>
     <use style="fill:#ff7f0e;" x="98.37" xlink:href="#md3afed0b90" y="99.28429"/>
     <use style="fill:#ff7f0e;" x="97.74" xlink:href="#md3afed0b90" y="100.820238"/>
     <use style="fill:#ff7f0e;" x="97.11" xlink:href="#md3afed0b90" y="102.236198"/>
     <use style="fill:#ff7f0e;" x="96.48" xlink:href="#md3afed0b90" y="103.655123"/>
     <use style="fill:#ff7f0e;" x="95.85" xlink:href="#md3afed0b90" y="104.959668"/>
     <use style="fill:#ff7f0e;" x="95.22" xlink:href="#md3afed0b90" y="106.282618"/>
     <use style="fill:#ff7f0e;" x="94.59" xlink:href="#md3afed0b90" y="107.515976"/>
     <use style="fill:#ff7f0e;" x="93.96" xlink:href="#md3afed0b90" y="108.695617"/>
     <use style="fill:#ff7f0e;" x="93.33" xlink:href="#md3afed0b90" y="109.830803"/>
     <use style="fill:#ff7f0e;" x="92.7" xlink:href="#md3afed0b90" y="110.93834"/>
     <use style="fill:#ff7f0e;" x="92.07" xlink:href="#md3afed0b90" y="111.94374"/>
     <use style="fill:#ff7f0e;" x="91.44" xlink:href="#md3afed0b90" y="112.947162"/>
     <use style="fill:#ff7f0e;" x="90.81" xlink:href="#md3afed0b90" y="113.934427"/>
     <use style="fill:#ff7f0e;" x="90.18" xlink:href="#md3afed0b90" y="114.816082"/>
     <use style="fill:#ff7f0e;" x="89.55" xlink:href="#md3afed0b90" y="115.683215"/>
     <use style="fill:#ff7f0e;" x="88.92" xlink:href="#md3afed0b90" y="116.489068"/>
     <use style="fill:#ff7f0e;" x="88.29" xlink:href="#md3afed0b90" y="117.339318"/>
     <use style="fill:#ff7f0e;" x="87.66" xlink:href="#md3afed0b90" y="118.126911"/>
     <use style="fill:#ff7f0e;" x="87.03" xlink:href="#md3afed0b90" y="118.845004"/>
     <use style="fill:#ff7f0e;" x="86.4" xlink:href="#md3afed0b90" y="119.538569"/>
     <use style="fill:#ff7f0e;" x="85.77" xlink:href="#md3afed0b90" y="120.21963"/>
     <use style="fill:#ff7f0e;" x="85.14" xlink:href="#md3afed0b90" y="120.847232"/>
     <use style="fill:#ff7f0e;" x="84.51" xlink:href="#md3afed0b90" y="121.507563"/>
     <use style="fill:#ff7f0e;" x="83.88" xlink:href="#md3afed0b90" y="122.135351"/>
     <use style="fill:#ff7f0e;" x="83.25" xlink:href="#md3afed0b90" y="122.723023"/>
     <use style="fill:#ff7f0e;" x="82.62" xlink:href="#md3afed0b90" y="123.267294"/>
     <use style="fill:#ff7f0e;" x="81.99" xlink:href="#md3afed0b90" y="123.824157"/>
     <use style="fill:#ff7f0e;" x="81.36" xlink:href="#md3afed0b90" y="124.380137"/>
     <use style="fill:#ff7f0e;" x="80.73" xlink:href="#md3afed0b90" y="124.893632"/>
     <use style="fill:#ff7f0e;" x="80.1" xlink:href="#md3afed0b90" y="125.436226"/>
     <use style="fill:#ff7f0e;" x="79.47" xlink:href="#md3afed0b90" y="125.95167"/>
     <use style="fill:#ff7f0e;" x="78.84" xlink:href="#md3afed0b90" y="126.438451"/>
     <use style="fill:#ff7f0e;" x="78.21" xlink:href="#md3afed0b90" y="126.908914"/>
     <use style="fill:#ff7f0e;" x="77.58" xlink:href="#md3afed0b90" y="127.352825"/>
     <use style="fill:#ff7f0e;" x="76.95" xlink:href="#md3afed0b90" y="127.769355"/>
     <use style="fill:#ff7f0e;" x="76.32" xlink:href="#md3afed0b90" y="128.212431"/>
     <use style="fill:#ff7f0e;" x="75.69" xlink:href="#md3afed0b90" y="128.618561"/>
     <use style="fill:#ff7f0e;" x="75.06" xlink:href="#md3afed0b90" y="129.029484"/>
     <use style="fill:#ff7f0e;" x="74.43" xlink:href="#md3afed0b90" y="129.417514"/>
     <use style="fill:#ff7f0e;" x="73.8" xlink:href="#md3afed0b90" y="129.783573"/>
     <use style="fill:#ff7f0e;" x="73.17" xlink:href="#md3afed0b90" y="130.159385"/>
     <use style="fill:#ff7f0e;" x="72.54" xlink:href="#md3afed0b90" y="130.527884"/>
     <use style="fill:#ff7f0e;" x="71.91" xlink:href="#md3afed0b90" y="130.932401"/>
     <use style="fill:#ff7f0e;" x="71.28" xlink:href="#md3afed0b90" y="131.272191"/>
     <use style="fill:#ff7f0e;" x="70.65" xlink:href="#md3afed0b90" y="131.612759"/>
     <use style="fill:#ff7f0e;" x="70.02" xlink:href="#md3afed0b90" y="131.94606"/>
     <use style="fill:#ff7f0e;" x="69.39" xlink:href="#md3afed0b90" y="132.227909"/>
     <use style="fill:#ff7f0e;" x="68.76" xlink:href="#md3afed0b90" y="132.56377"/>
     <use style="fill:#ff7f0e;" x="68.13" xlink:href="#md3afed0b90" y="132.866346"/>
     <use style="fill:#ff7f0e;" x="67.5" xlink:href="#md3afed0b90" y="133.184544"/>
     <use style="fill:#ff7f0e;" x="66.87" xlink:href="#md3afed0b90" y="133.47797"/>
     <use style="fill:#ff7f0e;" x="66.24" xlink:href="#md3afed0b90" y="133.80644"/>
     <use style="fill:#ff7f0e;" x="65.61" xlink:href="#md3afed0b90" y="134.072921"/>
     <use style="fill:#ff7f0e;" x="64.98" xlink:href="#md3afed0b90" y="134.322271"/>
     <use style="fill:#ff7f0e;" x="64.35" xlink:href="#md3afed0b90" y="134.604519"/>
     <use style="fill:#ff7f0e;" x="63.72" xlink:href="#md3afed0b90" y="134.855781"/>
     <use style="fill:#ff7f0e;" x="63.09" xlink:href="#md3afed0b90" y="135.068438"/>
     <use style="fill:#ff7f0e;" x="62.46" xlink:href="#md3afed0b90" y="135.307526"/>
     <use style="fill:#ff7f0e;" x="61.83" xlink:href="#md3afed0b90" y="135.559858"/>
     <use style="fill:#ff7f0e;" x="61.2" xlink:href="#md3afed0b90" y="135.804442"/>
     <use style="fill:#ff7f0e;" x="60.57" xlink:href="#md3afed0b90" y="136.034168"/>
     <use style="fill:#ff7f0e;" x="59.94" xlink:href="#md3afed0b90" y="136.264289"/>
     <use style="fill:#ff7f0e;" x="59.31" xlink:href="#md3afed0b90" y="136.471474"/>
     <use style="fill:#ff7f0e;" x="58.68" xlink:href="#md3afed0b90" y="136.690416"/>
     <use style="fill:#ff7f0e;" x="58.05" xlink:href="#md3afed0b90" y="136.899831"/>
     <use style="fill:#ff7f0e;" x="57.42" xlink:href="#md3afed0b90" y="137.104784"/>
     <use style="fill:#ff7f0e;" x="56.79" xlink:href="#md3afed0b90" y="137.311754"/>
     <use style="fill:#ff7f0e;" x="56.16" xlink:href="#md3afed0b90" y="137.504681"/>
     <use style="fill:#ff7f0e;" x="55.53" xlink:href="#md3afed0b90" y="137.698784"/>
     <use style="fill:#ff7f0e;" x="54.9" xlink:href="#md3afed0b90" y="137.884729"/>
     <use style="fill:#ff7f0e;" x="54.27" xlink:href="#md3afed0b90" y="138.052009"/>
     <use style="fill:#ff7f0e;" x="53.64" xlink:href="#md3afed0b90" y="138.241182"/>
     <use style="fill:#ff7f0e;" x="53.01" xlink:href="#md3afed0b90" y="138.401708"/>
     <use style="fill:#ff7f0e;" x="52.38" xlink:href="#md3afed0b90" y="138.580163"/>
     <use style="fill:#ff7f0e;" x="51.75" xlink:href="#md3afed0b90" y="138.726766"/>
     <use style="fill:#ff7f0e;" x="51.12" xlink:href="#md3afed0b90" y="138.92039"/>
     <use style="fill:#ff7f0e;" x="50.49" xlink:href="#md3afed0b90" y="139.072876"/>
     <use style="fill:#ff7f0e;" x="49.86" xlink:href="#md3afed0b90" y="139.219631"/>
     <use style="fill:#ff7f0e;" x="49.23" xlink:href="#md3afed0b90" y="139.367526"/>
     <use style="fill:#ff7f0e;" x="48.6" xlink:href="#md3afed0b90" y="139.491603"/>
     <use style="fill:#ff7f0e;" x="47.97" xlink:href="#md3afed0b90" y="139.650777"/>
     <use style="fill:#ff7f0e;" x="47.34" xlink:href="#md3afed0b90" y="139.764936"/>
     <use style="fill:#ff7f0e;" x="46.71" xlink:href="#md3afed0b90" y="139.930759"/>
     <use style="fill:#ff7f0e;" x="46.08" xlink:href="#md3afed0b90" y="140.048117"/>
     <use style="fill:#ff7f0e;" x="45.45" xlink:href="#md3afed0b90" y="140.160723"/>
     <use style="fill:#ff7f0e;" x="44.82" xlink:href="#md3afed0b90" y="140.264701"/>
     <use style="fill:#ff7f0e;" x="44.19" xlink:href="#md3afed0b90" y="140.410478"/>
     <use style="fill:#ff7f0e;" x="43.56" xlink:href="#md3afed0b90" y="140.510186"/>
     <use style="fill:#ff7f0e;" x="42.93" xlink:href="#md3afed0b90" y="140.638995"/>
     <use style="fill:#ff7f0e;" x="42.3" xlink:href="#md3afed0b90" y="140.772456"/>
     <use style="fill:#ff7f0e;" x="41.67" xlink:href="#md3afed0b90" y="140.884505"/>
     <use style="fill:#ff7f0e;" x="41.04" xlink:href="#md3afed0b90" y="140.996288"/>
     <use style="fill:#ff7f0e;" x="40.41" xlink:href="#md3afed0b90" y="141.087866"/>
     <use style="fill:#ff7f0e;" x="39.78" xlink:href="#md3afed0b90" y="141.174778"/>
     <use style="fill:#ff7f0e;" x="39.15" xlink:href="#md3afed0b90" y="141.281659"/>
     <use style="fill:#ff7f0e;" x="38.52" xlink:href="#md3afed0b90" y="141.401628"/>
     <use style="fill:#ff7f0e;" x="37.89" xlink:href="#md3afed0b90" y="141.488442"/>
     <use style="fill:#ff7f0e;" x="37.26" xlink:href="#md3afed0b90" y="141.566556"/>
     <use style="fill:#ff7f0e;" x="36.63" xlink:href="#md3afed0b90" y="141.651758"/>
     <use style="fill:#ff7f0e;" x="36" xlink:href="#md3afed0b90" y="141.76"/>
    </g>
   </g>
   <g id="line2d_13">
    <path clip-path="url(#p88c33fc507)" d="M 36 141.534563 
L 36.63 141.198613 
L 37.26 141.029418 
L 39.15 140.263784 
L 50.49 135.857288 
L 54.27 134.065914 
L 59.94 130.875061 
L 66.87 125.999454 
L 70.02 123.29802 
L 71.91 121.570233 
L 73.8 119.619244 
L 77.58 115.32386 
L 78.84 113.569065 
L 80.73 110.908456 
L 83.25 106.748883 
L 85.14 103.059471 
L 87.03 98.870604 
L 88.92 94.066389 
L 90.18 90.437329 
L 92.7 82.619843 
L 95.85 71.577471 
L 99 59.405099 
L 100.89 51.052777 
L 104.67 34.015112 
L 105.93 29.137111 
L 107.19 25.51607 
L 107.82 24.402795 
L 108.45 23.598752 
L 109.08 23.18 
L 109.71 23.478203 
L 110.34 24.375353 
L 110.97 25.608268 
L 112.23 29.273345 
L 113.49 34.069428 
L 117.27 49.71139 
L 119.16 56.770449 
L 121.05 62.802381 
L 122.94 68.079605 
L 125.46 74.068877 
L 127.35 77.86978 
L 129.87 82.205302 
L 133.02 86.626216 
L 134.28 87.96436 
L 136.17 89.970125 
L 138.69 92.238561 
L 141.84 94.557861 
L 144.36 96.102466 
L 145.62 96.799202 
L 146.25 97.265662 
L 146.88 97.585315 
L 147.51 97.756141 
L 150.03 99.01564 
L 155.07 101.397741 
L 156.96 102.401524 
L 157.59 102.670508 
L 158.22 103.078246 
L 160.11 103.83199 
L 161.37 104.512194 
L 162 104.800401 
L 162 104.800401 
" style="fill:none;stroke:#2ca02c;stroke-linecap:square;stroke-width:0.85;"/>
    <defs>
     <path d="M 0 2 
C 0.530406 2 1.03916 1.789267 1.414214 1.414214 
C 1.789267 1.03916 2 0.530406 2 0 
C 2 -0.530406 1.789267 -1.03916 1.414214 -1.414214 
C 1.03916 -1.789267 0.530406 -2 0 -2 
C -0.530406 -2 -1.03916 -1.789267 -1.414214 -1.414214 
C -1.789267 -1.03916 -2 -0.530406 -2 0 
C -2 0.530406 -1.789267 1.03916 -1.414214 1.414214 
C -1.03916 1.789267 -0.530406 2 0 2 
z
" id="mdeb95671d0"/>
    </defs>
    <g clip-path="url(#p88c33fc507)">
     <use style="fill:#2ca02c;" x="36" xlink:href="#mdeb95671d0" y="141.534563"/>
     <use style="fill:#2ca02c;" x="36.63" xlink:href="#mdeb95671d0" y="141.198613"/>
     <use style="fill:#2ca02c;" x="37.26" xlink:href="#mdeb95671d0" y="141.029418"/>
     <use style="fill:#2ca02c;" x="37.89" xlink:href="#mdeb95671d0" y="140.740221"/>
     <use style="fill:#2ca02c;" x="38.52" xlink:href="#mdeb95671d0" y="140.499659"/>
     <use style="fill:#2ca02c;" x="39.15" xlink:href="#mdeb95671d0" y="140.263784"/>
     <use style="fill:#2ca02c;" x="39.78" xlink:href="#mdeb95671d0" y="140.02492"/>
     <use style="fill:#2ca02c;" x="40.41" xlink:href="#mdeb95671d0" y="139.799648"/>
     <use style="fill:#2ca02c;" x="41.04" xlink:href="#mdeb95671d0" y="139.551307"/>
     <use style="fill:#2ca02c;" x="41.67" xlink:href="#mdeb95671d0" y="139.31955"/>
     <use style="fill:#2ca02c;" x="42.3" xlink:href="#mdeb95671d0" y="139.093183"/>
     <use style="fill:#2ca02c;" x="42.93" xlink:href="#mdeb95671d0" y="138.845305"/>
     <use style="fill:#2ca02c;" x="43.56" xlink:href="#mdeb95671d0" y="138.622383"/>
     <use style="fill:#2ca02c;" x="44.19" xlink:href="#mdeb95671d0" y="138.401708"/>
     <use style="fill:#2ca02c;" x="44.82" xlink:href="#mdeb95671d0" y="138.166042"/>
     <use style="fill:#2ca02c;" x="45.45" xlink:href="#mdeb95671d0" y="137.906167"/>
     <use style="fill:#2ca02c;" x="46.08" xlink:href="#mdeb95671d0" y="137.685093"/>
     <use style="fill:#2ca02c;" x="46.71" xlink:href="#mdeb95671d0" y="137.459242"/>
     <use style="fill:#2ca02c;" x="47.34" xlink:href="#mdeb95671d0" y="137.185245"/>
     <use style="fill:#2ca02c;" x="47.97" xlink:href="#mdeb95671d0" y="136.924574"/>
     <use style="fill:#2ca02c;" x="48.6" xlink:href="#mdeb95671d0" y="136.67797"/>
     <use style="fill:#2ca02c;" x="49.23" xlink:href="#mdeb95671d0" y="136.403083"/>
     <use style="fill:#2ca02c;" x="49.86" xlink:href="#mdeb95671d0" y="136.136223"/>
     <use style="fill:#2ca02c;" x="50.49" xlink:href="#mdeb95671d0" y="135.857288"/>
     <use style="fill:#2ca02c;" x="51.12" xlink:href="#mdeb95671d0" y="135.577742"/>
     <use style="fill:#2ca02c;" x="51.75" xlink:href="#mdeb95671d0" y="135.262756"/>
     <use style="fill:#2ca02c;" x="52.38" xlink:href="#mdeb95671d0" y="134.954387"/>
     <use style="fill:#2ca02c;" x="53.01" xlink:href="#mdeb95671d0" y="134.686268"/>
     <use style="fill:#2ca02c;" x="53.64" xlink:href="#mdeb95671d0" y="134.394944"/>
     <use style="fill:#2ca02c;" x="54.27" xlink:href="#mdeb95671d0" y="134.065914"/>
     <use style="fill:#2ca02c;" x="54.9" xlink:href="#mdeb95671d0" y="133.720481"/>
     <use style="fill:#2ca02c;" x="55.53" xlink:href="#mdeb95671d0" y="133.392993"/>
     <use style="fill:#2ca02c;" x="56.16" xlink:href="#mdeb95671d0" y="133.060643"/>
     <use style="fill:#2ca02c;" x="56.79" xlink:href="#mdeb95671d0" y="132.729666"/>
     <use style="fill:#2ca02c;" x="57.42" xlink:href="#mdeb95671d0" y="132.378133"/>
     <use style="fill:#2ca02c;" x="58.05" xlink:href="#mdeb95671d0" y="131.986527"/>
     <use style="fill:#2ca02c;" x="58.68" xlink:href="#mdeb95671d0" y="131.645704"/>
     <use style="fill:#2ca02c;" x="59.31" xlink:href="#mdeb95671d0" y="131.235891"/>
     <use style="fill:#2ca02c;" x="59.94" xlink:href="#mdeb95671d0" y="130.875061"/>
     <use style="fill:#2ca02c;" x="60.57" xlink:href="#mdeb95671d0" y="130.439223"/>
     <use style="fill:#2ca02c;" x="61.2" xlink:href="#mdeb95671d0" y="130.039425"/>
     <use style="fill:#2ca02c;" x="61.83" xlink:href="#mdeb95671d0" y="129.623812"/>
     <use style="fill:#2ca02c;" x="62.46" xlink:href="#mdeb95671d0" y="129.205249"/>
     <use style="fill:#2ca02c;" x="63.09" xlink:href="#mdeb95671d0" y="128.797546"/>
     <use style="fill:#2ca02c;" x="63.72" xlink:href="#mdeb95671d0" y="128.329487"/>
     <use style="fill:#2ca02c;" x="64.35" xlink:href="#mdeb95671d0" y="127.891477"/>
     <use style="fill:#2ca02c;" x="64.98" xlink:href="#mdeb95671d0" y="127.417125"/>
     <use style="fill:#2ca02c;" x="65.61" xlink:href="#mdeb95671d0" y="126.991087"/>
     <use style="fill:#2ca02c;" x="66.24" xlink:href="#mdeb95671d0" y="126.461101"/>
     <use style="fill:#2ca02c;" x="66.87" xlink:href="#mdeb95671d0" y="125.999454"/>
     <use style="fill:#2ca02c;" x="67.5" xlink:href="#mdeb95671d0" y="125.486318"/>
     <use style="fill:#2ca02c;" x="68.13" xlink:href="#mdeb95671d0" y="124.948255"/>
     <use style="fill:#2ca02c;" x="68.76" xlink:href="#mdeb95671d0" y="124.423342"/>
     <use style="fill:#2ca02c;" x="69.39" xlink:href="#mdeb95671d0" y="123.868415"/>
     <use style="fill:#2ca02c;" x="70.02" xlink:href="#mdeb95671d0" y="123.29802"/>
     <use style="fill:#2ca02c;" x="70.65" xlink:href="#mdeb95671d0" y="122.757146"/>
     <use style="fill:#2ca02c;" x="71.28" xlink:href="#mdeb95671d0" y="122.166591"/>
     <use style="fill:#2ca02c;" x="71.91" xlink:href="#mdeb95671d0" y="121.570233"/>
     <use style="fill:#2ca02c;" x="72.54" xlink:href="#mdeb95671d0" y="120.95973"/>
     <use style="fill:#2ca02c;" x="73.17" xlink:href="#mdeb95671d0" y="120.315737"/>
     <use style="fill:#2ca02c;" x="73.8" xlink:href="#mdeb95671d0" y="119.619244"/>
     <use style="fill:#2ca02c;" x="74.43" xlink:href="#mdeb95671d0" y="118.925438"/>
     <use style="fill:#2ca02c;" x="75.06" xlink:href="#mdeb95671d0" y="118.274607"/>
     <use style="fill:#2ca02c;" x="75.69" xlink:href="#mdeb95671d0" y="117.636468"/>
     <use style="fill:#2ca02c;" x="76.32" xlink:href="#mdeb95671d0" y="116.797753"/>
     <use style="fill:#2ca02c;" x="76.95" xlink:href="#mdeb95671d0" y="116.160905"/>
     <use style="fill:#2ca02c;" x="77.58" xlink:href="#mdeb95671d0" y="115.32386"/>
     <use style="fill:#2ca02c;" x="78.21" xlink:href="#mdeb95671d0" y="114.515433"/>
     <use style="fill:#2ca02c;" x="78.84" xlink:href="#mdeb95671d0" y="113.569065"/>
     <use style="fill:#2ca02c;" x="79.47" xlink:href="#mdeb95671d0" y="112.710592"/>
     <use style="fill:#2ca02c;" x="80.1" xlink:href="#mdeb95671d0" y="111.862803"/>
     <use style="fill:#2ca02c;" x="80.73" xlink:href="#mdeb95671d0" y="110.908456"/>
     <use style="fill:#2ca02c;" x="81.36" xlink:href="#mdeb95671d0" y="109.9187"/>
     <use style="fill:#2ca02c;" x="81.99" xlink:href="#mdeb95671d0" y="108.961792"/>
     <use style="fill:#2ca02c;" x="82.62" xlink:href="#mdeb95671d0" y="107.874784"/>
     <use style="fill:#2ca02c;" x="83.25" xlink:href="#mdeb95671d0" y="106.748883"/>
     <use style="fill:#2ca02c;" x="83.88" xlink:href="#mdeb95671d0" y="105.581964"/>
     <use style="fill:#2ca02c;" x="84.51" xlink:href="#mdeb95671d0" y="104.361793"/>
     <use style="fill:#2ca02c;" x="85.14" xlink:href="#mdeb95671d0" y="103.059471"/>
     <use style="fill:#2ca02c;" x="85.77" xlink:href="#mdeb95671d0" y="101.744517"/>
     <use style="fill:#2ca02c;" x="86.4" xlink:href="#mdeb95671d0" y="100.274564"/>
     <use style="fill:#2ca02c;" x="87.03" xlink:href="#mdeb95671d0" y="98.870604"/>
     <use style="fill:#2ca02c;" x="87.66" xlink:href="#mdeb95671d0" y="97.323046"/>
     <use style="fill:#2ca02c;" x="88.29" xlink:href="#mdeb95671d0" y="95.755008"/>
     <use style="fill:#2ca02c;" x="88.92" xlink:href="#mdeb95671d0" y="94.066389"/>
     <use style="fill:#2ca02c;" x="89.55" xlink:href="#mdeb95671d0" y="92.338654"/>
     <use style="fill:#2ca02c;" x="90.18" xlink:href="#mdeb95671d0" y="90.437329"/>
     <use style="fill:#2ca02c;" x="90.81" xlink:href="#mdeb95671d0" y="88.553253"/>
     <use style="fill:#2ca02c;" x="91.44" xlink:href="#mdeb95671d0" y="86.512092"/>
     <use style="fill:#2ca02c;" x="92.07" xlink:href="#mdeb95671d0" y="84.722376"/>
     <use style="fill:#2ca02c;" x="92.7" xlink:href="#mdeb95671d0" y="82.619843"/>
     <use style="fill:#2ca02c;" x="93.33" xlink:href="#mdeb95671d0" y="80.463403"/>
     <use style="fill:#2ca02c;" x="93.96" xlink:href="#mdeb95671d0" y="78.316707"/>
     <use style="fill:#2ca02c;" x="94.59" xlink:href="#mdeb95671d0" y="76.118309"/>
     <use style="fill:#2ca02c;" x="95.22" xlink:href="#mdeb95671d0" y="73.824858"/>
     <use style="fill:#2ca02c;" x="95.85" xlink:href="#mdeb95671d0" y="71.577471"/>
     <use style="fill:#2ca02c;" x="96.48" xlink:href="#mdeb95671d0" y="69.204661"/>
     <use style="fill:#2ca02c;" x="97.11" xlink:href="#mdeb95671d0" y="66.877552"/>
     <use style="fill:#2ca02c;" x="97.74" xlink:href="#mdeb95671d0" y="64.494892"/>
     <use style="fill:#2ca02c;" x="98.37" xlink:href="#mdeb95671d0" y="61.906272"/>
     <use style="fill:#2ca02c;" x="99" xlink:href="#mdeb95671d0" y="59.405099"/>
     <use style="fill:#2ca02c;" x="99.63" xlink:href="#mdeb95671d0" y="56.725623"/>
     <use style="fill:#2ca02c;" x="100.26" xlink:href="#mdeb95671d0" y="54.000659"/>
     <use style="fill:#2ca02c;" x="100.89" xlink:href="#mdeb95671d0" y="51.052777"/>
     <use style="fill:#2ca02c;" x="101.52" xlink:href="#mdeb95671d0" y="48.181739"/>
     <use style="fill:#2ca02c;" x="102.15" xlink:href="#mdeb95671d0" y="45.31145"/>
     <use style="fill:#2ca02c;" x="102.78" xlink:href="#mdeb95671d0" y="42.357535"/>
     <use style="fill:#2ca02c;" x="103.41" xlink:href="#mdeb95671d0" y="39.48909"/>
     <use style="fill:#2ca02c;" x="104.04" xlink:href="#mdeb95671d0" y="36.695683"/>
     <use style="fill:#2ca02c;" x="104.67" xlink:href="#mdeb95671d0" y="34.015112"/>
     <use style="fill:#2ca02c;" x="105.3" xlink:href="#mdeb95671d0" y="31.496494"/>
     <use style="fill:#2ca02c;" x="105.93" xlink:href="#mdeb95671d0" y="29.137111"/>
     <use style="fill:#2ca02c;" x="106.56" xlink:href="#mdeb95671d0" y="27.222476"/>
     <use style="fill:#2ca02c;" x="107.19" xlink:href="#mdeb95671d0" y="25.51607"/>
     <use style="fill:#2ca02c;" x="107.82" xlink:href="#mdeb95671d0" y="24.402795"/>
     <use style="fill:#2ca02c;" x="108.45" xlink:href="#mdeb95671d0" y="23.598752"/>
     <use style="fill:#2ca02c;" x="109.08" xlink:href="#mdeb95671d0" y="23.18"/>
     <use style="fill:#2ca02c;" x="109.71" xlink:href="#mdeb95671d0" y="23.478203"/>
     <use style="fill:#2ca02c;" x="110.34" xlink:href="#mdeb95671d0" y="24.375353"/>
     <use style="fill:#2ca02c;" x="110.97" xlink:href="#mdeb95671d0" y="25.608268"/>
     <use style="fill:#2ca02c;" x="111.6" xlink:href="#mdeb95671d0" y="27.33765"/>
     <use style="fill:#2ca02c;" x="112.23" xlink:href="#mdeb95671d0" y="29.273345"/>
     <use style="fill:#2ca02c;" x="112.86" xlink:href="#mdeb95671d0" y="31.565731"/>
     <use style="fill:#2ca02c;" x="113.49" xlink:href="#mdeb95671d0" y="34.069428"/>
     <use style="fill:#2ca02c;" x="114.12" xlink:href="#mdeb95671d0" y="36.742136"/>
     <use style="fill:#2ca02c;" x="114.75" xlink:href="#mdeb95671d0" y="39.381919"/>
     <use style="fill:#2ca02c;" x="115.38" xlink:href="#mdeb95671d0" y="41.98166"/>
     <use style="fill:#2ca02c;" x="116.01" xlink:href="#mdeb95671d0" y="44.677031"/>
     <use style="fill:#2ca02c;" x="116.64" xlink:href="#mdeb95671d0" y="47.270593"/>
     <use style="fill:#2ca02c;" x="117.27" xlink:href="#mdeb95671d0" y="49.71139"/>
     <use style="fill:#2ca02c;" x="117.9" xlink:href="#mdeb95671d0" y="52.151028"/>
     <use style="fill:#2ca02c;" x="118.53" xlink:href="#mdeb95671d0" y="54.513337"/>
     <use style="fill:#2ca02c;" x="119.16" xlink:href="#mdeb95671d0" y="56.770449"/>
     <use style="fill:#2ca02c;" x="119.79" xlink:href="#mdeb95671d0" y="58.874946"/>
     <use style="fill:#2ca02c;" x="120.42" xlink:href="#mdeb95671d0" y="60.907901"/>
     <use style="fill:#2ca02c;" x="121.05" xlink:href="#mdeb95671d0" y="62.802381"/>
     <use style="fill:#2ca02c;" x="121.68" xlink:href="#mdeb95671d0" y="64.609622"/>
     <use style="fill:#2ca02c;" x="122.31" xlink:href="#mdeb95671d0" y="66.373576"/>
     <use style="fill:#2ca02c;" x="122.94" xlink:href="#mdeb95671d0" y="68.079605"/>
     <use style="fill:#2ca02c;" x="123.57" xlink:href="#mdeb95671d0" y="69.628362"/>
     <use style="fill:#2ca02c;" x="124.2" xlink:href="#mdeb95671d0" y="71.239161"/>
     <use style="fill:#2ca02c;" x="124.83" xlink:href="#mdeb95671d0" y="72.731462"/>
     <use style="fill:#2ca02c;" x="125.46" xlink:href="#mdeb95671d0" y="74.068877"/>
     <use style="fill:#2ca02c;" x="126.09" xlink:href="#mdeb95671d0" y="75.418228"/>
     <use style="fill:#2ca02c;" x="126.72" xlink:href="#mdeb95671d0" y="76.634395"/>
     <use style="fill:#2ca02c;" x="127.35" xlink:href="#mdeb95671d0" y="77.86978"/>
     <use style="fill:#2ca02c;" x="127.98" xlink:href="#mdeb95671d0" y="78.990363"/>
     <use style="fill:#2ca02c;" x="128.61" xlink:href="#mdeb95671d0" y="80.122721"/>
     <use style="fill:#2ca02c;" x="129.24" xlink:href="#mdeb95671d0" y="81.213203"/>
     <use style="fill:#2ca02c;" x="129.87" xlink:href="#mdeb95671d0" y="82.205302"/>
     <use style="fill:#2ca02c;" x="130.5" xlink:href="#mdeb95671d0" y="83.119517"/>
     <use style="fill:#2ca02c;" x="131.13" xlink:href="#mdeb95671d0" y="83.996007"/>
     <use style="fill:#2ca02c;" x="131.76" xlink:href="#mdeb95671d0" y="85.035406"/>
     <use style="fill:#2ca02c;" x="132.39" xlink:href="#mdeb95671d0" y="85.844955"/>
     <use style="fill:#2ca02c;" x="133.02" xlink:href="#mdeb95671d0" y="86.626216"/>
     <use style="fill:#2ca02c;" x="133.65" xlink:href="#mdeb95671d0" y="87.220883"/>
     <use style="fill:#2ca02c;" x="134.28" xlink:href="#mdeb95671d0" y="87.96436"/>
     <use style="fill:#2ca02c;" x="134.91" xlink:href="#mdeb95671d0" y="88.669796"/>
     <use style="fill:#2ca02c;" x="135.54" xlink:href="#mdeb95671d0" y="89.316564"/>
     <use style="fill:#2ca02c;" x="136.17" xlink:href="#mdeb95671d0" y="89.970125"/>
     <use style="fill:#2ca02c;" x="136.8" xlink:href="#mdeb95671d0" y="90.574439"/>
     <use style="fill:#2ca02c;" x="137.43" xlink:href="#mdeb95671d0" y="91.185648"/>
     <use style="fill:#2ca02c;" x="138.06" xlink:href="#mdeb95671d0" y="91.735784"/>
     <use style="fill:#2ca02c;" x="138.69" xlink:href="#mdeb95671d0" y="92.238561"/>
     <use style="fill:#2ca02c;" x="139.32" xlink:href="#mdeb95671d0" y="92.729841"/>
     <use style="fill:#2ca02c;" x="139.95" xlink:href="#mdeb95671d0" y="93.244685"/>
     <use style="fill:#2ca02c;" x="140.58" xlink:href="#mdeb95671d0" y="93.723418"/>
     <use style="fill:#2ca02c;" x="141.21" xlink:href="#mdeb95671d0" y="94.138254"/>
     <use style="fill:#2ca02c;" x="141.84" xlink:href="#mdeb95671d0" y="94.557861"/>
     <use style="fill:#2ca02c;" x="142.47" xlink:href="#mdeb95671d0" y="94.969981"/>
     <use style="fill:#2ca02c;" x="143.1" xlink:href="#mdeb95671d0" y="95.357172"/>
     <use style="fill:#2ca02c;" x="143.73" xlink:href="#mdeb95671d0" y="95.723431"/>
     <use style="fill:#2ca02c;" x="144.36" xlink:href="#mdeb95671d0" y="96.102466"/>
     <use style="fill:#2ca02c;" x="144.99" xlink:href="#mdeb95671d0" y="96.436061"/>
     <use style="fill:#2ca02c;" x="145.62" xlink:href="#mdeb95671d0" y="96.799202"/>
     <use style="fill:#2ca02c;" x="146.25" xlink:href="#mdeb95671d0" y="97.265662"/>
     <use style="fill:#2ca02c;" x="146.88" xlink:href="#mdeb95671d0" y="97.585315"/>
     <use style="fill:#2ca02c;" x="147.51" xlink:href="#mdeb95671d0" y="97.756141"/>
     <use style="fill:#2ca02c;" x="148.14" xlink:href="#mdeb95671d0" y="98.093187"/>
     <use style="fill:#2ca02c;" x="148.77" xlink:href="#mdeb95671d0" y="98.399954"/>
     <use style="fill:#2ca02c;" x="149.4" xlink:href="#mdeb95671d0" y="98.668908"/>
     <use style="fill:#2ca02c;" x="150.03" xlink:href="#mdeb95671d0" y="99.01564"/>
     <use style="fill:#2ca02c;" x="150.66" xlink:href="#mdeb95671d0" y="99.303097"/>
     <use style="fill:#2ca02c;" x="151.29" xlink:href="#mdeb95671d0" y="99.588244"/>
     <use style="fill:#2ca02c;" x="151.92" xlink:href="#mdeb95671d0" y="99.910194"/>
     <use style="fill:#2ca02c;" x="152.55" xlink:href="#mdeb95671d0" y="100.201742"/>
     <use style="fill:#2ca02c;" x="153.18" xlink:href="#mdeb95671d0" y="100.455752"/>
     <use style="fill:#2ca02c;" x="153.81" xlink:href="#mdeb95671d0" y="100.774373"/>
     <use style="fill:#2ca02c;" x="154.44" xlink:href="#mdeb95671d0" y="101.130683"/>
     <use style="fill:#2ca02c;" x="155.07" xlink:href="#mdeb95671d0" y="101.397741"/>
     <use style="fill:#2ca02c;" x="155.7" xlink:href="#mdeb95671d0" y="101.763636"/>
     <use style="fill:#2ca02c;" x="156.33" xlink:href="#mdeb95671d0" y="102.004491"/>
     <use style="fill:#2ca02c;" x="156.96" xlink:href="#mdeb95671d0" y="102.401524"/>
     <use style="fill:#2ca02c;" x="157.59" xlink:href="#mdeb95671d0" y="102.670508"/>
     <use style="fill:#2ca02c;" x="158.22" xlink:href="#mdeb95671d0" y="103.078246"/>
     <use style="fill:#2ca02c;" x="158.85" xlink:href="#mdeb95671d0" y="103.337723"/>
     <use style="fill:#2ca02c;" x="159.48" xlink:href="#mdeb95671d0" y="103.600483"/>
     <use style="fill:#2ca02c;" x="160.11" xlink:href="#mdeb95671d0" y="103.83199"/>
     <use style="fill:#2ca02c;" x="160.74" xlink:href="#mdeb95671d0" y="104.238091"/>
     <use style="fill:#2ca02c;" x="161.37" xlink:href="#mdeb95671d0" y="104.512194"/>
     <use style="fill:#2ca02c;" x="162" xlink:href="#mdeb95671d0" y="104.800401"/>
    </g>
   </g>
   <g id="patch_3">
    <path d="M 36 144 
L 36 18 
" style="fill:none;stroke:#000000;stroke-linecap:square;stroke-linejoin:miter;stroke-width:0.85;"/>
   </g>
   <g id="patch_4">
    <path d="M 162 144 
L 162 18 
" style="fill:none;stroke:#000000;stroke-linecap:square;stroke-linejoin:miter;stroke-width:0.85;"/>
   </g>
   <g id="patch_5">
    <path d="M 36 144 
L 162 144 
" style="fill:none;stroke:#000000;stroke-linecap:square;stroke-linejoin:miter;stroke-width:0.85;"/>
   </g>
   <g id="patch_6">
    <path d="M 36 18 
L 162 18 
" style="fill:none;stroke:#000000;stroke-linecap:square;stroke-linejoin:miter;stroke-width:0.85;"/>
   </g>
  </g>
 </g>
 <defs>
  <clipPath id="p88c33fc507">
   <rect height="126" width="126" x="36" y="18"/>
  </clipPath>
 </defs>
</svg>
