<?xml version="1.0" encoding="UTF-8" standalone="no"?>
<!-- Generator: Adobe Illustrator 22.0.0, SVG Export Plug-In . SVG Version: 6.00 Build 0)  -->

<svg
   xmlns:dc="http://purl.org/dc/elements/1.1/"
   xmlns:cc="http://creativecommons.org/ns#"
   xmlns:rdf="http://www.w3.org/1999/02/22-rdf-syntax-ns#"
   xmlns:svg="http://www.w3.org/2000/svg"
   xmlns="http://www.w3.org/2000/svg"
   xmlns:xlink="http://www.w3.org/1999/xlink"
   xmlns:sodipodi="http://sodipodi.sourceforge.net/DTD/sodipodi-0.dtd"
   xmlns:inkscape="http://www.inkscape.org/namespaces/inkscape"
   version="1.1"
   x="0px"
   y="0px"
   viewBox="0 0 621.14132 455.13503"
   xml:space="preserve"
   id="svg711"
   sodipodi:docname="QC_compare.svg"
   inkscape:version="0.92.2 5c3e80d, 2017-08-06"
   width="465.85599pt"
   height="341.35129pt"><sodipodi:namedview
     pagecolor="#ffffff"
     bordercolor="#666666"
     borderopacity="1"
     objecttolerance="10"
     gridtolerance="10"
     guidetolerance="10"
     inkscape:pageopacity="0"
     inkscape:pageshadow="2"
     inkscape:window-width="1440"
     inkscape:window-height="848"
     id="namedview713"
     showgrid="false"
     showguides="true"
     inkscape:guide-bbox="true"
     inkscape:zoom="0.88696792"
     inkscape:cx="140.0714"
     inkscape:cy="220.64777"
     inkscape:window-x="0"
     inkscape:window-y="0"
     inkscape:window-maximized="0"
     inkscape:current-layer="pjM1e6.tif"
     units="pt"
     fit-margin-top="5e-05"
     fit-margin-left="5"
     fit-margin-right="5"
     fit-margin-bottom="5"><sodipodi:guide
       inkscape:locked="false"
       id="guide1526"
       orientation="1,0"
       position="431.24387,214.29625" /><sodipodi:guide
       inkscape:locked="false"
       id="guide1528"
       orientation="1,0"
       position="253.1089,115.64555" /><sodipodi:guide
       inkscape:locked="false"
       id="guide1530"
       orientation="1,0"
       position="157.2768,192.31124" /><sodipodi:guide
       inkscape:locked="false"
       id="guide1532"
       orientation="1,0"
       position="560.33536,116.20926" /><sodipodi:guide
       inkscape:locked="false"
       id="guide1536"
       orientation="0,1"
       position="143.68262,329.45584" /></sodipodi:namedview><metadata
     id="metadata717"><rdf:RDF><cc:Work
         rdf:about=""><dc:format>image/svg+xml</dc:format><dc:type
           rdf:resource="http://purl.org/dc/dcmitype/StillImage" /><dc:title /></cc:Work></rdf:RDF></metadata><defs
     id="defs715" /><style
     id="style2"
     type="text/css">
	.st0{font-family:'ArialMT';}
	.st1{font-size:11px;}
	.st2{font-family:'Arial-ItalicMT';}
	.st3{font-size:13px;}
	.st4{font-size:15px;}
	.st5{fill:none;stroke:#262626;stroke-linecap:square;stroke-miterlimit:10;}
	.st6{fill:#D04127;}
	.st7{fill:#1A7139;}
	.st8{fill:#1760AC;}
	.st9{fill:#EE8C3C;}
	.st10{fill:none;stroke:#D04127;stroke-linecap:square;stroke-miterlimit:10;}
	.st11{fill:none;stroke:#000000;stroke-linecap:square;stroke-miterlimit:10;}
	.st12{fill:none;stroke:#922885;stroke-linecap:square;stroke-miterlimit:10;}
	.st13{fill:none;stroke:#1A7139;stroke-linecap:square;stroke-miterlimit:10;}
	.st14{fill:none;stroke:#EE83B2;stroke-linecap:square;stroke-miterlimit:10;}
	.st15{fill:none;stroke:#1760AC;stroke-linecap:square;stroke-miterlimit:10;}
	.st16{fill:none;stroke:#E51E25;stroke-linecap:square;stroke-miterlimit:10;}
	.st17{fill:none;stroke:#5CB447;stroke-linecap:square;stroke-miterlimit:10;}
	.st18{fill:none;stroke:#2B4092;stroke-linecap:square;stroke-miterlimit:10;}
	.st19{fill:none;stroke:#EE8C3C;stroke-linecap:square;stroke-miterlimit:10;}
	.st20{font-size:9px;}
	.st21{font-size:16px;}
	.st22{font-size:12px;}
</style><g
     id="Layer_2"
     transform="translate(9.5826126,-232.12081)" /><g
     id="Layer_1"
     transform="translate(9.5826126,-232.12081)"><g
       id="g15"
       transform="matrix(0.96107643,0,0,0.96107643,-3.5189606,8.3060221)"><text
         id="text5"
         class="st0 st1"
         transform="translate(38.1754,480.2836)"
         style="font-size:11px;font-family:ArialMT">0</text>
<text
         id="text7"
         class="st0 st1"
         transform="translate(86.7135,480.2836)"
         style="font-size:11px;font-family:ArialMT">0.5</text>
<text
         id="text9"
         class="st0 st1"
         transform="translate(144.4254,480.2836)"
         style="font-size:11px;font-family:ArialMT">1</text>
<text
         id="text11"
         class="st0 st1"
         transform="translate(192.9635,480.2836)"
         style="font-size:11px;font-family:ArialMT">1.5</text>
<text
         id="text13"
         class="st0 st1"
         transform="translate(250.6754,480.2836)"
         style="font-size:11px;font-family:ArialMT">2</text>
</g><g
       transform="matrix(0.96107643,0,0,0.96107643,-7.3632663,8.3060221)"
       id="g27"><text
         style="font-size:11px;font-family:ArialMT"
         id="text17"
         class="st0 st1"
         transform="translate(29.8673,469.7353)">0</text>
<text
         style="font-size:11px;font-family:ArialMT"
         id="text19"
         class="st0 st1"
         transform="translate(23.7495,416.4019)">20</text>
<text
         style="font-size:11px;font-family:ArialMT"
         id="text21"
         class="st0 st1"
         transform="translate(23.7495,363.0686)">40</text>
<text
         style="font-size:11px;font-family:ArialMT"
         id="text23"
         class="st0 st1"
         transform="translate(23.7495,309.7345)">60</text>
<text
         style="font-size:11px;font-family:ArialMT"
         id="text25"
         class="st0 st1"
         transform="translate(23.7495,256.4012)">80</text>
</g><text
       y="11.415495"
       x="-350.69891"
       style="font-style:normal;font-variant:normal;font-weight:normal;font-stretch:normal;font-size:12.49399376px;font-family:Arial-ItalicMT;-inkscape-font-specification:'Arial-ItalicMT, Normal';font-variant-ligatures:normal;font-variant-caps:normal;font-variant-numeric:normal;font-feature-settings:normal;text-align:center;writing-mode:lr-tb;text-anchor:middle;stroke-width:0.96107644"
       id="text29"
       class="st2 st3"
       transform="rotate(-90)"><tspan
         y="11.415495"
         x="-350.69891"
         id="tspan1534"
         sodipodi:role="line"
         style="stroke-width:0.96107644">$C_{\mathrm{Q}}$ (μF$\cdot$cm$^{-2}$)</tspan></text>
<g
       transform="matrix(0.96107643,0,0,0.96107643,-5.4411134,8.3060221)"
       id="g105"><text
         style="font-size:11px;font-family:ArialMT"
         id="text93"
         class="st0 st1"
         transform="translate(304.1077,467.5923)">0</text>
<text
         style="font-size:11px;font-family:ArialMT"
         id="text95"
         class="st0 st1"
         transform="translate(291.8724,383.0794)">100</text>
<text
         style="font-size:11px;font-family:ArialMT"
         id="text97"
         class="st0 st1"
         transform="translate(291.8726,340.8228)">150</text>
<text
         style="font-size:11px;font-family:ArialMT"
         id="text99"
         class="st0 st1"
         transform="translate(291.8726,298.5658)">200</text>
<text
         style="font-size:11px;font-family:ArialMT"
         id="text101"
         class="st0 st1"
         transform="translate(291.8724,256.3094)">250</text>
<text
         style="font-size:11px;font-family:ArialMT"
         id="text103"
         class="st0 st1"
         transform="translate(297.9901,425.3351)">50</text>
</g><g
       id="g117"
       transform="matrix(0.96107643,0,0,0.96107643,-3.5189606,8.3060221)"><text
         id="text107"
         class="st0 st1"
         transform="translate(311.1754,480.2836)"
         style="font-size:11px;font-family:ArialMT">0</text>
<text
         id="text109"
         class="st0 st1"
         transform="translate(359.7135,480.2836)"
         style="font-size:11px;font-family:ArialMT">0.5</text>
<text
         id="text111"
         class="st0 st1"
         transform="translate(417.4254,480.2836)"
         style="font-size:11px;font-family:ArialMT">1</text>
<text
         id="text113"
         class="st0 st1"
         transform="translate(465.9635,480.2836)"
         style="font-size:11px;font-family:ArialMT">1.5</text>
<text
         id="text115"
         class="st0 st1"
         transform="translate(523.6754,480.2836)"
         style="font-size:11px;font-family:ArialMT">2</text>
</g><path
       id="path119"
       d="m 34.635774,457.89757 v -209.13023 m 0,209.13023 h -2.114369 m 2.114369,-52.28255 h -2.114369 m 2.114369,-52.28256 h -2.114369 m 2.114369,-52.28256 h -2.114369 m 2.114369,-52.28256 h -2.114369"
       class="st5"
       inkscape:connector-curvature="0"
       style="fill:none;stroke:#262626;stroke-width:0.96107644;stroke-linecap:square;stroke-miterlimit:10" /><polygon
       id="polygon121"
       points="39.9,339.6 42.6,334.9 37.2,334.9 "
       class="st6"
       style="fill:#d04127"
       transform="matrix(0.96107643,0,0,0.96107643,-3.5189606,8.3060221)" /><polygon
       id="polygon123"
       points="49.5,338.6 52.2,333.9 46.9,333.9 "
       class="st6"
       style="fill:#d04127"
       transform="matrix(0.96107643,0,0,0.96107643,-3.5189606,8.3060221)" /><polygon
       id="polygon125"
       points="56.2,337.9 58.9,333.3 53.5,333.3 "
       class="st6"
       style="fill:#d04127"
       transform="matrix(0.96107643,0,0,0.96107643,-3.5189606,8.3060221)" /><polygon
       id="polygon127"
       points="66.2,337.3 68.9,332.6 63.5,332.6 "
       class="st6"
       style="fill:#d04127"
       transform="matrix(0.96107643,0,0,0.96107643,-3.5189606,8.3060221)" /><polygon
       id="polygon129"
       points="72.9,336.3 75.6,331.6 70.2,331.6 "
       class="st6"
       style="fill:#d04127"
       transform="matrix(0.96107643,0,0,0.96107643,-3.5189606,8.3060221)" /><polygon
       id="polygon131"
       points="82.9,335.3 85.6,330.6 80.2,330.6 "
       class="st6"
       style="fill:#d04127"
       transform="matrix(0.96107643,0,0,0.96107643,-3.5189606,8.3060221)" /><polygon
       id="polygon133"
       points="89.9,334.6 92.6,329.9 87.2,329.9 "
       class="st6"
       style="fill:#d04127"
       transform="matrix(0.96107643,0,0,0.96107643,-3.5189606,8.3060221)" /><polygon
       id="polygon135"
       points="99.9,333.9 102.6,329.3 97.2,329.3 "
       class="st6"
       style="fill:#d04127"
       transform="matrix(0.96107643,0,0,0.96107643,-3.5189606,8.3060221)" /><polygon
       id="polygon137"
       points="106.9,333.3 109.6,328.6 104.2,328.6 "
       class="st6"
       style="fill:#d04127"
       transform="matrix(0.96107643,0,0,0.96107643,-3.5189606,8.3060221)" /><polygon
       id="polygon139"
       points="37.2,317.4 42.6,317.4 39.9,312.7 "
       transform="matrix(0.96107643,0,0,0.96107643,-3.5189606,8.3060221)" /><polygon
       id="polygon141"
       points="48.5,316 53.9,316 51.2,311.4 "
       transform="matrix(0.96107643,0,0,0.96107643,-3.5189606,8.3060221)" /><polygon
       id="polygon143"
       points="56.2,315 61.6,315 58.9,310.4 "
       transform="matrix(0.96107643,0,0,0.96107643,-3.5189606,8.3060221)" /><polygon
       id="polygon145"
       points="67.9,314 73.3,314 70.6,309.4 "
       transform="matrix(0.96107643,0,0,0.96107643,-3.5189606,8.3060221)" /><polygon
       id="polygon147"
       points="75.5,313 80.9,313 78.2,308.4 "
       transform="matrix(0.96107643,0,0,0.96107643,-3.5189606,8.3060221)" /><polygon
       id="polygon149"
       points="87.2,311.7 92.6,311.7 89.9,307 "
       transform="matrix(0.96107643,0,0,0.96107643,-3.5189606,8.3060221)" /><polygon
       id="polygon151"
       points="95.2,310.7 100.6,310.7 97.9,306 "
       transform="matrix(0.96107643,0,0,0.96107643,-3.5189606,8.3060221)" /><polygon
       id="polygon153"
       points="39.9,372.4 37.5,375.5 39.9,378.6 42.2,375.5 "
       class="st7"
       style="fill:#1a7139"
       transform="matrix(0.96107643,0,0,0.96107643,-3.5189606,8.3060221)" /><polygon
       id="polygon155"
       points="46.5,371.7 44.2,374.9 46.5,378 48.9,374.9 "
       class="st7"
       style="fill:#1a7139"
       transform="matrix(0.96107643,0,0,0.96107643,-3.5189606,8.3060221)" /><polygon
       id="polygon157"
       points="53.6,371.1 51.2,374.2 53.6,377.3 55.9,374.2 "
       class="st7"
       style="fill:#1a7139"
       transform="matrix(0.96107643,0,0,0.96107643,-3.5189606,8.3060221)" /><polygon
       id="polygon159"
       points="60.6,370.4 58.2,373.5 60.6,376.6 62.9,373.5 "
       class="st7"
       style="fill:#1a7139"
       transform="matrix(0.96107643,0,0,0.96107643,-3.5189606,8.3060221)" /><polygon
       id="polygon161"
       points="65.6,370.1 63.2,373.2 65.6,376.3 67.9,373.2 "
       class="st7"
       style="fill:#1a7139"
       transform="matrix(0.96107643,0,0,0.96107643,-3.5189606,8.3060221)" /><polygon
       id="polygon163"
       points="72.6,369.1 70.2,372.2 72.6,375.3 74.9,372.2 "
       class="st7"
       style="fill:#1a7139"
       transform="matrix(0.96107643,0,0,0.96107643,-3.5189606,8.3060221)" /><polygon
       id="polygon165"
       points="79.6,368.4 77.2,371.5 79.6,374.6 81.9,371.5 "
       class="st7"
       style="fill:#1a7139"
       transform="matrix(0.96107643,0,0,0.96107643,-3.5189606,8.3060221)" /><polygon
       id="polygon167"
       points="86.9,367.7 84.6,370.9 86.9,374 89.3,370.9 "
       class="st7"
       style="fill:#1a7139"
       transform="matrix(0.96107643,0,0,0.96107643,-3.5189606,8.3060221)" /><polygon
       id="polygon169"
       points="94.3,367.1 91.9,370.2 94.3,373.3 96.6,370.2 "
       class="st7"
       style="fill:#1a7139"
       transform="matrix(0.96107643,0,0,0.96107643,-3.5189606,8.3060221)" /><polygon
       id="polygon171"
       points="101.6,366.4 99.3,369.5 101.6,372.6 103.9,369.5 "
       class="st7"
       style="fill:#1a7139"
       transform="matrix(0.96107643,0,0,0.96107643,-3.5189606,8.3060221)" /><polygon
       id="polygon173"
       points="108.9,365.7 106.6,368.9 108.9,372 111.3,368.9 "
       class="st7"
       style="fill:#1a7139"
       transform="matrix(0.96107643,0,0,0.96107643,-3.5189606,8.3060221)" /><polygon
       id="polygon175"
       points="41.9,366 40.5,366 39.9,367.2 39.2,366 37.8,366 38.7,364.9 37.8,363.7 39.2,363.7 39.9,362.5 40.5,363.7 41.9,363.7 41,364.9 "
       class="st8"
       style="fill:#1760ac"
       transform="matrix(0.96107643,0,0,0.96107643,-3.5189606,8.3060221)" /><polygon
       id="polygon177"
       points="51.6,365 50.2,365 49.5,366.2 48.9,365 47.5,365 48.4,363.9 47.5,362.7 48.9,362.7 49.5,361.5 50.2,362.7 51.6,362.7 50.7,363.9 "
       class="st8"
       style="fill:#1760ac"
       transform="matrix(0.96107643,0,0,0.96107643,-3.5189606,8.3060221)" /><polygon
       id="polygon179"
       points="61.6,364 60.2,364 59.6,365.2 58.9,364 57.5,364 58.4,362.9 57.5,361.7 58.9,361.7 59.6,360.5 60.2,361.7 61.6,361.7 60.7,362.9 "
       class="st8"
       style="fill:#1760ac"
       transform="matrix(0.96107643,0,0,0.96107643,-3.5189606,8.3060221)" /><polygon
       id="polygon181"
       points="71.9,363 70.6,363 69.9,364.2 69.2,363 67.9,363 68.7,361.8 67.9,360.7 69.2,360.7 69.9,359.5 70.6,360.7 71.9,360.7 71.1,361.8 "
       class="st8"
       style="fill:#1760ac"
       transform="matrix(0.96107643,0,0,0.96107643,-3.5189606,8.3060221)" /><polygon
       id="polygon183"
       points="79.6,362 78.2,362 77.6,363.2 76.9,362 75.6,362 76.4,360.8 75.6,359.7 76.9,359.7 77.6,358.5 78.2,359.7 79.6,359.7 78.7,360.8 "
       class="st8"
       style="fill:#1760ac"
       transform="matrix(0.96107643,0,0,0.96107643,-3.5189606,8.3060221)" /><polygon
       id="polygon185"
       points="89.9,361 88.6,361 87.9,362.2 87.2,361 85.9,361 86.7,359.8 85.9,358.7 87.2,358.7 87.9,357.5 88.6,358.7 89.9,358.7 89.1,359.8 "
       class="st8"
       style="fill:#1760ac"
       transform="matrix(0.96107643,0,0,0.96107643,-3.5189606,8.3060221)" /><polygon
       id="polygon187"
       points="100.3,360 98.9,360 98.3,361.2 97.6,360 96.2,360 97.1,358.8 96.2,357.7 97.6,357.7 98.3,356.5 98.9,357.7 100.3,357.7 99.4,358.8 "
       class="st8"
       style="fill:#1760ac"
       transform="matrix(0.96107643,0,0,0.96107643,-3.5189606,8.3060221)" /><polygon
       id="polygon189"
       points="110.6,359 109.3,359 108.6,360.2 107.9,359 106.6,359 107.4,357.8 106.6,356.7 107.9,356.7 108.6,355.5 109.3,356.7 110.6,356.7 109.8,357.8 "
       class="st8"
       style="fill:#1760ac"
       transform="matrix(0.96107643,0,0,0.96107643,-3.5189606,8.3060221)" /><rect
       id="rect191"
       height="3.4598751"
       width="3.4598751"
       class="st9"
       y="313.92831"
       x="33.001945"
       style="fill:#ee8c3c;stroke-width:0.96107644" /><rect
       id="rect193"
       height="3.4598751"
       width="3.4598751"
       class="st9"
       y="313.64001"
       x="43.669891"
       style="fill:#ee8c3c;stroke-width:0.96107644" /><rect
       id="rect195"
       height="3.4598751"
       width="3.4598751"
       class="st9"
       y="313.25555"
       x="51.93515"
       style="fill:#ee8c3c;stroke-width:0.96107644" /><rect
       id="rect197"
       height="3.4598751"
       width="3.4598751"
       class="st9"
       y="312.96725"
       x="62.21867"
       style="fill:#ee8c3c;stroke-width:0.96107644" /><rect
       id="rect199"
       height="3.4598751"
       width="3.4598751"
       class="st9"
       y="312.96725"
       x="73.463257"
       style="fill:#ee8c3c;stroke-width:0.96107644" /><rect
       id="rect201"
       height="3.4598751"
       width="3.4598751"
       class="st9"
       y="312.67892"
       x="83.74678"
       style="fill:#ee8c3c;stroke-width:0.96107644" /><rect
       id="rect203"
       height="3.4598751"
       width="3.4598751"
       class="st9"
       y="312.29449"
       x="93.645866"
       style="fill:#ee8c3c;stroke-width:0.96107644" /><path
       id="path205"
       d="m 34.635774,457.89757 h 209.034126 m -209.034126,0 v 2.11437 m 52.282557,-2.11437 v 2.11437 m 52.282559,-2.11437 v 2.11437 m 52.28256,-2.11437 v 2.11437 m 52.18645,-2.11437 v 2.11437"
       class="st5"
       inkscape:connector-curvature="0"
       style="fill:none;stroke:#262626;stroke-width:0.96107644;stroke-linecap:square;stroke-miterlimit:10" /><polyline
       id="polyline207"
       points="39.7,336.4 49.6,335.6 56.2,334.8 66.2,334 72.9,333.2 82.9,332.3 89.8,331.6 99.9,330.7 106.9,330    117.2,329.1 124.2,328.4 134.6,327.5 141.7,326.8 152.2,325.9 159.3,325.3 170,324.3 177.2,323.6 188,322.7 195.3,322 206.2,321.1    213.6,320.5 221.1,319.8 232.1,318.9 239.6,318.2 250.8,317.2 257.3,316.7  "
       class="st10"
       style="fill:none;stroke:#d04127;stroke-linecap:square;stroke-miterlimit:10"
       transform="matrix(0.96107643,0,0,0.96107643,-3.5189606,8.3060221)" /><polygon
       id="polygon209"
       points="117.3,332.3 120,327.6 114.6,327.6 "
       class="st6"
       style="fill:#d04127"
       transform="matrix(0.96107643,0,0,0.96107643,-3.5189606,8.3060221)" /><polygon
       id="polygon211"
       points="124.3,331.6 127,326.9 121.6,326.9 "
       class="st6"
       style="fill:#d04127"
       transform="matrix(0.96107643,0,0,0.96107643,-3.5189606,8.3060221)" /><polygon
       id="polygon213"
       points="134.6,330.6 137.3,325.9 131.9,325.9 "
       class="st6"
       style="fill:#d04127"
       transform="matrix(0.96107643,0,0,0.96107643,-3.5189606,8.3060221)" /><polygon
       id="polygon215"
       points="141.6,329.9 144.3,325.3 138.9,325.3 "
       class="st6"
       style="fill:#d04127"
       transform="matrix(0.96107643,0,0,0.96107643,-3.5189606,8.3060221)" /><polygon
       id="polygon217"
       points="152.3,328.9 155,324.3 149.6,324.3 "
       class="st6"
       style="fill:#d04127"
       transform="matrix(0.96107643,0,0,0.96107643,-3.5189606,8.3060221)" /><polygon
       id="polygon219"
       points="159.3,328.3 162,323.6 156.6,323.6 "
       class="st6"
       style="fill:#d04127"
       transform="matrix(0.96107643,0,0,0.96107643,-3.5189606,8.3060221)" /><polygon
       id="polygon221"
       points="170,327.3 172.7,322.6 167.3,322.6 "
       class="st6"
       style="fill:#d04127"
       transform="matrix(0.96107643,0,0,0.96107643,-3.5189606,8.3060221)" /><polygon
       id="polygon223"
       points="177.3,326.9 180,322.3 174.6,322.3 "
       class="st6"
       style="fill:#d04127"
       transform="matrix(0.96107643,0,0,0.96107643,-3.5189606,8.3060221)" /><polygon
       id="polygon225"
       points="188,325.9 190.7,321.3 185.3,321.3 "
       class="st6"
       style="fill:#d04127"
       transform="matrix(0.96107643,0,0,0.96107643,-3.5189606,8.3060221)" /><polygon
       id="polygon227"
       points="195.4,325.3 198,320.6 192.7,320.6 "
       class="st6"
       style="fill:#d04127"
       transform="matrix(0.96107643,0,0,0.96107643,-3.5189606,8.3060221)" /><polygon
       id="polygon229"
       points="206.4,324.3 209.1,319.6 203.7,319.6 "
       class="st6"
       style="fill:#d04127"
       transform="matrix(0.96107643,0,0,0.96107643,-3.5189606,8.3060221)" /><polygon
       id="polygon231"
       points="213.7,323.6 216.4,318.9 211,318.9 "
       class="st6"
       style="fill:#d04127"
       transform="matrix(0.96107643,0,0,0.96107643,-3.5189606,8.3060221)" /><polygon
       id="polygon233"
       points="221,322.9 223.7,318.3 218.3,318.3 "
       class="st6"
       style="fill:#d04127"
       transform="matrix(0.96107643,0,0,0.96107643,-3.5189606,8.3060221)" /><polygon
       id="polygon235"
       points="232.1,321.9 234.7,317.3 229.4,317.3 "
       class="st6"
       style="fill:#d04127"
       transform="matrix(0.96107643,0,0,0.96107643,-3.5189606,8.3060221)" /><polygon
       id="polygon237"
       points="239.7,321.3 242.4,316.6 237,316.6 "
       class="st6"
       style="fill:#d04127"
       transform="matrix(0.96107643,0,0,0.96107643,-3.5189606,8.3060221)" /><polygon
       id="polygon239"
       points="250.7,320.3 253.4,315.6 248,315.6 "
       class="st6"
       style="fill:#d04127"
       transform="matrix(0.96107643,0,0,0.96107643,-3.5189606,8.3060221)" /><polyline
       id="polyline241"
       points="39.7,315.7 51.1,314.6 58.8,313.5 70.4,312.4 78.2,311.3 89.9,310.3 97.8,309.2 109.8,308.1    117.8,307 129.8,306 138,304.8 150.2,303.8 158.4,302.7 170.7,301.4 179.2,300.5 191.6,299.2 200.2,298.3 212.8,297.1 221.4,296.2    234.3,294.9 243,294 256,292.8 257.3,292.6  "
       class="st11"
       style="fill:none;stroke:#000000;stroke-linecap:square;stroke-miterlimit:10"
       transform="matrix(0.96107643,0,0,0.96107643,-3.5189606,8.3060221)" /><polygon
       id="polygon243"
       points="106.9,309.7 112.3,309.7 109.6,305 "
       transform="matrix(0.96107643,0,0,0.96107643,-3.5189606,8.3060221)" /><polygon
       id="polygon245"
       points="114.9,308.7 120.3,308.7 117.6,304 "
       transform="matrix(0.96107643,0,0,0.96107643,-3.5189606,8.3060221)" /><polygon
       id="polygon247"
       points="127.3,307.4 132.7,307.4 130,302.7 "
       transform="matrix(0.96107643,0,0,0.96107643,-3.5189606,8.3060221)" /><polygon
       id="polygon249"
       points="135.3,306.4 140.7,306.4 138,301.7 "
       transform="matrix(0.96107643,0,0,0.96107643,-3.5189606,8.3060221)" /><polygon
       id="polygon251"
       points="147.6,305.4 153,305.4 150.3,300.7 "
       transform="matrix(0.96107643,0,0,0.96107643,-3.5189606,8.3060221)" /><polygon
       id="polygon253"
       points="155.6,304.4 161,304.4 158.3,299.7 "
       transform="matrix(0.96107643,0,0,0.96107643,-3.5189606,8.3060221)" /><polygon
       id="polygon255"
       points="168,303 173.4,303 170.7,298.3 "
       transform="matrix(0.96107643,0,0,0.96107643,-3.5189606,8.3060221)" /><polygon
       id="polygon257"
       points="176.3,302 181.7,302 179,297.3 "
       transform="matrix(0.96107643,0,0,0.96107643,-3.5189606,8.3060221)" /><polygon
       id="polygon259"
       points="189,300.7 194.4,300.7 191.7,296 "
       transform="matrix(0.96107643,0,0,0.96107643,-3.5189606,8.3060221)" /><polygon
       id="polygon261"
       points="197.3,300 202.7,300 200,295.3 "
       transform="matrix(0.96107643,0,0,0.96107643,-3.5189606,8.3060221)" /><polygon
       id="polygon263"
       points="210,298.7 215.4,298.7 212.7,294 "
       transform="matrix(0.96107643,0,0,0.96107643,-3.5189606,8.3060221)" /><polygon
       id="polygon265"
       points="218.7,297.7 224.1,297.7 221.4,293 "
       transform="matrix(0.96107643,0,0,0.96107643,-3.5189606,8.3060221)" /><polygon
       id="polygon267"
       points="231.7,296.3 237.1,296.3 234.4,291.7 "
       transform="matrix(0.96107643,0,0,0.96107643,-3.5189606,8.3060221)" /><polygon
       id="polygon269"
       points="240.4,295.7 245.8,295.7 243.1,291 "
       transform="matrix(0.96107643,0,0,0.96107643,-3.5189606,8.3060221)" /><polygon
       id="polygon271"
       points="253.4,294.3 258.8,294.3 256.1,289.7 "
       transform="matrix(0.96107643,0,0,0.96107643,-3.5189606,8.3060221)" /><path
       id="path273"
       d="m 34.635774,296.91727 l 8.169149,-0.76886 l 4.132629,-0.57664 l 8.169149,-0.96108 l 8.265258,-0.86497 l 4.228736,-0.57665 l 8.265257,-0.96107 l 8.265257,-0.96108 l 4.324844,-0.57664 l 8.457473,-0.86497 l 4.324844,-0.57665 l 8.45747,-1.05718 l 8.55358,-0.76886 l 4.42095,-0.57665 l 8.55358,-0.96108 l 8.64969,-0.96107 l 4.42095,-0.57665 l 8.7458,-0.86497 l 8.74579,-0.96107 l 4.51706,-0.57665 l 8.93801,-0.76886 l 4.51706,-0.57665 l 8.84191,-0.96107 l 9.03412,-0.86497 l 4.61316,-0.57665 l 9.03412,-0.96107 l 9.03412,-0.96108 l 4.70927,-0.57665 l 9.22634,-1.05718 l 9.22633,-1.92215 l 2.01826,-0.48054 m -212.493996,26.52571 l 3.555982,-3.55598 m -3.555982,0 l 3.555982,3.55598 m 4.51706,-0.96108 l 3.555982,-3.55598 m -3.555982,0 l 3.555982,3.55598 m 0.672754,-0.28832 l 3.555983,-3.55598 m -3.555983,0 l 3.555983,3.55598 m 4.517059,-1.34551 l 3.555983,-3.55598 m -3.555983,0 l 3.555983,3.55598 m 4.517059,-0.67275 l 3.555983,-3.55598 m -3.555983,0 l 3.555983,3.55598 m 0.672753,-0.57665 l 3.555983,-3.55598 m -3.555983,0 l 3.555983,3.55598 m 4.90149,-0.96107 l 3.555982,-3.55599 m -3.555982,0 l 3.555982,3.55599 m 4.51706,-1.05719 l 3.555982,-3.55598 m -3.555982,0 l 3.555982,3.55598 m 0.961077,-0.57664 l 3.555983,-3.55599 m -3.555983,0 l 3.555983,3.55599 m 4.805382,-0.96108 l 3.555982,-3.55598 m -3.555982,0 l 3.555982,3.55598 m 0.672754,-0.38443 l 3.555983,-3.55598 m -3.555983,0 l 3.555983,3.55598 m 4.90149,-1.2494 l 3.55598,-3.55598 m -3.55598,0 l 3.55598,3.55598 m 5.09371,-0.67275 l 3.55598,-3.55599 m -3.55598,0 l 3.55598,3.55599 m 1.05718,-0.67276 l 3.55599,-3.55598 m -3.55599,0 l 3.55599,3.55598 m 4.80538,-0.96107 l 3.55598,-3.55599 m -3.55598,0 l 3.55598,3.55599 m 5.18981,-0.96108 l 3.55599,-3.55598 m -3.55599,0 l 3.55599,3.55598 m 0.67275,-0.67275 l 3.55598,-3.55599 m -3.55598,0 l 3.55598,3.55599 m 5.47814,-0.96108 l 3.55598,-3.55598 m -3.55598,0 l 3.55598,3.55598 m 5.18981,-0.96108 l 3.55599,-3.55598 m -3.55599,0 l 3.55599,3.55598 m 0.96107,-0.57664 l 3.55599,-3.55599 m -3.55599,0 l 3.55599,3.55599 m 5.18981,-0.67276 l 3.55598,-3.55598 m -3.55598,0 l 3.55598,3.55598 m 0.96108,-0.67275 l 3.55598,-3.55598 m -3.55598,0 l 3.55598,3.55598 m 5.47814,-0.96108 l 3.55598,-3.55598 m -3.55598,0 l 3.55598,3.55598 m 5.47814,-0.96107 l 3.55598,-3.55599 m -3.55598,0 l 3.55598,3.55599 m 0.96107,-0.28833 l 3.55599,-3.55598 m -3.55599,0 l 3.55599,3.55598 m 5.57424,-1.3455 l 3.55598,-3.55599 m -3.55598,0 l 3.55598,3.55599 m 5.47814,-0.96108 l 3.55598,-3.55598 m -3.55598,0 l 3.55598,3.55598 m 0.96108,-0.28832 l 3.55598,-3.55598 m -3.55598,0 l 3.55598,3.55598 m 5.76646,-1.34551 l 3.55598,-3.55598 m -3.55598,0 l 3.55598,3.55598 m 5.57425,-1.63383 l 3.55598,-3.55598 m -3.55598,0 l 3.55598,3.55598"
       class="st12"
       inkscape:connector-curvature="0"
       style="fill:none;stroke:#922885;stroke-width:0.96107644;stroke-linecap:square;stroke-miterlimit:10" /><polyline
       id="polyline275"
       points="39.7,375.5 46.6,374.9 53.6,374.2 60.6,373.6 65.4,373 72.5,372.3 79.7,371.6 86.9,371 94.2,370.3    101.5,369.6 108.9,369 116.3,368.3 123.8,367.7 131.3,367 138.9,366.4 146.4,365.6 151.6,365.1 159.3,364.4 167.1,363.7 174.9,363    182.8,362.4 190.7,361.7 198.7,361.1 206.7,360.4 214.8,359.8 222.9,359.1 231,358.5 236.5,357.8 244.8,357.1 253.1,356.5    257.3,356.2  "
       class="st13"
       style="fill:none;stroke:#1a7139;stroke-linecap:square;stroke-miterlimit:10"
       transform="matrix(0.96107643,0,0,0.96107643,-3.5189606,8.3060221)" /><polygon
       id="polygon277"
       points="116.3,365.1 113.9,368.2 116.3,371.3 118.6,368.2 "
       class="st7"
       style="fill:#1a7139"
       transform="matrix(0.96107643,0,0,0.96107643,-3.5189606,8.3060221)" /><polygon
       id="polygon279"
       points="123.6,364.4 121.3,367.5 123.6,370.6 126,367.5 "
       class="st7"
       style="fill:#1a7139"
       transform="matrix(0.96107643,0,0,0.96107643,-3.5189606,8.3060221)" /><polygon
       id="polygon281"
       points="131.3,364.1 129,367.2 131.3,370.3 133.6,367.2 "
       class="st7"
       style="fill:#1a7139"
       transform="matrix(0.96107643,0,0,0.96107643,-3.5189606,8.3060221)" /><polygon
       id="polygon283"
       points="139,363.4 136.6,366.5 139,369.6 141.3,366.5 "
       class="st7"
       style="fill:#1a7139"
       transform="matrix(0.96107643,0,0,0.96107643,-3.5189606,8.3060221)" /><polygon
       id="polygon285"
       points="146.3,362.4 144,365.5 146.3,368.6 148.6,365.5 "
       class="st7"
       style="fill:#1a7139"
       transform="matrix(0.96107643,0,0,0.96107643,-3.5189606,8.3060221)" /><polygon
       id="polygon287"
       points="151.6,362.1 149.3,365.2 151.6,368.3 154,365.2 "
       class="st7"
       style="fill:#1a7139"
       transform="matrix(0.96107643,0,0,0.96107643,-3.5189606,8.3060221)" /><polygon
       id="polygon289"
       points="159.3,361.4 157,364.5 159.3,367.6 161.7,364.5 "
       class="st7"
       style="fill:#1a7139"
       transform="matrix(0.96107643,0,0,0.96107643,-3.5189606,8.3060221)" /><polygon
       id="polygon291"
       points="167,360.7 164.7,363.9 167,367 169.3,363.9 "
       class="st7"
       style="fill:#1a7139"
       transform="matrix(0.96107643,0,0,0.96107643,-3.5189606,8.3060221)" /><polygon
       id="polygon293"
       points="175,360.1 172.7,363.2 175,366.3 177.3,363.2 "
       class="st7"
       style="fill:#1a7139"
       transform="matrix(0.96107643,0,0,0.96107643,-3.5189606,8.3060221)" /><polygon
       id="polygon295"
       points="182.7,359.4 180.3,362.5 182.7,365.6 185,362.5 "
       class="st7"
       style="fill:#1a7139"
       transform="matrix(0.96107643,0,0,0.96107643,-3.5189606,8.3060221)" /><polygon
       id="polygon297"
       points="190.7,358.7 188.3,361.8 190.7,365 193,361.8 "
       class="st7"
       style="fill:#1a7139"
       transform="matrix(0.96107643,0,0,0.96107643,-3.5189606,8.3060221)" /><polygon
       id="polygon299"
       points="198.7,358.1 196.4,361.2 198.7,364.3 201,361.2 "
       class="st7"
       style="fill:#1a7139"
       transform="matrix(0.96107643,0,0,0.96107643,-3.5189606,8.3060221)" /><polygon
       id="polygon301"
       points="206.7,357.4 204.4,360.5 206.7,363.6 209,360.5 "
       class="st7"
       style="fill:#1a7139"
       transform="matrix(0.96107643,0,0,0.96107643,-3.5189606,8.3060221)" /><polygon
       id="polygon303"
       points="214.7,356.7 212.4,359.8 214.7,363 217,359.8 "
       class="st7"
       style="fill:#1a7139"
       transform="matrix(0.96107643,0,0,0.96107643,-3.5189606,8.3060221)" /><polygon
       id="polygon305"
       points="222.7,356.1 220.4,359.2 222.7,362.3 225,359.2 "
       class="st7"
       style="fill:#1a7139"
       transform="matrix(0.96107643,0,0,0.96107643,-3.5189606,8.3060221)" /><polygon
       id="polygon307"
       points="231.1,355.4 228.7,358.5 231.1,361.6 233.4,358.5 "
       class="st7"
       style="fill:#1a7139"
       transform="matrix(0.96107643,0,0,0.96107643,-3.5189606,8.3060221)" /><polygon
       id="polygon309"
       points="236.4,354.7 234.1,357.8 236.4,361 238.7,357.8 "
       class="st7"
       style="fill:#1a7139"
       transform="matrix(0.96107643,0,0,0.96107643,-3.5189606,8.3060221)" /><polygon
       id="polygon311"
       points="244.7,354.1 242.4,357.2 244.7,360.3 247.1,357.2 "
       class="st7"
       style="fill:#1a7139"
       transform="matrix(0.96107643,0,0,0.96107643,-3.5189606,8.3060221)" /><polygon
       id="polygon313"
       points="253.1,353.4 250.7,356.5 253.1,359.6 255.4,356.5 "
       class="st7"
       style="fill:#1a7139"
       transform="matrix(0.96107643,0,0,0.96107643,-3.5189606,8.3060221)" /><path
       id="path315"
       d="m 34.635774,361.21329 l 9.706871,-1.05719 l 9.80298,-1.05718 l 9.899087,-0.96108 l 9.995195,-1.05718 l 10.091302,-1.05719 l 10.187411,-0.96107 l 7.68861,-1.05719 l 10.37963,-1.05718 l 10.47573,-1.05719 l 10.57184,-0.96107 l 10.76406,-1.05719 l 10.86016,-1.05718 l 8.26526,-0.86497 l 10.95627,-1.15329 l 11.14848,-1.05718 l 11.2446,-1.05719 l 11.3407,-0.96108 l 11.43681,-1.05718 l 11.53292,-1.05718 l 8.74579,-0.96108 l 3.94042,-0.38443 m -211.244602,20.95147 h 4.805382 m -2.402691,2.40269 v -4.80539 m 7.208073,1.44162 h 4.805382 m -2.402691,2.40269 v -4.80538 m 7.208073,1.44161 h 4.805382 m -2.402691,2.40269 v -4.80538 m 7.496396,1.44162 h 4.805383 m -2.402691,2.40269 v -4.80538 m 7.592503,1.15329 h 4.805382 m -2.402691,2.40269 v -4.80538 m 7.880827,1.3455 h 4.805382 m -2.402691,2.4988 v -4.80538 m 7.784719,1.34551 h 4.805382 m -2.402691,2.4988 v -4.80539 m 5.285921,1.34551 h 4.805382 m -2.40269,2.4988 v -4.80538 m 7.88083,1.3455 h 4.80538 m -2.40269,2.40269 v -4.80538 m 8.16915,1.44162 h 4.80538 m -2.40269,2.40269 v -4.80538 m 8.16915,1.15329 h 4.80538 m -2.40269,2.40269 v -4.80538 m 8.55358,1.44161 h 4.80538 m -2.40269,2.40269 v -4.80538 m 8.16915,1.44161 h 4.80538 m -2.40269,2.4027 v -4.80539 m 5.95867,1.44162 h 4.80539 m -2.4027,2.40269 v -4.80538 m 8.45748,1.44161 h 4.80538 m -2.40269,2.40269 v -4.80538 m 8.8419,1.44162 h 4.80538 m -2.40269,2.40269 v -4.80539 m 8.84191,1.1533 h 4.80538 m -2.40269,2.40269 v -4.80538 m 8.74579,1.44161 h 4.80538 m -2.40269,2.40269 v -4.80538 m 9.13023,1.44161 h 4.80538 m -2.30658,2.40269 v -4.80538 m 9.13022,1.44162 h 4.80539 m -2.4027,2.40269 v -4.80538 m 6.247,1.44161 h 4.80538 m -2.40269,2.40269 v -4.80538"
       class="st14"
       inkscape:connector-curvature="0"
       style="fill:none;stroke:#ee83b2;stroke-width:0.96107644;stroke-linecap:square;stroke-miterlimit:10" /><polyline
       id="polyline317"
       points="39.7,364.8 49.6,363.8 59.7,362.8 69.8,361.8 77.5,360.8 87.8,359.9 98.2,358.8 108.7,357.9    119.3,356.9 127.3,355.9 138.1,354.9 149,353.9 160,352.9 171,351.8 179.5,350.9 190.7,350 202.1,349 213.5,348 225,346.9    233.8,346 245.6,345 257.3,343.8  "
       class="st15"
       style="fill:none;stroke:#1760ac;stroke-linecap:square;stroke-miterlimit:10"
       transform="matrix(0.96107643,0,0,0.96107643,-3.5189606,8.3060221)" /><polygon
       id="polygon319"
       points="121.3,358 120,358 119.3,359.2 118.6,358 117.3,358 118.1,356.8 117.3,355.7 118.6,355.7 119.3,354.5 120,355.7 121.3,355.7 120.4,356.8 "
       class="st8"
       style="fill:#1760ac"
       transform="matrix(0.96107643,0,0,0.96107643,-3.5189606,8.3060221)" /><polygon
       id="polygon321"
       points="129.3,357 128,357 127.3,358.2 126.6,357 125.3,357 126.1,355.8 125.3,354.7 126.6,354.7 127.3,353.5 128,354.7 129.3,354.7 128.5,355.8 "
       class="st8"
       style="fill:#1760ac"
       transform="matrix(0.96107643,0,0,0.96107643,-3.5189606,8.3060221)" /><polygon
       id="polygon323"
       points="140,356 138.6,356 138,357.2 137.3,356 135.9,356 136.8,354.8 135.9,353.7 137.3,353.7 138,352.5 138.6,353.7 140,353.7 139.1,354.8 "
       class="st8"
       style="fill:#1760ac"
       transform="matrix(0.96107643,0,0,0.96107643,-3.5189606,8.3060221)" /><polygon
       id="polygon325"
       points="151,355 149.6,355 149,356.2 148.3,355 147,355 147.8,353.8 147,352.7 148.3,352.7 149,351.5 149.6,352.7 151,352.7 150.1,353.8 "
       class="st8"
       style="fill:#1760ac"
       transform="matrix(0.96107643,0,0,0.96107643,-3.5189606,8.3060221)" /><polygon
       id="polygon327"
       points="162,354 160.7,354 160,355.2 159.3,354 158,354 158.8,352.8 158,351.7 159.3,351.7 160,350.5 160.7,351.7 162,351.7 161.2,352.8 "
       class="st8"
       style="fill:#1760ac"
       transform="matrix(0.96107643,0,0,0.96107643,-3.5189606,8.3060221)" /><polygon
       id="polygon329"
       points="173,353 171.7,353 171,354.2 170.3,353 169,353 169.8,351.8 169,350.7 170.3,350.7 171,349.5 171.7,350.7 173,350.7 172.2,351.8 "
       class="st8"
       style="fill:#1760ac"
       transform="matrix(0.96107643,0,0,0.96107643,-3.5189606,8.3060221)" /><polygon
       id="polygon331"
       points="181.4,352 180,352 179.3,353.2 178.7,352 177.3,352 178.2,350.8 177.3,349.7 178.7,349.7 179.3,348.5 180,349.7 181.4,349.7 180.5,350.8 "
       class="st8"
       style="fill:#1760ac"
       transform="matrix(0.96107643,0,0,0.96107643,-3.5189606,8.3060221)" /><polygon
       id="polygon333"
       points="192.7,351 191.4,351 190.7,352.2 190,351 188.7,351 189.5,349.8 188.7,348.7 190,348.7 190.7,347.5 191.4,348.7 192.7,348.7 191.8,349.8 "
       class="st8"
       style="fill:#1760ac"
       transform="matrix(0.96107643,0,0,0.96107643,-3.5189606,8.3060221)" /><polygon
       id="polygon335"
       points="204,350 202.7,350 202,351.2 201.3,350 200,350 200.9,348.8 200,347.7 201.3,347.7 202,346.5 202.7,347.7 204,347.7 203.2,348.8 "
       class="st8"
       style="fill:#1760ac"
       transform="matrix(0.96107643,0,0,0.96107643,-3.5189606,8.3060221)" /><polygon
       id="polygon337"
       points="215.4,349 214,349 213.4,350.2 212.7,349 211.3,349 212.2,347.8 211.3,346.7 212.7,346.7 213.4,345.5 214,346.7 215.4,346.7 214.5,347.8 "
       class="st8"
       style="fill:#1760ac"
       transform="matrix(0.96107643,0,0,0.96107643,-3.5189606,8.3060221)" /><polygon
       id="polygon339"
       points="227.1,348 225.7,348 225,349.2 224.4,348 223,348 223.9,346.8 223,345.7 224.4,345.7 225,344.5 225.7,345.7 227.1,345.7 226.2,346.8 "
       class="st8"
       style="fill:#1760ac"
       transform="matrix(0.96107643,0,0,0.96107643,-3.5189606,8.3060221)" /><polygon
       id="polygon341"
       points="235.7,347.3 234.4,347.3 233.7,348.5 233,347.3 231.7,347.3 232.6,346.2 231.7,345 233,345 233.7,343.8 234.4,345 235.7,345 234.9,346.2 "
       class="st8"
       style="fill:#1760ac"
       transform="matrix(0.96107643,0,0,0.96107643,-3.5189606,8.3060221)" /><polygon
       id="polygon343"
       points="247.4,346.3 246.1,346.3 245.4,347.5 244.7,346.3 243.4,346.3 244.2,345.2 243.4,344 244.7,344 245.4,342.8 246.1,344 247.4,344 246.6,345.2 "
       class="st8"
       style="fill:#1760ac"
       transform="matrix(0.96107643,0,0,0.96107643,-3.5189606,8.3060221)" /><path
       id="path345"
       d="m 34.635774,457.80147 v -0.38443 l 0.09611,-0.38443 l 0.09611,-0.38444 l 0.192215,-0.38443 l 0.192215,-0.38443 l 0.288323,-0.38443 l 0.288323,-0.38443 l 0.384431,-0.38443 l 0.38443,-0.38443 l 0.480539,-0.38443 l 0.480538,-0.38443 l 0.576646,-0.38443 l 0.576646,-0.38443 l 0.672753,-0.38443 l 0.672754,-0.38443 l 0.768861,-0.38443 l 0.768861,-0.38443 l 0.864969,-0.38443 l 1.153291,-0.48054 l 0.961077,-0.38443 l 0.961076,-0.38443 l 1.057184,-0.38443 l 1.057184,-0.38443 l 1.153292,-0.38444 l 1.153292,-0.38443 l 1.249399,-0.38443 l 1.249399,-0.38443 l 1.345507,-0.38443 l 1.345507,-0.38443 l 1.441615,-0.38443 l 1.441615,-0.38443 l 1.537722,-0.38443 l 1.63383,-0.38443 l 1.63383,-0.38443 l 1.729937,-0.38443 l 1.729938,-0.38443 l 1.826045,-0.38443 l 1.826045,-0.38443 l 1.922153,-0.38443 l 1.922153,-0.38443 l 2.018261,-0.38443 l 2.01826,-0.38444 l 2.114368,-0.38443 l 2.114368,-0.38443 l 2.210476,-0.38443 l 2.210476,-0.38443 l 2.306583,-0.38443 l 2.306584,-0.38443 l 2.402691,-0.38443 m -0.09611,-0.0961 l 2.402691,-0.38443 l 2.498799,-0.38443 l 2.498794,-0.38443 l 2.59491,-0.38443 l 2.5949,-0.38443 l 2.69102,-0.38443 l 2.69101,-0.38443 l 2.78712,-0.38443 l 2.78713,-0.38443 l 2.88322,-0.38443 l 2.88323,-0.38443 l 2.97934,-0.38443 l 2.97934,-0.38443 l 3.07544,-0.38443 l 3.07545,-0.38444 l 3.17155,-0.38443 l 3.17155,-0.38443 l 3.26766,-0.38443 l 3.26766,-0.38443 l 3.36377,-0.38443 l 3.36377,-0.38443 l 3.45987,-0.38443 l 3.45988,-0.38443 l 3.55598,-0.38443 l 3.55598,-0.38443 l 3.65209,-0.38443 l 3.65209,-0.38443 l 3.7482,-0.38443 l 3.7482,-0.38443 l 3.8443,-0.38443 l 3.84431,-0.38443 l 3.94041,-0.38444 l 3.94042,-0.38443 l 4.03652,-0.38443 l 4.03652,-0.38443 l 4.13263,-0.38443 l 4.13263,-0.38443 l 4.22873,-0.38443 l 4.22874,-0.38443 l 4.32484,-0.38443 l 4.32485,-0.38443 l 4.42095,-0.38443 l 4.42095,-0.38443 l 2.88323,-0.28832"
       class="st16"
       inkscape:connector-curvature="0"
       style="fill:none;stroke:#e51e25;stroke-width:0.96107644;stroke-linecap:square;stroke-miterlimit:10" /><path
       id="path347"
       d="m 34.635774,457.51314 l 0.09611,-0.96107 l 0.192215,-0.96108 l 0.288323,-0.96108 l 0.480539,-0.96107 l 0.576645,-0.96108 l 0.672754,-0.96108 l 0.768861,-0.96107 l 0.864969,-0.96108 l 1.057184,-0.96107 l 1.153292,-0.96108 l 1.249399,-0.96108 l 1.345507,-0.96107 l 1.537722,-0.96108 l 1.63383,-0.96108 l 1.729938,-0.96107 l 1.826045,-0.96108 l 1.922153,-0.96108 l 2.114368,-0.96107 l 2.210476,-0.96108 l 2.306583,-0.96108 l 2.402691,-0.96107 l 2.498799,-0.96108 l 2.691014,-0.96107 l 2.787122,-0.96108 l 2.883229,-0.96108 l 2.979337,-0.96107 l 3.075444,-0.96108 l 3.26766,-0.96108 l 3.363768,-0.96107 l 3.459875,-0.96108 l 3.555983,-0.96108 l 3.65209,-0.96107 l 3.844306,-0.96108 l 3.940415,-0.96108 l 4.03652,-0.96107 l 4.13262,-0.96108 l 4.22874,-0.86497 l 4.42095,-0.96107 l 4.51706,-0.96108 l 4.61317,-0.86497 l 4.70927,-0.96107 l 4.90149,-0.86497 l 4.9976,-0.96108 l 5.09371,-0.96108 l 5.18981,-0.86497 l 5.28592,-0.96107 l 5.47813,-0.96108 l 5.57425,-0.86497 l 5.67035,-0.96107 m 0,0 l 5.76646,-0.96108 l 5.86256,-0.86497 l 6.05478,-0.96107 l 6.15089,-0.86497 l 6.247,-0.96108 l 6.3431,-0.96108 l 6.43922,-0.86497 l 6.63142,-0.96107 l 6.72754,-0.96108 l 6.82364,-0.86497 l 4.70928,-0.67275"
       class="st17"
       inkscape:connector-curvature="0"
       style="fill:none;stroke:#5cb447;stroke-width:0.96107644;stroke-linecap:square;stroke-miterlimit:10"
       sodipodi:nodetypes="cccccccccccccccccccccccccccccccccccccccccccccccccccccccccccccc" /><path
       id="path349"
       d="m 34.635774,457.80147 l 0.09611,-1.05719 l 0.192215,-1.05718 l 0.288323,-1.05719 l 0.480539,-1.05718 l 0.576645,-1.05718 l 0.672754,-1.05719 l 0.864969,-1.05718 l 0.961076,-1.05719 l 1.057184,-1.05718 l 1.2494,-1.05718 l 1.345507,-1.05719 l 1.441614,-1.05718 l 1.63383,-1.05719 l 1.729938,-1.05718 l 1.826045,-1.05718 l 1.922153,-1.05719 l 2.114368,-1.05718 l 2.210476,-1.05719 l 2.306583,-0.96107 l 2.498799,-1.05719 l 2.594906,-1.05718 l 2.691014,-1.05719 l 2.883229,-1.05718 l 2.979337,-1.05718 l 3.075445,-1.05719 l 3.26766,-1.05718 l 3.363767,-1.05719 l 3.459875,-1.05718 l 3.652091,-1.05718 l 3.748198,-0.96108 l 3.844306,-1.05718 l 4.036521,-0.96108 l 4.132629,-1.05719 l 4.22873,-0.96107 l 4.32485,-1.05719 l 4.51706,-0.96107 l 4.61316,-1.05719 l 4.70928,-0.96107 l 4.90149,-1.05719 l 4.99759,-0.96107 l 5.09371,-1.05719 l 5.28592,-0.96107 l 5.38203,-1.05719 l 5.47813,-0.96107 l 5.67035,-1.05719 l 5.76646,-0.96107 l 5.86257,-1.05719 l 6.05478,-0.96107 l 6.15089,-1.05719 m 0.17478,-0.0916 l 6.247,-0.96108 l 6.3431,-1.05718 l 6.53532,-0.96108 l 6.63143,-1.05718 l 6.72753,-0.96108 l 6.91975,-1.05718 l 7.01586,-0.96108 l 7.11197,-1.05718 l 3.36377,-0.48054"
       class="st18"
       inkscape:connector-curvature="0"
       style="fill:none;stroke:#2b4092;stroke-width:0.96107644;stroke-linecap:square;stroke-miterlimit:10"
       sodipodi:nodetypes="cccccccccccccccccccccccccccccccccccccccccccccccccccccccccccc" /><polyline
       id="polyline351"
       points="39.7,319.7 50.9,319.4 59.6,319.2 70.2,319 81.8,318.7 92.5,318.5 102.9,318.3 113.1,318    125.2,317.8 134.2,317.6 145,317.4 156.7,317.1 166.9,316.9 176.9,316.6 189.1,316.4 198.2,316.2 209.1,316 220.9,315.7    231.8,315.5 242.4,315.1 252.8,314.1 257.3,314  "
       class="st19"
       style="fill:none;stroke:#ee8c3c;stroke-linecap:square;stroke-miterlimit:10"
       transform="matrix(0.96107643,0,0,0.96107643,-3.5189606,8.3060221)" /><rect
       id="rect353"
       height="3.4598751"
       width="3.4598751"
       class="st9"
       y="312.29449"
       x="103.25663"
       style="fill:#ee8c3c;stroke-width:0.96107644" /><rect
       id="rect355"
       height="3.4598751"
       width="3.4598751"
       class="st9"
       y="312.00616"
       x="115.17398"
       style="fill:#ee8c3c;stroke-width:0.96107644" /><rect
       id="rect357"
       height="3.4598751"
       width="3.4598751"
       class="st9"
       y="311.71786"
       x="123.82367"
       style="fill:#ee8c3c;stroke-width:0.96107644" /><rect
       id="rect359"
       height="3.4598751"
       width="3.4598751"
       class="st9"
       y="311.71786"
       x="134.01108"
       style="fill:#ee8c3c;stroke-width:0.96107644" /><rect
       id="rect361"
       height="3.4598751"
       width="3.4598751"
       class="st9"
       y="311.3334"
       x="145.25568"
       style="fill:#ee8c3c;stroke-width:0.96107644" /><rect
       id="rect363"
       height="3.4598751"
       width="3.4598751"
       class="st9"
       y="311.0451"
       x="155.25085"
       style="fill:#ee8c3c;stroke-width:0.96107644" /><rect
       id="rect365"
       height="3.4598751"
       width="3.4598751"
       class="st9"
       y="310.75677"
       x="164.86163"
       style="fill:#ee8c3c;stroke-width:0.96107644" /><rect
       id="rect367"
       height="3.4598751"
       width="3.4598751"
       class="st9"
       y="310.75677"
       x="176.39455"
       style="fill:#ee8c3c;stroke-width:0.96107644" /><rect
       id="rect369"
       height="3.4598751"
       width="3.4598751"
       class="st9"
       y="310.37234"
       x="185.33255"
       style="fill:#ee8c3c;stroke-width:0.96107644" /><rect
       id="rect371"
       height="3.4598751"
       width="3.4598751"
       class="st9"
       y="310.08401"
       x="195.61607"
       style="fill:#ee8c3c;stroke-width:0.96107644" /><rect
       id="rect373"
       height="3.4598751"
       width="3.4598751"
       class="st9"
       y="310.08401"
       x="207.14899"
       style="fill:#ee8c3c;stroke-width:0.96107644" /><rect
       id="rect375"
       height="3.4598751"
       width="3.4598751"
       class="st9"
       y="309.79572"
       x="217.43251"
       style="fill:#ee8c3c;stroke-width:0.96107644" /><rect
       id="rect377"
       height="3.4598751"
       width="3.4598751"
       class="st9"
       y="309.41125"
       x="227.71603"
       style="fill:#ee8c3c;stroke-width:0.96107644" /><rect
       id="rect379"
       height="3.4598751"
       width="3.4598751"
       class="st9"
       y="308.45016"
       x="237.61511"
       style="fill:#ee8c3c;stroke-width:0.96107644" /><path
       id="path381"
       d="m 34.635774,248.76734 h 209.034126 m 0,209.13023 v -209.13023"
       class="st11"
       inkscape:connector-curvature="0"
       style="fill:none;stroke:#000000;stroke-width:0.96107644;stroke-linecap:square;stroke-miterlimit:10" /><g
       id="g593"
       transform="matrix(0.96107643,0,0,0.96107643,-3.5189606,8.3060221)"><path
         id="path383"
         d="m 314.9,464.7 h 213.4 m -213.4,0 v 2.1 m 53.4,-2.1 v 2.1 m 53.3,-2.1 v 2.1 m 53.4,-2.1 v 2.1 m 53.3,-2.1 v 2.1"
         class="st5"
         inkscape:connector-curvature="0"
         style="fill:none;stroke:#262626;stroke-linecap:square;stroke-miterlimit:10" /><path
         id="path385"
         d="m 314.9,464.7 v -214.5 m 0,214.5 h -2.1 m 2.1,-42.9 h -2.1 m 2.1,-42.9 h -2.1 m 2.1,-42.9 h -2.1 m 2.1,-42.9 h -2.1 m 2.1,-42.9 h -2.1"
         class="st5"
         inkscape:connector-curvature="0"
         style="fill:none;stroke:#262626;stroke-linecap:square;stroke-miterlimit:10" /><polyline
         id="polyline387"
         points="528.4,288.2 523.8,288.4 510.1,289.4 496.6,290.2 483.3,291.4 482.8,291.5 469.7,292.7     456.3,293.5 443.1,294.5 429.9,295.3 417.1,296.5 416.5,296.6 403.8,297.8 390.9,298.6 378,299.6 365.2,300.4 352.8,301.6     352.2,301.7 339.9,302.9 327.4,303.9 314.9,304.7   "
         class="st10"
         style="fill:none;stroke:#d04127;stroke-linecap:square;stroke-miterlimit:10" /><polygon
         id="polygon389"
         points="523.9,291.6 526.6,287 521.3,287 "
         class="st6"
         style="fill:#d04127" /><polygon
         id="polygon391"
         points="510.2,292.6 512.8,288 507.5,288 "
         class="st6"
         style="fill:#d04127" /><polygon
         id="polygon393"
         points="496.4,293.3 499.1,288.7 493.8,288.7 "
         class="st6"
         style="fill:#d04127" /><polygon
         id="polygon395"
         points="483.3,294.6 486,290 480.7,290 "
         class="st6"
         style="fill:#d04127" /><polygon
         id="polygon397"
         points="469.6,295.9 472.2,291.3 466.9,291.3 "
         class="st6"
         style="fill:#d04127" /><polygon
         id="polygon399"
         points="456.5,296.6 459.1,292 453.8,292 "
         class="st6"
         style="fill:#d04127" /><polygon
         id="polygon401"
         points="443.1,297.6 445.7,292.9 440.4,292.9 "
         class="st6"
         style="fill:#d04127" /><polygon
         id="polygon403"
         points="430,298.2 432.6,293.6 427.3,293.6 "
         class="st6"
         style="fill:#d04127" /><polygon
         id="polygon405"
         points="417.2,299.5 419.8,294.9 414.6,294.9 "
         class="st6"
         style="fill:#d04127" /><polygon
         id="polygon407"
         points="416.5,299.5 419.2,294.9 413.9,294.9 "
         class="st6"
         style="fill:#d04127" /><polygon
         id="polygon409"
         points="403.8,300.8 406.4,296.2 401.1,296.2 "
         class="st6"
         style="fill:#d04127" /><polygon
         id="polygon411"
         points="391,301.8 393.7,297.2 388.4,297.2 "
         class="st6"
         style="fill:#d04127" /><polygon
         id="polygon413"
         points="377.9,302.5 380.6,297.9 375.3,297.9 "
         class="st6"
         style="fill:#d04127" /><polygon
         id="polygon415"
         points="365.2,303.5 367.8,298.9 362.5,298.9 "
         class="st6"
         style="fill:#d04127" /><polygon
         id="polygon417"
         points="352.7,304.8 355.4,300.2 350.1,300.2 "
         class="st6"
         style="fill:#d04127" /><polygon
         id="polygon419"
         points="352.4,304.8 355,300.2 349.7,300.2 "
         class="st6"
         style="fill:#d04127" /><polygon
         id="polygon421"
         points="339.9,306.1 342.6,301.5 337.3,301.5 "
         class="st6"
         style="fill:#d04127" /><polygon
         id="polygon423"
         points="327.5,307.1 330.1,302.5 324.9,302.5 "
         class="st6"
         style="fill:#d04127" /><polygon
         id="polygon425"
         points="315.1,307.7 317.7,303.1 312.4,303.1 "
         class="st6"
         style="fill:#d04127" /><polyline
         id="polyline427"
         points="528.4,399.7 520.1,399.8 504.6,399.8 494.3,399.9 478.9,399.9 468.6,400 453.1,400 442.8,400.1     427.4,400.1 417.2,400.2 401.8,400.2 391.5,400.3 376.2,400.3 365.9,400.4 350.7,400.4 340.3,400.5 325.1,400.5 314.8,400.6   "
         class="st11"
         style="fill:none;stroke:#000000;stroke-linecap:square;stroke-miterlimit:10" /><polygon
         id="polygon429"
         points="517.7,401.3 523,401.3 520.3,396.7 " /><polygon
         id="polygon431"
         points="502.6,401.3 507.9,401.3 505.3,396.7 " /><polygon
         id="polygon433"
         points="492.5,401.3 497.8,401.3 495.1,396.7 " /><polygon
         id="polygon435"
         points="477.4,401.6 482.7,401.6 480.1,397 " /><polygon
         id="polygon437"
         points="467.3,401.6 472.6,401.6 469.9,397 " /><polygon
         id="polygon439"
         points="452.2,401.6 457.5,401.6 454.8,397 " /><polygon
         id="polygon441"
         points="442.4,401.6 447.7,401.6 445,397 " /><polygon
         id="polygon443"
         points="427.3,401.6 432.6,401.6 430,397 " /><polygon
         id="polygon445"
         points="417.2,401.6 422.5,401.6 419.8,397 " /><polygon
         id="polygon447"
         points="402.1,401.6 407.4,401.6 404.8,397 " /><polygon
         id="polygon449"
         points="392,401.9 397.3,401.9 394.6,397.3 " /><polygon
         id="polygon451"
         points="377.2,401.9 382.5,401.9 379.9,397.3 " /><polygon
         id="polygon453"
         points="367.1,401.9 372.4,401.9 369.7,397.3 " /><polygon
         id="polygon455"
         points="352.4,401.9 357.6,401.9 355,397.3 " /><polygon
         id="polygon457"
         points="342.2,401.9 347.5,401.9 344.9,397.3 " /><polygon
         id="polygon459"
         points="327.2,401.9 332.4,401.9 329.8,397.3 " /><polygon
         id="polygon461"
         points="317.3,402.3 322.6,402.3 320,397.6 " /><path
         id="path463"
         d="m 528.4,389.4 l -1.6,0.2 l -11.4,1.3 l -11.3,0.9 l -5.7,0.4 l -11.2,0.1 l -11.1,0.1 l -5.7,0.1 l -11.2,0.1 l -5.7,0.1 l -11.1,0.1 l -11,0.1 l -5.7,0.1 l -11.1,0.1 l -11,0.1 l -5.7,0.1 l -11.1,0.1 l -5.7,0.1 l -11,0.1 l -11.1,0.1 l -5.6,0.1 l -10.9,0.1 l -10.9,0.1 l -5.6,0.1 l -11,0.1 m 210.1,-2.9 l 3.6,-3.6 m -3.6,0 l 3.6,3.6 m -15.1,1.4 l 3.6,-3.6 m -3.6,-0.1 l 3.6,3.6 m -15,1 l 3.6,-3.6 m -3.6,0 l 3.6,3.6 m -9.2,0.4 l 3.6,-3.6 m -3.6,0 l 3.6,3.6 m -14.7,0.3 l 3.6,-3.6 m -3.6,0 l 3.6,3.6 m -14.8,0 l 3.6,-3.6 m -3.6,0 l 3.6,3.6 m -9.5,0 l 3.6,-3.6 m -3.6,0 l 3.6,3.6 m -14.7,0 l 3.6,-3.6 m -3.6,0 l 3.6,3.6 m -9.2,0.3 l 3.6,-3.6 m -3.6,0 l 3.6,3.6 m -14.7,0 l 3.6,-3.6 m -3.6,0 l 3.6,3.6 m -14.7,0 l 3.6,-3.6 m -3.6,0 l 3.6,3.6 m -9.2,0 l 3.6,-3.6 m -3.6,0 l 3.6,3.6 m -14.7,0.4 l 3.6,-3.6 m -3.6,-0.1 l 3.6,3.6 m -14.7,0.1 l 3.6,-3.6 m -3.6,-0.1 l 3.6,3.6 m -9.2,0.1 l 3.6,-3.6 m -3.6,-0.1 l 3.6,3.6 m -14.7,0.1 l 3.6,-3.6 m -3.6,-0.1 l 3.6,3.6 m -9.5,0.4 l 3.6,-3.6 m -3.6,0 l 3.6,3.6 m -14.4,0 l 3.6,-3.6 m -3.6,0 l 3.6,3.6 m -14.8,0 l 3.6,-3.6 m -3.6,0 l 3.6,3.6 m -9.1,0 l 3.6,-3.6 m -3.6,0 l 3.6,3.6 m -14.4,0.3 l 3.6,-3.6 m -3.6,0 l 3.6,3.6 m -14.8,0 l 3.6,-3.6 m -3.6,0 l 3.6,3.6 m -9.1,0 l 3.6,-3.6 m -3.6,0 l 3.6,3.6 m -14.4,0 l 3.6,-3.6 m -3.6,0 l 3.6,3.6"
         class="st12"
         inkscape:connector-curvature="0"
         style="fill:none;stroke:#922885;stroke-linecap:square;stroke-miterlimit:10" /><polyline
         id="polyline465"
         points="528.4,303.5 517,304.3 504.6,305.3 492.3,306.2 480,307.2 467.8,308 455.7,308.8 443.6,309.7     431.6,310.5 419.6,311.3 407.8,312.2 396,313 384.2,313.9 372.5,314.7 360.9,315.5 349.4,316.4 337.9,317.2 326.5,318     315.4,319.3 314.9,319.3   "
         class="st13"
         style="fill:none;stroke:#1a7139;stroke-linecap:square;stroke-miterlimit:10" /><polygon
         id="polygon467"
         points="517,301.3 514.8,304.3 517,307.4 519.3,304.3 "
         class="st7"
         style="fill:#1a7139" /><polygon
         id="polygon469"
         points="504.6,302.3 502.3,305.3 504.6,308.4 506.9,305.3 "
         class="st7"
         style="fill:#1a7139" /><polygon
         id="polygon471"
         points="492.2,303.3 489.9,306.3 492.2,309.4 494.5,306.3 "
         class="st7"
         style="fill:#1a7139" /><polygon
         id="polygon473"
         points="480.1,304.2 477.8,307.3 480.1,310.4 482.3,307.3 "
         class="st7"
         style="fill:#1a7139" /><polygon
         id="polygon475"
         points="467.9,304.9 465.7,308 467.9,311 470.2,308 "
         class="st7"
         style="fill:#1a7139" /><polygon
         id="polygon477"
         points="455.5,305.9 453.2,309 455.5,312 457.8,309 "
         class="st7"
         style="fill:#1a7139" /><polygon
         id="polygon479"
         points="443.7,306.5 441.4,309.6 443.7,312.7 446,309.6 "
         class="st7"
         style="fill:#1a7139" /><polygon
         id="polygon481"
         points="431.6,307.5 429.3,310.6 431.6,313.7 433.9,310.6 "
         class="st7"
         style="fill:#1a7139" /><polygon
         id="polygon483"
         points="419.5,308.2 417.2,311.3 419.5,314.3 421.8,311.3 "
         class="st7"
         style="fill:#1a7139" /><polygon
         id="polygon485"
         points="407.7,309.2 405.4,312.2 407.7,315.3 410,312.2 "
         class="st7"
         style="fill:#1a7139" /><polygon
         id="polygon487"
         points="395.9,309.8 393.6,312.9 395.9,316 398.2,312.9 "
         class="st7"
         style="fill:#1a7139" /><polygon
         id="polygon489"
         points="384.1,310.8 381.8,313.9 384.1,317 386.4,313.9 "
         class="st7"
         style="fill:#1a7139" /><polygon
         id="polygon491"
         points="372.7,311.5 370.4,314.5 372.7,317.6 375,314.5 "
         class="st7"
         style="fill:#1a7139" /><polygon
         id="polygon493"
         points="360.9,312.5 358.6,315.5 360.9,318.6 363.2,315.5 "
         class="st7"
         style="fill:#1a7139" /><polygon
         id="polygon495"
         points="349.4,313.4 347.1,316.5 349.4,319.6 351.7,316.5 "
         class="st7"
         style="fill:#1a7139" /><polygon
         id="polygon497"
         points="338,314.1 335.7,317.2 338,320.2 340.3,317.2 "
         class="st7"
         style="fill:#1a7139" /><polygon
         id="polygon499"
         points="326.5,315.1 324.2,318.2 326.5,321.2 328.8,318.2 "
         class="st7"
         style="fill:#1a7139" /><polygon
         id="polygon501"
         points="315.4,316.1 313.1,319.1 315.4,322.2 317.7,319.1 "
         class="st7"
         style="fill:#1a7139" /><polygon
         id="polygon503"
         points="315.1,316.4 312.8,319.5 315.1,322.5 317.4,319.5 "
         class="st7"
         style="fill:#1a7139" /><path
         id="path505"
         d="m 528.4,414.8 l -7.7,0.2 l -11.6,0.2 l -11.5,0.2 l -11.4,0.2 l -11.4,0.3 l -11.3,0.2 l -7.6,0.2 l -11.1,0.3 l -11.1,0.2 l -11.1,0.2 l -11,0.2 l -11,0.2 l -10.9,0.2 l -10.9,0.2 l -10.8,0.2 l -7.2,0.2 l -10.6,0.3 l -10.6,0.2 l -10.6,0.2 l -10.5,0.2 m 199.7,-4.2 h 4.9 m -2.5,2.4 v -4.9 m -13.9,2.8 h 4.9 m -2.4,2.5 v -4.9 m -13.9,2.7 h 4.9 m -2.5,2.5 v -5 m -13.9,2.8 h 4.9 m -2.4,2.5 v -4.9 m -13.9,2.4 h 4.9 m -2.5,2.5 v -4.9 m -13.9,2.8 h 4.9 m -2.4,2.4 v -4.9 m -10,2.8 h 4.9 m -2.5,2.5 v -5 m -13.6,2.8 h 4.9 m -2.4,2.5 v -4.9 m -13.6,2.4 h 4.9 m -2.4,2.5 v -4.9 m -13.6,2.8 h 4.9 m -2.5,2.4 v -4.9 m -13.5,2.8 h 4.9 m -2.5,2.5 v -5 m -13.2,2.8 h 4.9 m -2.5,2.5 v -4.9 m -13.3,2.4 h 4.9 m -2.4,2.5 v -4.9 m -13.6,2.7 h 4.9 m -2.4,2.5 v -4.9 m -13.3,2.8 h 4.9 m -2.4,2.4 v -4.9 m -9.7,2.8 h 4.9 m -2.4,2.5 v -4.9 m -13,2.7 h 4.9 m -2.4,2.5 v -4.9 m -12.9,2.4 h 4.9 m -2.5,2.5 v -4.9 m -13.2,2.8 h 4.9 m -2.5,2.4 v -4.9 m -12.9,2.8 h 4.9 m -2.5,2.5 v -4.9"
         class="st14"
         inkscape:connector-curvature="0"
         style="fill:none;stroke:#ee83b2;stroke-linecap:square;stroke-miterlimit:10" /><polyline
         id="polyline507"
         points="528.4,412.8 519.5,413.4 507.6,413.7 495.8,414.1 484,414.4 476.3,414.8 464.7,415.1 453.2,415.5     441.7,415.8 430.4,416.2 419.1,416.5 408.1,417 400.6,417.3 389.6,417.6 378.7,418 367.8,418.3 357.1,418.7 346.4,419     339.3,419.4 328.8,419.7 318.4,420.1   "
         class="st15"
         style="fill:none;stroke:#1760ac;stroke-linecap:square;stroke-miterlimit:10" /><polygon
         id="polygon509"
         points="521.7,414.4 520.3,414.4 519.7,415.5 519,414.4 517.7,414.4 518.5,413.2 517.7,412.1 519,412.1 519.7,410.9 520.3,412.1 521.7,412.1 520.8,413.2 "
         class="st8"
         style="fill:#1760ac" /><polygon
         id="polygon511"
         points="509.5,415 508.2,415 507.6,416.2 506.9,415 505.6,415 506.4,413.9 505.6,412.7 506.9,412.7 507.6,411.6 508.2,412.7 509.5,412.7 508.7,413.9 "
         class="st8"
         style="fill:#1760ac" /><polygon
         id="polygon513"
         points="497.8,415.4 496.4,415.4 495.8,416.5 495.1,415.4 493.8,415.4 494.6,414.2 493.8,413 495.1,413 495.8,411.9 496.4,413 497.8,413 496.9,414.2 "
         class="st8"
         style="fill:#1760ac" /><polygon
         id="polygon515"
         points="486,415.7 484.6,415.7 484,416.8 483.3,415.7 482,415.7 482.8,414.5 482,413.4 483.3,413.4 484,412.2 484.6,413.4 486,413.4 485.1,414.5 "
         class="st8"
         style="fill:#1760ac" /><polygon
         id="polygon517"
         points="478.1,416 476.8,416 476.1,417.2 475.5,416 474.1,416 475,414.9 474.1,413.7 475.5,413.7 476.1,412.6 476.8,413.7 478.1,413.7 477.3,414.9 "
         class="st8"
         style="fill:#1760ac" /><polygon
         id="polygon519"
         points="466.7,416.3 465.3,416.3 464.7,417.5 464,416.3 462.7,416.3 463.5,415.2 462.7,414 464,414 464.7,412.9 465.3,414 466.7,414 465.8,415.2 "
         class="st8"
         style="fill:#1760ac" /><polygon
         id="polygon521"
         points="455.2,416.7 453.9,416.7 453.2,417.8 452.6,416.7 451.2,416.7 452.1,415.5 451.2,414.4 452.6,414.4 453.2,413.2 453.9,414.4 455.2,414.4 454.4,415.5 "
         class="st8"
         style="fill:#1760ac" /><polygon
         id="polygon523"
         points="443.7,417 442.4,417 441.8,418.1 441.1,417 439.8,417 440.6,415.8 439.8,414.7 441.1,414.7 441.8,413.5 442.4,414.7 443.7,414.7 442.9,415.8 "
         class="st8"
         style="fill:#1760ac" /><polygon
         id="polygon525"
         points="432.3,417.3 431,417.3 430.3,418.5 429.6,417.3 428.3,417.3 429.2,416.2 428.3,415 429.6,415 430.3,413.9 431,415 432.3,415 431.4,416.2 "
         class="st8"
         style="fill:#1760ac" /><polygon
         id="polygon527"
         points="421.2,417.7 419.8,417.7 419.2,418.8 418.5,417.7 417.2,417.7 418,416.5 417.2,415.4 418.5,415.4 419.2,414.2 419.8,415.4 421.2,415.4 420.3,416.5 "
         class="st8"
         style="fill:#1760ac" /><polygon
         id="polygon529"
         points="410,418 408.7,418 408,419.1 407.4,418 406.1,418 406.9,416.8 406.1,415.7 407.4,415.7 408,414.5 408.7,415.7 410,415.7 409.2,416.8 "
         class="st8"
         style="fill:#1760ac" /><polygon
         id="polygon531"
         points="402.5,418.3 401.2,418.3 400.5,419.5 399.8,418.3 398.5,418.3 399.4,417.2 398.5,416 399.8,416 400.5,414.9 401.2,416 402.5,416 401.7,417.2 "
         class="st8"
         style="fill:#1760ac" /><polygon
         id="polygon533"
         points="391.7,418.6 390.4,418.6 389.7,419.8 389,418.6 387.7,418.6 388.6,417.5 387.7,416.3 389,416.3 389.7,415.2 390.4,416.3 391.7,416.3 390.8,417.5 "
         class="st8"
         style="fill:#1760ac" /><polygon
         id="polygon535"
         points="380.6,419 379.2,419 378.6,420.1 377.9,419 376.6,419 377.4,417.8 376.6,416.7 377.9,416.7 378.6,415.5 379.2,416.7 380.6,416.7 379.7,417.8 "
         class="st8"
         style="fill:#1760ac" /><polygon
         id="polygon537"
         points="369.8,419.3 368.4,419.3 367.8,420.4 367.1,419.3 365.8,419.3 366.6,418.1 365.8,417 367.1,417 367.8,415.8 368.4,417 369.8,417 368.9,418.1 "
         class="st8"
         style="fill:#1760ac" /><polygon
         id="polygon539"
         points="359,420 357.6,420 357,421.1 356.3,420 355,420 355.8,418.8 355,417.7 356.3,417.7 357,416.5 357.6,417.7 359,417.7 358.1,418.8 "
         class="st8"
         style="fill:#1760ac" /><polygon
         id="polygon541"
         points="348.5,420.3 347.2,420.3 346.5,421.4 345.8,420.3 344.5,420.3 345.3,419.1 344.5,418 345.8,418 346.5,416.8 347.2,418 348.5,418 347.6,419.1 "
         class="st8"
         style="fill:#1760ac" /><polygon
         id="polygon543"
         points="341.3,420.6 340,420.6 339.3,421.8 338.6,420.6 337.3,420.6 338.1,419.5 337.3,418.3 338.6,418.3 339.3,417.2 340,418.3 341.3,418.3 340.4,419.5 "
         class="st8"
         style="fill:#1760ac" /><polygon
         id="polygon545"
         points="330.8,420.9 329.5,420.9 328.8,422.1 328.2,420.9 326.8,420.9 327.7,419.8 326.8,418.6 328.2,418.6 328.8,417.5 329.5,418.6 330.8,418.6 330,419.8 "
         class="st8"
         style="fill:#1760ac" /><polygon
         id="polygon547"
         points="320.3,421.3 319,421.3 318.3,422.4 317.7,421.3 316.4,421.3 317.2,420.1 316.4,419 317.7,419 318.3,417.8 319,419 320.3,419 319.5,420.1 "
         class="st8"
         style="fill:#1760ac" /><polyline
         id="polyline555"
         points="528.4,405.7 518.2,406 505.8,406.4 491.2,406.8 480.4,407.1 467,407.2 454.3,407.1 441.9,407.1     429.7,407 415.1,407 404.4,406.9 391.5,406.8 377.5,406.8 364.6,406.7 352.1,406.7 338.4,406.6 327.9,406.5 314.9,406.5   "
         class="st19"
         style="fill:none;stroke:#ee8c3c;stroke-linecap:square;stroke-miterlimit:10" /><rect
         id="rect557"
         height="3.5999999"
         width="3.5999999"
         class="st9"
         y="404.20001"
         x="516.59998"
         style="fill:#ee8c3c" /><rect
         id="rect559"
         height="3.5999999"
         width="3.5999999"
         class="st9"
         y="404.5"
         x="504.10001"
         style="fill:#ee8c3c" /><rect
         id="rect561"
         height="3.5999999"
         width="3.5999999"
         class="st9"
         y="404.79999"
         x="489.39999"
         style="fill:#ee8c3c" /><rect
         id="rect563"
         height="3.5999999"
         width="3.5999999"
         class="st9"
         y="405.20001"
         x="478.60001"
         style="fill:#ee8c3c" /><rect
         id="rect565"
         height="3.5999999"
         width="3.5999999"
         class="st9"
         y="405.5"
         x="465.20001"
         style="fill:#ee8c3c" /><rect
         id="rect567"
         height="3.5999999"
         width="3.5999999"
         class="st9"
         y="405.5"
         x="452.39999"
         style="fill:#ee8c3c" /><rect
         id="rect569"
         height="3.5999999"
         width="3.5999999"
         class="st9"
         y="405.20001"
         x="440"
         style="fill:#ee8c3c" /><rect
         id="rect571"
         height="3.5999999"
         width="3.5999999"
         class="st9"
         y="405.20001"
         x="427.89999"
         style="fill:#ee8c3c" /><rect
         id="rect573"
         height="3.5999999"
         width="3.5999999"
         class="st9"
         y="405.20001"
         x="413.5"
         style="fill:#ee8c3c" /><rect
         id="rect575"
         height="3.5999999"
         width="3.5999999"
         class="st9"
         y="405.20001"
         x="402.60001"
         style="fill:#ee8c3c" /><rect
         id="rect577"
         height="3.5999999"
         width="3.5999999"
         class="st9"
         y="405.20001"
         x="389.60001"
         style="fill:#ee8c3c" /><rect
         id="rect579"
         height="3.5999999"
         width="3.5999999"
         class="st9"
         y="404.79999"
         x="375.79999"
         style="fill:#ee8c3c" /><rect
         id="rect581"
         height="3.5999999"
         width="3.5999999"
         class="st9"
         y="404.79999"
         x="362.70001"
         style="fill:#ee8c3c" /><rect
         id="rect583"
         height="3.5999999"
         width="3.5999999"
         class="st9"
         y="404.79999"
         x="350.29999"
         style="fill:#ee8c3c" /><rect
         id="rect585"
         height="3.5999999"
         width="3.5999999"
         class="st9"
         y="404.79999"
         x="336.5"
         style="fill:#ee8c3c" /><rect
         id="rect587"
         height="3.5999999"
         width="3.5999999"
         class="st9"
         y="404.79999"
         x="326"
         style="fill:#ee8c3c" /><rect
         id="rect589"
         height="3.5999999"
         width="3.5999999"
         class="st9"
         y="404.79999"
         x="313.29999"
         style="fill:#ee8c3c" /><path
         id="path591"
         d="m 314.9,250.2 h 213.4 m 0,214.5 v -214.5"
         class="st11"
         inkscape:connector-curvature="0"
         style="fill:none;stroke:#000000;stroke-linecap:square;stroke-miterlimit:10" /><path
         id="path3251"
         title="t 0.2*t**0.5"
         d="m 314.9,464.7 c 1.12794,-1.6409 2.25589,-1.59175 3.38383,-2.01326 c 1.12795,-0.42151 2.25589,-0.75453 3.38384,-1.05755 c 1.12794,-0.30302 2.25589,-0.57087 3.38383,-0.81968 c 1.12794,-0.24881 2.25589,-0.47776 3.38383,-0.69385 c 1.12795,-0.2161 2.25589,-0.41906 3.38384,-0.61267 c 1.12794,-0.19361 2.25589,-0.37774 3.38383,-0.55468 c 1.12794,-0.17695 2.25589,-0.34663 3.38383,-0.51058 c 1.12795,-0.16395 2.25589,-0.32212 3.38384,-0.47558 c 1.12794,-0.15346 2.25589,-0.30217 3.38383,-0.44692 c 1.12794,-0.14475 2.25589,-0.28551 3.38383,-0.42288 c 1.12795,-0.13738 2.25589,-0.27134 3.38384,-0.40237 c 1.12794,-0.13102 2.25589,-0.25908 3.38383,-0.38456 c 1.12794,-0.12548 2.25589,-0.24835 3.38383,-0.36894 c 1.12795,-0.12058 2.25589,-0.23885 3.38384,-0.35507 c 1.12794,-0.11622 2.25589,-0.23037 3.38383,-0.34266 c 1.12794,-0.1123 2.25589,-0.22273 3.38383,-0.33147 c 1.12795,-0.10875 2.25589,-0.2158 3.38384,-0.32131 c 1.12794,-0.10551 2.25589,-0.20947 3.38383,-0.31203 c 1.12794,-0.10255 2.25589,-0.20368 3.38383,-0.3035 c 1.12795,-0.0998 2.25589,-0.19834 3.38384,-0.29565 c 1.12794,-0.0973 2.25589,-0.1934 3.38383,-0.28837 c 1.12794,-0.095 2.25589,-0.18881 3.38383,-0.2816 c 1.12795,-0.0928 2.25589,-0.18453 3.38384,-0.27529 c 1.12794,-0.0908 2.25589,-0.18054 3.38383,-0.26939 c 1.12794,-0.0889 2.25589,-0.17678 3.38383,-0.26385 c 1.12795,-0.0871 2.25589,-0.17326 3.38384,-0.25863 c 1.12794,-0.0854 2.25589,-0.16994 3.38383,-0.25373 c 1.12794,-0.0838 2.25589,-0.16679 3.38383,-0.24907 c 1.12795,-0.0823 2.25589,-0.16383 3.38384,-0.24468 c 1.12794,-0.0808 2.25589,-0.16101 3.38383,-0.2405 c 1.12794,-0.0795 2.25589,-0.15834 3.38383,-0.23654 c 1.12795,-0.0782 2.25589,-0.15579 3.38384,-0.23276 c 1.12794,-0.077 2.25589,-0.15336 3.38383,-0.22916 c 1.12794,-0.0758 2.25589,-0.15104 3.38383,-0.22572 c 1.12795,-0.0747 2.25589,-0.14882 3.38384,-0.22243 c 1.12794,-0.0736 2.25589,-0.1467 3.38383,-0.21929 c 1.12794,-0.0726 2.25589,-0.14466 3.38383,-0.21626 c 1.12795,-0.0716 2.25589,-0.14271 3.38384,-0.21336 c 1.12794,-0.0707 2.25589,-0.14084 3.38383,-0.21058 c 1.12794,-0.0697 2.25589,-0.13904 3.38383,-0.20791 c 1.12795,-0.0689 2.25589,-0.1373 3.38384,-0.20532 c 1.12794,-0.068 2.25589,-0.13563 3.38383,-0.20284 c 1.12794,-0.0672 2.25589,-0.13402 3.38383,-0.20044 c 1.12795,-0.0664 2.25589,-0.13246 3.38384,-0.19813 c 1.12794,-0.0657 2.25589,-0.13096 3.38383,-0.19589 c 1.12794,-0.0649 2.25589,-0.12951 3.38383,-0.19373 c 1.12795,-0.0642 2.25589,-0.12811 3.38384,-0.19164 c 1.12794,-0.0635 2.25589,-0.12674 3.38383,-0.18962 c 1.12794,-0.0629 2.25589,-0.12542 3.38383,-0.18765 c 1.12795,-0.0622 2.25589,-0.12415 3.38384,-0.18575 c 1.12794,-0.0616 2.25589,-0.12291 3.38383,-0.18391 c 1.12794,-0.061 2.25589,-0.1217 3.38383,-0.18211 c 1.12795,-0.0604 2.25589,-0.12053 3.38384,-0.18037 c 1.12794,-0.0598 2.25589,-0.1194 3.38383,-0.17868 c 1.12794,-0.0593 2.25589,-0.1183 3.38383,-0.17704 c 1.12795,-0.0587 2.25589,-0.11722 3.38384,-0.17544 c 1.12794,-0.0582 2.25589,-0.11617 3.38383,-0.17387 c 1.12794,-0.0577 2.25589,-0.11516 3.38383,-0.17236 c 1.12795,-0.0572 2.25589,-0.11417 3.38384,-0.17089 c 1.12794,-0.0567 2.25589,-0.1132 3.38383,-0.16944 c 1.12794,-0.0563 2.25589,-0.11226 3.38383,-0.16804 c 1.12795,-0.0558 2.25589,-0.11134 3.38384,-0.16667 c 1.12794,-0.0553 2.25589,-0.11044 3.38383,-0.16533"
         style="opacity:1;fill:none;fill-opacity:1;fill-rule:evenodd;stroke:#5cb447;stroke-width:1;stroke-miterlimit:4;stroke-dasharray:none;stroke-dashoffset:0;stroke-opacity:1"
         inkscape:connector-curvature="0" /><path
         style="opacity:1;fill:none;fill-opacity:1;fill-rule:evenodd;stroke:#2b4092;stroke-width:1;stroke-miterlimit:4;stroke-dasharray:none;stroke-dashoffset:0;stroke-opacity:1"
         d="m 315.1185,463.93785 c 1.12794,-1.80622 2.25589,-1.75211 3.38383,-2.21609 c 1.12795,-0.46397 2.25589,-0.83055 3.38384,-1.16409 c 1.12794,-0.33355 2.25589,-0.62839 3.38383,-0.90227 c 1.12794,-0.27388 2.25589,-0.52589 3.38383,-0.76376 c 1.12795,-0.23786 2.25589,-0.46127 3.38384,-0.67439 c 1.12794,-0.21312 2.25589,-0.41579 3.38383,-0.61056 c 1.12794,-0.19477 2.25589,-0.38155 3.38383,-0.56202 c 1.12795,-0.18047 2.25589,-0.35458 3.38384,-0.52349 c 1.12794,-0.16892 2.25589,-0.33261 3.38383,-0.49195 c 1.12794,-0.15933 2.25589,-0.31427 3.38383,-0.46549 c 1.12795,-0.15122 2.25589,-0.29868 3.38384,-0.4429 c 1.12794,-0.14422 2.25589,-0.28519 3.38383,-0.42331 c 1.12794,-0.13812 2.25589,-0.27337 3.38383,-0.4061 c 1.12795,-0.13273 2.25589,-0.26292 3.38384,-0.39085 c 1.12794,-0.12792 2.25589,-0.25357 3.38383,-0.37718 c 1.12794,-0.12361 2.25589,-0.24517 3.38383,-0.36487 c 1.12795,-0.1197 2.25589,-0.23753 3.38384,-0.35368 c 1.12794,-0.11614 2.25589,-0.23058 3.38383,-0.34346 c 1.12794,-0.11288 2.25589,-0.2242 3.38383,-0.33408 c 1.12795,-0.10989 2.25589,-0.21833 3.38384,-0.32544 c 1.12794,-0.10711 2.25589,-0.21288 3.38383,-0.31742 c 1.12794,-0.10453 2.25589,-0.20783 3.38383,-0.30997 c 1.12795,-0.10214 2.25589,-0.20313 3.38384,-0.30303 c 1.12794,-0.0999 2.25589,-0.19872 3.38383,-0.29653 c 1.12794,-0.0978 2.25589,-0.19459 3.38383,-0.29043 c 1.12795,-0.0958 2.25589,-0.19071 3.38384,-0.28469 c 1.12794,-0.094 2.25589,-0.18706 3.38383,-0.27928 c 1.12794,-0.0922 2.25589,-0.1836 3.38383,-0.27417 c 1.12795,-0.0906 2.25589,-0.18033 3.38384,-0.26933 c 1.12794,-0.089 2.25589,-0.17723 3.38383,-0.26474 c 1.12794,-0.0875 2.25589,-0.17428 3.38383,-0.26037 c 1.12795,-0.0861 2.25589,-0.17147 3.38384,-0.25621 c 1.12794,-0.0847 2.25589,-0.1688 3.38383,-0.25224 c 1.12794,-0.0835 2.25589,-0.16626 3.38383,-0.24847 c 1.12795,-0.0822 2.25589,-0.16381 3.38384,-0.24484 c 1.12794,-0.081 2.25589,-0.16147 3.38383,-0.24137 c 1.12794,-0.0799 2.25589,-0.15924 3.38383,-0.23805 c 1.12795,-0.0788 2.25589,-0.15709 3.38384,-0.23486 c 1.12794,-0.0778 2.25589,-0.15503 3.38383,-0.2318 c 1.12794,-0.0768 2.25589,-0.15304 3.38383,-0.22885 c 1.12795,-0.0758 2.25589,-0.15113 3.38384,-0.22601 c 1.12794,-0.0749 2.25589,-0.14929 3.38383,-0.22327 c 1.12794,-0.074 2.25589,-0.14752 3.38383,-0.22064 c 1.12795,-0.0731 2.25589,-0.1458 3.38384,-0.21809 c 1.12794,-0.0723 2.25589,-0.14415 3.38383,-0.21563 c 1.12794,-0.0715 2.25589,-0.14255 3.38383,-0.21325 c 1.12795,-0.0707 2.25589,-0.141 3.38384,-0.21094 c 1.12794,-0.0699 2.25589,-0.13951 3.38383,-0.20872 c 1.12794,-0.0692 2.25589,-0.13806 3.38383,-0.20656 c 1.12795,-0.0685 2.25589,-0.13665 3.38384,-0.20447 c 1.12794,-0.0678 2.25589,-0.13528 3.38383,-0.20243 c 1.12794,-0.0671 2.25589,-0.13396 3.38383,-0.20046 c 1.12795,-0.0665 2.25589,-0.13267 3.38384,-0.19854 c 1.12794,-0.0659 2.25589,-0.13143 3.38383,-0.19669 c 1.12794,-0.0652 2.25589,-0.13021 3.38383,-0.19487 c 1.12795,-0.0647 2.25589,-0.12903 3.38384,-0.19311 c 1.12794,-0.0641 2.25589,-0.12788 3.38383,-0.19139 c 1.12794,-0.0635 2.25589,-0.12676 3.38383,-0.18973 c 1.12795,-0.063 2.25589,-0.12567 3.38384,-0.1881 c 1.12794,-0.0624 2.25589,-0.1246 3.38383,-0.18651 c 1.12794,-0.0619 2.25589,-0.12357 3.38383,-0.18497 c 1.12795,-0.0614 2.25589,-0.12256 3.38384,-0.18346 c 1.12794,-0.0609 2.25589,-0.12157 3.38383,-0.18199"
         title="t 0.21*t**0.5"
         id="path3956"
         inkscape:connector-curvature="0" /><path
         id="path4660"
         title="t 0.12*t**0.5"
         d="m 315.40036,464.28825 c 1.12645,-0.97582 2.25291,-0.9466 3.37936,-1.19726 c 1.12645,-0.25067 2.25291,-0.44872 3.37936,-0.62892 c 1.12645,-0.1802 2.2529,-0.33949 3.37936,-0.48746 c 1.12645,-0.14796 2.2529,-0.28412 3.37936,-0.41263 c 1.12645,-0.1285 2.2529,-0.24921 3.37936,-0.36435 c 1.12645,-0.11513 2.2529,-0.22463 3.37936,-0.32986 c 1.12645,-0.10523 2.2529,-0.20614 3.37936,-0.30364 c 1.12645,-0.0975 2.2529,-0.19156 3.37935,-0.28282 c 1.12646,-0.0913 2.25291,-0.17969 3.37936,-0.26578 c 1.12646,-0.0861 2.25291,-0.16979 3.37936,-0.25148 c 1.12646,-0.0817 2.25291,-0.16137 3.37936,-0.23928 c 1.12646,-0.0779 2.25291,-0.15408 3.37936,-0.2287 c 1.12646,-0.0746 2.25291,-0.1477 3.37936,-0.2194 c 1.12645,-0.0717 2.25291,-0.14205 3.37936,-0.21116 c 1.12645,-0.0691 2.25291,-0.137 3.37936,-0.20378 c 1.12645,-0.0668 2.25291,-0.13245 3.37936,-0.19712 c 1.12645,-0.0647 2.25291,-0.12834 3.37936,-0.19108 c 1.12645,-0.0627 2.25291,-0.12458 3.37936,-0.18556 c 1.12645,-0.061 2.2529,-0.12113 3.37936,-0.1805 c 1.12645,-0.0594 2.2529,-0.11795 3.37936,-0.17581 c 1.12645,-0.0579 2.2529,-0.11502 3.37936,-0.17149 c 1.12645,-0.0565 2.2529,-0.11229 3.37936,-0.16747 c 1.12645,-0.0552 2.2529,-0.10974 3.37936,-0.16372 c 1.12645,-0.054 2.2529,-0.10736 3.37935,-0.1602 c 1.12646,-0.0528 2.25291,-0.10513 3.37936,-0.15691 c 1.12646,-0.0518 2.25291,-0.10303 3.37936,-0.15381 c 1.12646,-0.0508 2.25291,-0.10105 3.37936,-0.15088 c 1.12646,-0.0498 2.25291,-0.0992 3.37936,-0.14812 c 1.12646,-0.0489 2.25291,-0.0974 3.37936,-0.14551 c 1.12645,-0.0481 2.25291,-0.0958 3.37936,-0.14303 c 1.12645,-0.0473 2.25291,-0.0942 3.37936,-0.14067 c 1.12645,-0.0465 2.25291,-0.0926 3.37936,-0.13842 c 1.12645,-0.0458 2.25291,-0.0912 3.37936,-0.13628 c 1.12645,-0.0451 2.25291,-0.0898 3.37936,-0.13423 c 1.12645,-0.0444 2.2529,-0.0885 3.37936,-0.13228 c 1.12645,-0.0438 2.2529,-0.0872 3.37936,-0.1304 c 1.12645,-0.0432 2.2529,-0.086 3.37936,-0.12861 c 1.12645,-0.0426 2.2529,-0.0849 3.37936,-0.12689 c 1.12645,-0.042 2.2529,-0.0838 3.37936,-0.12523 c 1.12645,-0.0415 2.2529,-0.0827 3.37935,-0.12364 c 1.12646,-0.0409 2.25291,-0.0816 3.37936,-0.1221 c 1.12646,-0.0404 2.25291,-0.0807 3.37936,-0.12063 c 1.12646,-0.04 2.25291,-0.0797 3.37936,-0.1192 c 1.12646,-0.0395 2.25291,-0.0788 3.37936,-0.11782 c 1.12646,-0.0391 2.25291,-0.0779 3.37936,-0.1165 c 1.12645,-0.0386 2.25291,-0.077 3.37936,-0.11521 c 1.12645,-0.0382 2.25291,-0.0762 3.37936,-0.11397 c 1.12645,-0.0378 2.25291,-0.0754 3.37936,-0.11276 c 1.12645,-0.0374 2.25291,-0.0746 3.37936,-0.1116 c 1.12645,-0.037 2.25291,-0.0738 3.37936,-0.11046 c 1.12645,-0.0366 2.2529,-0.0731 3.37936,-0.10937 c 1.12645,-0.0363 2.2529,-0.0724 3.37936,-0.1083 c 1.12645,-0.0359 2.2529,-0.0717 3.37936,-0.10726 c 1.12645,-0.0356 2.2529,-0.071 3.37936,-0.10626 c 1.12645,-0.0353 2.2529,-0.0704 3.37936,-0.10529 c 1.12645,-0.0349 2.2529,-0.0697 3.37935,-0.10433 c 1.12646,-0.0346 2.25291,-0.0691 3.37936,-0.1034 c 1.12646,-0.0343 2.25291,-0.0685 3.37936,-0.1025 c 1.12646,-0.034 2.25291,-0.0679 3.37936,-0.10162 c 1.12646,-0.0337 2.25291,-0.0673 3.37936,-0.10077 c 1.12646,-0.0335 2.25291,-0.0668 3.37936,-0.0999 c 1.12645,-0.0332 2.25291,-0.0662 3.37936,-0.0991 c 1.12645,-0.0329 2.25291,-0.0657 3.37936,-0.0983"
         style="opacity:1;fill:none;fill-opacity:1;fill-rule:evenodd;stroke:#e51e25;stroke-width:1;stroke-miterlimit:4;stroke-dasharray:none;stroke-dashoffset:0;stroke-opacity:0.98431373"
         inkscape:connector-curvature="0" /></g><g
       id="g691"><g
         id="g605"
         transform="matrix(0.96107643,0,0,0.96107643,-3.5189606,8.3060221)"><text
           id="text595"
           class="st0 st20"
           transform="translate(563.0248,275.5705)"
           style="font-size:9px;font-family:ArialMT">MoS$_2$</text>
<g
           id="g603"><line
             id="line599"
             y2="272.5"
             x2="555.79999"
             y1="272.5"
             x1="536.29999"
             class="st10"
             style="fill:none;stroke:#d04127;stroke-linecap:square;stroke-miterlimit:10" /><polygon
             id="polygon601"
             points="546.4,278.5 551.6,269.5 541.2,269.5 "
             class="st6"
             style="fill:#d04127" /></g></g><g
         id="g617"
         transform="matrix(0.96107643,0,0,0.96107643,-3.5189606,8.3060221)"><text
           id="text607"
           class="st0 st20"
           transform="translate(563.0251,294.8468)"
           style="font-size:9px;font-family:ArialMT">MoSe$_2$</text>
<g
           id="g615"><line
             id="line611"
             y2="292.89999"
             x2="555.79999"
             y1="292.89999"
             x1="536.29999"
             class="st11"
             style="fill:none;stroke:#000000;stroke-linecap:square;stroke-miterlimit:10" /><polygon
             id="polygon613"
             points="541.2,296.2 551.6,296.2 546.4,287.1 " /></g></g><g
         id="g625"
         transform="matrix(0.96107643,0,0,0.96107643,-3.5189606,8.3060221)"><text
           id="text619"
           class="st0 st20"
           transform="translate(563.0251,314.1236)"
           style="font-size:9px;font-family:ArialMT">MoTe$_2$</text>
<path
           id="path623"
           d="m 536.3,312.2 h 19.4 m -12.9,3.5 l 7.1,-7.1 m -7.1,0 l 7.1,7.1"
           class="st12"
           inkscape:connector-curvature="0"
           style="fill:none;stroke:#922885;stroke-linecap:square;stroke-miterlimit:10" /></g><g
         id="g637"
         transform="matrix(0.96107643,0,0,0.96107643,-3.5189606,8.3060221)"><text
           id="text627"
           class="st0 st20"
           transform="translate(563.0251,333.8437)"
           style="font-size:9px;font-family:ArialMT">WS$_2$</text>
<g
           id="g635"><path
             id="path631"
             d="m 536.3,331.1 h 19.4 z"
             class="st13"
             inkscape:connector-curvature="0"
             style="fill:none;stroke:#1a7139;stroke-linecap:square;stroke-miterlimit:10" /><polygon
             id="polygon633"
             points="546.4,325.2 541.9,331.3 546.4,337.3 550.9,331.3 "
             class="st7"
             style="fill:#1a7139" /></g></g><g
         id="g645"
         transform="matrix(0.96107643,0,0,0.96107643,-3.5189606,8.3060221)"><text
           id="text639"
           class="st0 st20"
           transform="translate(563.0251,352.6769)"
           style="font-size:9px;font-family:ArialMT">WSe$_2$</text>
<path
           id="path643"
           d="m 536.3,350.3 h 19.4 m -14.2,-0.2 h 9.7 m -4.8,4.9 v -9.7"
           class="st14"
           inkscape:connector-curvature="0"
           style="fill:none;stroke:#ee83b2;stroke-linecap:square;stroke-miterlimit:10" /></g><g
         id="g657"
         transform="matrix(0.96107643,0,0,0.96107643,-3.5189606,8.3060221)"><text
           id="text647"
           class="st0 st20"
           transform="translate(563.0251,371.9537)"
           style="font-size:9px;font-family:ArialMT">WTe$_2$</text>
<g
           id="g655"><line
             id="line651"
             y2="369.20001"
             x2="555.79999"
             y1="369.20001"
             x1="536.29999"
             class="st15"
             style="fill:none;stroke:#1760ac;stroke-linecap:square;stroke-miterlimit:10" /><polygon
             id="polygon653"
             points="550.3,371.7 547.7,371.7 546.4,373.9 545.1,371.7 542.5,371.7 544.1,369.4 542.5,367.1 545.1,367.1 546.4,364.9 547.7,367.1 550.3,367.1 548.7,369.4 "
             class="st8"
             style="fill:#1760ac" /></g></g><g
         id="g663"
         transform="matrix(0.96107643,0,0,0.96107643,-3.5189606,8.3060221)"><text
           id="text659"
           class="st0 st20"
           transform="translate(563.0248,412.3391)"
           style="font-size:9px;font-family:ArialMT">Graphene</text>
<line
           id="line661"
           y2="409.89999"
           x2="555.79999"
           y1="409.89999"
           x1="536.29999"
           class="st16"
           style="fill:none;stroke:#e51e25;stroke-linecap:square;stroke-miterlimit:10" /></g><g
         id="g669"
         transform="matrix(0.96107643,0,0,0.96107643,-3.5189606,8.3060221)"><text
           id="text665"
           class="st0 st20"
           transform="translate(563.0251,431.6162)"
           style="font-size:9px;font-family:ArialMT">Silicene</text>
<line
           id="line667"
           y2="429.20001"
           x2="555.79999"
           y1="429.20001"
           x1="536.29999"
           class="st17"
           style="fill:none;stroke:#5cb447;stroke-linecap:square;stroke-miterlimit:10" /></g><g
         id="g677"
         transform="matrix(0.96107643,0,0,0.96107643,-3.5189606,8.3060221)"><g
           id="g673"><text
             id="text671"
             class="st0 st20"
             transform="translate(563.0251,450.893)"
             style="font-size:9px;font-family:ArialMT">Germanene</text>
</g><line
           id="line675"
           y2="448.5"
           x2="555.79999"
           y1="448.5"
           x1="536.29999"
           class="st18"
           style="fill:none;stroke:#2b4092;stroke-linecap:square;stroke-miterlimit:10" /></g><g
         id="g689"
         transform="matrix(0.96107643,0,0,0.96107643,-3.5189606,8.3060221)"><g
           id="g681"><text
             id="text679"
             class="st0 st20"
             transform="translate(563.0248,393.0626)"
             style="font-size:9px;font-family:ArialMT">Phosphorene</text>
</g><g
           id="g687"><line
             id="line683"
             y2="389.60001"
             x2="555.79999"
             y1="389.60001"
             x1="536.29999"
             class="st19"
             style="fill:none;stroke:#ee8c3c;stroke-linecap:square;stroke-miterlimit:10" /><rect
             id="rect685"
             height="7.0999999"
             width="7.0999999"
             class="st9"
             y="386.10001"
             x="542.90002"
             style="fill:#ee8c3c" /></g></g></g><text
       transform="rotate(-90)"
       class="st2 st3"
       id="text1540"
       style="font-style:normal;font-variant:normal;font-weight:normal;font-stretch:normal;font-size:12.49399376px;font-family:Arial-ItalicMT;-inkscape-font-specification:'Arial-ItalicMT, Normal';font-variant-ligatures:normal;font-variant-caps:normal;font-variant-numeric:normal;font-feature-settings:normal;text-align:center;writing-mode:lr-tb;text-anchor:middle;stroke-width:0.96107644"
       x="-350.69891"
       y="270.90613"><tspan
         sodipodi:role="line"
         id="tspan1538"
         x="-350.69891"
         y="270.90613"
         style="stroke-width:0.96107644">$C_{\mathrm{Q}}$ (μF$\cdot$cm$^{-2}$)</tspan></text>
<text
       id="text1544"
       y="492.11227"
       x="401.16489"
       style="font-style:normal;font-variant:normal;font-weight:normal;font-stretch:normal;font-size:11.53291702px;line-height:1.25;font-family:Arial-ItalicMT;-inkscape-font-specification:'Arial-ItalicMT, Normal';font-variant-ligatures:normal;font-variant-caps:normal;font-variant-numeric:normal;font-feature-settings:normal;text-align:center;letter-spacing:0px;word-spacing:0px;writing-mode:lr-tb;text-anchor:middle;fill:#000000;fill-opacity:1;stroke:none;stroke-width:0.96107644"
       xml:space="preserve"><tspan
         id="tspan1546"
         sodipodi:role="line"
         x="401.16489"
         y="492.11227"
         style="stroke-width:0.96107644">$\sigma_{\mathrm{2D}}^{\mathrm{p}}$ (10$^{13}$ $e \cdot$cm$^{-2}$)</tspan></text>
<text
       xml:space="preserve"
       style="font-style:normal;font-variant:normal;font-weight:normal;font-stretch:normal;font-size:11.53291702px;line-height:1.25;font-family:Arial-ItalicMT;-inkscape-font-specification:'Arial-ItalicMT, Normal';font-variant-ligatures:normal;font-variant-caps:normal;font-variant-numeric:normal;font-feature-settings:normal;text-align:center;letter-spacing:0px;word-spacing:0px;writing-mode:lr-tb;text-anchor:middle;fill:#000000;fill-opacity:1;stroke:none;stroke-width:0.96107644"
       x="137.82996"
       y="492.11227"
       id="text5109"><tspan
         y="492.11227"
         x="137.82996"
         sodipodi:role="line"
         id="tspan5107"
         style="stroke-width:0.96107644">$\sigma_{\mathrm{2D}}^{\mathrm{n}}$ (10$^{13}$ $e \cdot$cm$^{-2}$)</tspan></text>
</g><g
     id="Layer_3"
     transform="matrix(0.96107643,0,0,0.96107643,6.0636521,-223.81479)"><g
       id="pjM1e6.tif"><image
         sodipodi:absref="/Users/ttian/polybox/PhD Defense/Final/thesis/img/qc/sub_img/92B7FBF0756EDD1.png"
         xlink:href="sub_img/92B7FBF0756EDD1.png"
         style="overflow:visible"
         width="2489"
         height="559"
         id="Layer_0_1_"
         transform="matrix(0.2435,0,0,0.2435,16.2904,537.2754)" /></g><text
       y="690.94189"
       x="87.886795"
       style="font-style:normal;font-variant:normal;font-weight:normal;font-stretch:normal;font-size:12px;font-family:ArialMT;-inkscape-font-specification:'ArialMT, Normal';font-variant-ligatures:normal;font-variant-caps:normal;font-variant-numeric:normal;font-feature-settings:normal;text-align:center;writing-mode:lr-tb;text-anchor:middle"
       id="text702"
       class="st0 st22">Graphene</text>
<text
       y="690.94159"
       x="242.3445"
       style="font-style:normal;font-variant:normal;font-weight:normal;font-stretch:normal;font-size:12px;font-family:ArialMT;-inkscape-font-specification:'ArialMT, Normal';font-variant-ligatures:normal;font-variant-caps:normal;font-variant-numeric:normal;font-feature-settings:normal;text-align:center;writing-mode:lr-tb;text-anchor:middle"
       id="text704"
       class="st0 st22">Germanene/Silicene</text>
<text
       y="690.9422"
       x="389.7345"
       style="font-style:normal;font-variant:normal;font-weight:normal;font-stretch:normal;font-size:12px;font-family:ArialMT;-inkscape-font-specification:'ArialMT, Normal';font-variant-ligatures:normal;font-variant-caps:normal;font-variant-numeric:normal;font-feature-settings:normal;text-align:center;writing-mode:lr-tb;text-anchor:middle"
       id="text706"
       class="st0 st22"><tspan
         y="690.9422"
         x="389.7345"
         id="tspan1524"
         sodipodi:role="line">2H-TMDC</tspan></text>
<text
       y="690.9422"
       x="549.65198"
       style="font-style:normal;font-variant:normal;font-weight:normal;font-stretch:normal;font-size:12px;font-family:ArialMT;-inkscape-font-specification:'ArialMT, Normal';font-variant-ligatures:normal;font-variant-caps:normal;font-variant-numeric:normal;font-feature-settings:normal;text-align:center;writing-mode:lr-tb;text-anchor:middle"
       id="text708"
       class="st0 st22">Phosphorene</text>
<text
       xml:space="preserve"
       style="font-style:normal;font-variant:normal;font-weight:bold;font-stretch:normal;font-size:12px;line-height:1.25;font-family:arial;-inkscape-font-specification:'arial, Bold';font-variant-ligatures:normal;font-variant-caps:normal;font-variant-numeric:normal;font-feature-settings:normal;text-align:start;letter-spacing:0px;word-spacing:0px;writing-mode:lr-tb;text-anchor:start;fill:#000000;fill-opacity:1;stroke:none"
       x="3.1819181"
       y="242.76691"
       id="text5081"><tspan
         sodipodi:role="line"
         id="tspan5079"
         x="3.1819181"
         y="242.76691">\Lsize a</tspan></text>
<text
       id="text5085"
       y="242.76691"
       x="275.18192"
       style="font-style:normal;font-variant:normal;font-weight:bold;font-stretch:normal;font-size:12px;line-height:1.25;font-family:arial;-inkscape-font-specification:'arial, Bold';font-variant-ligatures:normal;font-variant-caps:normal;font-variant-numeric:normal;font-feature-settings:normal;text-align:start;letter-spacing:0px;word-spacing:0px;writing-mode:lr-tb;text-anchor:start;fill:#000000;fill-opacity:1;stroke:none"
       xml:space="preserve"><tspan
         y="242.76691"
         x="275.18192"
         id="tspan5083"
         sodipodi:role="line">\Lsize b</tspan></text>
<text
       id="text5085-3"
       y="536.85052"
       x="3.1819181"
       style="font-style:normal;font-variant:normal;font-weight:bold;font-stretch:normal;font-size:12px;line-height:1.25;font-family:arial;-inkscape-font-specification:'arial, Bold';font-variant-ligatures:normal;font-variant-caps:normal;font-variant-numeric:normal;font-feature-settings:normal;text-align:start;letter-spacing:0px;word-spacing:0px;writing-mode:lr-tb;text-anchor:start;fill:#000000;fill-opacity:1;stroke:none"
       xml:space="preserve"><tspan
         y="536.85052"
         x="3.1819181"
         id="tspan5083-8"
         sodipodi:role="line">\Lsize c</tspan></text>
</g></svg>