<?xml version="1.0" encoding="utf-8" standalone="no"?>
<!DOCTYPE svg PUBLIC "-//W3C//DTD SVG 1.1//EN"
  "http://www.w3.org/Graphics/SVG/1.1/DTD/svg11.dtd">
<!-- Created with matplotlib (http://matplotlib.org/) -->
<svg height="288pt" version="1.1" viewBox="0 0 288 288" width="288pt" xmlns="http://www.w3.org/2000/svg" xmlns:xlink="http://www.w3.org/1999/xlink">
 <defs>
  <style type="text/css">
*{stroke-linecap:butt;stroke-linejoin:round;}
  </style>
 </defs>
 <g id="figure_1">
  <g id="patch_1">
   <path d="M 0 288 
L 288 288 
L 288 0 
L 0 0 
z
" style="fill:none;"/>
  </g>
  <g id="axes_1">
   <g id="patch_2">
    <path d="M 48.924201 249.529844 
L 243.499844 249.529844 
L 243.499844 10.71 
L 48.924201 10.71 
z
" style="fill:none;"/>
   </g>
   <g id="matplotlib.axis_1">
    <g id="xtick_1">
     <g id="line2d_1">
      <defs>
       <path d="M 0 0 
L 0 3.5 
" id="m4a1cad1f1a" style="stroke:#000000;stroke-width:0.85;"/>
      </defs>
      <g>
       <use style="stroke:#000000;stroke-width:0.85;" x="48.924201" xlink:href="#m4a1cad1f1a" y="249.529844"/>
      </g>
     </g>
     <g id="text_1">
      <!-- −100 -->
      <defs>
       <path d="M 52.828125 31.203125 
L 5.5625 31.203125 
L 5.5625 39.40625 
L 52.828125 39.40625 
z
" id="ArialMT-2212"/>
       <path d="M 37.25 0 
L 28.46875 0 
L 28.46875 56 
Q 25.296875 52.984375 20.140625 49.953125 
Q 14.984375 46.921875 10.890625 45.40625 
L 10.890625 53.90625 
Q 18.265625 57.375 23.78125 62.296875 
Q 29.296875 67.234375 31.59375 71.875 
L 37.25 71.875 
z
" id="ArialMT-31"/>
       <path d="M 4.15625 35.296875 
Q 4.15625 48 6.765625 55.734375 
Q 9.375 63.484375 14.515625 67.671875 
Q 19.671875 71.875 27.484375 71.875 
Q 33.25 71.875 37.59375 69.546875 
Q 41.9375 67.234375 44.765625 62.859375 
Q 47.609375 58.5 49.21875 52.21875 
Q 50.828125 45.953125 50.828125 35.296875 
Q 50.828125 22.703125 48.234375 14.96875 
Q 45.65625 7.234375 40.5 3 
Q 35.359375 -1.21875 27.484375 -1.21875 
Q 17.140625 -1.21875 11.234375 6.203125 
Q 4.15625 15.140625 4.15625 35.296875 
M 13.1875 35.296875 
Q 13.1875 17.671875 17.3125 11.828125 
Q 21.4375 6 27.484375 6 
Q 33.546875 6 37.671875 11.859375 
Q 41.796875 17.71875 41.796875 35.296875 
Q 41.796875 52.984375 37.671875 58.78125 
Q 33.546875 64.59375 27.390625 64.59375 
Q 21.34375 64.59375 17.71875 59.46875 
Q 13.1875 52.9375 13.1875 35.296875 
" id="ArialMT-30"/>
      </defs>
      <g transform="translate(40.477912 261.898203)scale(0.075 -0.075)">
       <use xlink:href="#ArialMT-2212"/>
       <use x="58.398438" xlink:href="#ArialMT-31"/>
       <use x="114.013672" xlink:href="#ArialMT-30"/>
       <use x="169.628906" xlink:href="#ArialMT-30"/>
      </g>
     </g>
    </g>
    <g id="xtick_2">
     <g id="line2d_2">
      <g>
       <use style="stroke:#000000;stroke-width:0.85;" x="73.246156" xlink:href="#m4a1cad1f1a" y="249.529844"/>
      </g>
     </g>
     <g id="text_2">
      <!-- −75 -->
      <defs>
       <path d="M 4.734375 62.203125 
L 4.734375 70.65625 
L 51.078125 70.65625 
L 51.078125 63.8125 
Q 44.234375 56.546875 37.515625 44.484375 
Q 30.8125 32.421875 27.15625 19.671875 
Q 24.515625 10.6875 23.78125 0 
L 14.75 0 
Q 14.890625 8.453125 18.0625 20.40625 
Q 21.234375 32.375 27.171875 43.484375 
Q 33.109375 54.59375 39.796875 62.203125 
z
" id="ArialMT-37"/>
       <path d="M 4.15625 18.75 
L 13.375 19.53125 
Q 14.40625 12.796875 18.140625 9.390625 
Q 21.875 6 27.15625 6 
Q 33.5 6 37.890625 10.78125 
Q 42.28125 15.578125 42.28125 23.484375 
Q 42.28125 31 38.0625 35.34375 
Q 33.84375 39.703125 27 39.703125 
Q 22.75 39.703125 19.328125 37.765625 
Q 15.921875 35.84375 13.96875 32.765625 
L 5.71875 33.84375 
L 12.640625 70.609375 
L 48.25 70.609375 
L 48.25 62.203125 
L 19.671875 62.203125 
L 15.828125 42.96875 
Q 22.265625 47.46875 29.34375 47.46875 
Q 38.71875 47.46875 45.15625 40.96875 
Q 51.609375 34.46875 51.609375 24.265625 
Q 51.609375 14.546875 45.953125 7.46875 
Q 39.0625 -1.21875 27.15625 -1.21875 
Q 17.390625 -1.21875 11.203125 4.25 
Q 5.03125 9.71875 4.15625 18.75 
" id="ArialMT-35"/>
      </defs>
      <g transform="translate(66.885219 261.898203)scale(0.075 -0.075)">
       <use xlink:href="#ArialMT-2212"/>
       <use x="58.398438" xlink:href="#ArialMT-37"/>
       <use x="114.013672" xlink:href="#ArialMT-35"/>
      </g>
     </g>
    </g>
    <g id="xtick_3">
     <g id="line2d_3">
      <g>
       <use style="stroke:#000000;stroke-width:0.85;" x="97.568112" xlink:href="#m4a1cad1f1a" y="249.529844"/>
      </g>
     </g>
     <g id="text_3">
      <!-- −50 -->
      <g transform="translate(91.207174 261.898203)scale(0.075 -0.075)">
       <use xlink:href="#ArialMT-2212"/>
       <use x="58.398438" xlink:href="#ArialMT-35"/>
       <use x="114.013672" xlink:href="#ArialMT-30"/>
      </g>
     </g>
    </g>
    <g id="xtick_4">
     <g id="line2d_4">
      <g>
       <use style="stroke:#000000;stroke-width:0.85;" x="121.890067" xlink:href="#m4a1cad1f1a" y="249.529844"/>
      </g>
     </g>
     <g id="text_4">
      <!-- −25 -->
      <defs>
       <path d="M 50.34375 8.453125 
L 50.34375 0 
L 3.03125 0 
Q 2.9375 3.171875 4.046875 6.109375 
Q 5.859375 10.9375 9.828125 15.625 
Q 13.8125 20.3125 21.34375 26.46875 
Q 33.015625 36.03125 37.109375 41.625 
Q 41.21875 47.21875 41.21875 52.203125 
Q 41.21875 57.421875 37.46875 61 
Q 33.734375 64.59375 27.734375 64.59375 
Q 21.390625 64.59375 17.578125 60.78125 
Q 13.765625 56.984375 13.71875 50.25 
L 4.6875 51.171875 
Q 5.609375 61.28125 11.65625 66.578125 
Q 17.71875 71.875 27.9375 71.875 
Q 38.234375 71.875 44.234375 66.15625 
Q 50.25 60.453125 50.25 52 
Q 50.25 47.703125 48.484375 43.546875 
Q 46.734375 39.40625 42.65625 34.8125 
Q 38.578125 30.21875 29.109375 22.21875 
Q 21.1875 15.578125 18.9375 13.203125 
Q 16.703125 10.84375 15.234375 8.453125 
z
" id="ArialMT-32"/>
      </defs>
      <g transform="translate(115.52913 261.898203)scale(0.075 -0.075)">
       <use xlink:href="#ArialMT-2212"/>
       <use x="58.398438" xlink:href="#ArialMT-32"/>
       <use x="114.013672" xlink:href="#ArialMT-35"/>
      </g>
     </g>
    </g>
    <g id="xtick_5">
     <g id="line2d_5">
      <g>
       <use style="stroke:#000000;stroke-width:0.85;" x="146.212022" xlink:href="#m4a1cad1f1a" y="249.529844"/>
      </g>
     </g>
     <g id="text_5">
      <!-- 0 -->
      <g transform="translate(144.126671 261.898203)scale(0.075 -0.075)">
       <use xlink:href="#ArialMT-30"/>
      </g>
     </g>
    </g>
    <g id="xtick_6">
     <g id="line2d_6">
      <g>
       <use style="stroke:#000000;stroke-width:0.85;" x="170.533978" xlink:href="#m4a1cad1f1a" y="249.529844"/>
      </g>
     </g>
     <g id="text_6">
      <!-- 25 -->
      <g transform="translate(166.363275 261.898203)scale(0.075 -0.075)">
       <use xlink:href="#ArialMT-32"/>
       <use x="55.615234" xlink:href="#ArialMT-35"/>
      </g>
     </g>
    </g>
    <g id="xtick_7">
     <g id="line2d_7">
      <g>
       <use style="stroke:#000000;stroke-width:0.85;" x="194.855933" xlink:href="#m4a1cad1f1a" y="249.529844"/>
      </g>
     </g>
     <g id="text_7">
      <!-- 50 -->
      <g transform="translate(190.68523 261.898203)scale(0.075 -0.075)">
       <use xlink:href="#ArialMT-35"/>
       <use x="55.615234" xlink:href="#ArialMT-30"/>
      </g>
     </g>
    </g>
    <g id="xtick_8">
     <g id="line2d_8">
      <g>
       <use style="stroke:#000000;stroke-width:0.85;" x="219.177888" xlink:href="#m4a1cad1f1a" y="249.529844"/>
      </g>
     </g>
     <g id="text_8">
      <!-- 75 -->
      <g transform="translate(215.007185 261.898203)scale(0.075 -0.075)">
       <use xlink:href="#ArialMT-37"/>
       <use x="55.615234" xlink:href="#ArialMT-35"/>
      </g>
     </g>
    </g>
    <g id="xtick_9">
     <g id="line2d_9">
      <g>
       <use style="stroke:#000000;stroke-width:0.85;" x="243.499844" xlink:href="#m4a1cad1f1a" y="249.529844"/>
      </g>
     </g>
     <g id="text_9">
      <!-- 100 -->
      <g transform="translate(237.243789 261.898203)scale(0.075 -0.075)">
       <use xlink:href="#ArialMT-31"/>
       <use x="55.615234" xlink:href="#ArialMT-30"/>
       <use x="111.230469" xlink:href="#ArialMT-30"/>
      </g>
     </g>
    </g>
    <g id="text_10">
     <!-- $V_{\mathrm{g}}$ (V) -->
     <defs>
      <path d="M 26.171875 0 
L 12.40625 71.578125 
L 21.625 71.578125 
L 29.9375 28.90625 
Q 32.234375 17.28125 32.90625 10.15625 
Q 37.40625 19.34375 40.28125 24.703125 
L 65.828125 71.578125 
L 75.6875 71.578125 
L 36.421875 0 
z
" id="Arial-ItalicMT-56"/>
      <path d="M 4.984375 -4.296875 
L 13.53125 -5.5625 
Q 14.0625 -9.515625 16.5 -11.328125 
Q 19.78125 -13.765625 25.4375 -13.765625 
Q 31.546875 -13.765625 34.859375 -11.328125 
Q 38.1875 -8.890625 39.359375 -4.5 
Q 40.046875 -1.8125 39.984375 6.78125 
Q 34.234375 0 25.640625 0 
Q 14.9375 0 9.078125 7.71875 
Q 3.21875 15.4375 3.21875 26.21875 
Q 3.21875 33.640625 5.90625 39.90625 
Q 8.59375 46.1875 13.6875 49.609375 
Q 18.796875 53.03125 25.6875 53.03125 
Q 34.859375 53.03125 40.828125 45.609375 
L 40.828125 51.859375 
L 48.921875 51.859375 
L 48.921875 7.03125 
Q 48.921875 -5.078125 46.453125 -10.125 
Q 44 -15.1875 38.640625 -18.109375 
Q 33.296875 -21.046875 25.484375 -21.046875 
Q 16.21875 -21.046875 10.5 -16.875 
Q 4.78125 -12.703125 4.984375 -4.296875 
M 12.25 26.859375 
Q 12.25 16.65625 16.296875 11.96875 
Q 20.359375 7.28125 26.46875 7.28125 
Q 32.515625 7.28125 36.609375 11.9375 
Q 40.71875 16.609375 40.71875 26.5625 
Q 40.71875 36.078125 36.5 40.90625 
Q 32.28125 45.75 26.3125 45.75 
Q 20.453125 45.75 16.34375 40.984375 
Q 12.25 36.234375 12.25 26.859375 
" id="ArialMT-67"/>
      <path id="ArialMT-20"/>
      <path d="M 23.390625 -21.046875 
Q 16.109375 -11.859375 11.078125 0.4375 
Q 6.0625 12.75 6.0625 25.921875 
Q 6.0625 37.546875 9.8125 48.1875 
Q 14.203125 60.546875 23.390625 72.796875 
L 29.6875 72.796875 
Q 23.78125 62.640625 21.875 58.296875 
Q 18.890625 51.5625 17.1875 44.234375 
Q 15.09375 35.109375 15.09375 25.875 
Q 15.09375 2.390625 29.6875 -21.046875 
z
" id="ArialMT-28"/>
      <path d="M 28.171875 0 
L 0.4375 71.578125 
L 10.6875 71.578125 
L 29.296875 19.578125 
Q 31.546875 13.328125 33.0625 7.859375 
Q 34.71875 13.71875 36.921875 19.578125 
L 56.25 71.578125 
L 65.921875 71.578125 
L 37.890625 0 
z
" id="ArialMT-56"/>
      <path d="M 12.359375 -21.046875 
L 6.0625 -21.046875 
Q 20.65625 2.390625 20.65625 25.875 
Q 20.65625 35.0625 18.5625 44.09375 
Q 16.890625 51.421875 13.921875 58.15625 
Q 12.015625 62.546875 6.0625 72.796875 
L 12.359375 72.796875 
Q 21.53125 60.546875 25.921875 48.1875 
Q 29.6875 37.546875 29.6875 25.921875 
Q 29.6875 12.75 24.625 0.4375 
Q 19.578125 -11.859375 12.359375 -21.046875 
" id="ArialMT-29"/>
     </defs>
     <g transform="translate(136.012022 275.863828)scale(0.075 -0.075)">
      <use transform="translate(0 0.203125)" xlink:href="#Arial-ItalicMT-56"/>
      <use transform="translate(66.699219 -29.665625)scale(0.7)" xlink:href="#ArialMT-67"/>
      <use transform="translate(110.608008 0.203125)" xlink:href="#ArialMT-20"/>
      <use transform="translate(138.391211 0.203125)" xlink:href="#ArialMT-28"/>
      <use transform="translate(171.691992 0.203125)" xlink:href="#ArialMT-56"/>
      <use transform="translate(238.391211 0.203125)" xlink:href="#ArialMT-29"/>
     </g>
    </g>
   </g>
   <g id="matplotlib.axis_2">
    <g id="ytick_1">
     <g id="line2d_10">
      <defs>
       <path d="M 0 0 
L -3.5 0 
" id="mc62c40a1fd" style="stroke:#000000;stroke-width:0.85;"/>
      </defs>
      <g>
       <use style="stroke:#000000;stroke-width:0.85;" x="48.924201" xlink:href="#mc62c40a1fd" y="210.121726"/>
      </g>
     </g>
     <g id="text_11">
      <!-- ${10^{-8}}$ -->
      <defs>
       <path d="M 17.671875 38.8125 
Q 12.203125 40.828125 9.5625 44.53125 
Q 6.9375 48.25 6.9375 53.421875 
Q 6.9375 61.234375 12.546875 66.546875 
Q 18.171875 71.875 27.484375 71.875 
Q 36.859375 71.875 42.578125 66.421875 
Q 48.296875 60.984375 48.296875 53.171875 
Q 48.296875 48.1875 45.671875 44.5 
Q 43.0625 40.828125 37.75 38.8125 
Q 44.34375 36.671875 47.78125 31.875 
Q 51.21875 27.09375 51.21875 20.453125 
Q 51.21875 11.28125 44.71875 5.03125 
Q 38.234375 -1.21875 27.640625 -1.21875 
Q 17.046875 -1.21875 10.546875 5.046875 
Q 4.046875 11.328125 4.046875 20.703125 
Q 4.046875 27.6875 7.59375 32.390625 
Q 11.140625 37.109375 17.671875 38.8125 
M 15.921875 53.71875 
Q 15.921875 48.640625 19.1875 45.40625 
Q 22.46875 42.1875 27.6875 42.1875 
Q 32.765625 42.1875 36.015625 45.375 
Q 39.265625 48.578125 39.265625 53.21875 
Q 39.265625 58.0625 35.90625 61.359375 
Q 32.5625 64.65625 27.59375 64.65625 
Q 22.5625 64.65625 19.234375 61.421875 
Q 15.921875 58.203125 15.921875 53.71875 
M 13.09375 20.65625 
Q 13.09375 16.890625 14.875 13.375 
Q 16.65625 9.859375 20.171875 7.921875 
Q 23.6875 6 27.734375 6 
Q 34.03125 6 38.125 10.046875 
Q 42.234375 14.109375 42.234375 20.359375 
Q 42.234375 26.703125 38.015625 30.859375 
Q 33.796875 35.015625 27.4375 35.015625 
Q 21.234375 35.015625 17.15625 30.90625 
Q 13.09375 26.8125 13.09375 20.65625 
" id="ArialMT-38"/>
      </defs>
      <g transform="translate(27.074201 213.988914)scale(0.075 -0.075)">
       <use transform="translate(0 0.99375)" xlink:href="#ArialMT-31"/>
       <use transform="translate(55.615234 0.99375)" xlink:href="#ArialMT-30"/>
       <use transform="translate(112.972813 70.6875)scale(0.7)" xlink:href="#ArialMT-2212"/>
       <use transform="translate(153.851719 70.6875)scale(0.7)" xlink:href="#ArialMT-38"/>
      </g>
     </g>
    </g>
    <g id="ytick_2">
     <g id="line2d_11">
      <g>
       <use style="stroke:#000000;stroke-width:0.85;" x="48.924201" xlink:href="#mc62c40a1fd" y="147.683677"/>
      </g>
     </g>
     <g id="text_12">
      <!-- ${10^{-7}}$ -->
      <g transform="translate(27.074201 151.513365)scale(0.075 -0.075)">
       <use transform="translate(0 0.846875)" xlink:href="#ArialMT-31"/>
       <use transform="translate(55.615234 0.846875)" xlink:href="#ArialMT-30"/>
       <use transform="translate(112.972813 70.540625)scale(0.7)" xlink:href="#ArialMT-2212"/>
       <use transform="translate(153.851719 70.540625)scale(0.7)" xlink:href="#ArialMT-37"/>
      </g>
     </g>
    </g>
    <g id="ytick_3">
     <g id="line2d_12">
      <g>
       <use style="stroke:#000000;stroke-width:0.85;" x="48.924201" xlink:href="#mc62c40a1fd" y="85.245628"/>
      </g>
     </g>
     <g id="text_13">
      <!-- ${10^{-6}}$ -->
      <defs>
       <path d="M 49.75 54.046875 
L 41.015625 53.375 
Q 39.84375 58.546875 37.703125 60.890625 
Q 34.125 64.65625 28.90625 64.65625 
Q 24.703125 64.65625 21.53125 62.3125 
Q 17.390625 59.28125 14.984375 53.46875 
Q 12.59375 47.65625 12.5 36.921875 
Q 15.671875 41.75 20.265625 44.09375 
Q 24.859375 46.4375 29.890625 46.4375 
Q 38.671875 46.4375 44.84375 39.96875 
Q 51.03125 33.5 51.03125 23.25 
Q 51.03125 16.5 48.125 10.71875 
Q 45.21875 4.9375 40.140625 1.859375 
Q 35.0625 -1.21875 28.609375 -1.21875 
Q 17.625 -1.21875 10.6875 6.859375 
Q 3.765625 14.9375 3.765625 33.5 
Q 3.765625 54.25 11.421875 63.671875 
Q 18.109375 71.875 29.4375 71.875 
Q 37.890625 71.875 43.28125 67.140625 
Q 48.6875 62.40625 49.75 54.046875 
M 13.875 23.1875 
Q 13.875 18.65625 15.796875 14.5 
Q 17.71875 10.359375 21.1875 8.171875 
Q 24.65625 6 28.46875 6 
Q 34.03125 6 38.03125 10.484375 
Q 42.046875 14.984375 42.046875 22.703125 
Q 42.046875 30.125 38.078125 34.390625 
Q 34.125 38.671875 28.125 38.671875 
Q 22.171875 38.671875 18.015625 34.390625 
Q 13.875 30.125 13.875 23.1875 
" id="ArialMT-36"/>
      </defs>
      <g transform="translate(27.074201 89.112815)scale(0.075 -0.075)">
       <use transform="translate(0 0.99375)" xlink:href="#ArialMT-31"/>
       <use transform="translate(55.615234 0.99375)" xlink:href="#ArialMT-30"/>
       <use transform="translate(112.972813 70.6875)scale(0.7)" xlink:href="#ArialMT-2212"/>
       <use transform="translate(153.851719 70.6875)scale(0.7)" xlink:href="#ArialMT-36"/>
      </g>
     </g>
    </g>
    <g id="ytick_4">
     <g id="line2d_13">
      <g>
       <use style="stroke:#000000;stroke-width:0.85;" x="48.924201" xlink:href="#mc62c40a1fd" y="22.807579"/>
      </g>
     </g>
     <g id="text_14">
      <!-- ${10^{-5}}$ -->
      <g transform="translate(27.074201 26.637266)scale(0.075 -0.075)">
       <use transform="translate(0 0.879688)" xlink:href="#ArialMT-31"/>
       <use transform="translate(55.615234 0.879688)" xlink:href="#ArialMT-30"/>
       <use transform="translate(112.972813 70.573438)scale(0.7)" xlink:href="#ArialMT-2212"/>
       <use transform="translate(153.851719 70.573438)scale(0.7)" xlink:href="#ArialMT-35"/>
      </g>
     </g>
    </g>
    <g id="ytick_5">
     <g id="line2d_14">
      <defs>
       <path d="M 0 0 
L -1.8 0 
" id="md1ac21a7f7" style="stroke:#000000;stroke-width:0.85;"/>
      </defs>
      <g>
       <use style="stroke:#000000;stroke-width:0.85;" x="48.924201" xlink:href="#md1ac21a7f7" y="242.769255"/>
      </g>
     </g>
    </g>
    <g id="ytick_6">
     <g id="line2d_15">
      <g>
       <use style="stroke:#000000;stroke-width:0.85;" x="48.924201" xlink:href="#md1ac21a7f7" y="234.968324"/>
      </g>
     </g>
    </g>
    <g id="ytick_7">
     <g id="line2d_16">
      <g>
       <use style="stroke:#000000;stroke-width:0.85;" x="48.924201" xlink:href="#md1ac21a7f7" y="228.917452"/>
      </g>
     </g>
    </g>
    <g id="ytick_8">
     <g id="line2d_17">
      <g>
       <use style="stroke:#000000;stroke-width:0.85;" x="48.924201" xlink:href="#md1ac21a7f7" y="223.973529"/>
      </g>
     </g>
    </g>
    <g id="ytick_9">
     <g id="line2d_18">
      <g>
       <use style="stroke:#000000;stroke-width:0.85;" x="48.924201" xlink:href="#md1ac21a7f7" y="219.793502"/>
      </g>
     </g>
    </g>
    <g id="ytick_10">
     <g id="line2d_19">
      <g>
       <use style="stroke:#000000;stroke-width:0.85;" x="48.924201" xlink:href="#md1ac21a7f7" y="216.172598"/>
      </g>
     </g>
    </g>
    <g id="ytick_11">
     <g id="line2d_20">
      <g>
       <use style="stroke:#000000;stroke-width:0.85;" x="48.924201" xlink:href="#md1ac21a7f7" y="212.978735"/>
      </g>
     </g>
    </g>
    <g id="ytick_12">
     <g id="line2d_21">
      <g>
       <use style="stroke:#000000;stroke-width:0.85;" x="48.924201" xlink:href="#md1ac21a7f7" y="191.326"/>
      </g>
     </g>
    </g>
    <g id="ytick_13">
     <g id="line2d_22">
      <g>
       <use style="stroke:#000000;stroke-width:0.85;" x="48.924201" xlink:href="#md1ac21a7f7" y="180.331206"/>
      </g>
     </g>
    </g>
    <g id="ytick_14">
     <g id="line2d_23">
      <g>
       <use style="stroke:#000000;stroke-width:0.85;" x="48.924201" xlink:href="#md1ac21a7f7" y="172.530275"/>
      </g>
     </g>
    </g>
    <g id="ytick_15">
     <g id="line2d_24">
      <g>
       <use style="stroke:#000000;stroke-width:0.85;" x="48.924201" xlink:href="#md1ac21a7f7" y="166.479403"/>
      </g>
     </g>
    </g>
    <g id="ytick_16">
     <g id="line2d_25">
      <g>
       <use style="stroke:#000000;stroke-width:0.85;" x="48.924201" xlink:href="#md1ac21a7f7" y="161.53548"/>
      </g>
     </g>
    </g>
    <g id="ytick_17">
     <g id="line2d_26">
      <g>
       <use style="stroke:#000000;stroke-width:0.85;" x="48.924201" xlink:href="#md1ac21a7f7" y="157.355453"/>
      </g>
     </g>
    </g>
    <g id="ytick_18">
     <g id="line2d_27">
      <g>
       <use style="stroke:#000000;stroke-width:0.85;" x="48.924201" xlink:href="#md1ac21a7f7" y="153.734549"/>
      </g>
     </g>
    </g>
    <g id="ytick_19">
     <g id="line2d_28">
      <g>
       <use style="stroke:#000000;stroke-width:0.85;" x="48.924201" xlink:href="#md1ac21a7f7" y="150.540685"/>
      </g>
     </g>
    </g>
    <g id="ytick_20">
     <g id="line2d_29">
      <g>
       <use style="stroke:#000000;stroke-width:0.85;" x="48.924201" xlink:href="#md1ac21a7f7" y="128.887951"/>
      </g>
     </g>
    </g>
    <g id="ytick_21">
     <g id="line2d_30">
      <g>
       <use style="stroke:#000000;stroke-width:0.85;" x="48.924201" xlink:href="#md1ac21a7f7" y="117.893157"/>
      </g>
     </g>
    </g>
    <g id="ytick_22">
     <g id="line2d_31">
      <g>
       <use style="stroke:#000000;stroke-width:0.85;" x="48.924201" xlink:href="#md1ac21a7f7" y="110.092226"/>
      </g>
     </g>
    </g>
    <g id="ytick_23">
     <g id="line2d_32">
      <g>
       <use style="stroke:#000000;stroke-width:0.85;" x="48.924201" xlink:href="#md1ac21a7f7" y="104.041354"/>
      </g>
     </g>
    </g>
    <g id="ytick_24">
     <g id="line2d_33">
      <g>
       <use style="stroke:#000000;stroke-width:0.85;" x="48.924201" xlink:href="#md1ac21a7f7" y="99.097431"/>
      </g>
     </g>
    </g>
    <g id="ytick_25">
     <g id="line2d_34">
      <g>
       <use style="stroke:#000000;stroke-width:0.85;" x="48.924201" xlink:href="#md1ac21a7f7" y="94.917404"/>
      </g>
     </g>
    </g>
    <g id="ytick_26">
     <g id="line2d_35">
      <g>
       <use style="stroke:#000000;stroke-width:0.85;" x="48.924201" xlink:href="#md1ac21a7f7" y="91.2965"/>
      </g>
     </g>
    </g>
    <g id="ytick_27">
     <g id="line2d_36">
      <g>
       <use style="stroke:#000000;stroke-width:0.85;" x="48.924201" xlink:href="#md1ac21a7f7" y="88.102636"/>
      </g>
     </g>
    </g>
    <g id="ytick_28">
     <g id="line2d_37">
      <g>
       <use style="stroke:#000000;stroke-width:0.85;" x="48.924201" xlink:href="#md1ac21a7f7" y="66.449902"/>
      </g>
     </g>
    </g>
    <g id="ytick_29">
     <g id="line2d_38">
      <g>
       <use style="stroke:#000000;stroke-width:0.85;" x="48.924201" xlink:href="#md1ac21a7f7" y="55.455108"/>
      </g>
     </g>
    </g>
    <g id="ytick_30">
     <g id="line2d_39">
      <g>
       <use style="stroke:#000000;stroke-width:0.85;" x="48.924201" xlink:href="#md1ac21a7f7" y="47.654177"/>
      </g>
     </g>
    </g>
    <g id="ytick_31">
     <g id="line2d_40">
      <g>
       <use style="stroke:#000000;stroke-width:0.85;" x="48.924201" xlink:href="#md1ac21a7f7" y="41.603305"/>
      </g>
     </g>
    </g>
    <g id="ytick_32">
     <g id="line2d_41">
      <g>
       <use style="stroke:#000000;stroke-width:0.85;" x="48.924201" xlink:href="#md1ac21a7f7" y="36.659382"/>
      </g>
     </g>
    </g>
    <g id="ytick_33">
     <g id="line2d_42">
      <g>
       <use style="stroke:#000000;stroke-width:0.85;" x="48.924201" xlink:href="#md1ac21a7f7" y="32.479355"/>
      </g>
     </g>
    </g>
    <g id="ytick_34">
     <g id="line2d_43">
      <g>
       <use style="stroke:#000000;stroke-width:0.85;" x="48.924201" xlink:href="#md1ac21a7f7" y="28.858451"/>
      </g>
     </g>
    </g>
    <g id="ytick_35">
     <g id="line2d_44">
      <g>
       <use style="stroke:#000000;stroke-width:0.85;" x="48.924201" xlink:href="#md1ac21a7f7" y="25.664587"/>
      </g>
     </g>
    </g>
    <g id="text_15">
     <!-- $I_{\mathrm{d}}$ Transistor (A) -->
     <defs>
      <path d="M 5.71875 0 
L 20.703125 71.578125 
L 30.21875 71.578125 
L 15.28125 0 
z
" id="Arial-ItalicMT-49"/>
      <path d="M 40.234375 0 
L 40.234375 6.546875 
Q 35.296875 -1.171875 25.734375 -1.171875 
Q 19.53125 -1.171875 14.328125 2.25 
Q 9.125 5.671875 6.265625 11.796875 
Q 3.421875 17.921875 3.421875 25.875 
Q 3.421875 33.640625 6 39.96875 
Q 8.59375 46.296875 13.765625 49.65625 
Q 18.953125 53.03125 25.34375 53.03125 
Q 30.03125 53.03125 33.6875 51.046875 
Q 37.359375 49.078125 39.65625 45.90625 
L 39.65625 71.578125 
L 48.390625 71.578125 
L 48.390625 0 
z
M 12.453125 25.875 
Q 12.453125 15.921875 16.640625 10.984375 
Q 20.84375 6.0625 26.5625 6.0625 
Q 32.328125 6.0625 36.34375 10.765625 
Q 40.375 15.484375 40.375 25.140625 
Q 40.375 35.796875 36.265625 40.765625 
Q 32.171875 45.75 26.171875 45.75 
Q 20.3125 45.75 16.375 40.96875 
Q 12.453125 36.1875 12.453125 25.875 
" id="ArialMT-64"/>
      <path d="M 25.921875 0 
L 25.921875 63.140625 
L 2.34375 63.140625 
L 2.34375 71.578125 
L 59.078125 71.578125 
L 59.078125 63.140625 
L 35.40625 63.140625 
L 35.40625 0 
z
" id="ArialMT-54"/>
      <path d="M 6.5 0 
L 6.5 51.859375 
L 14.40625 51.859375 
L 14.40625 44 
Q 17.4375 49.515625 20 51.265625 
Q 22.5625 53.03125 25.640625 53.03125 
Q 30.078125 53.03125 34.671875 50.203125 
L 31.640625 42.046875 
Q 28.421875 43.953125 25.203125 43.953125 
Q 22.3125 43.953125 20.015625 42.21875 
Q 17.71875 40.484375 16.75 37.40625 
Q 15.28125 32.71875 15.28125 27.15625 
L 15.28125 0 
z
" id="ArialMT-72"/>
      <path d="M 40.4375 6.390625 
Q 35.546875 2.25 31.03125 0.53125 
Q 26.515625 -1.171875 21.34375 -1.171875 
Q 12.796875 -1.171875 8.203125 3 
Q 3.609375 7.171875 3.609375 13.671875 
Q 3.609375 17.484375 5.34375 20.625 
Q 7.078125 23.78125 9.890625 25.6875 
Q 12.703125 27.59375 16.21875 28.5625 
Q 18.796875 29.25 24.03125 29.890625 
Q 34.671875 31.15625 39.703125 32.90625 
Q 39.75 34.71875 39.75 35.203125 
Q 39.75 40.578125 37.25 42.78125 
Q 33.890625 45.75 27.25 45.75 
Q 21.046875 45.75 18.09375 43.578125 
Q 15.140625 41.40625 13.71875 35.890625 
L 5.125 37.0625 
Q 6.296875 42.578125 8.984375 45.96875 
Q 11.671875 49.359375 16.75 51.1875 
Q 21.828125 53.03125 28.515625 53.03125 
Q 35.15625 53.03125 39.296875 51.46875 
Q 43.453125 49.90625 45.40625 47.53125 
Q 47.359375 45.171875 48.140625 41.546875 
Q 48.578125 39.3125 48.578125 33.453125 
L 48.578125 21.734375 
Q 48.578125 9.46875 49.140625 6.21875 
Q 49.703125 2.984375 51.375 0 
L 42.1875 0 
Q 40.828125 2.734375 40.4375 6.390625 
M 39.703125 26.03125 
Q 34.90625 24.078125 25.34375 22.703125 
Q 19.921875 21.921875 17.671875 20.9375 
Q 15.4375 19.96875 14.203125 18.09375 
Q 12.984375 16.21875 12.984375 13.921875 
Q 12.984375 10.40625 15.640625 8.0625 
Q 18.3125 5.71875 23.4375 5.71875 
Q 28.515625 5.71875 32.46875 7.9375 
Q 36.421875 10.15625 38.28125 14.015625 
Q 39.703125 17 39.703125 22.796875 
z
" id="ArialMT-61"/>
      <path d="M 6.59375 0 
L 6.59375 51.859375 
L 14.5 51.859375 
L 14.5 44.484375 
Q 20.21875 53.03125 31 53.03125 
Q 35.6875 53.03125 39.625 51.34375 
Q 43.5625 49.65625 45.515625 46.921875 
Q 47.46875 44.1875 48.25 40.4375 
Q 48.734375 37.984375 48.734375 31.890625 
L 48.734375 0 
L 39.9375 0 
L 39.9375 31.546875 
Q 39.9375 36.921875 38.90625 39.578125 
Q 37.890625 42.234375 35.28125 43.8125 
Q 32.671875 45.40625 29.15625 45.40625 
Q 23.53125 45.40625 19.453125 41.84375 
Q 15.375 38.28125 15.375 28.328125 
L 15.375 0 
z
" id="ArialMT-6e"/>
      <path d="M 3.078125 15.484375 
L 11.765625 16.84375 
Q 12.5 11.625 15.84375 8.84375 
Q 19.1875 6.0625 25.203125 6.0625 
Q 31.25 6.0625 34.171875 8.515625 
Q 37.109375 10.984375 37.109375 14.3125 
Q 37.109375 17.28125 34.515625 19 
Q 32.71875 20.171875 25.53125 21.96875 
Q 15.875 24.421875 12.140625 26.203125 
Q 8.40625 27.984375 6.46875 31.125 
Q 4.546875 34.28125 4.546875 38.09375 
Q 4.546875 41.546875 6.125 44.5 
Q 7.71875 47.46875 10.453125 49.421875 
Q 12.5 50.921875 16.03125 51.96875 
Q 19.578125 53.03125 23.640625 53.03125 
Q 29.734375 53.03125 34.34375 51.265625 
Q 38.96875 49.515625 41.15625 46.5 
Q 43.359375 43.5 44.1875 38.484375 
L 35.59375 37.3125 
Q 35.015625 41.3125 32.203125 43.546875 
Q 29.390625 45.796875 24.265625 45.796875 
Q 18.21875 45.796875 15.625 43.796875 
Q 13.03125 41.796875 13.03125 39.109375 
Q 13.03125 37.40625 14.109375 36.03125 
Q 15.1875 34.625 17.484375 33.6875 
Q 18.796875 33.203125 25.25 31.453125 
Q 34.578125 28.953125 38.25 27.359375 
Q 41.9375 25.78125 44.03125 22.75 
Q 46.140625 19.734375 46.140625 15.234375 
Q 46.140625 10.84375 43.578125 6.953125 
Q 41.015625 3.078125 36.171875 0.953125 
Q 31.34375 -1.171875 25.25 -1.171875 
Q 15.140625 -1.171875 9.84375 3.03125 
Q 4.546875 7.234375 3.078125 15.484375 
" id="ArialMT-73"/>
      <path d="M 6.640625 61.46875 
L 6.640625 71.578125 
L 15.4375 71.578125 
L 15.4375 61.46875 
z
M 6.640625 0 
L 6.640625 51.859375 
L 15.4375 51.859375 
L 15.4375 0 
z
" id="ArialMT-69"/>
      <path d="M 25.78125 7.859375 
L 27.046875 0.09375 
Q 23.34375 -0.6875 20.40625 -0.6875 
Q 15.625 -0.6875 12.984375 0.828125 
Q 10.359375 2.34375 9.28125 4.8125 
Q 8.203125 7.28125 8.203125 15.1875 
L 8.203125 45.015625 
L 1.765625 45.015625 
L 1.765625 51.859375 
L 8.203125 51.859375 
L 8.203125 64.703125 
L 16.9375 69.96875 
L 16.9375 51.859375 
L 25.78125 51.859375 
L 25.78125 45.015625 
L 16.9375 45.015625 
L 16.9375 14.703125 
Q 16.9375 10.9375 17.40625 9.859375 
Q 17.875 8.796875 18.921875 8.15625 
Q 19.96875 7.515625 21.921875 7.515625 
Q 23.390625 7.515625 25.78125 7.859375 
" id="ArialMT-74"/>
      <path d="M 3.328125 25.921875 
Q 3.328125 40.328125 11.328125 47.265625 
Q 18.015625 53.03125 27.640625 53.03125 
Q 38.328125 53.03125 45.109375 46.015625 
Q 51.90625 39.015625 51.90625 26.65625 
Q 51.90625 16.65625 48.90625 10.90625 
Q 45.90625 5.171875 40.15625 2 
Q 34.421875 -1.171875 27.640625 -1.171875 
Q 16.75 -1.171875 10.03125 5.8125 
Q 3.328125 12.796875 3.328125 25.921875 
M 12.359375 25.921875 
Q 12.359375 15.96875 16.703125 11.015625 
Q 21.046875 6.0625 27.640625 6.0625 
Q 34.1875 6.0625 38.53125 11.03125 
Q 42.875 16.015625 42.875 26.21875 
Q 42.875 35.84375 38.5 40.796875 
Q 34.125 45.75 27.640625 45.75 
Q 21.046875 45.75 16.703125 40.8125 
Q 12.359375 35.890625 12.359375 25.921875 
" id="ArialMT-6f"/>
      <path d="M -0.140625 0 
L 27.34375 71.578125 
L 37.546875 71.578125 
L 66.84375 0 
L 56.0625 0 
L 47.703125 21.6875 
L 17.78125 21.6875 
L 9.90625 0 
z
M 20.515625 29.390625 
L 44.78125 29.390625 
L 37.3125 49.21875 
Q 33.890625 58.25 32.234375 64.0625 
Q 30.859375 57.171875 28.375 50.390625 
z
" id="ArialMT-41"/>
     </defs>
     <g transform="translate(17.749201 156.594922)rotate(-90)scale(0.075 -0.075)">
      <use transform="translate(0 0.203125)" xlink:href="#Arial-ItalicMT-49"/>
      <use transform="translate(27.783203 -29.665625)scale(0.7)" xlink:href="#ArialMT-64"/>
      <use transform="translate(71.691992 0.203125)" xlink:href="#ArialMT-20"/>
      <use transform="translate(99.475195 0.203125)" xlink:href="#ArialMT-54"/>
      <use transform="translate(160.55918 0.203125)" xlink:href="#ArialMT-72"/>
      <use transform="translate(193.859961 0.203125)" xlink:href="#ArialMT-61"/>
      <use transform="translate(249.475195 0.203125)" xlink:href="#ArialMT-6e"/>
      <use transform="translate(305.09043 0.203125)" xlink:href="#ArialMT-73"/>
      <use transform="translate(355.09043 0.203125)" xlink:href="#ArialMT-69"/>
      <use transform="translate(377.307227 0.203125)" xlink:href="#ArialMT-73"/>
      <use transform="translate(427.307227 0.203125)" xlink:href="#ArialMT-74"/>
      <use transform="translate(455.09043 0.203125)" xlink:href="#ArialMT-6f"/>
      <use transform="translate(510.705664 0.203125)" xlink:href="#ArialMT-72"/>
      <use transform="translate(544.006445 0.203125)" xlink:href="#ArialMT-20"/>
      <use transform="translate(571.789648 0.203125)" xlink:href="#ArialMT-28"/>
      <use transform="translate(605.09043 0.203125)" xlink:href="#ArialMT-41"/>
      <use transform="translate(671.789648 0.203125)" xlink:href="#ArialMT-29"/>
     </g>
    </g>
   </g>
   <g id="line2d_45">
    <path clip-path="url(#pfd05a64a32)" d="M 48.924201 213.668355 
L 49.897079 212.951632 
L 50.869958 211.976113 
L 51.842836 211.874677 
L 53.788592 209.956818 
L 54.76147 210.181448 
L 55.734349 209.149609 
L 56.707227 208.747106 
L 57.680105 207.769966 
L 58.652983 208.067472 
L 59.625862 207.301621 
L 60.59874 206.284753 
L 61.571618 205.697974 
L 62.544496 204.687389 
L 63.517374 204.391634 
L 64.490253 203.485004 
L 65.463131 203.193608 
L 67.408887 202.252412 
L 69.354644 200.714538 
L 70.327522 199.975252 
L 71.3004 199.746795 
L 72.273278 198.597044 
L 73.246156 197.859063 
L 74.219035 197.553705 
L 76.164791 195.5977 
L 77.137669 194.878811 
L 78.110548 193.890827 
L 79.083426 193.285118 
L 81.029182 191.35856 
L 85.893573 186.799937 
L 88.812208 183.560344 
L 89.785086 183.294881 
L 90.757964 182.053319 
L 95.622355 177.137342 
L 96.595234 176.474624 
L 97.568112 175.258035 
L 98.54099 174.875425 
L 99.513868 173.398887 
L 100.486746 172.585921 
L 101.459625 171.453061 
L 102.432503 170.850641 
L 105.351138 168.398325 
L 107.296894 166.58972 
L 108.269772 165.965829 
L 110.215529 164.074983 
L 111.188407 163.329443 
L 117.998554 156.803668 
L 118.971432 156.000357 
L 119.944311 154.7052 
L 120.917189 153.837788 
L 124.808702 149.393561 
L 125.78158 148.158002 
L 126.754458 146.720195 
L 127.727336 145.508777 
L 131.618849 139.496323 
L 134.537484 134.2547 
L 136.48324 130.241194 
L 138.428997 125.853155 
L 140.374753 121.021782 
L 142.32051 115.757243 
L 145.239144 106.85092 
L 148.157779 96.841442 
L 152.049292 82.403782 
L 155.940805 67.924273 
L 157.886561 61.306393 
L 159.832317 55.326969 
L 161.778074 49.919689 
L 163.72383 45.2839 
L 165.669587 41.308315 
L 167.615343 37.950368 
L 169.5611 35.048184 
L 171.506856 32.568327 
L 173.452612 30.425245 
L 175.398369 28.541891 
L 178.317003 26.153848 
L 181.235638 24.16105 
L 184.154273 22.446042 
L 187.072907 20.988884 
L 190.96442 19.32505 
L 194.855933 17.922699 
L 200.693202 16.25889 
L 207.50335 14.703961 
L 215.286376 13.341992 
L 225.988036 12.067972 
L 239.608331 10.935188 
L 243.499844 10.71 
L 243.499844 10.71 
" style="fill:none;stroke:#4286f4;stroke-linecap:square;stroke-width:0.85;"/>
   </g>
   <g id="line2d_46">
    <path clip-path="url(#pfd05a64a32)" d="M 48.924201 246.317944 
L 49.897079 247.507871 
L 50.869958 248.944697 
L 51.842836 249.529844 
L 52.815714 248.128513 
L 54.76147 246.911646 
L 55.734349 242.445794 
L 56.707227 238.511863 
L 57.680105 243.096621 
L 58.652983 245.90894 
L 59.625862 246.483289 
L 60.59874 245.75714 
L 61.571618 246.597552 
L 62.544496 245.827874 
L 63.517374 243.520757 
L 64.490253 243.810376 
L 65.463131 243.114924 
L 66.436009 241.976501 
L 67.408887 240.432417 
L 68.381765 239.160782 
L 69.354644 236.95077 
L 70.327522 236.402068 
L 71.3004 235.254552 
L 72.273278 232.501193 
L 73.246156 231.072568 
L 74.219035 230.365494 
L 75.191913 228.449683 
L 76.164791 226.024132 
L 77.137669 224.711096 
L 78.110548 222.775621 
L 79.083426 221.143651 
L 80.056304 218.770978 
L 81.029182 217.124636 
L 82.00206 215.079753 
L 82.974939 214.148527 
L 83.947817 212.075014 
L 84.920695 209.728687 
L 85.893573 208.097654 
L 86.866451 206.097095 
L 87.83933 204.782983 
L 89.785086 201.252704 
L 90.757964 199.845 
L 91.730843 197.77982 
L 93.676599 194.700109 
L 94.649477 193.647508 
L 100.486746 185.077358 
L 101.459625 184.047314 
L 102.432503 182.740985 
L 103.405381 181.910188 
L 107.296894 177.160652 
L 110.215529 174.342592 
L 111.188407 173.380694 
L 112.161285 172.24972 
L 113.134163 171.548349 
L 114.107041 170.509978 
L 117.025676 168.12611 
L 117.998554 167.658193 
L 118.971432 166.551629 
L 119.944311 165.816175 
L 120.917189 165.250033 
L 124.808702 162.222938 
L 125.78158 161.792493 
L 126.754458 161.165614 
L 127.727336 160.321145 
L 128.700215 159.738009 
L 129.673093 159.387956 
L 130.645971 158.598731 
L 133.564606 156.86637 
L 134.537484 156.172622 
L 135.510362 155.863621 
L 138.428997 154.053683 
L 141.347631 152.706243 
L 142.32051 152.207634 
L 143.293388 151.870755 
L 144.266266 151.335279 
L 145.239144 150.960916 
L 146.212022 150.426435 
L 148.157779 149.642211 
L 151.076414 148.324079 
L 152.049292 147.958398 
L 153.02217 147.446096 
L 155.940805 146.60034 
L 157.886561 145.804698 
L 158.859439 145.3792 
L 159.832317 145.13941 
L 160.805196 144.705431 
L 161.778074 144.505726 
L 171.506856 141.074142 
L 173.452612 140.381158 
L 179.289882 138.039085 
L 181.235638 137.271596 
L 186.100029 134.812518 
L 189.018664 133.08041 
L 191.937298 131.25277 
L 194.855933 129.188571 
L 199.720324 124.997716 
L 204.584715 119.630203 
L 206.530472 117.168697 
L 209.449106 112.901972 
L 211.394863 109.762402 
L 214.313497 104.3255 
L 216.259254 100.371501 
L 219.177888 93.700291 
L 226.960914 74.674063 
L 228.906671 70.476703 
L 229.879549 68.355876 
L 231.825305 65.089076 
L 234.74394 60.541167 
L 236.689696 58.218975 
L 240.581209 53.919351 
L 243.499844 51.534779 
L 243.499844 51.534779 
" style="fill:none;stroke:#f49b41;stroke-linecap:square;stroke-width:0.85;"/>
   </g>
   <g id="patch_3">
    <path d="M 48.924201 249.529844 
L 48.924201 10.71 
" style="fill:none;stroke:#000000;stroke-linecap:square;stroke-linejoin:miter;stroke-width:0.85;"/>
   </g>
   <g id="patch_4">
    <path d="M 243.499844 249.529844 
L 243.499844 10.71 
" style="fill:none;stroke:#000000;stroke-linecap:square;stroke-linejoin:miter;stroke-width:0.85;"/>
   </g>
   <g id="patch_5">
    <path d="M 48.924201 249.529844 
L 243.499844 249.529844 
" style="fill:none;stroke:#000000;stroke-linecap:square;stroke-linejoin:miter;stroke-width:0.85;"/>
   </g>
   <g id="patch_6">
    <path d="M 48.924201 10.71 
L 243.499844 10.71 
" style="fill:none;stroke:#000000;stroke-linecap:square;stroke-linejoin:miter;stroke-width:0.85;"/>
   </g>
   <g id="legend_1">
    <g id="line2d_47">
     <path d="M 55.224201 19.570469 
L 69.224201 19.570469 
" style="fill:none;stroke:#4286f4;stroke-linecap:square;stroke-width:0.85;"/>
    </g>
    <g id="line2d_48"/>
    <g id="text_16">
     <!-- ots-1 -->
     <defs>
      <path d="M 3.171875 21.484375 
L 3.171875 30.328125 
L 30.171875 30.328125 
L 30.171875 21.484375 
z
" id="ArialMT-2d"/>
     </defs>
     <g transform="translate(74.824201 22.020469)scale(0.07 -0.07)">
      <use xlink:href="#ArialMT-6f"/>
      <use x="55.615234" xlink:href="#ArialMT-74"/>
      <use x="83.398438" xlink:href="#ArialMT-73"/>
      <use x="133.398438" xlink:href="#ArialMT-2d"/>
      <use x="166.699219" xlink:href="#ArialMT-31"/>
     </g>
    </g>
    <g id="line2d_49">
     <path d="M 55.224201 29.492969 
L 69.224201 29.492969 
" style="fill:none;stroke:#f49b41;stroke-linecap:square;stroke-width:0.85;"/>
    </g>
    <g id="line2d_50"/>
    <g id="text_17">
     <!-- plasma-1 -->
     <defs>
      <path d="M 6.59375 -19.875 
L 6.59375 51.859375 
L 14.59375 51.859375 
L 14.59375 45.125 
Q 17.4375 49.078125 21 51.046875 
Q 24.5625 53.03125 29.640625 53.03125 
Q 36.28125 53.03125 41.359375 49.609375 
Q 46.4375 46.1875 49.015625 39.953125 
Q 51.609375 33.734375 51.609375 26.3125 
Q 51.609375 18.359375 48.75 11.984375 
Q 45.90625 5.609375 40.453125 2.21875 
Q 35.015625 -1.171875 29 -1.171875 
Q 24.609375 -1.171875 21.109375 0.6875 
Q 17.625 2.546875 15.375 5.375 
L 15.375 -19.875 
z
M 14.546875 25.640625 
Q 14.546875 15.625 18.59375 10.84375 
Q 22.65625 6.0625 28.421875 6.0625 
Q 34.28125 6.0625 38.453125 11.015625 
Q 42.625 15.96875 42.625 26.375 
Q 42.625 36.28125 38.546875 41.203125 
Q 34.46875 46.140625 28.8125 46.140625 
Q 23.1875 46.140625 18.859375 40.890625 
Q 14.546875 35.640625 14.546875 25.640625 
" id="ArialMT-70"/>
      <path d="M 6.390625 0 
L 6.390625 71.578125 
L 15.1875 71.578125 
L 15.1875 0 
z
" id="ArialMT-6c"/>
      <path d="M 6.59375 0 
L 6.59375 51.859375 
L 14.453125 51.859375 
L 14.453125 44.578125 
Q 16.890625 48.390625 20.9375 50.703125 
Q 25 53.03125 30.171875 53.03125 
Q 35.9375 53.03125 39.625 50.640625 
Q 43.3125 48.25 44.828125 43.953125 
Q 50.984375 53.03125 60.84375 53.03125 
Q 68.5625 53.03125 72.703125 48.75 
Q 76.859375 44.484375 76.859375 35.59375 
L 76.859375 0 
L 68.109375 0 
L 68.109375 32.671875 
Q 68.109375 37.9375 67.25 40.25 
Q 66.40625 42.578125 64.15625 43.984375 
Q 61.921875 45.40625 58.890625 45.40625 
Q 53.421875 45.40625 49.796875 41.765625 
Q 46.1875 38.140625 46.1875 30.125 
L 46.1875 0 
L 37.40625 0 
L 37.40625 33.6875 
Q 37.40625 39.546875 35.25 42.46875 
Q 33.109375 45.40625 28.21875 45.40625 
Q 24.515625 45.40625 21.359375 43.453125 
Q 18.21875 41.5 16.796875 37.734375 
Q 15.375 33.984375 15.375 26.90625 
L 15.375 0 
z
" id="ArialMT-6d"/>
     </defs>
     <g transform="translate(74.824201 31.942969)scale(0.07 -0.07)">
      <use xlink:href="#ArialMT-70"/>
      <use x="55.615234" xlink:href="#ArialMT-6c"/>
      <use x="77.832031" xlink:href="#ArialMT-61"/>
      <use x="133.447266" xlink:href="#ArialMT-73"/>
      <use x="183.447266" xlink:href="#ArialMT-6d"/>
      <use x="266.748047" xlink:href="#ArialMT-61"/>
      <use x="322.363281" xlink:href="#ArialMT-2d"/>
      <use x="355.664062" xlink:href="#ArialMT-31"/>
     </g>
    </g>
   </g>
  </g>
  <g id="axes_2">
   <g id="matplotlib.axis_3">
    <g id="ytick_36">
     <g id="line2d_51">
      <defs>
       <path d="M 0 0 
L 3.5 0 
" id="m7221bbf34a" style="stroke:#000000;stroke-width:0.85;"/>
      </defs>
      <g>
       <use style="stroke:#000000;stroke-width:0.85;" x="243.499844" xlink:href="#m7221bbf34a" y="236.41143"/>
      </g>
     </g>
     <g id="text_18">
      <!-- 100 -->
      <g transform="translate(250.499844 239.095609)scale(0.075 -0.075)">
       <use xlink:href="#ArialMT-31"/>
       <use x="55.615234" xlink:href="#ArialMT-30"/>
       <use x="111.230469" xlink:href="#ArialMT-30"/>
      </g>
     </g>
    </g>
    <g id="ytick_37">
     <g id="line2d_52">
      <g>
       <use style="stroke:#000000;stroke-width:0.85;" x="243.499844" xlink:href="#m7221bbf34a" y="191.879099"/>
      </g>
     </g>
     <g id="text_19">
      <!-- 200 -->
      <g transform="translate(250.499844 194.563279)scale(0.075 -0.075)">
       <use xlink:href="#ArialMT-32"/>
       <use x="55.615234" xlink:href="#ArialMT-30"/>
       <use x="111.230469" xlink:href="#ArialMT-30"/>
      </g>
     </g>
    </g>
    <g id="ytick_38">
     <g id="line2d_53">
      <g>
       <use style="stroke:#000000;stroke-width:0.85;" x="243.499844" xlink:href="#m7221bbf34a" y="147.346769"/>
      </g>
     </g>
     <g id="text_20">
      <!-- 300 -->
      <defs>
       <path d="M 4.203125 18.890625 
L 12.984375 20.0625 
Q 14.5 12.59375 18.140625 9.296875 
Q 21.78125 6 27 6 
Q 33.203125 6 37.46875 10.296875 
Q 41.75 14.59375 41.75 20.953125 
Q 41.75 27 37.796875 30.921875 
Q 33.84375 34.859375 27.734375 34.859375 
Q 25.25 34.859375 21.53125 33.890625 
L 22.515625 41.609375 
Q 23.390625 41.5 23.921875 41.5 
Q 29.546875 41.5 34.03125 44.421875 
Q 38.53125 47.359375 38.53125 53.46875 
Q 38.53125 58.296875 35.25 61.46875 
Q 31.984375 64.65625 26.8125 64.65625 
Q 21.6875 64.65625 18.265625 61.421875 
Q 14.84375 58.203125 13.875 51.765625 
L 5.078125 53.328125 
Q 6.6875 62.15625 12.390625 67.015625 
Q 18.109375 71.875 26.609375 71.875 
Q 32.46875 71.875 37.390625 69.359375 
Q 42.328125 66.84375 44.9375 62.5 
Q 47.5625 58.15625 47.5625 53.265625 
Q 47.5625 48.640625 45.0625 44.828125 
Q 42.578125 41.015625 37.703125 38.765625 
Q 44.046875 37.3125 47.5625 32.6875 
Q 51.078125 28.078125 51.078125 21.140625 
Q 51.078125 11.765625 44.234375 5.25 
Q 37.40625 -1.265625 26.953125 -1.265625 
Q 17.53125 -1.265625 11.296875 4.34375 
Q 5.078125 9.96875 4.203125 18.890625 
" id="ArialMT-33"/>
      </defs>
      <g transform="translate(250.499844 150.030948)scale(0.075 -0.075)">
       <use xlink:href="#ArialMT-33"/>
       <use x="55.615234" xlink:href="#ArialMT-30"/>
       <use x="111.230469" xlink:href="#ArialMT-30"/>
      </g>
     </g>
    </g>
    <g id="ytick_39">
     <g id="line2d_54">
      <g>
       <use style="stroke:#000000;stroke-width:0.85;" x="243.499844" xlink:href="#m7221bbf34a" y="102.814438"/>
      </g>
     </g>
     <g id="text_21">
      <!-- 400 -->
      <defs>
       <path d="M 32.328125 0 
L 32.328125 17.140625 
L 1.265625 17.140625 
L 1.265625 25.203125 
L 33.9375 71.578125 
L 41.109375 71.578125 
L 41.109375 25.203125 
L 50.78125 25.203125 
L 50.78125 17.140625 
L 41.109375 17.140625 
L 41.109375 0 
z
M 32.328125 25.203125 
L 32.328125 57.46875 
L 9.90625 25.203125 
z
" id="ArialMT-34"/>
      </defs>
      <g transform="translate(250.499844 105.498618)scale(0.075 -0.075)">
       <use xlink:href="#ArialMT-34"/>
       <use x="55.615234" xlink:href="#ArialMT-30"/>
       <use x="111.230469" xlink:href="#ArialMT-30"/>
      </g>
     </g>
    </g>
    <g id="ytick_40">
     <g id="line2d_55">
      <g>
       <use style="stroke:#000000;stroke-width:0.85;" x="243.499844" xlink:href="#m7221bbf34a" y="58.282107"/>
      </g>
     </g>
     <g id="text_22">
      <!-- 500 -->
      <g transform="translate(250.499844 60.966287)scale(0.075 -0.075)">
       <use xlink:href="#ArialMT-35"/>
       <use x="55.615234" xlink:href="#ArialMT-30"/>
       <use x="111.230469" xlink:href="#ArialMT-30"/>
      </g>
     </g>
    </g>
    <g id="ytick_41">
     <g id="line2d_56">
      <g>
       <use style="stroke:#000000;stroke-width:0.85;" x="243.499844" xlink:href="#m7221bbf34a" y="13.749777"/>
      </g>
     </g>
     <g id="text_23">
      <!-- 600 -->
      <g transform="translate(250.499844 16.433957)scale(0.075 -0.075)">
       <use xlink:href="#ArialMT-36"/>
       <use x="55.615234" xlink:href="#ArialMT-30"/>
       <use x="111.230469" xlink:href="#ArialMT-30"/>
      </g>
     </g>
    </g>
    <g id="text_24">
     <!-- $I_{\mathrm{d}}$ Graphene ($\mathrm{\mu}$A) -->
     <defs>
      <path d="M 41.21875 28.078125 
L 41.21875 36.46875 
L 71.53125 36.53125 
L 71.53125 9.96875 
Q 64.546875 4.390625 57.125 1.578125 
Q 49.703125 -1.21875 41.890625 -1.21875 
Q 31.34375 -1.21875 22.71875 3.296875 
Q 14.109375 7.8125 9.71875 16.359375 
Q 5.328125 24.90625 5.328125 35.453125 
Q 5.328125 45.90625 9.6875 54.953125 
Q 14.0625 64.015625 22.265625 68.40625 
Q 30.46875 72.796875 41.15625 72.796875 
Q 48.921875 72.796875 55.1875 70.28125 
Q 61.46875 67.78125 65.03125 63.28125 
Q 68.609375 58.796875 70.453125 51.5625 
L 61.921875 49.21875 
Q 60.296875 54.6875 57.90625 57.8125 
Q 55.515625 60.9375 51.0625 62.8125 
Q 46.625 64.703125 41.21875 64.703125 
Q 34.71875 64.703125 29.984375 62.71875 
Q 25.25 60.75 22.34375 57.515625 
Q 19.4375 54.296875 17.828125 50.4375 
Q 15.09375 43.796875 15.09375 36.03125 
Q 15.09375 26.46875 18.390625 20.015625 
Q 21.6875 13.578125 27.984375 10.453125 
Q 34.28125 7.328125 41.359375 7.328125 
Q 47.515625 7.328125 53.375 9.6875 
Q 59.234375 12.0625 62.25 14.75 
L 62.25 28.078125 
z
" id="ArialMT-47"/>
      <path d="M 6.59375 0 
L 6.59375 71.578125 
L 15.375 71.578125 
L 15.375 45.90625 
Q 21.53125 53.03125 30.90625 53.03125 
Q 36.671875 53.03125 40.921875 50.75 
Q 45.171875 48.484375 47 44.484375 
Q 48.828125 40.484375 48.828125 32.859375 
L 48.828125 0 
L 40.046875 0 
L 40.046875 32.859375 
Q 40.046875 39.453125 37.1875 42.453125 
Q 34.328125 45.453125 29.109375 45.453125 
Q 25.203125 45.453125 21.75 43.421875 
Q 18.3125 41.40625 16.84375 37.9375 
Q 15.375 34.46875 15.375 28.375 
L 15.375 0 
z
" id="ArialMT-68"/>
      <path d="M 42.09375 16.703125 
L 51.171875 15.578125 
Q 49.03125 7.625 43.21875 3.21875 
Q 37.40625 -1.171875 28.375 -1.171875 
Q 17 -1.171875 10.328125 5.828125 
Q 3.65625 12.84375 3.65625 25.484375 
Q 3.65625 38.578125 10.390625 45.796875 
Q 17.140625 53.03125 27.875 53.03125 
Q 38.28125 53.03125 44.875 45.953125 
Q 51.46875 38.875 51.46875 26.03125 
Q 51.46875 25.25 51.421875 23.6875 
L 12.75 23.6875 
Q 13.234375 15.140625 17.578125 10.59375 
Q 21.921875 6.0625 28.421875 6.0625 
Q 33.25 6.0625 36.671875 8.59375 
Q 40.09375 11.140625 42.09375 16.703125 
M 13.234375 30.90625 
L 42.1875 30.90625 
Q 41.609375 37.453125 38.875 40.71875 
Q 34.671875 45.796875 27.984375 45.796875 
Q 21.921875 45.796875 17.796875 41.75 
Q 13.671875 37.703125 13.234375 30.90625 
" id="ArialMT-65"/>
      <path d="M 49.703125 51.859375 
L 49.703125 0 
L 41.84375 0 
L 41.84375 6.15625 
Q 39.3125 2.25 36.8125 0.78125 
Q 33.40625 -1.21875 28.859375 -1.21875 
Q 24.8125 -1.21875 21.6875 0.390625 
Q 19.34375 1.609375 16.5 5.21875 
L 16.5 -19.875 
L 7.8125 -19.875 
L 7.8125 51.859375 
L 16.5 51.859375 
L 16.5 29.890625 
Q 16.5 17.921875 17.765625 14.375 
Q 19.046875 10.84375 21.890625 8.78125 
Q 24.75 6.734375 28.46875 6.734375 
Q 32.375 6.734375 35.453125 8.875 
Q 38.53125 11.03125 39.796875 14.421875 
Q 41.0625 17.828125 41.0625 29.734375 
L 41.0625 51.859375 
z
" id="ArialMT-3bc"/>
     </defs>
     <g transform="translate(275.486953 158.732422)rotate(-90)scale(0.075 -0.075)">
      <use transform="translate(0 0.203125)" xlink:href="#Arial-ItalicMT-49"/>
      <use transform="translate(27.783203 -29.665625)scale(0.7)" xlink:href="#ArialMT-64"/>
      <use transform="translate(71.691992 0.203125)" xlink:href="#ArialMT-20"/>
      <use transform="translate(99.475195 0.203125)" xlink:href="#ArialMT-47"/>
      <use transform="translate(177.258398 0.203125)" xlink:href="#ArialMT-72"/>
      <use transform="translate(210.55918 0.203125)" xlink:href="#ArialMT-61"/>
      <use transform="translate(266.174414 0.203125)" xlink:href="#ArialMT-70"/>
      <use transform="translate(321.789648 0.203125)" xlink:href="#ArialMT-68"/>
      <use transform="translate(377.404883 0.203125)" xlink:href="#ArialMT-65"/>
      <use transform="translate(433.020117 0.203125)" xlink:href="#ArialMT-6e"/>
      <use transform="translate(488.635352 0.203125)" xlink:href="#ArialMT-65"/>
      <use transform="translate(544.250586 0.203125)" xlink:href="#ArialMT-20"/>
      <use transform="translate(572.033789 0.203125)" xlink:href="#ArialMT-28"/>
      <use transform="translate(605.33457 0.203125)" xlink:href="#ArialMT-3bc"/>
      <use transform="translate(662.951758 0.203125)" xlink:href="#ArialMT-41"/>
      <use transform="translate(729.650977 0.203125)" xlink:href="#ArialMT-29"/>
     </g>
    </g>
   </g>
   <g id="line2d_57">
    <path clip-path="url(#pfd05a64a32)" d="M 48.924201 103.544857 
L 51.842836 109.071765 
L 52.815714 110.428041 
L 58.652983 117.200607 
L 61.571618 120.030192 
L 63.517374 122.086249 
L 69.354644 127.541816 
L 70.327522 128.744189 
L 73.246156 131.442314 
L 78.110548 136.101108 
L 79.083426 137.097475 
L 80.056304 137.90066 
L 83.947817 141.94945 
L 86.866451 145.057985 
L 88.812208 147.190193 
L 90.757964 149.292742 
L 95.622355 155.08337 
L 99.513868 159.900076 
L 105.351138 167.913491 
L 109.24265 173.896499 
L 113.134163 179.98772 
L 120.917189 193.928833 
L 121.890067 195.733996 
L 130.645971 214.621912 
L 136.48324 228.379463 
L 140.374753 237.403191 
L 142.32051 241.384649 
L 144.266266 244.725242 
L 146.212022 247.28846 
L 147.184901 248.22054 
L 148.157779 248.879921 
L 149.130657 249.326322 
L 150.103535 249.529844 
L 151.076414 249.519904 
L 152.049292 249.276784 
L 153.02217 248.831025 
L 153.995048 248.235529 
L 155.940805 246.602306 
L 157.886561 244.50136 
L 160.805196 241.017444 
L 169.5611 230.212761 
L 172.479734 226.969881 
L 176.371247 222.68254 
L 185.127151 214.210139 
L 190.96442 209.252355 
L 192.910177 207.739289 
L 200.693202 202.208053 
L 204.584715 199.953523 
L 205.557593 199.268972 
L 213.340619 195.305951 
L 216.259254 194.142054 
L 220.150767 192.360137 
L 221.123645 192.094012 
L 222.096523 191.698031 
L 223.069401 191.49523 
L 224.042279 191.00867 
L 226.960914 190.404277 
L 227.933792 189.920923 
L 228.906671 189.714917 
L 229.879549 189.361419 
L 231.825305 189.093691 
L 232.798183 188.98708 
L 233.771062 188.56144 
L 235.716818 188.384291 
L 238.635453 187.763866 
L 239.608331 187.767874 
L 240.581209 187.403956 
L 243.499844 187.14745 
L 243.499844 187.14745 
" style="fill:none;stroke:#4286f4;stroke-dasharray:5.6,2.4;stroke-dashoffset:0;stroke-width:0.85;"/>
   </g>
   <g id="line2d_58">
    <path clip-path="url(#pfd05a64a32)" d="M 48.924201 10.71 
L 49.897079 14.801185 
L 50.869958 17.144476 
L 52.815714 20.917701 
L 54.76147 23.851491 
L 58.652983 29.212738 
L 64.490253 36.529845 
L 91.730843 69.604452 
L 110.215529 93.379373 
L 115.07992 100.024042 
L 117.025676 102.65234 
L 123.835824 111.854501 
L 125.78158 114.533121 
L 131.618849 122.414453 
L 134.537484 126.4807 
L 142.32051 137.004135 
L 147.184901 143.560184 
L 155.940805 155.598164 
L 161.778074 164.026798 
L 168.588221 174.694963 
L 174.425491 184.470255 
L 177.344125 189.66228 
L 180.26276 195.178499 
L 187.072907 209.243145 
L 189.018664 213.53339 
L 190.96442 217.820518 
L 193.883055 225.006254 
L 199.720324 238.01299 
L 200.693202 239.855916 
L 201.666081 241.449773 
L 203.611837 243.799789 
L 205.557593 245.255951 
L 206.530472 245.702967 
L 207.50335 245.999463 
L 208.476228 246.104604 
L 210.421985 245.888444 
L 212.367741 245.227317 
L 215.286376 243.395925 
L 216.259254 242.77599 
L 218.20501 241.278502 
L 219.177888 240.28405 
L 222.096523 237.86737 
L 225.988036 234.063685 
L 226.960914 232.820343 
L 227.933792 231.910992 
L 229.879549 229.464386 
L 230.852427 228.611147 
L 231.825305 227.374484 
L 234.74394 224.698536 
L 237.662574 221.472169 
L 238.635453 220.607351 
L 240.581209 218.20305 
L 243.499844 215.820571 
L 243.499844 215.820571 
" style="fill:none;stroke:#f49b41;stroke-dasharray:5.6,2.4;stroke-dashoffset:0;stroke-width:0.85;"/>
   </g>
   <g id="patch_7">
    <path d="M 48.924201 249.529844 
L 48.924201 10.71 
" style="fill:none;stroke:#000000;stroke-linecap:square;stroke-linejoin:miter;stroke-width:0.85;"/>
   </g>
   <g id="patch_8">
    <path d="M 243.499844 249.529844 
L 243.499844 10.71 
" style="fill:none;stroke:#000000;stroke-linecap:square;stroke-linejoin:miter;stroke-width:0.85;"/>
   </g>
   <g id="patch_9">
    <path d="M 48.924201 249.529844 
L 243.499844 249.529844 
" style="fill:none;stroke:#000000;stroke-linecap:square;stroke-linejoin:miter;stroke-width:0.85;"/>
   </g>
   <g id="patch_10">
    <path d="M 48.924201 10.71 
L 243.499844 10.71 
" style="fill:none;stroke:#000000;stroke-linecap:square;stroke-linejoin:miter;stroke-width:0.85;"/>
   </g>
  </g>
 </g>
 <defs>
  <clipPath id="pfd05a64a32">
   <rect height="238.819844" width="194.575643" x="48.924201" y="10.71"/>
  </clipPath>
 </defs>
</svg>
